<svg width="843" height="587" viewBox="0 0 843 587" fill="none" xmlns="http://www.w3.org/2000/svg">
<g opacity="0.08">
<path d="M30.4283 400.13C29.0645 400.421 27.9377 401.193 26.7573 401.878C19.1003 406.327 11.4351 410.764 3.76568 415.191C2.58736 415.87 1.40904 416.582 0 416.695C0 416.144 0 415.596 0 415.045C4.01082 413.128 7.88156 410.966 11.5319 408.417C18.3216 404.918 24.9178 401.087 31.3182 396.921C35.6092 395.078 39.4222 392.376 43.5113 390.177C45.2706 389.232 44.9059 387.264 46.0595 386.119C48.1628 387.178 48.5439 389.001 48.2843 391.116C42.7594 394.955 37.4941 399.334 30.4283 400.13Z" fill="#969EB2"/>
<path d="M0 483.532C1.67478 483.744 3.0591 484.648 4.46814 485.465C12.2446 489.968 20.0047 494.502 27.7853 498.997C28.601 499.467 29.5239 499.754 30.3974 500.125C37.2819 501.538 43.4021 504.218 47.413 510.411C47.8208 511.958 47.5489 513.253 46.0657 514.105C44.3786 510.489 44.3806 510.485 40.6541 508.445C37.5414 506.741 34.4247 505.043 31.3079 503.341C27.7276 500.577 23.6035 498.708 19.7595 496.379C17.0815 494.756 14.2717 493.347 11.5216 491.843C7.89598 489.254 3.9861 487.152 0 485.182C0 484.631 0 484.083 0 483.532Z" fill="#969EB2"/>
<path d="M758.935 510.044C760.126 509.744 761.302 509.289 762.509 509.177C765.181 508.932 767.56 510.489 768.718 513.039C769.748 515.304 769.332 518.07 767.509 519.89C765.64 521.754 763.422 522.644 760.779 521.616C759.887 521.27 759.03 520.834 758.156 520.438C757.823 519.842 757.46 519.262 757.163 518.65C755.983 516.226 756.193 513.897 757.709 511.684C758.094 511.118 758.525 510.588 758.935 510.044Z" fill="#969EB2"/>
<path d="M786.156 504.15C784.753 505.359 783.325 504.884 781.961 504.129C779.088 502.539 776.27 500.851 773.39 499.271C768.841 496.773 764.54 493.825 759.746 491.775C757.8 490.531 755.849 489.293 753.906 488.041C752.878 487.379 751.84 486.725 750.857 485.999C750.342 485.619 750.497 485.031 750.691 484.501C750.86 484.097 751.138 483.796 751.523 483.591C754.079 483.026 756.01 484.6 757.936 485.735C766.287 490.651 774.628 495.579 783.049 500.373C784.483 501.19 786.444 501.809 786.156 504.15Z" fill="#969EB2"/>
<path d="M698.795 575.946C701.037 576.6 702.833 578.085 704.837 579.182C708.863 581.387 712.869 583.626 716.882 585.849C720.246 587.908 723.571 590.035 726.982 592.013C733.463 595.772 739.995 599.444 746.505 603.151C747.325 604.557 747.078 605.69 745.642 606.517C744.801 604.714 743.434 603.444 741.728 602.457C734.975 598.546 728.251 594.584 721.484 590.697C720.31 590.023 718.979 589.622 717.721 589.094C717.181 588.261 716.388 587.747 715.543 587.26C710.675 584.459 705.814 581.645 700.965 578.809C699.755 578.101 698.513 577.592 697.096 577.592C696.904 576.257 697.374 575.609 698.795 575.946Z" fill="#969EB2"/>
<path d="M716.056 501.685C710.092 504.633 704.396 508.044 698.779 511.599C697.852 511.279 697.489 510.611 697.58 509.66C697.92 508.028 699.129 507.044 700.429 506.31C714.966 498.087 729.057 489.074 744.014 481.586C744.676 481.436 745.316 481.547 745.957 481.714C747.038 482.273 747.844 482.979 747.356 484.365C746.241 484.381 745.17 484.592 744.204 485.174C735.517 490.399 726.486 495.04 717.976 500.567C717.863 500.639 717.778 500.756 717.681 500.853C717.405 500.876 717.129 500.899 716.853 500.921C716.579 501.165 716.314 501.421 716.056 501.685Z" fill="#969EB2"/>
<path d="M747.358 484.363C746.777 483.81 746.196 483.255 745.615 482.702C743.664 479.802 744.764 477.941 747.657 476.687C748.413 476.565 749.173 476.559 749.935 476.625C751.952 476.922 753.107 478.121 753.54 480.076C753.505 481.815 753.585 483.625 751.336 484.175C751.107 484.256 750.893 484.365 750.693 484.501C749.579 484.456 748.468 484.411 747.358 484.363Z" fill="#969EB2"/>
<path d="M631.991 225.334C634.008 227.535 636.668 228.556 639.426 229.394C639.856 230.718 639.065 231.358 638.05 231.877C636.157 232.424 634.573 231.56 633.042 230.671C621.389 223.896 609.671 217.233 598.028 210.44C596.252 209.405 594.672 208.122 592.95 207.028C592.573 206.896 592.196 206.772 591.807 206.671C591.407 206.558 591.043 206.374 590.697 206.147C590.348 205.906 590.066 205.601 589.831 205.248C589.504 204.703 589.199 204.151 589.115 203.505C589.102 202.146 589.454 200.994 590.88 200.47C591.636 201.964 592.68 203.092 594.197 203.95C600.616 207.594 606.962 211.366 613.34 215.08C617.829 217.693 622.338 220.272 626.819 222.898C628.473 223.869 630.098 224.884 631.991 225.334Z" fill="#969EB2"/>
<path d="M586.602 197.84C586.629 186.16 586.661 174.481 586.682 162.801C586.692 157.441 586.678 152.082 586.686 146.723C586.688 145.066 586.678 143.418 585.883 141.898C586.97 140.895 588.058 140.893 589.144 141.902C588.435 143.292 588.342 144.79 588.347 146.314C588.377 163.485 588.396 180.657 588.419 197.828C587.817 198.498 587.212 198.494 586.602 197.84Z" fill="#969EB2"/>
<path d="M632.836 175.772C633.489 175.617 634.14 175.353 634.797 175.328C636.884 175.254 638.452 176.737 638.499 178.732C638.54 180.459 637.094 182.006 635.156 182.097C634.387 182.132 633.598 181.76 632.82 181.575C631.563 179.636 631.575 177.701 632.836 175.772Z" fill="#969EB2"/>
<path d="M589.146 141.904C588.058 141.902 586.97 141.902 585.885 141.9C585.504 141.516 585.001 141.196 584.762 140.738C583.849 138.995 584.086 137.411 585.324 136.285C586.468 135.245 587.737 135.148 589.442 136.031C589.918 136.279 590.324 136.662 590.763 136.984C590.954 138.865 590.985 140.693 589.146 141.904Z" fill="#969EB2"/>
<path d="M586.602 197.84C587.207 197.838 587.813 197.834 588.42 197.83C589.492 198.474 590.386 199.284 590.88 200.471C590.742 201.628 590.579 202.781 590.003 203.823C589.97 204.217 589.865 204.59 589.677 204.943C589.418 205.252 589.106 205.489 588.742 205.661C587.951 205.865 587.149 205.848 586.342 205.789C585.932 205.733 585.547 205.603 585.188 205.395C584.717 204.998 584.296 204.561 584.022 204C583.798 202.826 583.551 201.65 584.136 200.499C584.612 199.293 585.516 198.482 586.602 197.84Z" fill="#969EB2"/>
<path d="M736.613 223.63C738.837 225.726 741.686 226.861 744.181 228.542C745.114 229.169 746.206 229.353 747.323 229.355C747.829 230.739 746.898 231.323 745.928 231.89C742.566 232.659 740.152 230.433 737.647 228.963C725.942 222.087 714.171 215.323 702.365 208.625C700.324 207.466 699.17 205.698 697.765 204.045C697.473 203.074 697.893 202.484 698.781 202.146C703.255 204.802 707.707 207.499 712.21 210.108C719.204 214.158 726.236 218.139 733.238 222.174C734.314 222.793 735.368 223.422 736.613 223.63Z" fill="#969EB2"/>
<path d="M736.526 166.735C737.027 167.37 737.674 167.939 737.999 168.655C739.058 170.978 737.917 172.995 735.375 173.381C734.716 173.48 734.028 173.385 733.352 173.381C732.149 172.036 731.218 170.588 732.122 168.719C733.022 166.867 734.722 166.648 736.526 166.735Z" fill="#969EB2"/>
<path d="M698.781 202.146C698.491 202.692 698.2 203.239 697.908 203.788C697.768 204.2 697.477 204.442 697.059 204.541L697.1 204.561C696.021 205.349 694.919 205.192 693.808 204.644C693.203 203.928 692.436 203.342 692.185 202.36C691.592 200.033 692.675 198.329 695.057 197.997C695.716 197.904 696.404 198.022 697.077 198.043C698.033 199.247 698.863 200.508 698.781 202.146Z" fill="#969EB2"/>
<path d="M751.333 484.175C752.306 483.02 752.283 481.597 752.405 480.212C754.257 479.61 754.92 481.537 756.265 482.019C756.551 482.259 756.805 482.531 757.038 482.822C757.301 483.082 757.575 483.333 757.866 483.56C763.994 486.436 769.647 490.166 775.594 493.365C776.134 493.545 776.618 493.819 777.059 494.17C777.324 494.421 777.59 494.673 777.868 494.912C778.153 495.137 778.443 495.356 778.752 495.548C778.923 495.618 779.086 495.702 779.259 495.768C782.532 497.633 786.244 498.863 788.527 502.174C788.663 502.563 788.706 502.962 788.683 503.372C788.574 504.005 788.185 504.478 787.771 504.934C787.231 504.672 786.693 504.41 786.154 504.148C783.389 501.615 779.895 500.247 776.752 498.326C770.45 494.477 764.027 490.824 757.631 487.129C755.622 485.97 753.616 484.769 751.333 484.175Z" fill="#969EB2"/>
<path d="M787.773 504.934C787.767 504.397 787.763 503.859 787.756 503.323C788.067 503.038 788.413 502.807 788.793 502.623C789.211 502.514 789.627 502.512 790.047 502.617C794.422 504.369 799.084 505.699 801.426 510.431C801.696 511.952 801.49 513.286 799.997 514.118C799.756 514.105 799.515 514.087 799.274 514.064C799.404 512.067 798.588 510.732 796.721 509.864C793.629 508.428 790.986 506.161 787.773 504.934Z" fill="#969EB2"/>
<path d="M535.594 229.398C537.421 229.179 538.948 228.208 540.48 227.325C549.616 222.056 558.728 216.742 567.85 211.447C569.151 210.69 570.46 209.941 571.776 209.211C572.738 208.677 573.729 208.192 574.246 207.134C574.553 207.138 574.862 207.142 575.171 207.148C575.694 207.552 575.966 208.091 576.032 208.743C575.923 211.001 574.26 212.008 572.59 213.011C566.004 216.965 559.334 220.769 552.593 224.449C552.255 224.618 551.907 224.775 551.569 224.948C551.256 225.159 550.966 225.4 550.712 225.683C550.576 225.819 550.438 225.951 550.309 226.093C549.866 226.483 549.363 226.772 548.815 226.986C546.135 228.049 543.857 229.856 541.263 231.079C539.895 231.725 538.525 232.354 536.945 231.886C535.936 231.362 535.159 230.708 535.594 229.398Z" fill="#969EB2"/>
<path d="M575.16 208.914C575.164 208.324 575.166 207.734 575.17 207.146C577.051 206.067 578.887 204.897 580.825 203.936C582.38 203.167 583.369 201.972 584.136 200.501C584.284 201.65 584.432 202.799 585.009 203.835C585.017 204.287 584.993 204.734 584.762 205.141C584.609 205.399 584.412 205.621 584.193 205.826C583.88 206.125 583.528 206.379 583.167 206.62C582.957 206.81 582.72 206.958 582.481 207.107C582.267 207.288 582.026 207.429 581.785 207.569C581.672 207.651 581.546 207.711 581.431 207.794C581.206 207.971 580.959 208.103 580.708 208.235C580.471 208.408 580.211 208.53 579.95 208.652C579.556 208.873 579.14 209.029 578.705 209.145C578.405 209.229 578.108 209.318 577.815 209.43C577.362 209.65 576.886 209.725 576.388 209.685C575.875 209.597 575.455 209.353 575.16 208.914Z" fill="#969EB2"/>
<path d="M644.45 292.878C645.724 296.872 649.12 298.273 652.598 299.576C654.38 301.313 656.609 302.382 658.732 303.572C664.659 306.893 670.355 310.625 676.5 313.552C681.809 317.001 687.09 320.5 693.073 322.732C693.917 324.229 693.903 325.618 692.553 326.837C691.898 327.198 691.198 327.194 690.613 326.783C678.517 318.272 665.003 312.125 652.682 303.98C649.104 301.982 644.759 301.002 642.949 296.643C642.685 295.079 642.94 293.726 644.45 292.878Z" fill="#969EB2"/>
<path d="M50.1797 329.139C50.19 345.642 50.1942 362.145 50.2127 378.646C50.2148 380.57 50.2848 382.495 50.3219 384.42C49.5041 385.241 48.6574 385.23 47.7881 384.506C48.7377 382.728 48.5379 380.789 48.54 378.887C48.5523 362.363 48.5523 345.84 48.5544 329.319C49.0447 328.801 49.5885 328.743 50.1797 329.139Z" fill="#969EB2"/>
<path d="M50.1796 329.139C49.6378 329.199 49.0961 329.259 48.5543 329.319C48.0022 328.945 47.3698 328.65 46.9145 328.182C44.8937 326.107 45.3922 323.555 48.0475 322.394C48.6449 322.132 49.3391 322.092 49.988 321.952C53.5127 324.902 53.5457 326.107 50.1796 329.139Z" fill="#969EB2"/>
<path d="M47.7876 384.506C48.6322 384.477 49.4768 384.449 50.3214 384.42C52.3444 385.519 52.777 387.37 52.6925 389.461C52.6925 390.761 52.056 391.619 50.8776 392.11C49.6519 392.388 48.5787 392.221 47.8412 391.068C46.0181 389.864 45.8924 388.044 46.0572 386.119C46.6361 385.581 47.2129 385.045 47.7876 384.506Z" fill="#969EB2"/>
<path d="M405.39 405.929C405.641 405.968 405.894 405.995 406.148 406.011C406.644 406.478 407.073 407.057 407.647 407.392C411.909 409.871 416.194 412.311 420.485 414.741C421.684 415.42 422.922 416.041 424.381 415.614C424.381 415.612 424.348 415.996 424.348 415.996C425.155 417.848 424.405 419.179 422.922 420.264C417.945 418.492 413.988 414.925 409.384 412.485C408.329 411.926 407.487 410.958 406.246 410.694C399.362 406.915 392.603 402.919 385.857 398.897C381.8 396.33 377.05 394.849 373.738 391.114C373.641 389.861 374.286 389.071 375.34 388.537C379.487 387.708 382.083 390.649 385.105 392.566C385.335 392.935 385.492 393.335 385.581 393.762C385.601 393.977 385.622 394.191 385.642 394.406C387.733 395.705 389.801 397.04 391.917 398.298C395.217 400.262 398.532 402.199 401.873 404.089C402.695 404.555 403.641 404.803 404.53 405.151C404.807 405.419 405.13 405.638 405.39 405.929Z" fill="#969EB2"/>
<path d="M426.632 228.657C428.292 229.705 429.743 230.908 429.17 233.173C428.655 235.209 426.974 235.698 425.184 235.978C422.131 233.515 422.053 233.206 423.55 229.487C423.993 228.855 424.809 229.004 425.369 228.618C425.79 228.633 426.212 228.645 426.632 228.657Z" fill="#969EB2"/>
<path d="M428.501 297.074C427.219 297.85 425.812 297.976 424.362 297.864C421.979 294.646 421.979 294.172 424.356 291.201C428.455 291.43 428.618 291.566 429.407 295.374C429.737 296.278 429.215 296.73 428.501 297.074Z" fill="#969EB2"/>
<path d="M425.369 228.62C424.764 228.909 424.156 229.198 423.55 229.489C424.02 228.911 424.648 228.668 425.369 228.62Z" fill="#969EB2"/>
<path d="M822.327 502.5C819.637 503.459 817.313 505.122 814.819 506.452C813.628 507.087 812.501 507.851 811.296 508.455C808.818 509.697 806.607 511.155 805.985 514.126C804.498 513.334 804.238 512.061 804.585 510.553C804.865 508.208 806.628 507.18 808.424 506.093C821.413 498.227 834.671 490.824 847.828 483.257C849.968 482.028 850.827 478.707 854.074 479.361C855.712 480.858 855.58 482.529 854.552 484.285C853.596 484.371 852.686 484.567 851.833 485.066C842.202 490.704 832.563 496.325 822.931 501.959C822.704 502.091 822.527 502.316 822.327 502.5Z" fill="#969EB2"/>
<path d="M486.994 320.193C489.4 318.934 491.848 317.752 494.202 316.403C498.691 313.833 503.124 311.17 507.58 308.546C508.808 305.992 510.919 304.507 513.325 303.075C518.539 299.975 524.262 297.648 528.716 293.33C529.432 292.635 530.32 292.295 531.262 293.066C532.234 294.153 532.428 295.399 532.034 296.769C531.361 299.463 529.02 300.573 526.944 301.734C520.204 305.499 513.651 309.604 506.729 313.039C501.754 316.659 496.277 319.456 490.871 322.319C488.072 323.803 486.139 326.909 482.528 326.878C481.117 325.676 481.097 324.273 481.937 322.749C483.826 322.297 485.542 321.507 486.994 320.193Z" fill="#969EB2"/>
<path d="M428.5 297.074C428.803 296.507 429.104 295.942 429.407 295.374C432.798 297.373 436.145 299.45 439.594 301.34C441.602 302.44 443.337 304.102 445.714 304.49C446.008 304.752 446.338 304.975 446.595 305.278C446.865 305.323 447.137 305.363 447.409 305.4C447.963 306.223 448.769 306.722 449.609 307.205C454.473 310.006 459.314 312.849 464.19 315.627C465.129 316.164 466.19 316.483 467.195 316.904C469.744 319.262 473.005 320.461 475.918 322.224C476.461 322.552 477.234 322.499 477.901 322.62C478.425 323.904 477.654 324.57 476.707 325.156C473.062 325.882 470.697 323.446 468.075 321.645C467.723 321.474 467.371 321.3 467.016 321.137C466.652 320.997 466.283 320.861 465.91 320.741C461.397 318.284 457.085 315.458 452.477 313.181C449.941 311.929 448.53 309.6 446.606 307.762C443.065 305.024 438.957 303.226 435.185 300.868C433.018 299.51 430.734 298.332 428.5 297.074Z" fill="#969EB2"/>
<path d="M501.015 214.593C496.689 211.961 492.437 209.2 487.81 207.098C486.084 205.739 484.287 204.503 482.147 203.878C481.02 202.226 481.132 200.796 482.901 199.664C483.183 200.246 483.546 200.805 483.731 201.415C483.989 202.259 484.51 202.748 485.32 202.985C485.585 203.245 485.855 203.499 486.131 203.746C486.401 203.781 486.671 203.808 486.941 203.827C490.136 206.595 494.079 208.14 497.622 210.339C499.338 211.404 501.169 212.282 502.665 213.677C502.854 213.854 502.943 214.052 502.933 214.269C502.922 214.494 502.891 214.607 502.842 214.607C502.582 214.857 502.273 214.999 501.919 215.049C501.563 215.009 501.262 214.853 501.015 214.593Z" fill="#969EB2"/>
<path d="M476.224 324.275C476.785 323.724 477.345 323.171 477.905 322.621C479.273 321.956 480.612 322.161 481.939 322.748C482.866 323.939 482.907 325.366 483.01 326.775C483.395 328.894 482.258 329.888 480.384 330.338C479.646 330.408 478.915 330.385 478.19 330.204C475.4 328.939 474.243 327.128 476.224 324.275Z" fill="#969EB2"/>
<path d="M482.901 199.662C482.911 201.114 482.876 202.558 482.147 203.876C481.374 204.118 480.608 204.538 479.829 204.565C477.907 204.631 476.395 203.098 476.397 201.283C476.4 199.278 478.14 197.795 480.231 197.981C481.42 198.088 482.231 198.75 482.901 199.662Z" fill="#969EB2"/>
<path d="M486.131 203.746C485.861 203.493 485.589 203.239 485.319 202.985C485.591 203.239 485.861 203.493 486.131 203.746Z" fill="#969EB2"/>
<path d="M822.344 211.22C822.615 211.249 822.887 211.278 823.159 211.302C824.663 213.277 827.108 213.875 828.987 215.302L828.962 215.344C829.391 215.899 829.492 216.484 829.137 217.118C826.509 218.768 824.752 216.326 822.601 215.727C817.797 213.258 813.298 210.252 808.562 207.664C806.706 206.649 805.307 205.287 804.543 203.29C804.288 201.764 804.492 200.419 806.014 199.608C806.762 201.89 808.123 203.464 810.406 204.526C813.218 205.836 815.811 207.616 818.491 209.205C819.431 209.762 820.391 210.252 821.487 210.415C821.761 210.698 822.092 210.915 822.344 211.22Z" fill="#969EB2"/>
<path d="M849.456 132.836C849.526 134.76 848.152 136.188 846.211 136.206C844.322 136.225 843.039 135.103 842.936 133.341C842.824 131.443 844.159 129.816 845.952 129.661C847.742 129.504 849.39 131 849.456 132.836Z" fill="#969EB2"/>
<path d="M687.752 294.731C684.443 294.661 681.695 291.973 681.681 288.792C681.664 285.547 684.76 282.533 688.052 282.583C691.363 282.632 693.921 285.283 693.921 288.66C693.919 292.416 691.486 294.811 687.752 294.731Z" fill="#969EB2"/>
<path d="M696.072 321.915C696.418 322.152 696.764 322.389 697.112 322.627C698.171 323.384 699.642 323.704 699.937 325.282C700.26 327.749 699.125 329.319 696.908 330.226C696.237 330.4 695.549 330.424 694.861 330.395C694.408 330.373 693.969 330.276 693.546 330.107C692.43 329.275 691.474 328.368 692.016 326.771C692.115 325.358 692.177 323.933 693.075 322.73C694.074 322.46 695.073 322.187 696.072 321.915Z" fill="#969EB2"/>
<path d="M693.808 204.642C694.906 204.615 696.002 204.586 697.1 204.559C696.029 205.595 694.929 205.582 693.808 204.642Z" fill="#969EB2"/>
<path d="M446.598 305.278C446.305 305.016 446.01 304.752 445.716 304.49C446.008 304.752 446.303 305.016 446.598 305.278Z" fill="#969EB2"/>
<path d="M641.948 236.063C641.943 252.587 641.939 269.112 641.939 285.636C641.939 287.544 641.793 289.475 642.732 291.251C641.737 292.078 640.718 292.051 639.68 291.339C638.161 289.792 638.394 287.781 638.382 285.906C638.277 271.111 638.281 256.316 638.38 241.523C638.392 239.648 638.155 237.637 639.663 236.078C640.421 235.51 641.183 235.486 641.948 236.063Z" fill="#969EB2"/>
<path d="M640.192 291.191C641.039 291.211 641.886 291.232 642.732 291.253C643.305 291.795 643.878 292.338 644.45 292.878C644.413 294.238 644.376 295.595 644.337 296.954C642.769 300.115 640.582 299.875 638.112 298.095C637.415 297.35 636.894 296.501 636.608 295.512C636.332 292.849 637.051 291.011 640.192 291.191Z" fill="#969EB2"/>
<path d="M641.948 236.063C641.414 236.007 640.88 235.95 640.349 235.894C636.736 235.079 636.4 234.437 637.801 231.044C638.343 230.493 638.886 229.942 639.428 229.394C640.598 228.859 641.754 228.725 642.93 229.404C644.92 230.553 645.373 232.837 643.855 234.557C643.328 235.155 642.59 235.566 641.948 236.063Z" fill="#969EB2"/>
<path d="M616.364 592.475C611.807 589.777 607.261 587.062 602.69 584.387C599.293 582.398 595.865 580.459 592.45 578.499C591.58 578.136 590.711 577.771 589.844 577.408C589.211 576.051 589.456 574.914 590.688 574.021C593.855 573.831 595.805 576.325 598.199 577.672C610.668 584.688 623.008 591.939 635.432 599.037C637.386 600.155 639.067 601.43 639.902 603.607C640.213 605.11 639.988 606.422 638.583 607.309C637.504 604.83 635.629 603.301 633.221 602.051C629.006 599.867 624.971 597.335 620.884 594.909C619.71 594.212 618.57 593.482 617.196 593.245L617.194 593.267C616.916 593.008 616.638 592.741 616.364 592.475Z" fill="#969EB2"/>
<path d="M550.424 597.401C545.89 599.609 541.552 602.16 537.289 604.848C536.362 604.572 535.959 603.928 535.979 602.984C536.552 600.745 538.443 599.796 540.217 598.817C543.914 596.77 547.503 594.528 551.258 592.585C561.187 586.431 571.644 581.156 581.31 574.568C582.315 573.883 583.063 572.785 584.509 573.32C585.928 574.485 586.023 575.874 585.195 577.414C581.79 578.512 578.945 580.678 575.873 582.394C569.351 586.037 562.928 589.856 556.449 593.573C554.915 594.454 553.38 595.32 552.078 596.539C551.796 596.572 551.514 596.605 551.231 596.638C550.953 596.884 550.686 597.137 550.424 597.401Z" fill="#969EB2"/>
<path d="M585.192 577.412C584.257 576.251 584.28 574.846 584.195 573.47C583.623 571.372 584.764 570.413 586.564 569.891C587.277 569.805 587.988 569.809 588.698 569.922C590.785 570.687 592.048 571.876 590.921 574.283C590.756 575.393 590.536 576.484 589.844 577.41C588.295 578.186 586.743 578.174 585.192 577.412Z" fill="#969EB2"/>
<path d="M805.862 509.967C805.903 511.353 805.944 512.74 805.986 514.124C803.237 516.337 802.741 516.335 799.997 514.118C800.049 512.74 800.098 511.362 800.15 509.986C800.568 508.049 801.956 507.727 803.635 507.88C804.278 508.034 804.817 508.36 805.244 508.87C805.427 509.245 805.633 509.612 805.862 509.967Z" fill="#969EB2"/>
<path d="M676.512 586.677C670.917 589.299 665.802 592.774 660.432 595.794C657.218 597.602 653.844 599.165 650.958 601.525H650.96C650.523 602.014 649.757 601.853 649.331 602.361L649.312 602.371C649.03 602.649 648.727 602.903 648.435 603.167C647.363 603.448 646.29 603.726 645.219 604.007C643.767 604.376 643.34 603.541 643.239 602.317C644.366 600.001 646.737 599.543 648.779 598.588C662.288 589.808 676.931 582.918 690.185 573.714C690.881 573.229 691.635 572.936 692.49 573.349C693.905 574.551 693.921 575.956 693.087 577.485C692.317 577.757 691.482 577.916 690.786 578.318C686.536 580.767 682.103 582.91 678.142 585.847L678.148 585.845C677.72 586.347 676.937 586.159 676.512 586.677Z" fill="#969EB2"/>
<path d="M693.091 577.483C692.178 576.288 692.125 574.867 692.018 573.458C691.606 571.436 692.665 570.525 694.48 570.182C695.186 570.225 695.746 570.564 696.22 571.071C698.115 572.148 698.939 573.79 698.799 575.946C698.235 576.494 697.668 577.043 697.102 577.592C695.742 578.287 694.414 578.002 693.091 577.483Z" fill="#969EB2"/>
<path d="M519.083 546.465C519.186 548.31 517.826 549.881 515.954 550.084C514.191 550.275 512.569 548.796 512.456 546.892C512.345 545.005 513.709 543.404 515.546 543.268C517.336 543.138 518.98 544.625 519.083 546.465Z" fill="#969EB2"/>
<path d="M801.707 197.968C801.733 182.255 801.754 166.543 801.787 150.83C801.793 148.099 801.847 145.365 801.878 142.634C802.45 142.267 802.973 142.321 803.447 142.816C803.443 159.339 803.437 175.861 803.437 192.384C803.437 194.29 803.274 196.223 804.255 197.989C803.4 198.767 802.549 198.771 801.707 197.968Z" fill="#969EB2"/>
<path d="M803.45 142.816C802.926 142.756 802.403 142.696 801.88 142.634C800.244 141.516 799.313 140.016 799.371 137.982C799.861 137.504 800.306 136.963 800.85 136.555C802.626 135.216 804.156 135.365 805.538 136.945C806.848 138.445 806.746 140.107 805.155 141.673C804.675 142.145 804.022 142.44 803.45 142.816Z" fill="#969EB2"/>
<path d="M801.707 197.968C802.555 197.974 803.404 197.981 804.255 197.987C804.84 198.527 805.425 199.068 806.012 199.608C805.948 200.986 805.886 202.366 805.822 203.746C803.466 206.742 802.691 206.791 799.593 204.157C799.175 202.618 799.71 201.155 799.966 199.668C800.545 199.101 801.126 198.536 801.707 197.968Z" fill="#969EB2"/>
<path d="M752.405 110.278C752.475 113.901 749.996 116.667 746.501 116.867C743.205 117.055 740.139 114.194 740.008 110.806C739.876 107.382 742.581 104.412 745.998 104.232C749.405 104.051 752.337 106.817 752.405 110.278Z" fill="#969EB2"/>
<path d="M799.964 199.668C800.034 201.019 800.106 202.372 800.176 203.724C800.102 206.022 798.369 207.055 796.703 207.952C790.558 211.267 784.736 215.158 778.443 218.203C771.872 222.584 764.958 226.407 758.035 230.174C755.991 231.285 755 234.324 751.962 233.623C750.563 232.414 750.548 231.015 751.393 229.499C754.254 228.723 756.545 226.935 758.906 225.268C759.652 224.944 760.437 224.686 761.139 224.286C765.774 221.654 770.407 219.02 775.007 216.323C776.296 215.568 777.464 214.605 778.688 213.737C781.549 213.093 783.706 211.107 786.201 209.764C789.184 208.159 792.004 206.24 795.038 204.751C797.362 203.61 799.012 202.036 799.964 199.668Z" fill="#969EB2"/>
<path d="M751.393 229.501C752.257 230.712 752.31 232.119 752.374 233.524C752.879 235.57 751.781 236.447 749.982 236.816C749.274 236.781 748.713 236.43 748.204 235.97C746.394 234.842 745.483 233.235 745.607 231.079C746.179 230.504 746.75 229.93 747.323 229.355C748.707 228.637 750.054 228.971 751.393 229.501Z" fill="#969EB2"/>
<path d="M476.214 510.767C474.799 510.642 473.627 509.893 472.451 509.212C463.341 503.925 454.248 498.605 445.145 493.305C443.726 492.48 442.274 491.713 440.836 490.919C440.551 490.644 440.269 490.368 439.985 490.094C439.559 489.539 439.528 488.98 439.962 488.412C441.421 487.395 442.894 487.843 444.202 488.6C451.853 493.039 459.691 497.165 467.049 502.099C470.976 504.119 475.244 505.59 478.235 509.109C478.095 510.314 477.679 511.182 476.214 510.767Z" fill="#969EB2"/>
<path d="M426.766 484.941C426.331 484.994 425.897 485.046 425.462 485.099C424.844 484.78 424.047 484.887 423.54 484.297L423.635 484.171C421.47 483.602 421.501 481.861 421.49 480.14C421.849 478.199 422.988 477.029 424.924 476.644C425.668 476.561 426.414 476.563 427.159 476.66C429.741 477.347 430.841 479.059 430.63 481.683C430.435 483.441 428.939 483.777 427.681 484.375C427.376 484.563 427.071 484.753 426.766 484.941Z" fill="#969EB2"/>
<path d="M427.681 484.375C428.328 483.583 429.133 482.9 429.415 481.857C434.304 481.477 437.468 484.134 440.014 487.884C440.018 488.082 440.02 488.28 440.024 488.478C440.012 489.017 439.999 489.557 439.987 490.096C437.746 488.883 435.498 487.678 433.263 486.453C431.502 485.485 429.825 484.305 427.681 484.375Z" fill="#969EB2"/>
<path d="M422.622 480.214C422.737 481.592 422.718 483.003 423.637 484.173C419.707 485.367 416.505 487.956 412.952 489.864C410.597 491.129 408.146 492.34 406.164 494.227C405.901 494.246 405.641 494.275 405.381 494.316C405.107 494.568 404.836 494.824 404.566 495.079L404.582 495.063C404.162 495.591 403.367 495.393 402.94 495.911C397.012 498.92 391.238 502.205 385.663 505.835C383.23 510.392 378.908 512.313 374.376 513.95C373.404 512.855 373.213 511.613 373.67 510.248C375.483 505.911 380.227 505.301 383.342 502.613C383.667 502.359 384.017 502.145 384.376 501.947C384.732 501.755 385.115 501.633 385.505 501.538C392.577 497.767 399.224 493.26 406.315 489.522C410.857 486.867 415.546 484.46 419.808 481.347C420.671 480.72 421.342 479.75 422.622 480.214Z" fill="#969EB2"/>
<path d="M423.542 484.297C424.181 484.565 424.821 484.831 425.462 485.099C424.72 485.079 424.057 484.862 423.542 484.297Z" fill="#969EB2"/>
<path d="M504.313 214.486C511.642 218.661 518.965 222.846 526.307 227.003C527.937 227.925 529.41 229.289 531.499 229.076C531.54 229.221 531.531 229.363 531.474 229.503C532.607 231.17 532.646 232.775 531.204 234.295C530.405 234.869 529.572 234.685 528.981 234.077C522.799 227.698 514.143 225.142 507.219 219.919C505.021 219.158 503.12 218.046 502.261 215.707C502.236 215.284 502.36 214.906 502.623 214.572C502.638 214.275 502.652 213.976 502.669 213.679C502.951 213.671 503.231 213.665 503.513 213.658L503.497 213.687C503.738 213.982 504.01 214.25 504.313 214.486Z" fill="#969EB2"/>
<path d="M48.5501 570.898C48.5481 554.374 48.5501 537.851 48.5398 521.327C48.5378 519.425 48.7355 517.488 47.8003 515.704C48.8097 514.906 49.8273 514.93 50.8573 515.663C52.3529 517.222 52.1201 519.231 52.1325 521.107C52.2355 535.899 52.2334 550.692 52.1325 565.485C52.1201 567.36 52.355 569.373 50.8306 570.92C50.0642 571.48 49.3041 571.498 48.5501 570.898Z" fill="#969EB2"/>
<path d="M48.5499 570.898C49.0979 570.956 49.6459 571.016 50.1938 571.073C53.3992 571.018 54.1243 572.86 53.667 575.612C53.1952 576.789 51.9407 576.93 51.059 577.565C50.476 577.827 49.8951 578.089 49.3122 578.351C47.5962 577.761 45.9523 577.064 45.7319 574.937C45.5094 572.808 46.9431 571.779 48.5499 570.898Z" fill="#969EB2"/>
<path d="M50.3196 515.795C49.4791 515.766 48.6407 515.735 47.8002 515.706C47.2234 515.172 46.6466 514.638 46.0698 514.103C46.1007 512.734 46.1296 511.364 46.1605 509.992C46.3932 509.678 46.5889 509.342 46.7434 508.979C47.1019 508.459 47.586 508.109 48.1731 507.884C49.2422 507.545 50.2825 507.607 51.2878 508.119C51.8831 508.443 52.3178 508.944 52.7545 509.445C53.3643 510.147 53.834 510.922 54.0441 511.842C54.0255 514.314 53.2675 516.092 50.3196 515.795Z" fill="#969EB2"/>
<path d="M51.0591 577.565C51.6153 577.025 52.1715 576.484 52.7297 575.944C54.3427 574.817 55.9392 575.372 57.3668 576.21C62.078 578.97 67.0158 581.355 71.449 584.581C79.1575 588.634 86.7053 592.971 94.1193 597.542C94.5786 597.886 95.0648 598.192 95.5839 598.443C95.9588 598.561 96.3214 598.707 96.684 598.858C98.3958 600.197 100.695 600.941 101.309 603.407C101.399 604.799 101.059 605.962 99.6174 606.521C98.8861 605.086 98.1363 603.668 96.4017 603.211C93.0501 601.158 89.7232 599.06 86.3386 597.061C82.2454 594.646 78.111 592.3 73.9725 589.959C73.2721 589.563 72.4687 589.348 71.7147 589.049C69.6732 587.176 67.1477 586.052 64.8178 584.639C61.3138 582.512 57.6902 580.583 54.147 578.522C53.1706 577.955 52.1777 577.596 51.0591 577.565Z" fill="#969EB2"/>
<path d="M258.759 579.255C252.478 582.466 246.376 585.984 240.53 589.94C240.264 589.965 240.002 590.004 239.743 590.06C239.465 590.299 239.193 590.542 238.927 590.794C235.233 592.263 231.981 594.544 228.538 596.473C224.851 598.542 221.199 600.675 217.544 602.804C216.961 603.144 216.448 603.605 215.904 604.009L215.888 604.017C215.581 604.26 215.34 604.576 215.029 604.815L215.031 604.776C214.726 605.077 214.37 605.162 213.96 605.028C213.206 604.545 212.833 603.873 212.922 602.963C213.502 600.983 215.078 600.036 216.786 599.223C224.223 594.687 231.834 590.448 239.281 585.922C239.611 585.691 239.969 585.526 240.348 585.402C240.734 585.317 241.121 585.239 241.502 585.142C246.368 581.689 251.6 578.861 256.832 576.034C258.26 575.263 259.729 574.471 261.463 575.106C262.425 575.669 263.319 576.272 262.817 577.623C261.927 577.66 261.037 577.693 260.367 578.413L260.38 578.407C259.962 578.918 259.171 578.724 258.759 579.255Z" fill="#969EB2"/>
<path d="M308.155 600.756C305.965 599.633 303.776 598.511 301.586 597.389C298.008 594.619 293.873 592.77 290.038 590.427C287.364 588.793 284.552 587.388 281.802 585.882C276.99 582.759 272.111 579.754 266.848 577.431C266.039 575.981 266.072 574.634 267.328 573.433C268.688 572.697 269.545 573.565 270.488 574.365C273.263 576.719 276.433 578.454 279.663 580.084C280.205 580.319 280.613 580.733 281.056 581.101C281.388 581.288 281.713 581.486 282.045 581.674C288.575 585.247 295.068 588.886 301.289 592.991C304.41 594.39 307.471 595.873 309.581 598.738C309.694 599.149 309.696 599.561 309.593 599.974C309.303 600.582 308.917 601.018 308.155 600.756Z" fill="#969EB2"/>
<path d="M267.889 573.452C267.755 574.834 267.804 576.265 266.848 577.431C265.53 578.01 264.197 578.27 262.821 577.623C262.242 577.043 261.665 576.461 261.087 575.882C259.14 573.02 260.298 571.203 263.074 569.924C263.806 569.806 264.541 569.8 265.279 569.866C267.197 570.297 268.332 571.3 267.889 573.452Z" fill="#969EB2"/>
<path d="M402.94 495.909C403.488 495.626 404.034 495.344 404.582 495.061C404.034 495.344 403.486 495.626 402.94 495.909Z" fill="#969EB2"/>
<path d="M387.282 563.554C387.006 563.56 386.732 563.564 386.456 563.57C386.256 563.403 386.184 563.23 386.242 563.051C386.3 562.869 386.359 562.778 386.423 562.778L386.466 562.741C386.736 563.011 387.008 563.282 387.282 563.554Z" fill="#969EB2"/>
<path d="M404.565 495.079C404.837 494.826 405.109 494.57 405.381 494.316C405.109 494.57 404.837 494.824 404.565 495.079Z" fill="#969EB2"/>
<path d="M258.759 579.254C259.301 578.972 259.84 578.689 260.382 578.406C259.842 578.689 259.301 578.972 258.759 579.254Z" fill="#969EB2"/>
<path d="M215.888 1.64822C215.888 1.0995 215.888 0.54872 215.888 0C216.469 0.54872 216.469 1.09744 215.888 1.64822Z" fill="#969EB2"/>
<path d="M187.042 593.29C183.309 591.073 179.583 588.843 175.842 586.64C171.981 584.366 168.123 582.091 164.23 579.88C162.588 578.947 160.989 577.862 159.042 577.602C158.593 576.257 159.407 575.622 160.433 575.102C162.172 574.582 163.694 575.284 165.093 576.129C172.56 580.651 180.345 584.639 187.559 589.583C188.513 590.161 189.092 590.967 189.094 592.121C188.933 592.781 188.521 593.179 187.847 593.301C187.578 593.296 187.31 593.292 187.042 593.29Z" fill="#969EB2"/>
<path d="M696.216 571.069C695.672 571.024 695.13 570.978 694.586 570.935C693.085 570.04 692.85 568.546 692.831 567.011C692.621 550.591 692.646 534.169 692.813 517.748C692.819 517.047 693.031 516.403 693.412 515.815C694.376 514.947 695.351 514.933 696.329 515.791C696.302 526.792 696.274 537.791 696.251 548.792C696.234 556.219 696.228 563.645 696.216 571.069Z" fill="#969EB2"/>
<path d="M696.329 515.791C695.495 515.754 694.663 515.716 693.828 515.679C692.438 516.205 691.719 515.397 691.132 514.322C690.856 512.989 690.895 511.653 691.093 510.312C691.218 509.876 691.428 509.489 691.721 509.144C692.049 508.847 692.388 508.562 692.734 508.288C693.118 508.067 693.532 507.939 693.97 507.902C695.027 507.919 696.109 507.789 697.1 508.321C697.448 508.573 697.705 508.899 697.87 509.297C697.893 509.505 697.913 509.716 697.934 509.924C698.214 510.481 698.494 511.04 698.774 511.597C698.814 513.495 697.955 514.866 696.329 515.791Z" fill="#969EB2"/>
<path d="M749.76 423.22C749.793 429.365 749.844 435.51 749.853 441.658C749.869 453.678 749.863 465.696 749.865 477.717C749.303 477.725 748.742 477.735 748.18 477.743C748.176 460.927 748.167 444.111 748.174 427.292C748.174 425.926 748.258 424.561 748.301 423.195C748.796 422.859 749.28 422.863 749.76 423.22Z" fill="#969EB2"/>
<path d="M592.477 205.452C592.201 205.188 591.923 204.924 591.646 204.66C591.923 204.924 592.199 205.188 592.477 205.452Z" fill="#969EB2"/>
<path d="M755.525 483.548C755.828 483.812 756.131 484.074 756.434 484.338C756.129 484.076 755.826 483.812 755.525 483.548Z" fill="#969EB2"/>
<path d="M775.345 495.09C775.625 495.346 775.903 495.601 776.183 495.857C775.903 495.601 775.623 495.346 775.345 495.09Z" fill="#969EB2"/>
<path d="M776.96 495.925C777.259 496.189 777.559 496.451 777.858 496.715C777.557 496.451 777.259 496.187 776.96 495.925Z" fill="#969EB2"/>
<path d="M530.72 234.304C530.538 232.635 530.398 230.974 531.474 229.503C532.831 228.868 534.201 228.678 535.594 229.398C536.14 229.947 536.685 230.496 537.229 231.044C539.217 233.802 537.851 235.523 535.425 236.921C534.731 237.134 534.018 237.165 533.299 237.109C531.713 236.847 530.765 235.991 530.72 234.304Z" fill="#969EB2"/>
<path d="M549.608 224.433C549.287 224.699 548.967 224.965 548.644 225.231C548.963 224.965 549.285 224.699 549.608 224.433Z" fill="#969EB2"/>
<path d="M550.383 223.723C550.123 223.96 549.864 224.2 549.604 224.437C549.864 224.198 550.123 223.96 550.383 223.723Z" fill="#969EB2"/>
<path d="M583.369 204.683C583.095 204.941 582.821 205.199 582.549 205.456C582.823 205.199 583.095 204.941 583.369 204.683Z" fill="#969EB2"/>
<path d="M70.0052 398.554C72.7965 400.735 76.0019 402.232 79.0342 404.013C83.0079 406.346 86.9631 408.712 90.9616 411.002C92.1276 411.67 93.4171 412.126 94.649 412.679C97.2343 412.889 99.8649 413.009 101.233 415.804C101.682 417.403 101.472 418.845 100.203 420.023C98.6166 420.856 97.7761 419.583 96.6431 418.863C88.0179 413.384 79.1537 408.31 70.2236 403.355C65.8502 400.956 61.7158 398.146 57.2868 395.833C55.132 394.707 53.1668 393.28 51.9164 391.085C51.5785 391.013 51.2407 390.942 50.9028 390.87C51.3375 390.194 51.974 389.775 52.695 389.463C54.6644 389.703 56.2218 390.862 57.8698 391.809C61.8847 394.111 65.7245 396.731 70.0052 398.554Z" fill="#969EB2"/>
<path d="M405.39 405.929C405.101 405.671 404.815 405.413 404.526 405.156C404.813 405.411 405.101 405.671 405.39 405.929Z" fill="#969EB2"/>
<path d="M392.222 137.813C391.674 137.533 391.124 137.254 390.576 136.974C391.124 137.252 391.672 137.533 392.222 137.813Z" fill="#969EB2"/>
<path d="M393.048 138.624C392.77 138.35 392.49 138.075 392.211 137.801C392.49 138.075 392.768 138.35 393.048 138.624Z" fill="#969EB2"/>
<path d="M390.576 136.974C390.282 136.704 389.987 136.433 389.69 136.163C389.985 136.433 390.282 136.704 390.576 136.974Z" fill="#969EB2"/>
<path d="M388.92 136.13C388.642 135.862 388.364 135.596 388.085 135.328C388.364 135.596 388.642 135.864 388.92 136.13Z" fill="#969EB2"/>
<path d="M445.623 354.054C445.935 354.316 446.244 354.582 446.557 354.842C451.033 358.551 451.42 363.343 447.585 367.587C447.22 367.989 446.847 368.385 446.476 368.783C445.282 369.064 444.099 369.491 442.89 369.596C439.281 369.914 436.059 367.853 434.769 364.544C433.488 361.256 434.534 357.596 437.369 355.317C438.595 354.331 439.985 353.807 441.532 353.809C442.896 353.813 444.26 353.968 445.623 354.054Z" fill="#969EB2"/>
<path d="M447.451 405.207C450.217 404.623 452.29 402.68 454.712 401.424C458.478 399.47 462.095 397.226 465.75 395.06C466.32 394.722 466.755 394.15 467.251 393.686C469.509 390.509 472.105 387.931 476.464 388.465C477.593 388.909 478.27 389.686 478.297 390.945C475.386 394.592 471.085 396.065 467.134 398.088C460.789 402.418 454.076 406.117 447.278 409.669C442.795 412.846 437.878 415.292 433.156 418.065C431.984 418.754 430.701 419.358 429.251 418.766C428.527 418.222 428.031 417.599 428.546 416.642C433.5 413.754 438.467 410.888 443.399 407.963C444.799 407.132 446.101 406.129 447.451 405.207Z" fill="#969EB2"/>
<path d="M428.544 416.644C428.824 417.219 429.106 417.797 429.389 418.372C431.111 421.039 429.708 422.473 427.362 423.54C426.639 423.659 425.909 423.668 425.18 423.597C423.275 423.16 422.166 422.139 422.572 420.014C422.692 418.467 422.966 416.988 424.344 415.998C425.405 415.996 426.466 415.992 427.524 415.988C427.916 416.107 428.173 416.435 428.513 416.633L428.544 416.644Z" fill="#969EB2"/>
<path d="M428.515 416.629C428.186 416.415 427.856 416.198 427.526 415.983C427.856 416.2 428.186 416.415 428.515 416.629Z" fill="#969EB2"/>
<path d="M374.022 391.029C372.699 391.6 371.372 391.565 370.046 391.043C368.824 390.439 367.675 389.762 367.316 388.292C367.259 385.472 368.542 383.821 371.426 383.568C372.166 383.648 372.707 384.079 373.204 384.587C375.015 385.711 375.672 387.431 375.725 389.467C375.017 389.83 374.434 390.336 374.022 391.029Z" fill="#969EB2"/>
<path d="M384.709 393.614C385.018 393.878 385.325 394.144 385.634 394.408C385.325 394.144 385.016 393.88 384.709 393.614Z" fill="#969EB2"/>
<path d="M532.302 297.936C531.758 297.606 531.212 297.276 530.668 296.946C530.635 295.591 530.604 294.236 530.571 292.878C531.148 292.334 531.725 291.789 532.302 291.242C533.132 290.652 533.976 290.545 534.842 291.172C535.938 291.754 536.632 292.713 537.256 293.741C537.237 294.568 537.219 295.393 537.2 296.22C537.283 296.94 537.05 297.553 536.576 298.087C535.107 299.327 533.684 299.201 532.302 297.936Z" fill="#969EB2"/>
<path d="M468.028 320.153C467.766 319.902 467.505 319.652 467.243 319.4C467.505 319.652 467.766 319.904 468.028 320.153Z" fill="#969EB2"/>
<path d="M478.684 384.418C478.719 381.006 478.783 377.594 478.787 374.182C478.81 359.166 478.818 344.149 478.83 329.133C479.366 329.187 479.899 329.24 480.435 329.294C480.435 345.832 480.433 362.37 480.433 378.908C480.433 380.818 480.305 382.747 481.193 384.539C480.324 385.23 479.485 385.241 478.684 384.418Z" fill="#969EB2"/>
<path d="M828.932 216.998C828.942 216.447 828.952 215.896 828.963 215.346C832.397 217.281 835.845 219.189 839.256 221.165C840.439 221.85 841.58 222.578 842.942 222.85C846.559 225.46 850.187 228.053 854.511 229.412C855.145 230.941 854.463 231.849 853.093 232.434C849.977 232.56 847.785 230.481 845.442 228.971C840.099 225.528 833.859 223.486 829.352 218.729C828.969 218.211 828.845 217.629 828.932 216.998Z" fill="#969EB2"/>
<path d="M698.835 325.166C698.26 324.32 697.685 323.472 697.11 322.627C698.682 322.647 699.996 321.971 701.321 321.201C711.368 315.355 721.443 309.561 731.49 303.716C736.217 300.967 740.906 298.147 745.613 295.36C747.189 295.523 747.854 296.43 747.745 297.971C745.875 300.911 742.675 301.955 739.779 303.32C737.416 304.434 735.196 305.662 733.284 307.44C726.303 311.863 718.462 314.794 711.831 319.829C708.824 321.348 706.026 323.244 703.012 324.756C701.63 325.449 700.33 326.051 698.835 325.166Z" fill="#969EB2"/>
<path d="M748.204 235.972C748.748 235.976 749.294 235.982 749.838 235.987C751.661 237.082 751.661 238.939 751.677 240.7C751.832 255.998 751.811 271.297 751.69 286.595C751.677 288.226 751.64 289.903 750.355 291.191C749.582 291.75 748.83 291.768 748.107 291.1C748.13 276.563 748.153 262.026 748.177 247.489C748.184 243.65 748.196 239.811 748.204 235.972Z" fill="#969EB2"/>
<path d="M748.107 291.102C748.717 291.094 749.325 291.084 749.935 291.075C751.782 290.318 752.744 291.292 753.412 292.854C753.643 294.673 753.498 296.397 752.145 297.815C750.555 299.162 748.991 299.562 747.498 297.679C746.869 296.905 746.243 296.131 745.615 295.36C745.609 293.448 746.507 292.068 748.107 291.102Z" fill="#969EB2"/>
<path d="M694.564 384.411C694.568 366.042 694.572 347.672 694.576 329.302C695.12 329.253 695.664 329.203 696.208 329.152C696.218 347.62 696.228 366.091 696.237 384.56C695.641 384.952 695.079 384.946 694.564 384.411Z" fill="#969EB2"/>
<path d="M638.618 297.025C637.094 297.936 635.582 298.873 634.039 299.752C632.968 300.362 631.827 300.857 631.134 301.957C630.801 303.968 629.184 304.905 627.674 305.759C616.171 312.265 604.713 318.846 593.395 325.672C592.542 326.187 591.702 326.538 590.697 326.218C589.461 325.323 589.209 324.18 589.842 322.814C590.711 322.456 591.58 322.097 592.448 321.738C596.708 319.283 600.968 316.83 605.226 314.375C611.616 310.691 618.016 307.023 624.392 303.316C628.879 300.707 633.335 298.044 637.805 295.405C638.079 295.948 638.349 296.486 638.618 297.025Z" fill="#969EB2"/>
<path d="M586.688 570.995C586.688 554.539 586.688 538.084 586.682 521.628C586.682 519.71 586.637 517.789 586.612 515.871C587.215 515.254 587.815 515.252 588.412 515.879C588.392 532.331 588.371 548.78 588.35 565.231C588.348 567.15 588.346 569.07 588.344 570.988C587.79 570.991 587.238 570.993 586.688 570.995Z" fill="#969EB2"/>
<path d="M804.201 509.13C804.498 509.338 804.792 509.544 805.089 509.753C804.794 509.544 804.498 509.338 804.201 509.13Z" fill="#969EB2"/>
<path d="M585.829 391.14C583.359 391.072 581.414 392.456 579.427 393.589C570.441 398.709 561.498 403.909 552.548 409.095C552.084 409.364 551.693 409.76 551.266 410.098C547.948 411.942 544.635 413.799 541.304 415.626C539.458 416.639 538.054 418.03 537.314 420.035C535.258 419.319 534.733 417.799 535.095 415.81C538.449 412.373 542.977 410.725 546.905 408.157C548.364 407.204 549.923 406.358 551.511 405.603C560.425 400.522 569.186 395.177 578.139 390.169C580.106 389.069 581.746 387.095 584.366 387.438C585.808 388.294 586.635 389.397 585.829 391.14Z" fill="#969EB2"/>
<path d="M533.132 477.793C533.661 477.801 534.191 477.807 534.72 477.816L534.794 477.762C535.206 478.278 536.02 478.075 536.393 478.659L536.366 478.657C537.602 480.532 537.569 482.376 536.243 484.194C534.937 484.718 533.62 485.044 532.252 484.402C530.784 483.777 529.302 483.165 529.391 481.159C529.28 479.295 530.081 478.032 531.863 477.424C532.339 477.349 532.763 477.475 533.132 477.793Z" fill="#969EB2"/>
<path d="M535.497 415.967C536.643 417.081 537.273 418.426 537.318 420.033C536.807 421.188 535.948 422.005 534.844 422.585C533.993 422.979 533.159 423.441 532.16 423.245C530.625 422.75 529.748 421.685 529.459 420.113C529.422 418.566 529.818 417.256 531.406 416.613C531.705 416.367 532.006 416.12 532.304 415.874C533.394 415.053 534.465 414.814 535.497 415.967Z" fill="#969EB2"/>
<path d="M530.516 481.021C530.635 482.383 531.309 483.462 532.25 484.4C531.144 484.371 530.087 484.54 529.111 485.102C521.573 489.421 513.803 493.345 506.663 498.341C506.405 498.366 506.15 498.407 505.899 498.465C505.621 498.71 505.34 498.956 505.062 499.201C503.144 499.636 501.62 500.876 499.98 501.831C495.374 504.513 490.581 506.881 486.203 509.953L486.162 509.975C485.847 510.225 485.566 510.516 485.229 510.739C484.396 510.964 483.947 511.5 483.713 512.337C483.542 512.944 483.165 513.493 482.88 514.068C481.461 513.224 481.191 511.923 481.424 510.421C482.081 507.525 484.572 506.359 486.784 505.134C493.471 501.435 499.943 497.369 506.628 493.673C513.502 490.092 519.933 485.733 526.777 482.096C527.924 481.485 528.971 480.322 530.516 481.021Z" fill="#969EB2"/>
<path d="M505.062 499.201C505.341 498.956 505.621 498.708 505.899 498.463C505.619 498.71 505.341 498.956 505.062 499.201Z" fill="#969EB2"/>
<path d="M482.833 510.06C482.85 511.397 482.864 512.731 482.881 514.068C482.392 514.749 481.818 515.351 481 515.599C478.913 516.232 477.102 515.31 476.478 513.216C476.247 512.443 476.293 511.584 476.214 510.765C476.956 510.423 477.623 509.988 478.087 509.291C480.034 507.288 481.601 507.636 482.833 510.06Z" fill="#969EB2"/>
<path d="M485.229 510.739C485.54 510.485 485.851 510.229 486.164 509.975C485.851 510.231 485.54 510.485 485.229 510.739Z" fill="#969EB2"/>
<path d="M426.922 422.634C426.9 437.986 426.877 453.336 426.855 468.687C426.85 471.703 426.85 474.719 426.846 477.733C426.286 477.731 425.726 477.731 425.165 477.729C425.167 461.011 425.169 444.294 425.165 427.577C425.165 425.933 425.114 424.288 425.085 422.644C425.697 422.642 426.311 422.638 426.922 422.634Z" fill="#969EB2"/>
<path d="M370.804 509.117C372.273 508.865 373.61 509.241 374.873 509.973C374.937 511.362 375.002 512.75 375.066 514.138C374.483 514.683 373.9 515.229 373.317 515.774C372.539 516.455 371.663 516.853 370.6 516.713C369.249 516.399 368.39 515.568 368.007 514.239C367.735 511.875 367.943 509.769 370.804 509.117Z" fill="#969EB2"/>
<path d="M384.847 504.076C385.111 503.83 385.375 503.583 385.638 503.337C385.375 503.583 385.111 503.828 384.847 504.076Z" fill="#969EB2"/>
<path d="M70.0462 501.687C64.0619 504.624 58.3907 508.115 52.701 511.574C52.394 511.077 52.0892 510.582 51.7822 510.085C51.8626 509.903 51.9408 509.722 52.0212 509.542C52.9379 507.644 54.2789 506.279 56.1762 505.202C60.9327 502.498 65.611 499.651 70.3717 496.944C74.6812 495.271 78.2223 492.266 82.2022 490.015C87.4923 487.026 93.1511 484.571 97.7697 480.456C98.3897 479.903 99.2055 479.693 100.052 480.093C101.393 481.157 101.647 482.56 101.336 484.148C100.24 486.585 97.918 487.494 95.7632 488.61C95.4274 488.802 95.0875 488.992 94.76 489.2C94.3192 489.586 93.8866 489.982 93.3345 490.211C87.5706 493.468 81.7037 496.565 76.1747 500.202C74.1806 501.511 71.9888 500.837 70.0462 501.687Z" fill="#969EB2"/>
<path d="M46.8857 509.699C47.1989 509.513 47.514 509.328 47.8272 509.144C47.514 509.33 47.2009 509.513 46.8857 509.699Z" fill="#969EB2"/>
<path d="M279.268 581.736C279.556 581.99 279.845 582.244 280.133 582.495C279.843 582.241 279.554 581.988 279.268 581.736Z" fill="#969EB2"/>
<path d="M265.425 515.925C265.404 532.351 265.382 548.778 265.361 565.204C265.359 567.121 265.359 569.037 265.359 570.954C264.799 570.966 264.236 570.98 263.674 570.993C263.668 554.542 263.664 538.09 263.651 521.639C263.649 519.72 263.61 517.8 263.589 515.882C264.216 515.254 264.829 515.24 265.425 515.925Z" fill="#969EB2"/>
<path d="M370.787 515.739C371.63 515.751 372.475 515.764 373.317 515.776C373.29 527.039 373.264 538.303 373.237 549.566C373.231 551.761 373.272 553.947 372.709 556.115C372.44 557.159 372.468 558.296 372.464 559.389C372.452 563.234 372.483 567.081 372.497 570.927C371.929 571.251 371.521 571.11 371.276 570.502C371.945 557.349 368.699 544.361 369.661 531.188C369.92 527.636 369.65 524.048 369.735 520.477C369.778 518.837 369.706 517.154 370.787 515.739Z" fill="#969EB2"/>
<path d="M371.63 571.003C371.921 570.976 372.209 570.951 372.5 570.925C372.749 570.982 373.002 571.007 373.258 571.001C373.814 571.587 374.475 572.107 374.906 572.773C375.901 574.312 375.616 576.014 374.296 577.163C373.037 578.258 371.086 578.268 369.826 577.188C368.497 576.049 368.184 574.333 369.166 572.806C369.595 572.142 370.285 571.651 370.858 571.081C371.053 570.452 371.311 570.425 371.63 571.003Z" fill="#969EB2"/>
<path d="M202.809 80.794C202.797 80.006 202.782 79.2179 202.77 78.4299C203.483 79.2076 203.508 79.9936 202.809 80.794Z" fill="#969EB2"/>
<path d="M246.38 129.547C245.83 129.826 245.28 130.106 244.732 130.385C245.28 130.104 245.83 129.826 246.38 129.547Z" fill="#969EB2"/>
<path d="M244.741 130.375C244.467 130.641 244.19 130.905 243.917 131.171C244.19 130.905 244.464 130.639 244.741 130.375Z" fill="#969EB2"/>
<path d="M121.235 595.856C121.188 595.503 121.138 595.151 121.091 594.798C120.842 594.505 120.753 594.169 120.823 593.787C120.971 593.441 121.179 593.135 121.453 592.875C121.841 592.455 122.271 592.079 122.646 591.644C131.03 585.891 140.123 581.34 148.837 576.144C150.586 575.1 151.748 572.565 154.446 573.357C155.829 574.553 155.855 575.943 155.033 577.456C153.766 577.538 152.685 578.081 151.603 578.71C143.087 583.671 134.557 588.607 126.027 593.544C124.488 594.435 122.994 595.425 121.235 595.856Z" fill="#969EB2"/>
<path d="M155.032 577.456C154.006 576.292 154.035 574.838 153.915 573.423C153.472 571.82 154.238 570.817 155.561 570.087C156.231 569.84 156.927 569.813 157.633 569.833C158.115 569.858 158.585 569.939 159.051 570.073C161.533 571.488 162.827 573.239 160.692 575.948C160.142 576.499 159.592 577.049 159.042 577.6C157.679 578.254 156.346 578.105 155.032 577.456Z" fill="#969EB2"/>
<path d="M281.808 112.217C281.618 111.303 281.064 110.755 280.156 110.563C280.821 109.779 281.723 109.358 282.632 108.95C282.624 110.105 282.669 111.277 281.808 112.217Z" fill="#969EB2"/>
<path d="M304.033 274.719C303.782 274.731 303.533 274.742 303.283 274.746C303.263 274.478 303.246 274.212 303.232 273.943C303.5 274.203 303.768 274.461 304.033 274.719Z" fill="#969EB2"/>
<path d="M299.922 272.268C299.644 272.004 299.365 271.738 299.089 271.474C299.365 271.738 299.644 272.002 299.922 272.268Z" fill="#969EB2"/>
<path d="M298.263 271.427C297.995 271.167 297.73 270.907 297.462 270.645C297.73 270.905 297.998 271.165 298.263 271.427Z" fill="#969EB2"/>
<path d="M297.464 270.645C297.171 270.373 296.879 270.1 296.586 269.83C296.879 270.102 297.171 270.373 297.464 270.645Z" fill="#969EB2"/>
<path d="M264.541 118.827C264.252 119.095 263.966 119.365 263.678 119.633C263.966 119.365 264.255 119.097 264.541 118.827Z" fill="#969EB2"/>
<path d="M650.169 485.174C652.256 486.475 654.303 487.841 656.433 489.068C664.622 493.786 672.891 498.37 681.019 503.191C684.777 505.419 688.852 507.145 692.201 510.048C692.187 511.386 692.174 512.725 692.16 514.064C690.631 510.984 690.671 510.916 687.63 509.128C679.969 504.622 672.267 500.185 664.583 495.715C660.446 493.308 656.318 490.886 652.179 488.483C651.236 487.934 650.266 487.428 649.308 486.904C647.371 486.005 645.793 484.311 643.472 484.266C642.452 482.554 642.347 480.918 643.876 479.416C647.59 479.548 648.875 482.364 650.169 485.174Z" fill="#969EB2"/>
<path d="M696.96 509.235C697.283 509.466 697.609 509.697 697.932 509.928C697.609 509.695 697.285 509.464 696.96 509.235Z" fill="#969EB2"/>
<path d="M716.893 401.799C713.681 399.809 710.482 397.804 707.256 395.838C705.643 394.854 703.993 393.925 702.343 393.001C700.697 392.079 699.086 391.035 697.081 391.093C696.962 389.775 697.407 389.069 698.857 389.459C702.308 390.53 705.101 392.844 708.271 394.447C711.444 396.052 714.264 398.321 717.686 399.456C719.566 398.866 721.148 399.716 722.661 400.607C727.316 403.344 732.062 405.927 736.71 408.685C738.823 410.649 741.769 411.152 744.025 412.908C745.325 413.919 746.713 414.746 747.041 416.526C747.028 417.469 746.606 418.11 745.673 418.37C741.689 415.973 737.725 413.537 733.712 411.187C728.637 408.213 723.524 405.3 718.417 402.381C717.953 402.111 717.403 401.987 716.893 401.799Z" fill="#969EB2"/>
<path d="M745.675 418.366C745.978 417.822 746.278 417.279 746.581 416.734C746.876 415.146 748.015 414.74 749.42 414.692C750.312 414.758 751.099 415.084 751.793 415.643C752.114 415.924 752.362 416.266 752.541 416.654C752.695 418.053 753.054 419.468 752.345 420.829C751.797 421.413 751.251 421.997 750.703 422.581C750.388 422.789 750.081 423.01 749.778 423.239L749.76 423.222C749.274 423.214 748.787 423.206 748.303 423.197L748.27 423.216C747.935 423.016 747.628 422.783 747.354 422.502C745.91 421.483 745.605 420.002 745.675 418.366Z" fill="#969EB2"/>
<path d="M747.355 422.502C747.66 422.739 747.965 422.979 748.27 423.216C747.965 422.976 747.66 422.739 747.355 422.502Z" fill="#969EB2"/>
<path d="M752.345 420.829C752.291 419.395 752.24 417.962 751.515 416.664C751.694 413.234 754.945 412.837 756.914 411.175C757.272 411.045 757.631 410.909 757.983 410.758C758.327 410.593 758.671 410.43 759.009 410.259C764.641 406.311 771.031 403.625 776.622 399.604C776.941 399.361 777.291 399.177 777.666 399.039C778.052 398.944 778.437 398.847 778.814 398.73C783.956 395.487 789.285 392.568 794.56 389.56C796.136 388.663 797.685 387.945 799.544 388.492C800.598 389.014 801.301 389.738 801.002 391.035C799.165 391.06 797.611 391.908 796.085 392.786C790.807 395.825 785.531 398.864 780.283 401.95C779.123 402.632 778.08 403.511 776.985 404.301C776.713 404.324 776.441 404.357 776.171 404.4C775.895 404.638 775.631 404.887 775.376 405.145C769.799 408.246 764.215 411.332 758.655 414.463C758.084 414.785 757.66 415.367 757.165 415.829C756.912 415.845 756.658 415.876 756.409 415.919C756.129 416.183 755.845 416.441 755.552 416.689C754.246 416.943 753.408 417.644 753.115 419.009C752.979 419.639 752.609 420.222 752.345 420.829Z" fill="#969EB2"/>
<path d="M755.552 416.685C755.839 416.427 756.125 416.171 756.411 415.915C756.123 416.173 755.837 416.429 755.552 416.685Z" fill="#969EB2"/>
<path d="M749.78 423.236C750.089 423.018 750.396 422.797 750.705 422.578C750.396 422.799 750.087 423.018 749.78 423.236Z" fill="#969EB2"/>
<path d="M536.397 297.02C536.665 296.754 536.933 296.488 537.201 296.222C538.606 296.358 539.809 297.037 540.989 297.72C548.798 302.235 556.585 306.79 564.395 311.306C570.548 314.864 576.716 318.396 582.894 321.907C583.598 322.307 584.416 322.505 585.18 322.798C585.811 324.122 585.594 325.255 584.424 326.175C580.181 326.101 577.461 322.839 574.077 321.032C566.294 316.878 558.779 312.226 551.155 307.778C547.093 305.519 543.109 303.124 539.061 300.837C537.572 299.995 536.35 298.945 536.397 297.02Z" fill="#969EB2"/>
<path d="M581.478 303.712C583.285 303.787 584.791 305.385 584.772 307.211C584.754 308.979 583.12 310.412 581.198 310.346C579.291 310.28 577.76 308.684 577.921 306.93C578.094 305.051 579.653 303.638 581.478 303.712Z" fill="#969EB2"/>
<path d="M584.086 325.944C584.257 324.828 584.486 323.732 585.178 322.798C586.737 322.037 588.293 322.024 589.844 322.816C590.534 323.747 590.771 324.834 590.921 325.95C592.036 328.396 590.734 329.568 588.624 330.317C587.895 330.42 587.166 330.422 586.433 330.325C584.276 329.605 582.994 328.411 584.086 325.944Z" fill="#969EB2"/>
<path d="M842.975 412.516C842.099 411.864 841.275 411.121 840.338 410.575C835.025 407.478 829.686 404.423 824.346 401.37C824 401.172 823.57 401.118 823.178 400.999C818.413 397.539 813.043 395.08 808.109 391.9C807.17 391.293 806.084 391.099 804.978 391.037C804.403 389.548 805.06 388.638 806.379 388.034C810.132 388.003 812.711 390.649 815.762 392.211C817.554 393.129 819.242 394.243 821.005 395.219C821.553 395.441 821.963 395.858 822.414 396.217C822.748 396.403 823.081 396.586 823.425 396.753C829.962 400.415 836.628 403.856 842.775 408.182C847.251 410.577 852.383 412 855.349 416.654C855.669 418.257 855.419 419.701 854.146 420.846C853.656 421.122 852.995 421.345 852.63 420.953C849.707 417.801 845.165 416.505 842.975 412.516Z" fill="#969EB2"/>
<path d="M823.25 456.467C824.016 455.904 824.713 455.18 825.563 454.813C826.923 454.225 828.511 454.734 829.282 455.766C830.141 456.915 830.145 458.866 829.294 460.025C828.515 461.088 826.96 461.614 825.6 461.036C824.748 460.673 824.043 459.959 823.273 459.4C823.264 458.421 823.258 457.443 823.25 456.467Z" fill="#969EB2"/>
<path d="M806.582 388.564C806.049 389.389 805.515 390.214 804.982 391.037C803.655 391.574 802.329 391.567 801.004 391.031C800.44 390.507 799.873 389.983 799.306 389.459C797.38 386.586 798.631 384.816 801.35 383.551C802.077 383.347 802.821 383.326 803.571 383.355C806.418 384.024 808.296 385.251 806.582 388.564Z" fill="#969EB2"/>
<path d="M534.842 291.174C533.995 291.197 533.148 291.222 532.302 291.244C532.314 290.989 532.324 290.733 532.333 290.479C533.398 288.862 533.031 287.036 533.035 285.287C533.066 268.881 533.06 252.473 533.066 236.067C533.6 236.003 534.135 235.939 534.669 235.875C534.685 252.399 534.698 268.92 534.722 285.444C534.726 287.354 534.801 289.264 534.842 291.174Z" fill="#969EB2"/>
<path d="M688.818 392.65C688.553 392.694 688.289 392.743 688.027 392.803C687.762 393.061 687.484 393.302 687.193 393.529C686.653 393.834 686.114 394.138 685.574 394.443C680.395 397.442 675.216 400.438 670.04 403.439C664.156 406.849 658.275 410.261 652.4 413.683C652.171 413.817 652 414.05 651.802 414.236C650.245 417.654 647.641 419.874 644.077 421.004C642.471 419.612 641.857 417.949 642.701 415.895C643.787 415.86 644.932 415.975 645.872 415.332C647.779 414.026 650.07 413.359 651.784 411.74C652.08 411.472 652.359 411.185 652.67 410.934C652.925 410.936 653.178 410.921 653.432 410.888C657.939 408.345 662.461 405.826 666.952 403.251C673.449 399.526 679.921 395.761 686.404 392.015C687.206 391.508 688.009 391 688.81 390.493C689.494 390.645 689.956 390.982 689.886 391.772C689.667 392.23 689.251 392.448 688.818 392.65Z" fill="#969EB2"/>
<path d="M666.583 369.342C666.542 371.176 664.974 372.692 663.18 372.635C661.349 372.575 659.921 371.04 659.962 369.171C660.001 367.327 661.546 365.827 663.353 365.879C665.151 365.928 666.624 367.506 666.583 369.342Z" fill="#969EB2"/>
<path d="M590.929 387.755C591.776 389.028 592.833 390.014 594.199 390.784C601.952 395.159 609.671 399.598 617.384 404.044C621.419 406.369 625.29 408.982 629.544 410.917C629.793 411.181 630.053 411.433 630.325 411.672C630.603 411.699 630.881 411.724 631.159 411.751C633.806 413.496 636.237 415.66 639.57 416.06C639.968 417.576 639.319 418.506 637.922 419.026C636 419.317 634.529 418.296 632.978 417.394C628.607 414.857 624.308 412.196 619.922 409.688C611.845 405.477 604.196 400.512 596.197 396.159C594.45 395.208 593.393 393.63 592.446 391.959C591.519 391.056 590.348 391.12 589.191 391.138C588.47 389.344 589.199 388.292 590.929 387.755Z" fill="#969EB2"/>
<path d="M637.84 418.393C638.416 417.615 638.993 416.837 639.572 416.062C640.614 416.006 641.659 415.95 642.701 415.893C644.411 417.141 644.547 418.944 644.438 420.831C644.199 423.839 642.137 424.356 639.906 423.595C637.547 422.789 636.004 421.128 637.84 418.393Z" fill="#969EB2"/>
<path d="M652.668 410.931C652.373 411.2 652.078 411.468 651.782 411.738C652.078 411.47 652.373 411.202 652.668 410.931Z" fill="#969EB2"/>
<path d="M102.166 422.484C101.183 421.811 100.174 421.167 99.6772 420.008C99.7864 418.64 99.7267 417.227 100.691 416.08C102.228 415.27 103.762 415.241 105.295 416.099C107.091 416.392 107.437 417.762 107.635 419.249C107.524 421.522 106.416 422.935 104.123 423.325C103.35 423.329 102.734 422.966 102.166 422.484Z" fill="#969EB2"/>
<path d="M373.206 384.585C372.654 384.523 372.1 384.461 371.548 384.399C369.727 383.266 369.799 381.385 369.78 379.623C369.636 365.208 369.692 350.793 369.729 336.378C369.735 333.964 370.893 331.879 371.286 329.591C371.865 328.702 372.57 328.776 373.336 329.327C373.305 335.649 373.255 341.972 373.243 348.293C373.22 360.393 373.216 372.49 373.206 384.585Z" fill="#969EB2"/>
<path d="M373.336 329.331C372.728 329.364 372.118 329.395 371.511 329.428C371.202 329.739 370.957 329.694 370.779 329.292C370.302 328.644 369.675 328.058 369.372 327.338C368.4 325.024 369.574 322.986 372.059 322.598C372.712 322.497 373.398 322.618 374.069 322.639C374.148 322.75 374.23 322.86 374.306 322.971C376.447 326.138 376.356 326.73 373.336 329.331Z" fill="#969EB2"/>
<path d="M482.831 390.183C482.574 390.241 482.326 390.328 482.092 390.443C481.76 390.623 481.447 390.827 481.146 391.054C480.122 391.012 479.098 390.973 478.075 390.932C477.473 390.441 476.874 389.952 476.272 389.463C476.167 387.345 476.635 385.5 478.686 384.417C479.523 384.457 480.361 384.496 481.197 384.535C481.756 385.078 482.316 385.62 482.874 386.163C483.445 387.51 483.585 388.851 482.831 390.183Z" fill="#969EB2"/>
<path d="M360.815 396.044C360.564 396.044 360.315 396.067 360.067 396.108C359.808 396.399 359.484 396.617 359.2 396.879C358.312 397.23 357.367 397.478 356.547 397.948C351.434 400.877 346.348 403.854 341.262 406.828C340.913 407.033 340.635 407.355 340.324 407.623C340.355 409.238 339.245 410.028 338.075 410.808C332.966 414.207 327.085 416.417 322.652 420.864C322.254 421.262 321.628 421.176 321.08 421.009C319.434 419.626 318.867 417.871 319.269 415.773C319.574 415.185 320.033 414.744 320.598 414.412C326.553 411.402 332.152 407.763 337.931 404.438C338.996 403.825 340.003 403.122 341.183 402.738C346.094 399.906 350.904 396.902 355.865 394.165C357.933 393.022 359.82 391.091 362.576 392.009C364.884 391.468 366.696 390.084 368.439 388.578C368.975 389.399 369.508 390.22 370.042 391.041C366.839 391.58 364.338 393.507 361.742 395.246L361.734 395.25C361.435 395.522 361.153 395.817 360.815 396.044Z" fill="#969EB2"/>
<path d="M340.3 492.614C343.892 495.379 348.033 497.235 351.877 499.583C354.557 501.219 357.369 502.636 360.123 504.152C360.527 504.69 361.314 504.492 361.736 504.994L361.732 504.992C363.322 506.031 364.913 507.075 366.505 508.111C367.815 508.963 369.278 509.183 370.806 509.119C369.041 510.355 368.87 512.172 368.993 514.097C367.619 510.978 367.654 510.92 364.606 509.126C358.496 505.528 352.347 502.003 346.21 498.448C344.795 497.629 343.371 496.823 341.952 496.012C335.836 492.452 329.718 488.895 323.608 485.324C322.897 484.91 322.203 484.487 321.354 484.443C321.059 484.39 320.767 484.338 320.472 484.285C319.926 482.729 320.606 481.815 322.032 481.287C328.576 482.892 333.755 487.115 339.383 490.471C340.067 490.873 340.368 491.738 340.3 492.614Z" fill="#969EB2"/>
<path d="M383.177 433.202C382.371 433.13 381.516 433.204 380.771 432.955C379.108 432.395 378.15 430.665 378.484 429.12C378.84 427.465 380.278 426.421 382.075 426.471C383.074 426.498 383.875 427.007 384.715 427.436C385.342 427.894 385.204 428.705 385.568 429.285C385.562 429.673 385.556 430.058 385.55 430.446C385.226 431.067 385.356 431.892 384.691 432.36L384.79 432.253C384.437 432.884 383.587 432.67 383.177 433.202Z" fill="#969EB2"/>
<path d="M385.566 429.285C385.282 428.668 384.998 428.053 384.713 427.436C385.292 427.915 385.529 428.554 385.566 429.285Z" fill="#969EB2"/>
<path d="M383.176 433.202C383.617 432.723 384.12 432.346 384.787 432.251C384.379 432.787 383.833 433.091 383.176 433.202Z" fill="#969EB2"/>
<path d="M384.688 432.358C384.767 431.628 385.045 430.987 385.547 430.446C385.523 431.201 385.28 431.859 384.688 432.358Z" fill="#969EB2"/>
<path d="M482.831 390.183C482.845 388.844 482.86 387.504 482.874 386.165C483.645 388.875 485.649 390.352 488.004 391.646C493.16 394.478 498.236 397.453 503.33 400.399C504.401 401.019 505.452 401.655 506.69 401.878C507.176 402.344 507.592 402.928 508.159 403.256C515.896 407.728 523.656 412.165 531.408 416.611C531.134 417.741 530.858 418.873 530.584 420.004C530.059 420.245 529.476 420.299 529.027 419.967C522.352 415.014 514.623 411.794 507.841 407.018C502.473 404.376 497.469 401.075 492.159 398.34C490.068 397.263 488.951 395.491 487.806 393.645C486.269 392.316 484.217 391.728 482.831 390.183Z" fill="#969EB2"/>
<path d="M504.861 328.888C504.863 330.614 503.141 332.328 501.406 332.326C499.67 332.324 497.952 330.616 497.952 328.888C497.952 327.21 499.746 325.403 501.406 325.407C503.079 325.41 504.859 327.204 504.861 328.888Z" fill="#969EB2"/>
<path d="M787.066 278.131C785.123 280.029 783.173 281.916 781.244 283.826C780.375 284.689 779.539 284.357 778.676 283.857C777.283 283.599 776.459 282.952 776.982 281.38C776.416 280.284 775.827 279.199 775.289 278.09C769.807 266.771 770.539 255.809 777.213 245.203C777.942 244.044 778.74 242.926 779.506 241.789C779.778 241.509 780.058 241.237 780.307 240.935L780.317 240.919C780.958 240.409 781.646 239.949 782.235 239.384C790.999 230.978 806.364 227.995 818.594 234.431C819.806 235.069 821.052 235.636 822.282 236.238C822.988 237.528 825.09 237.831 825.017 239.502C824.958 240.876 823.388 241.54 822.593 242.602C822.432 242.817 822.282 243.04 822.127 243.258C822.407 245.162 821.155 246.274 819.989 247.442C810.62 256.819 801.204 266.152 791.938 275.631C790.484 277.118 788.772 277.473 787.066 278.131Z" fill="#969EB2"/>
<path d="M813.251 294.537C809.092 295.531 804.873 295.818 800.623 295.465C794.449 294.953 788.984 292.602 784.114 288.827C782.713 287.74 782.676 287.117 783.892 285.811C785.754 283.808 787.664 281.852 789.553 279.876C789.617 278.114 790.544 276.87 791.763 275.66C801.012 266.467 810.206 257.22 819.431 248.003C820.475 246.959 821.388 245.591 823.219 246.041C824.552 244.865 825.866 243.667 827.226 242.524C827.677 242.146 828.293 242.124 828.713 242.582C829.453 243.386 830.196 244.209 830.8 245.117C841.786 261.628 835.237 281.242 822.735 289.734C819.761 291.754 816.561 293.231 813.251 294.537Z" fill="#969EB2"/>
<path d="M823.221 246.039C822.503 246.864 821.827 247.733 821.056 248.506C811.078 258.521 801.089 268.522 791.096 278.521C790.614 279.004 790.07 279.424 789.555 279.874C788.993 278.913 788.206 278.269 787.066 278.131C798.23 266.95 809.391 255.77 820.56 244.595C821.042 244.112 821.602 243.706 822.126 243.262C822.952 244.005 823.17 244.989 823.221 246.039Z" fill="#969EB2"/>
<path d="M805.013 322.666C806.544 322.453 807.872 321.715 809.17 320.964C817.699 316.034 826.21 311.071 834.727 306.12C835.268 305.847 835.81 305.577 836.352 305.305C836.813 305.775 837.705 305.408 838.023 306.163C838.012 306.423 838.004 306.685 837.996 306.945C835.958 310.943 831.581 311.85 828.316 314.219C826.668 315.415 824.723 316.205 822.865 317.09C818.922 319.718 814.72 321.909 810.657 324.337C809.401 325.088 808.099 325.923 806.488 325.696C805.089 325.133 804.414 324.209 805.013 322.666Z" fill="#969EB2"/>
<path d="M838.022 306.163C837.466 305.876 836.908 305.592 836.352 305.305C840.612 302.827 844.892 300.387 849.124 297.862C852.201 296.024 852.172 295.975 853.536 292.858C855.112 294.188 854.896 295.576 853.67 296.996C852.113 298.044 850.611 299.193 848.986 300.123C845.364 302.192 841.681 304.156 838.022 306.163Z" fill="#969EB2"/>
<path d="M758.092 301.142C756.049 299.597 753.859 298.291 751.57 297.15C752.252 295.824 752.343 294.392 752.322 292.94C752.613 293.235 752.903 293.53 753.194 293.825C760.156 297.757 767.16 301.619 773.987 305.792C774.914 306.359 775.915 306.807 776.622 307.679C776.851 308.026 776.995 308.403 777.065 308.81C777.057 309.014 777.044 309.218 777.034 309.422C780.649 311.628 784.236 313.878 787.886 316.026C791.069 317.899 794.34 319.623 797.531 321.482C798.619 322.115 799.688 322.66 800.967 322.674C801.573 324.201 800.899 325.121 799.537 325.723C796.027 325.814 793.572 323.392 790.756 321.897C786.356 319.557 782.244 316.702 777.872 314.301C772.129 311.479 766.847 307.844 761.213 304.833C759.637 303.987 759.24 302.279 758.092 301.142Z" fill="#969EB2"/>
<path d="M698.857 389.457C698.266 390.002 697.673 390.546 697.081 391.091C695.744 391.629 694.422 391.477 693.106 391.008C690.749 389.789 691.69 387.949 692.201 386.19C692.988 385.598 693.775 385.003 694.564 384.411C695.122 384.461 695.681 384.51 696.239 384.56C698.252 385.583 698.861 387.355 698.857 389.457Z" fill="#969EB2"/>
<path d="M692.203 386.189C692.01 387.889 691.861 389.581 693.108 391.008C692.238 391.33 691.367 391.654 690.498 391.978C690.341 392.097 690.182 392.217 690.026 392.337C689.894 392.19 689.762 392.042 689.63 391.895C689.358 391.427 689.084 390.959 688.812 390.491C690.807 389.742 691.196 387.722 692.203 386.189Z" fill="#969EB2"/>
<path d="M649.312 510.786C650.692 511.044 651.541 511.778 651.549 513.278C651.553 514.239 651.592 515.201 651.594 516.162C651.6 520.694 651.57 525.226 651.607 529.758C651.64 533.82 651.813 534.002 655.729 534.039C660.117 534.08 664.506 534.047 668.896 534.053C669.992 534.055 671.094 534.03 672.186 534.113C673.865 534.241 674.553 534.775 674.58 536.333C674.66 541.001 674.67 545.671 674.59 550.337C674.559 552.101 673.867 552.615 671.933 552.73C670.839 552.794 669.739 552.769 668.643 552.769C664.117 552.776 659.589 552.734 655.065 552.792C651.992 552.831 651.73 553.13 651.613 556.047C651.576 557.006 651.598 557.97 651.598 558.931C651.596 562.915 651.605 566.898 651.592 570.881C651.59 571.84 651.588 572.808 651.481 573.759C651.327 575.145 650.762 575.657 649.378 575.826C649.106 575.859 648.83 575.877 648.558 575.875C643.348 575.834 638.138 575.787 632.929 575.741C632.91 569.837 632.894 563.934 632.869 558.032C632.865 556.934 632.873 555.833 632.78 554.741C632.677 553.498 632.199 552.992 631.013 552.883C629.923 552.782 628.823 552.784 627.727 552.78C623.203 552.769 618.678 552.784 614.154 552.767C613.198 552.763 612.236 552.726 611.286 552.611C610.545 552.522 610.089 552.01 609.921 551.276C609.859 551.01 609.813 550.733 609.813 550.461C609.811 545.793 609.776 541.125 609.842 536.458C609.865 534.829 610.466 534.264 612.119 534.148C613.756 534.032 615.406 534.061 617.05 534.055C621.026 534.043 625.002 534.084 628.978 534.039C632.653 533.995 632.828 533.81 632.859 529.979C632.896 525.175 632.854 520.368 632.873 515.564C632.889 510.961 632.904 510.964 637.391 510.916C641.364 510.875 645.338 510.829 649.312 510.786Z" fill="#969EB2"/>
<path d="M590.056 509.885C590.855 509.35 591.655 508.816 592.454 508.284C593.453 506.248 595.012 504.868 597.015 503.762C604.913 499.401 612.387 494.283 620.614 490.508C624.829 487.585 629.194 484.918 633.761 482.581C635.108 481.892 636.431 481.258 637.999 481.747C639.066 482.275 639.832 482.977 639.457 484.322C637.893 484.346 636.569 485.002 635.24 485.772C626.71 490.721 618.157 495.624 609.614 500.552C604.274 503.632 598.972 506.776 593.593 509.783C592.118 510.609 591.7 512.055 590.87 513.274C589.455 512.418 589.179 511.289 590.056 509.885Z" fill="#969EB2"/>
<path d="M639.459 484.32C638.899 483.781 638.336 483.243 637.776 482.704C636.006 480.163 636.989 478.213 639.397 477.085C641.684 476.012 643.651 476.604 644.339 479.418C644.459 481.108 644.553 482.791 643.466 484.262C642.139 484.811 640.802 484.815 639.459 484.32Z" fill="#969EB2"/>
<path d="M590.056 509.885C590.328 511.013 590.6 512.144 590.872 513.272C590.369 514.442 589.467 515.234 588.412 515.879C587.813 515.877 587.213 515.873 586.612 515.871C586.002 515.337 585.283 514.883 584.807 514.246C584.002 513.173 584.008 511.935 584.679 510.784C585.349 509.637 586.408 509 587.743 509.157C588.532 509.249 589.286 509.631 590.056 509.885Z" fill="#969EB2"/>
<path d="M590.93 387.755C590.841 389.135 590.128 390.196 589.191 391.14C588.07 391.14 586.95 391.14 585.829 391.14C584.902 390.208 584.175 389.17 584.088 387.799C582.953 385.327 584.309 384.279 586.439 383.673C587.195 383.661 587.798 384.019 588.359 384.484C589.589 385.28 590.67 386.194 590.93 387.755Z" fill="#969EB2"/>
<path d="M536.393 478.657C535.748 478.558 535.221 478.245 534.792 477.76C535.452 477.834 535.989 478.127 536.393 478.657Z" fill="#969EB2"/>
<path d="M780.31 240.938C780.042 241.222 779.776 241.507 779.508 241.792C779.774 241.507 780.042 241.222 780.31 240.938Z" fill="#969EB2"/>
<path d="M511.628 434.927C512.711 439.428 513.484 443.923 512.86 448.618C512.202 453.579 510.48 458.062 507.804 462.233C507.147 463.256 506.523 464.302 505.884 465.337L505.917 465.319C505.67 465.624 505.386 465.898 505.149 466.212C503.896 467.454 502.66 468.714 501.385 469.935C495.924 475.159 489.67 479.22 482.969 482.659C481.325 483.503 479.92 483.505 478.371 482.601C476.02 481.232 473.629 479.932 471.256 478.601C470.193 478.005 469.13 477.409 468.067 476.813C466.291 475.342 464.515 473.869 462.74 472.398C459.685 469.867 456.988 466.994 454.652 463.784C450.61 458.231 448.353 452.071 448.307 445.152C448.303 444.474 448.225 443.795 448.182 443.114C448.192 442.834 448.204 442.555 448.215 442.277C448.75 439.729 449.088 437.132 450.054 434.689C451.36 431.395 453.387 428.711 456.574 427.028C457.792 426.384 459.058 425.854 460.439 425.689C462.34 425.462 464.244 425.268 466.147 425.06C469.299 425.949 472.477 426.756 475.448 428.191C480.806 429.375 485.167 426.514 489.814 424.72C492.459 423.698 495.432 424.198 498.128 423.226C500.975 424.167 504.716 423.453 505.936 427.422C508.562 429.371 510.019 432.206 511.628 434.927Z" fill="#969EB2"/>
<path d="M505.153 466.212C505.409 465.915 505.664 465.616 505.922 465.319C505.664 465.616 505.409 465.913 505.153 466.212Z" fill="#969EB2"/>
<path d="M99.6709 480.213C100.169 479.053 101.169 478.395 102.159 477.731C102.724 477.261 103.338 476.904 104.106 476.904C106.393 477.273 107.497 478.682 107.643 480.933C107.625 482.905 106.411 483.866 104.697 484.398C103.319 485.033 102.003 484.728 100.705 484.136C99.7286 482.993 99.8027 481.576 99.6709 480.213Z" fill="#969EB2"/>
<path d="M93.8971 487.74C93.6148 487.985 93.3306 488.229 93.0483 488.474C93.3306 488.229 93.6128 487.983 93.8971 487.74Z" fill="#969EB2"/>
<path d="M104.695 484.396C105.661 483.47 106.282 482.368 106.438 481.021C109.662 480.609 111.467 483.443 114.103 484.375C114.629 484.627 115.012 485.064 115.461 485.415C115.793 485.597 116.116 485.791 116.441 485.978C121.995 488.823 127.178 492.334 132.802 495.051C133.171 495.168 133.509 495.344 133.832 495.552C134.151 495.767 134.423 496.035 134.652 496.342C134.903 496.627 135.185 496.874 135.509 497.078C135.863 497.243 136.211 497.409 136.578 497.551C141.683 500.426 146.789 503.296 151.836 506.271C153.542 507.277 154.99 508.42 155.528 510.433C155.773 511.941 155.487 513.235 154.069 514.068C153.175 511.869 151.709 510.392 149.55 509.179C140.166 503.909 130.927 498.38 121.616 492.978C119.851 491.952 117.995 491.084 116.182 490.143C113.603 488.126 110.717 486.616 107.833 485.102C106.838 484.582 105.799 484.373 104.695 484.396Z" fill="#969EB2"/>
<path d="M106.335 552.615C106.428 554.494 105.041 556.043 103.177 556.14C101.298 556.239 99.7615 554.851 99.6668 552.974C99.572 551.07 100.936 549.549 102.821 549.461C104.728 549.372 106.242 550.729 106.335 552.615Z" fill="#969EB2"/>
<path d="M212.59 548.765C211.733 548.367 210.841 548.031 210.025 547.561C204.593 544.435 203.934 537.298 208.696 533.168C209.405 532.553 210.211 532.05 210.973 531.493C212.06 531.413 213.15 531.256 214.238 531.264C218.957 531.295 222.571 534.645 222.983 539.317C223.36 543.588 220.251 547.637 215.851 548.512C214.79 548.724 213.678 548.689 212.59 548.765Z" fill="#969EB2"/>
<path d="M261.099 511.636C258.666 510.159 256.284 508.587 253.788 507.228C249.385 504.833 245.237 501.978 240.624 499.969C238.484 497.992 235.792 496.907 233.332 495.449C229.459 493.151 225.584 490.853 221.689 488.59C220.393 487.837 219.095 487.059 217.591 486.766L217.577 486.818C217.282 486.562 217.008 486.279 216.71 486.028C215.587 484.837 214.178 484.344 212.573 484.336C212.159 483.002 212.928 482.304 213.96 481.749C215.185 481.32 216.463 481.384 217.523 482.028C225.079 486.605 233.076 490.434 240.344 495.496C247.039 499.183 253.977 502.454 260.116 507.092C260.969 507.931 262.157 508.488 262.403 509.833C262.417 510.757 262.046 511.407 261.099 511.636Z" fill="#969EB2"/>
<path d="M195.17 491.758C192.455 492.373 190.325 494.139 187.975 495.459C184.077 497.652 180.209 499.896 176.342 502.141C175.763 502.477 175.258 502.941 174.719 503.345C174.717 503.9 174.696 504.573 174.263 504.864C169.968 507.77 166.238 511.842 160.447 511.754C159.337 511.296 158.669 510.518 158.655 509.268C161.629 505.485 166.271 504.144 170.065 501.557C171.748 500.41 173.619 499.498 175.436 498.539C182.475 494.64 189.194 490.188 196.338 486.471C199.348 485 202.018 482.977 204.817 481.17C205.835 480.512 206.626 479.523 208.012 480.124C209.388 481.318 209.413 482.706 208.595 484.212C207.586 484.6 206.531 484.901 205.573 485.392C202.312 487.057 199.14 488.879 196.128 490.968L196.112 490.976C195.805 491.245 195.521 491.542 195.17 491.758Z" fill="#969EB2"/>
<path d="M208.598 484.212C207.601 483.049 207.599 481.605 207.471 480.198C207.123 478.09 208.25 477.087 210.128 476.648C210.866 476.58 211.597 476.6 212.32 476.782C215.11 478.044 216.267 479.856 214.306 482.711C213.729 483.253 213.15 483.794 212.572 484.336C211.229 484.908 209.906 484.798 208.598 484.212Z" fill="#969EB2"/>
<path d="M216.71 486.026C216.998 486.29 217.289 486.552 217.577 486.816C217.289 486.554 217 486.29 216.71 486.026Z" fill="#969EB2"/>
<path d="M261.099 511.636C261.392 511.052 261.684 510.467 261.977 509.883C262.038 509.65 262.098 509.417 262.158 509.181C262.405 508.75 262.743 508.41 263.169 508.156C265.306 507.277 266.978 507.861 268.229 509.771C268.369 510.957 268.295 512.127 267.946 513.276C267.563 514.596 266.61 515.37 265.425 515.927C264.813 515.912 264.201 515.898 263.59 515.886C261.931 514.953 261.058 513.563 261.099 511.636Z" fill="#969EB2"/>
<path d="M267.946 513.274C267.884 512.208 267.823 511.139 267.761 510.072C266.99 507.325 269.197 506.518 270.875 505.528C273.813 503.797 276.821 502.186 279.6 500.193C279.933 499.952 280.298 499.773 280.683 499.639C281.07 499.546 281.464 499.463 281.851 499.368C291.401 493.58 301.05 487.959 310.811 482.533C312.121 481.805 313.363 480.9 315.001 481.24C316.373 481.826 317.048 482.754 316.48 484.285C315.689 484.477 314.811 484.507 314.123 484.885C310.294 486.991 306.505 489.17 302.723 491.36C302.268 491.624 301.942 492.111 301.557 492.495C299.555 493.035 297.839 494.149 296.075 495.187C291.85 497.675 287.588 500.103 283.355 502.576C282.539 503.053 281.781 503.634 280.996 504.167L280.982 504.173C280.677 504.443 280.393 504.74 280.044 504.961C279.795 504.963 279.55 504.988 279.305 505.037C279.041 505.322 278.722 505.542 278.434 505.796C275.29 506.706 272.812 508.833 270.023 510.386C268.859 511.038 268.665 512.331 267.946 513.274Z" fill="#969EB2"/>
<path d="M316.482 484.285C315.946 483.457 315.411 482.63 314.877 481.803C313.198 479.138 314.694 477.789 316.96 476.751C317.679 476.578 318.41 476.563 319.145 476.602C321.926 477.31 323.801 478.531 322.06 481.786C321.533 482.618 321.003 483.447 320.476 484.278C319.143 484.87 317.813 484.866 316.482 484.285Z" fill="#969EB2"/>
<path d="M280.049 504.963C280.362 504.701 280.673 504.439 280.986 504.175C280.673 504.437 280.36 504.701 280.049 504.963Z" fill="#969EB2"/>
<path d="M278.438 505.798C278.728 505.544 279.021 505.293 279.311 505.039C279.019 505.291 278.728 505.544 278.438 505.798Z" fill="#969EB2"/>
<path d="M58.3226 419.148C56.4315 419.158 54.9957 417.708 54.9792 415.769C54.9606 413.805 56.345 412.419 58.3061 412.431C60.2178 412.444 61.7154 413.91 61.7113 415.763C61.7051 417.595 60.1621 419.136 58.3226 419.148Z" fill="#969EB2"/>
<path d="M116.188 410.112C117.045 409.714 117.933 409.372 118.751 408.906C123.124 406.42 127.483 403.909 131.836 401.387C132.417 401.05 132.926 400.586 133.467 400.182L133.486 400.174C133.795 399.903 134.081 399.602 134.44 399.394C134.685 399.392 134.928 399.361 135.167 399.303C135.441 399.051 135.717 398.8 135.993 398.552L135.989 398.587C137.365 396.33 139.355 394.845 141.607 393.467C145.164 391.289 149.2 389.814 152.108 386.61C152.77 385.88 153.688 385.538 154.653 386.268C155.633 387.312 155.853 388.539 155.538 389.896C155.009 391.514 153.981 392.698 152.502 393.568C147.356 396.601 142.27 399.734 136.992 402.527C136.654 402.645 136.306 402.756 135.972 402.888C135.503 403.117 135.087 403.431 134.712 403.798C134.462 404.054 134.176 404.258 133.882 404.454C133.447 404.782 132.973 405.038 132.479 405.261C126.96 408.025 121.942 411.676 116.378 414.354C116.052 414.535 115.725 414.713 115.405 414.906C114.971 415.27 114.559 415.664 114.027 415.888C111.421 416.819 109.627 419.62 106.438 419.21C106.24 418.106 106.018 417.011 105.295 416.099C109.277 414.744 112.787 412.528 116.188 410.112Z" fill="#969EB2"/>
<path d="M237.326 235.985C237.87 236.263 238.416 236.542 238.96 236.82C238.414 236.542 237.87 236.263 237.326 235.985Z" fill="#969EB2"/>
<path d="M238.956 236.816C239.228 237.078 239.498 237.342 239.768 237.604C239.496 237.34 239.226 237.078 238.956 236.816Z" fill="#969EB2"/>
<path d="M280.16 260.737C279.872 260.467 279.583 260.197 279.295 259.926C279.583 260.199 279.872 260.469 280.16 260.737Z" fill="#969EB2"/>
<path d="M157.409 540.471C157.415 550.624 157.421 560.777 157.427 570.929C156.923 571.005 156.42 571.083 155.915 571.16C155.897 562.36 155.864 553.557 155.876 544.757C155.878 543.528 156.088 542.298 156.204 541.071C156.404 540.473 156.721 540.097 157.409 540.471Z" fill="#969EB2"/>
<path d="M157.409 540.471C157.005 540.673 156.601 540.873 156.199 541.073C156.043 540.599 155.884 540.126 155.724 539.652C155.73 531.671 155.736 523.689 155.742 515.708C156.599 514.992 157.435 514.988 158.251 515.776C157.339 517.398 157.473 519.18 157.468 520.94C157.446 527.45 157.427 533.96 157.409 540.471Z" fill="#969EB2"/>
<path d="M158.249 515.776C157.413 515.754 156.576 515.731 155.74 515.708C155.182 515.162 154.626 514.617 154.067 514.07C154.088 512.744 154.107 511.42 154.127 510.093C154.424 509.169 154.879 508.383 155.884 508.078C157.114 507.902 158.251 507.958 158.871 509.291C159.473 509.782 160.074 510.273 160.676 510.762C160.787 512.88 160.416 514.763 158.249 515.776Z" fill="#969EB2"/>
<path d="M313.085 372.913C312.136 372.812 311.178 372.769 310.339 372.199C309.058 371.329 308.644 370.101 308.87 368.63C309.083 367.246 310.193 366.202 311.629 365.959C312.964 365.734 314.28 366.419 315.061 367.7C315.59 368.569 315.528 369.54 315.613 370.489C315.483 370.613 315.458 370.753 315.539 370.914C315.444 371.454 315.123 371.834 314.682 372.131L314.76 372.032C314.369 372.655 313.545 372.467 313.073 372.936L313.085 372.913Z" fill="#969EB2"/>
<path d="M313.068 372.934C313.631 372.632 314.193 372.331 314.755 372.03C314.321 372.566 313.75 372.853 313.068 372.934Z" fill="#969EB2"/>
<path d="M314.679 372.129C314.963 371.725 315.25 371.32 315.536 370.914C315.25 371.318 314.963 371.723 314.679 372.129Z" fill="#969EB2"/>
<path d="M673.927 472.149C673.731 467.701 677.703 464.073 682.058 464.034C686.602 463.992 690.497 468.052 690.39 472.52C690.287 476.877 686.448 480.648 682.124 480.637C677.489 480.629 673.882 476.889 673.927 472.149Z" fill="#969EB2"/>
<path d="M688.819 392.65C689.089 392.399 689.359 392.147 689.628 391.896L689.744 392.001C689.923 392.195 689.968 392.37 689.882 392.531C689.799 392.684 689.721 392.758 689.649 392.758C689.373 392.723 689.097 392.686 688.819 392.65Z" fill="#969EB2"/>
<path d="M689.651 392.758C689.674 392.504 689.704 392.25 689.746 391.998C689.997 391.984 690.248 391.976 690.498 391.978C690.213 392.238 689.931 392.498 689.651 392.758Z" fill="#969EB2"/>
<path d="M749.76 415.967C750.456 415.911 751.02 416.184 751.503 416.662C750.823 416.677 750.262 416.396 749.76 415.967Z" fill="#969EB2"/>
<path d="M758.092 412.547C758.372 412.283 758.655 412.019 758.935 411.755C758.653 412.019 758.372 412.283 758.092 412.547Z" fill="#969EB2"/>
<path d="M777.858 401.028C778.142 400.755 778.429 400.481 778.715 400.209C778.429 400.481 778.142 400.753 777.858 401.028Z" fill="#969EB2"/>
<path d="M586.671 384.49C586.678 366.068 586.682 347.649 586.688 329.228C587.238 329.23 587.788 329.23 588.338 329.232C588.344 347.649 588.35 366.064 588.354 384.481C587.794 384.486 587.234 384.488 586.671 384.49Z" fill="#969EB2"/>
<path d="M820.688 396.894C820.957 397.148 821.227 397.399 821.497 397.651C821.227 397.399 820.957 397.145 820.688 396.894Z" fill="#969EB2"/>
<path d="M803.468 329.335C803.474 347.686 803.483 366.035 803.489 384.387C802.939 384.461 802.391 384.535 801.841 384.609C801.853 366.11 801.864 347.61 801.876 329.11C802.469 328.751 803.003 328.803 803.468 329.335Z" fill="#969EB2"/>
<path d="M103.851 477.717C103.286 477.721 102.722 477.727 102.157 477.731C102.159 459.316 102.161 440.901 102.165 422.486C102.726 422.492 103.284 422.498 103.844 422.502C105.67 423.62 105.678 425.493 105.659 427.261C105.542 437.969 106.298 448.684 105.179 459.388C104.722 463.759 106.135 468.128 105.702 472.543C105.519 474.426 105.824 476.479 103.851 477.717Z" fill="#969EB2"/>
<path d="M360.815 396.044C361.122 395.78 361.429 395.514 361.736 395.25C361.429 395.516 361.122 395.78 360.815 396.044Z" fill="#969EB2"/>
<path d="M359.2 396.879C359.489 396.621 359.779 396.363 360.067 396.108C359.779 396.366 359.491 396.623 359.2 396.879Z" fill="#969EB2"/>
<path d="M321.486 420.891C320.894 421.421 320.305 421.951 319.714 422.479C318.882 422.993 318.039 423.482 316.999 423.377C315.641 423.09 314.803 422.259 314.434 420.934C314.48 419.018 313.864 416.802 316.603 416.097C317.623 415.802 318.657 415.726 319.71 415.874C321.494 417.124 321.644 418.954 321.486 420.891Z" fill="#969EB2"/>
<path d="M803.468 329.335C802.937 329.261 802.407 329.184 801.876 329.11C800.471 328.165 799.515 326.936 799.379 325.183C799.91 324.347 800.44 323.512 800.969 322.676C802.314 322.117 803.662 321.96 805.011 322.668C805.538 323.505 806.064 324.345 806.591 325.183C806.474 327.262 805.194 328.467 803.468 329.335Z" fill="#969EB2"/>
<path d="M774.548 263.454C774.354 250.09 784.415 236.209 800.026 234.165C807.003 233.251 813.354 234.64 819.311 238.21C820.795 239.099 820.894 239.89 819.763 241.187C819.042 242.012 818.246 242.773 817.472 243.551C806.051 255.023 794.631 266.492 783.208 277.96C782.724 278.446 782.248 278.941 781.735 279.395C780.555 280.445 779.955 280.371 779.129 279.045C776.154 274.273 774.665 269.062 774.548 263.454Z" fill="#969EB2"/>
<path d="M792.667 281.353C793.292 280.627 793.873 279.86 794.546 279.183C804.723 268.978 814.905 258.781 825.098 248.595C827.898 245.798 828.013 245.843 829.906 249.366C838.134 264.685 831.587 286.399 811.212 291.96C810.822 292.066 810.396 292.028 809.986 292.059C804.782 290.636 800.397 287.579 795.846 284.874C794.478 284.066 792.882 283.286 792.667 281.353Z" fill="#969EB2"/>
<path d="M792.667 281.353C794.179 281.594 795.407 282.424 796.686 283.195C800.388 285.427 804.127 287.597 807.864 289.769C808.816 290.322 809.747 290.861 809.986 292.059C802.349 293.994 795.333 292.247 788.661 288.457C788.541 288.389 788.434 288.303 788.321 288.226C787.202 287.461 787.037 286.805 787.925 285.902C789.462 284.344 791.081 282.867 792.667 281.353Z" fill="#969EB2"/>
<path d="M776.115 308.622C776.42 308.888 776.727 309.156 777.032 309.422C776.727 309.156 776.422 308.89 776.115 308.622Z" fill="#969EB2"/>
<path d="M648.513 525.499C648.513 528.387 648.463 531.275 648.527 534.163C648.585 536.702 648.931 537.084 651.393 537.117C656.199 537.183 661.005 537.143 665.811 537.158C667.047 537.162 668.285 537.147 669.515 537.236C670.936 537.339 671.451 537.832 671.49 539.34C671.558 542.088 671.552 544.84 671.469 547.586C671.426 549.003 670.87 549.525 669.385 549.584C667.053 549.679 664.717 549.65 662.383 549.661C658.675 549.675 654.967 549.63 651.261 549.706C649.03 549.752 648.568 550.201 648.535 552.378C648.47 556.914 648.511 561.454 648.494 565.99C648.488 567.639 648.49 569.291 648.387 570.937C648.315 572.068 647.709 572.672 646.511 572.699C643.631 572.761 640.747 572.761 637.869 572.676C636.701 572.643 636.192 572.037 636.081 570.819C635.98 569.726 635.982 568.623 635.978 567.525C635.967 563.125 635.982 558.725 635.965 554.323C635.961 553.364 635.93 552.396 635.813 551.445C635.702 550.537 635.119 549.927 634.206 549.828C633.118 549.71 632.016 549.683 630.92 549.679C626.526 549.665 622.132 549.675 617.736 549.671C616.912 549.671 616.086 549.686 615.266 549.62C613.565 549.483 612.992 549.017 612.947 547.373C612.871 544.627 612.9 541.876 612.978 539.128C613.013 537.94 613.621 537.354 614.747 537.251C615.839 537.15 616.941 537.15 618.039 537.145C622.571 537.135 627.103 537.145 631.635 537.137C632.457 537.135 633.285 537.135 634.103 537.051C635.263 536.931 635.778 536.411 635.883 535.186C635.978 534.092 635.97 532.989 635.972 531.889C635.98 527.351 635.972 522.813 635.982 518.274C635.984 517.451 635.996 516.622 636.097 515.805C636.235 514.666 636.756 514.132 638.029 514.103C640.909 514.041 643.793 514.046 646.673 514.126C647.833 514.157 648.352 514.751 648.408 516.009C648.501 518.068 648.48 520.133 648.498 522.194C648.509 523.293 648.5 524.395 648.5 525.494C648.505 525.499 648.509 525.499 648.513 525.499Z" fill="#969EB2"/>
<path d="M487.866 476.262C486.263 477.813 484.189 478.585 482.293 479.654C481.249 480.244 480.248 480.289 479.193 479.685C477.059 478.463 474.867 477.339 472.77 476.056C468.792 473.624 465.107 470.796 461.764 467.536C459.304 465.139 457.168 462.478 455.375 459.545C451.799 453.697 450.656 447.374 451.686 440.626C456.815 434.409 462.932 429.999 471.373 429.852C474.074 430.572 476.381 432.072 478.41 433.881C480.038 435.333 481.414 435.366 482.996 434.062C483.311 433.458 484.195 433.693 484.485 433.052L484.388 433.167C484.765 432.979 485.037 432.664 485.338 432.381L485.344 432.377C485.771 431.865 486.597 432.055 486.97 431.449L486.926 431.443C489.378 431.678 489.53 433.596 489.571 435.356C489.85 447.487 489.827 459.623 489.594 471.757C489.563 473.446 488.89 474.932 487.866 476.262Z" fill="#969EB2"/>
<path d="M487.866 476.262C487.847 463.033 487.835 449.804 487.798 436.575C487.793 434.828 488.111 433 486.928 431.443C489.876 429.177 493.316 428.35 496.923 428.237C502.972 428.047 507.192 431.018 508.97 436.818C510.752 442.634 510.591 448.484 508.519 454.214C507.87 456.011 507.059 457.789 506.053 459.409C501.536 466.678 495.354 472.186 487.866 476.262Z" fill="#969EB2"/>
<path d="M471.373 429.854C467.719 430.755 464.759 433.035 461.562 434.834C458.235 436.705 454.976 438.691 451.686 440.628C451.828 439.686 451.871 438.716 452.127 437.806C454.131 430.683 459.007 427.412 466.304 428.334C468.059 428.554 469.833 428.847 471.373 429.854Z" fill="#969EB2"/>
<path d="M484.485 433.052C484.125 433.59 483.618 433.912 482.996 434.062C483.329 433.485 483.822 433.144 484.485 433.052Z" fill="#969EB2"/>
<path d="M486.97 431.449C486.553 431.977 485.999 432.27 485.344 432.377C485.734 431.797 486.288 431.511 486.97 431.449Z" fill="#969EB2"/>
<path d="M485.338 432.381C485.023 432.643 484.706 432.905 484.391 433.167C484.541 432.705 484.875 432.464 485.338 432.381Z" fill="#969EB2"/>
<path d="M132.509 496.767C132.835 497.033 133.16 497.297 133.488 497.563C133.162 497.297 132.835 497.033 132.509 496.767Z" fill="#969EB2"/>
<path d="M133.484 497.559C133.739 497.792 133.997 498.027 134.252 498.26C133.995 498.025 133.739 497.792 133.484 497.559Z" fill="#969EB2"/>
<path d="M210.058 477.669C210.062 459.295 210.064 440.921 210.068 422.547C210.575 422.04 211.121 421.978 211.708 422.401C211.712 440.87 211.718 459.338 211.723 477.805C211.168 477.762 210.614 477.716 210.058 477.669Z" fill="#969EB2"/>
<path d="M261.997 509.876C262.333 509.664 262.669 509.449 263.004 509.237C262.669 509.449 262.333 509.662 261.997 509.876Z" fill="#969EB2"/>
<path d="M280.997 501.66C281.279 501.398 281.563 501.136 281.845 500.872C281.561 501.136 281.279 501.398 280.997 501.66Z" fill="#969EB2"/>
<path d="M317.341 477.859C317.328 461.323 317.32 444.785 317.302 428.249C317.3 426.337 317.242 424.425 317.211 422.51C318.045 422.5 318.88 422.49 319.716 422.479C318.849 424.138 318.95 425.941 318.95 427.727C318.956 444.364 318.964 461.001 318.972 477.638C318.426 477.712 317.885 477.784 317.341 477.859Z" fill="#969EB2"/>
<path d="M135.993 398.55C135.717 398.802 135.441 399.052 135.167 399.303C135.443 399.052 135.719 398.802 135.993 398.55Z" fill="#969EB2"/>
<path d="M134.442 399.394C134.124 399.654 133.805 399.914 133.488 400.174C133.805 399.914 134.122 399.654 134.442 399.394Z" fill="#969EB2"/>
<path d="M154.061 386.15C154.376 385.692 154.689 385.234 155.005 384.776C155.81 384.665 156.624 384.415 157.417 384.471C159.219 384.597 160.488 385.932 160.583 387.609C160.667 389.125 159.73 390.536 158.16 390.981C157.394 391.198 156.545 391.118 155.734 391.171C155.192 390.823 154.65 390.476 154.11 390.127C154.094 388.801 154.078 387.477 154.061 386.15Z" fill="#969EB2"/>
<path d="M135.134 401.824C134.592 402.109 134.048 402.393 133.506 402.676C134.05 402.391 134.592 402.109 135.134 401.824Z" fill="#969EB2"/>
<path d="M133.49 402.686C133.173 402.948 132.858 403.208 132.541 403.47C132.856 403.208 133.173 402.946 133.49 402.686Z" fill="#969EB2"/>
<path d="M263.684 329.222C261.764 328.126 260.922 326.48 261.159 324.279C261.311 324.143 261.381 323.972 261.365 323.768C263.385 321.798 265.487 321.723 267.668 323.493C268.354 326.004 267.763 328.001 265.349 329.261C264.784 329.721 264.228 329.721 263.684 329.222Z" fill="#969EB2"/>
<path d="M214.316 295.372C214.176 295.548 214.133 295.741 214.185 295.96C214.044 296.406 213.733 296.73 213.414 297.049C212.652 297.322 211.906 297.761 211.125 297.835C208.969 298.044 207.417 296.556 207.444 294.465C207.473 292.344 209.014 290.968 211.222 291.244C212.001 291.341 212.734 291.795 213.49 292.086C213.688 292.431 214.026 292.664 214.22 293.01L214.135 292.932C214.932 293.693 214.71 294.526 214.316 295.372Z" fill="#969EB2"/>
<path d="M214.316 295.372C214.257 294.56 214.197 293.747 214.137 292.934C215.009 293.687 215.06 294.5 214.316 295.372Z" fill="#969EB2"/>
<path d="M213.414 297.049C213.672 296.686 213.927 296.325 214.185 295.962C213.929 296.323 213.672 296.686 213.414 297.049Z" fill="#969EB2"/>
<path d="M214.221 293.01C213.978 292.703 213.735 292.394 213.492 292.086C213.735 292.396 213.978 292.703 214.221 293.01Z" fill="#969EB2"/>
<path d="M280.986 396.064C284.797 398.938 289.107 400.984 293.208 403.367C294.836 404.312 296.348 405.543 298.249 405.983C300.977 408.493 304.503 409.712 307.536 411.74C309.216 412.864 311.05 413.76 312.795 414.789C313.981 415.488 315.248 415.909 316.604 416.095C315.31 417.458 315.396 419.16 315.438 420.852C314.045 417.722 314.076 417.669 311.035 415.878C305.035 412.342 298.995 408.873 292.971 405.374C290.491 403.934 288.001 402.511 285.539 401.038C284.363 400.334 283.225 399.577 281.845 399.33C281.645 399.351 281.446 399.371 281.246 399.392C280.846 399.466 280.449 399.464 280.051 399.373C277.043 397.234 273.319 396.562 270.254 394.48C268.521 393.304 266.838 392.258 266.216 390.119C266.109 388.679 266.445 387.477 267.946 386.909C268.634 388.935 269.996 390.241 271.939 391.171C274.483 392.39 276.907 393.861 279.384 395.225C279.777 395.771 280.56 395.569 280.982 396.06L280.986 396.064Z" fill="#969EB2"/>
<path d="M263.684 329.222C264.238 329.234 264.794 329.249 265.348 329.261C265.353 345.815 265.353 362.372 265.361 378.926C265.361 380.836 265.206 382.771 266.117 384.562C265.208 385.228 264.355 385.274 263.593 384.331C263.614 369.8 263.634 355.267 263.657 340.737C263.663 336.898 263.676 333.061 263.684 329.222Z" fill="#969EB2"/>
<path d="M263.594 384.331C264.434 384.407 265.275 384.486 266.117 384.562C266.966 385.16 267.639 385.894 267.951 386.914C267.668 388.077 267.386 389.242 267.102 390.406C267.059 390.608 267.015 390.812 266.972 391.017C266.785 391.4 266.517 391.714 266.173 391.968C265.215 392.547 264.191 392.64 263.12 392.38C262.71 392.277 262.337 392.091 261.997 391.846C261.69 391.58 261.431 391.264 261.216 390.918C260.788 390.171 260.858 389.401 261.124 388.622C261.043 386.668 261.909 385.263 263.594 384.331Z" fill="#969EB2"/>
<path d="M280.984 396.064C280.353 395.974 279.81 395.714 279.385 395.229C279.919 395.507 280.45 395.786 280.984 396.064Z" fill="#969EB2"/>
<path d="M776.128 371.304C775.427 371.718 774.77 372.259 774.016 372.519C772.56 373.022 770.939 372.339 770.127 371.038C769.404 369.878 769.49 368.284 770.337 367.199C771.219 366.068 772.589 365.567 773.963 366.035C774.721 366.293 775.394 366.803 776.107 367.197C776.921 368.562 776.876 369.932 776.128 371.304Z" fill="#969EB2"/>
<path d="M776.128 371.304C776.375 369.934 776.369 368.567 776.109 367.199C777.294 368.56 777.284 369.93 776.128 371.304Z" fill="#969EB2"/>
<path d="M112.864 462.084C112.258 462.81 111.772 463.71 111.022 464.227C109.495 465.282 107.332 464.747 106.329 463.258C105.382 461.851 105.645 459.994 106.96 458.825C108.346 457.593 110.42 457.67 111.718 459.128C112.246 459.722 112.519 460.541 112.909 461.257C113.125 461.453 113.191 461.641 113.107 461.82C113.02 461.995 112.94 462.084 112.864 462.084Z" fill="#969EB2"/>
<path d="M112.863 462.084C112.878 461.808 112.892 461.533 112.907 461.257C112.958 461.449 113.034 461.638 113.051 461.834C113.057 461.911 112.929 461.999 112.863 462.084Z" fill="#969EB2"/>
<path d="M489.435 419.95C489.153 419.695 488.871 419.437 488.589 419.181C488.871 419.437 489.153 419.692 489.435 419.95Z" fill="#969EB2"/>
<path d="M261.987 390.35C255.496 394.134 249.003 397.913 242.52 401.708C241.584 402.257 240.701 402.899 239.794 403.495C234.197 406.09 229.165 409.69 223.72 412.553C220.587 414.201 217.775 416.46 214.335 417.526C212.891 417.887 212.431 417.209 212.592 415.872C214.191 415.893 215.595 415.42 216.714 414.234C221.166 408.646 227.103 405.65 233.983 404.297L234.014 404.287C234.311 404.01 234.613 403.742 234.949 403.513C235.203 403.507 235.452 403.476 235.699 403.42C235.979 403.167 236.266 402.919 236.556 402.678C236.828 402.661 237.096 402.622 237.361 402.562C237.635 402.335 237.897 402.096 238.148 401.842L238.144 401.855C239.448 401.671 240.4 400.821 241.426 400.112C248.049 396.378 254.76 392.801 261.119 388.617C261.41 389.197 261.698 389.773 261.987 390.35Z" fill="#969EB2"/>
<path d="M212.592 415.874C213.173 416.425 213.754 416.976 214.335 417.529C214.4 419.662 213.605 421.33 211.71 422.405C211.162 422.453 210.616 422.502 210.07 422.552C209.537 422.155 208.95 421.813 208.48 421.351C207.296 420.188 207.127 418.768 207.792 417.308C208.41 415.95 209.611 415.406 211.055 415.474C211.57 415.495 212.079 415.732 212.592 415.874Z" fill="#969EB2"/>
<path d="M258.74 465.376C259.288 465.655 259.834 465.933 260.382 466.212C259.836 465.933 259.288 465.655 258.74 465.376Z" fill="#969EB2"/>
<path d="M257.869 464.564C258.159 464.834 258.448 465.104 258.738 465.372C258.448 465.104 258.157 464.834 257.869 464.564Z" fill="#969EB2"/>
<path d="M262.034 467.844C262.582 468.122 263.132 468.4 263.68 468.679C263.13 468.4 262.582 468.122 262.034 467.844Z" fill="#969EB2"/>
<path d="M187.25 379.652C190.208 378.561 192.843 379.05 195.123 381.265C195.651 382.839 196.128 384.424 196.044 386.115L196.073 386.099C195.626 386.586 195.793 387.359 195.274 387.813L195.282 387.801C195.014 388.065 194.777 388.351 194.567 388.665L194.485 388.752C194.173 388.95 193.902 389.189 193.665 389.472C192.886 389.709 192.122 390.039 191.325 390.169C188.937 390.557 187.025 389.682 185.692 387.693C184.341 385.676 184.395 383.58 185.711 381.552C186.154 380.871 186.735 380.284 187.25 379.652Z" fill="#969EB2"/>
<path d="M238.148 401.844C237.885 402.084 237.623 402.325 237.361 402.564C237.623 402.325 237.887 402.084 238.148 401.844Z" fill="#969EB2"/>
<path d="M236.556 402.678C236.27 402.926 235.983 403.173 235.699 403.421C235.986 403.173 236.272 402.926 236.556 402.678Z" fill="#969EB2"/>
<path d="M234.951 403.513C234.64 403.771 234.327 404.029 234.016 404.287C234.327 404.029 234.638 403.771 234.951 403.513Z" fill="#969EB2"/>
<path d="M195.275 387.813C195.345 387.151 195.591 386.569 196.075 386.099C196.011 386.765 195.766 387.347 195.275 387.813Z" fill="#969EB2"/>
<path d="M193.669 389.469C193.943 389.23 194.215 388.989 194.489 388.75C194.215 388.991 193.943 389.23 193.669 389.469Z" fill="#969EB2"/>
<path d="M194.571 388.663C194.81 388.374 195.047 388.087 195.286 387.799C195.047 388.087 194.808 388.376 194.571 388.663Z" fill="#969EB2"/>
<path d="M263.008 390.986C262.673 390.773 262.337 390.563 261.999 390.35C262.337 390.563 262.673 390.775 263.008 390.986Z" fill="#969EB2"/>
<path d="M267.044 390.427C266.713 390.627 266.383 390.825 266.051 391.025C266.383 390.825 266.715 390.625 267.044 390.427Z" fill="#969EB2"/>
<path d="M242.266 417.545C242.703 417.054 243.259 416.792 243.9 416.693C243.354 416.976 242.81 417.26 242.266 417.545Z" fill="#969EB2"/>
<path d="M258.749 408.45C259.294 408.171 259.838 407.895 260.384 407.616C259.838 407.893 259.292 408.171 258.749 408.45Z" fill="#969EB2"/>
<path d="M245.562 415.849C245.843 415.583 246.123 415.317 246.403 415.051C246.123 415.315 245.843 415.581 245.562 415.849Z" fill="#969EB2"/>
<path d="M257.875 409.261C258.161 408.992 258.45 408.722 258.736 408.454C258.45 408.724 258.163 408.992 257.875 409.261Z" fill="#969EB2"/>
</g>
</svg>
