<svg width="116" height="129" viewBox="0 0 116 129" fill="none" xmlns="http://www.w3.org/2000/svg">
<path d="M112.414 127.214C112.414 126.86 112.519 126.515 112.716 126.221C112.913 125.927 113.193 125.698 113.521 125.563C113.849 125.428 114.209 125.393 114.557 125.462C114.905 125.53 115.224 125.701 115.475 125.95C115.726 126.2 115.896 126.519 115.966 126.865C116.035 127.212 115.999 127.571 115.864 127.897C115.728 128.224 115.498 128.503 115.203 128.699C114.908 128.895 114.562 129 114.207 129C113.732 129 113.275 128.812 112.939 128.477C112.603 128.142 112.414 127.687 112.414 127.214Z" fill="#1F5FFF"/>
<path d="M84.3384 127.214C84.3384 126.86 84.4435 126.515 84.6405 126.221C84.8376 125.927 85.1176 125.698 85.4452 125.563C85.7728 125.428 86.1334 125.393 86.4811 125.462C86.8289 125.53 87.1484 125.701 87.3992 125.95C87.6499 126.2 87.8207 126.519 87.8899 126.865C87.9591 127.212 87.9236 127.571 87.7878 127.897C87.6521 128.224 87.4223 128.503 87.1275 128.699C86.8326 128.895 86.486 129 86.1313 129C85.6558 129 85.1998 128.812 84.8635 128.477C84.5273 128.142 84.3384 127.687 84.3384 127.214Z" fill="#1F5FFF"/>
<path d="M56.2627 127.214C56.2627 126.86 56.3678 126.515 56.5649 126.221C56.7619 125.927 57.0419 125.698 57.3695 125.563C57.6971 125.428 58.0577 125.393 58.4055 125.462C58.7533 125.53 59.0727 125.701 59.3235 125.95C59.5742 126.2 59.745 126.519 59.8141 126.865C59.8833 127.212 59.8479 127.571 59.7122 127.897C59.5765 128.224 59.3466 128.503 59.0518 128.699C58.7569 128.895 58.4103 129 58.0557 129C57.5801 129 57.1241 128.812 56.7878 128.477C56.4516 128.142 56.2627 127.687 56.2627 127.214Z" fill="#1F5FFF"/>
<path d="M28.187 127.214C28.187 126.86 28.2922 126.515 28.4892 126.221C28.6862 125.927 28.9662 125.698 29.2938 125.563C29.6215 125.428 29.982 125.393 30.3298 125.462C30.6776 125.53 30.997 125.701 31.2478 125.95C31.4985 126.2 31.6693 126.519 31.7384 126.865C31.8076 127.212 31.7721 127.571 31.6364 127.897C31.5007 128.224 31.2709 128.503 30.9761 128.699C30.6812 128.895 30.3346 129 29.98 129C29.5045 129 29.0484 128.812 28.7122 128.477C28.3759 128.142 28.187 127.687 28.187 127.214Z" fill="#1F5FFF"/>
<path d="M0.111328 127.214C0.111328 126.86 0.216481 126.515 0.413493 126.221C0.610506 125.927 0.890531 125.698 1.21815 125.563C1.54577 125.428 1.9063 125.393 2.2541 125.462C2.6019 125.53 2.92137 125.701 3.17212 125.95C3.42287 126.2 3.59359 126.519 3.66277 126.865C3.73195 127.212 3.69644 127.571 3.56074 127.897C3.42503 128.224 3.19525 128.503 2.9004 128.699C2.60555 128.895 2.25891 129 1.9043 129C1.42878 129 0.972725 128.812 0.63648 128.477C0.300235 128.142 0.111328 127.687 0.111328 127.214Z" fill="#1F5FFF"/>
<path d="M112.414 102.226C112.414 101.873 112.519 101.528 112.716 101.234C112.913 100.94 113.193 100.711 113.521 100.576C113.849 100.441 114.209 100.405 114.557 100.474C114.905 100.543 115.224 100.713 115.475 100.963C115.726 101.213 115.896 101.531 115.966 101.878C116.035 102.224 115.999 102.583 115.864 102.91C115.728 103.236 115.498 103.515 115.203 103.712C114.908 103.908 114.562 104.013 114.207 104.013C113.732 104.013 113.275 103.824 112.939 103.489C112.603 103.154 112.414 102.7 112.414 102.226Z" fill="#1F5FFF"/>
<path d="M84.3384 102.226C84.3384 101.873 84.4435 101.528 84.6405 101.234C84.8376 100.94 85.1176 100.711 85.4452 100.576C85.7728 100.441 86.1334 100.405 86.4811 100.474C86.8289 100.543 87.1484 100.713 87.3992 100.963C87.6499 101.213 87.8207 101.531 87.8899 101.878C87.9591 102.224 87.9236 102.583 87.7878 102.91C87.6521 103.236 87.4223 103.515 87.1275 103.712C86.8326 103.908 86.486 104.013 86.1313 104.013C85.6558 104.013 85.1998 103.824 84.8635 103.489C84.5273 103.154 84.3384 102.7 84.3384 102.226Z" fill="#1F5FFF"/>
<path d="M56.2627 102.226C56.2627 101.873 56.3678 101.528 56.5649 101.234C56.7619 100.94 57.0419 100.711 57.3695 100.576C57.6971 100.441 58.0577 100.405 58.4055 100.474C58.7533 100.543 59.0727 100.713 59.3235 100.963C59.5742 101.213 59.745 101.531 59.8141 101.878C59.8833 102.224 59.8479 102.583 59.7122 102.91C59.5765 103.236 59.3466 103.515 59.0518 103.712C58.7569 103.908 58.4103 104.013 58.0557 104.013C57.5801 104.013 57.1241 103.824 56.7878 103.489C56.4516 103.154 56.2627 102.7 56.2627 102.226Z" fill="#1F5FFF"/>
<path d="M28.187 102.226C28.187 101.873 28.2922 101.528 28.4892 101.234C28.6862 100.94 28.9662 100.711 29.2938 100.576C29.6215 100.441 29.982 100.405 30.3298 100.474C30.6776 100.543 30.997 100.713 31.2478 100.963C31.4985 101.213 31.6693 101.531 31.7384 101.878C31.8076 102.224 31.7721 102.583 31.6364 102.91C31.5007 103.236 31.2709 103.515 30.9761 103.712C30.6812 103.908 30.3346 104.013 29.98 104.013C29.5045 104.013 29.0484 103.824 28.7122 103.489C28.3759 103.154 28.187 102.7 28.187 102.226Z" fill="#1F5FFF"/>
<path d="M0.111328 102.226C0.111328 101.873 0.216481 101.528 0.413493 101.234C0.610506 100.94 0.890531 100.711 1.21815 100.576C1.54577 100.441 1.9063 100.405 2.2541 100.474C2.6019 100.543 2.92137 100.713 3.17212 100.963C3.42287 101.213 3.59359 101.531 3.66277 101.878C3.73195 102.224 3.69644 102.583 3.56074 102.91C3.42503 103.236 3.19525 103.515 2.9004 103.712C2.60555 103.908 2.25891 104.013 1.9043 104.013C1.42878 104.013 0.972725 103.824 0.63648 103.489C0.300235 103.154 0.111328 102.7 0.111328 102.226Z" fill="#1F5FFF"/>
<path d="M112.414 77.218C112.414 76.8647 112.519 76.5193 112.716 76.2255C112.913 75.9317 113.193 75.7028 113.521 75.5676C113.849 75.4324 114.209 75.397 114.557 75.466C114.905 75.5349 115.224 75.705 115.475 75.9549C115.726 76.2047 115.896 76.523 115.966 76.8695C116.035 77.216 115.999 77.5751 115.864 77.9015C115.728 78.2279 115.498 78.5069 115.203 78.7032C114.908 78.8995 114.562 79.0042 114.207 79.0042C113.732 79.0042 113.275 78.816 112.939 78.481C112.603 78.146 112.414 77.6917 112.414 77.218Z" fill="#1F5FFF"/>
<path d="M86.1313 79.0043C87.1216 79.0043 87.9243 78.2045 87.9243 77.218C87.9243 76.2314 87.1216 75.4316 86.1313 75.4316C85.1411 75.4316 84.3384 76.2314 84.3384 77.218C84.3384 78.2045 85.1411 79.0043 86.1313 79.0043Z" fill="#1F5FFF"/>
<path d="M58.0556 79.0043C59.0459 79.0043 59.8486 78.2045 59.8486 77.218C59.8486 76.2314 59.0459 75.4316 58.0556 75.4316C57.0654 75.4316 56.2627 76.2314 56.2627 77.218C56.2627 78.2045 57.0654 79.0043 58.0556 79.0043Z" fill="#1F5FFF"/>
<path d="M28.187 77.218C28.187 76.8647 28.2922 76.5193 28.4892 76.2255C28.6862 75.9317 28.9662 75.7028 29.2938 75.5676C29.6215 75.4324 29.982 75.397 30.3298 75.466C30.6776 75.5349 30.997 75.705 31.2478 75.9549C31.4985 76.2047 31.6693 76.523 31.7384 76.8695C31.8076 77.216 31.7721 77.5751 31.6364 77.9015C31.5007 78.2279 31.2709 78.5069 30.9761 78.7032C30.6812 78.8995 30.3346 79.0042 29.98 79.0042C29.5045 79.0042 29.0484 78.816 28.7122 78.481C28.3759 78.146 28.187 77.6917 28.187 77.218Z" fill="#1F5FFF"/>
<path d="M0.111328 77.218C0.111328 76.8647 0.216481 76.5193 0.413493 76.2255C0.610506 75.9317 0.890531 75.7028 1.21815 75.5676C1.54577 75.4324 1.9063 75.397 2.2541 75.466C2.6019 75.5349 2.92137 75.705 3.17212 75.9549C3.42287 76.2047 3.59359 76.523 3.66277 76.8695C3.73195 77.216 3.69644 77.5751 3.56074 77.9015C3.42503 78.2279 3.19525 78.5069 2.9004 78.7032C2.60555 78.8995 2.25891 79.0042 1.9043 79.0042C1.42878 79.0042 0.972725 78.816 0.63648 78.481C0.300235 78.146 0.111328 77.6917 0.111328 77.218Z" fill="#1F5FFF"/>
<path d="M112.414 52.2307C112.414 51.8774 112.519 51.532 112.716 51.2383C112.913 50.9445 113.193 50.7155 113.521 50.5803C113.849 50.4451 114.209 50.4097 114.557 50.4787C114.905 50.5476 115.224 50.7177 115.475 50.9676C115.726 51.2174 115.896 51.5357 115.966 51.8822C116.035 52.2287 115.999 52.5879 115.864 52.9143C115.728 53.2407 115.498 53.5197 115.203 53.716C114.908 53.9122 114.562 54.017 114.207 54.017C113.732 54.017 113.275 53.8288 112.939 53.4938C112.603 53.1588 112.414 52.7044 112.414 52.2307Z" fill="#1F5FFF"/>
<path d="M86.1313 54.017C87.1216 54.017 87.9243 53.2172 87.9243 52.2307C87.9243 51.2441 87.1216 50.4443 86.1313 50.4443C85.1411 50.4443 84.3384 51.2441 84.3384 52.2307C84.3384 53.2172 85.1411 54.017 86.1313 54.017Z" fill="#1F5FFF"/>
<path d="M58.0556 54.017C59.0459 54.017 59.8486 53.2172 59.8486 52.2307C59.8486 51.2441 59.0459 50.4443 58.0556 50.4443C57.0654 50.4443 56.2627 51.2441 56.2627 52.2307C56.2627 53.2172 57.0654 54.017 58.0556 54.017Z" fill="#1F5FFF"/>
<path d="M28.187 52.2307C28.187 51.8774 28.2922 51.532 28.4892 51.2383C28.6862 50.9445 28.9662 50.7155 29.2938 50.5803C29.6215 50.4451 29.982 50.4097 30.3298 50.4787C30.6776 50.5476 30.997 50.7177 31.2478 50.9676C31.4985 51.2174 31.6693 51.5357 31.7384 51.8822C31.8076 52.2287 31.7721 52.5879 31.6364 52.9143C31.5007 53.2407 31.2709 53.5197 30.9761 53.716C30.6812 53.9122 30.3346 54.017 29.98 54.017C29.5045 54.017 29.0484 53.8288 28.7122 53.4938C28.3759 53.1588 28.187 52.7044 28.187 52.2307Z" fill="#1F5FFF"/>
<path d="M0.111328 52.2307C0.111328 51.8774 0.216481 51.532 0.413493 51.2383C0.610506 50.9445 0.890531 50.7155 1.21815 50.5803C1.54577 50.4451 1.9063 50.4097 2.2541 50.4787C2.6019 50.5476 2.92137 50.7177 3.17212 50.9676C3.42287 51.2174 3.59359 51.5357 3.66277 51.8822C3.73195 52.2287 3.69644 52.5879 3.56074 52.9143C3.42503 53.2407 3.19525 53.5197 2.9004 53.716C2.60555 53.9122 2.25891 54.017 1.9043 54.017C1.42878 54.017 0.972725 53.8288 0.63648 53.4938C0.300235 53.1588 0.111328 52.7044 0.111328 52.2307Z" fill="#1F5FFF"/>
<path d="M112.414 27.2428C112.414 26.8895 112.519 26.5442 112.716 26.2504C112.913 25.9567 113.193 25.7277 113.521 25.5925C113.849 25.4573 114.209 25.4219 114.557 25.4909C114.905 25.5598 115.224 25.7299 115.475 25.9798C115.726 26.2296 115.896 26.5479 115.966 26.8944C116.035 27.2409 115.999 27.6 115.864 27.9264C115.728 28.2528 115.498 28.5318 115.203 28.7281C114.908 28.9244 114.562 29.0292 114.207 29.0292C113.732 29.0292 113.275 28.8409 112.939 28.5059C112.603 28.1709 112.414 27.7166 112.414 27.2428Z" fill="#1F5FFF"/>
<path d="M86.1313 29.0082C87.1216 29.0082 87.9243 28.2084 87.9243 27.2219C87.9243 26.2353 87.1216 25.4355 86.1313 25.4355C85.1411 25.4355 84.3384 26.2353 84.3384 27.2219C84.3384 28.2084 85.1411 29.0082 86.1313 29.0082Z" fill="#1F5FFF"/>
<path d="M58.0556 29.0082C59.0459 29.0082 59.8486 28.2084 59.8486 27.2219C59.8486 26.2353 59.0459 25.4355 58.0556 25.4355C57.0654 25.4355 56.2627 26.2353 56.2627 27.2219C56.2627 28.2084 57.0654 29.0082 58.0556 29.0082Z" fill="#1F5FFF"/>
<path d="M28.187 27.2428C28.187 26.8895 28.2922 26.5442 28.4892 26.2504C28.6862 25.9567 28.9662 25.7277 29.2938 25.5925C29.6215 25.4573 29.982 25.4219 30.3298 25.4909C30.6776 25.5598 30.997 25.7299 31.2478 25.9798C31.4985 26.2296 31.6693 26.5479 31.7384 26.8944C31.8076 27.2409 31.7721 27.6 31.6364 27.9264C31.5007 28.2528 31.2709 28.5318 30.9761 28.7281C30.6812 28.9244 30.3346 29.0292 29.98 29.0292C29.5045 29.0292 29.0484 28.8409 28.7122 28.5059C28.3759 28.1709 28.187 27.7166 28.187 27.2428Z" fill="#1F5FFF"/>
<path d="M0.111328 27.2428C0.111328 26.8895 0.216481 26.5442 0.413493 26.2504C0.610506 25.9567 0.890531 25.7277 1.21815 25.5925C1.54577 25.4573 1.9063 25.4219 2.2541 25.4909C2.6019 25.5598 2.92137 25.7299 3.17212 25.9798C3.42287 26.2296 3.59359 26.5479 3.66277 26.8944C3.73195 27.2409 3.69644 27.6 3.56074 27.9264C3.42503 28.2528 3.19525 28.5318 2.9004 28.7281C2.60555 28.9244 2.25891 29.0292 1.9043 29.0292C1.42878 29.0292 0.972725 28.8409 0.63648 28.5059C0.300235 28.1709 0.111328 27.7166 0.111328 27.2428Z" fill="#1F5FFF"/>
<path d="M112.414 2.23452C112.414 1.88122 112.519 1.53587 112.716 1.24211C112.913 0.948349 113.193 0.719421 113.521 0.584219C113.849 0.449017 114.209 0.413641 114.557 0.482566C114.905 0.551492 115.224 0.721576 115.475 0.971397C115.726 1.22122 115.896 1.5395 115.966 1.88602C116.035 2.23253 115.999 2.59172 115.864 2.91813C115.728 3.24453 115.498 3.52352 115.203 3.7198C114.908 3.91609 114.562 4.02085 114.207 4.02085C113.732 4.02085 113.275 3.83264 112.939 3.49764C112.603 3.16264 112.414 2.70828 112.414 2.23452Z" fill="#1F5FFF"/>
<path d="M84.3384 2.23452C84.3384 1.88122 84.4435 1.53587 84.6405 1.24211C84.8376 0.948349 85.1176 0.719421 85.4452 0.584219C85.7728 0.449017 86.1334 0.413641 86.4811 0.482566C86.8289 0.551492 87.1484 0.721576 87.3992 0.971397C87.6499 1.22122 87.8207 1.5395 87.8899 1.88602C87.9591 2.23253 87.9236 2.59172 87.7878 2.91813C87.6521 3.24453 87.4223 3.52352 87.1275 3.7198C86.8326 3.91609 86.486 4.02085 86.1313 4.02085C85.6558 4.02085 85.1998 3.83264 84.8635 3.49764C84.5273 3.16264 84.3384 2.70828 84.3384 2.23452Z" fill="#1F5FFF"/>
<path d="M56.2627 2.23452C56.2627 1.88122 56.3678 1.53587 56.5649 1.24211C56.7619 0.948349 57.0419 0.719421 57.3695 0.584219C57.6971 0.449017 58.0577 0.413641 58.4055 0.482566C58.7533 0.551492 59.0727 0.721576 59.3235 0.971397C59.5742 1.22122 59.745 1.5395 59.8141 1.88602C59.8833 2.23253 59.8479 2.59172 59.7122 2.91813C59.5765 3.24453 59.3466 3.52352 59.0518 3.7198C58.7569 3.91609 58.4103 4.02085 58.0557 4.02085C57.5801 4.02085 57.1241 3.83264 56.7878 3.49764C56.4516 3.16264 56.2627 2.70828 56.2627 2.23452Z" fill="#1F5FFF"/>
<path d="M28.187 2.23452C28.187 1.88122 28.2922 1.53587 28.4892 1.24211C28.6862 0.948349 28.9662 0.719421 29.2938 0.584219C29.6215 0.449017 29.982 0.413641 30.3298 0.482566C30.6776 0.551492 30.997 0.721576 31.2478 0.971397C31.4985 1.22122 31.6693 1.5395 31.7384 1.88602C31.8076 2.23253 31.7721 2.59172 31.6364 2.91813C31.5007 3.24453 31.2709 3.52352 30.9761 3.7198C30.6812 3.91609 30.3346 4.02085 29.98 4.02085C29.5045 4.02085 29.0484 3.83264 28.7122 3.49764C28.3759 3.16264 28.187 2.70828 28.187 2.23452Z" fill="#1F5FFF"/>
<path d="M0.111328 2.23452C0.111328 1.88122 0.216481 1.53587 0.413493 1.24211C0.610506 0.948349 0.890531 0.719421 1.21815 0.584219C1.54577 0.449017 1.9063 0.413641 2.2541 0.482566C2.6019 0.551492 2.92137 0.721576 3.17212 0.971397C3.42287 1.22122 3.59359 1.5395 3.66277 1.88602C3.73195 2.23253 3.69644 2.59172 3.56074 2.91813C3.42503 3.24453 3.19525 3.52352 2.9004 3.7198C2.60555 3.91609 2.25891 4.02085 1.9043 4.02085C1.42878 4.02085 0.972725 3.83264 0.63648 3.49764C0.300235 3.16264 0.111328 2.70828 0.111328 2.23452Z" fill="#1F5FFF"/>
</svg>
