<svg width="16" height="11" viewBox="0 0 16 11" fill="none" xmlns="http://www.w3.org/2000/svg">
<path d="M6.34375 5.25781C7.51953 5.58594 8.09375 6.48828 8.09375 7.69141C8.09375 9.66016 6.45312 10.5078 4.67578 10.5078H0V0.828125H4.56641C6.20703 0.828125 7.65625 1.29297 7.65625 3.23438C7.65625 4.19141 7.19141 4.82031 6.34375 5.25781ZM2.10547 2.46875V4.73828H4.26562C5.03125 4.73828 5.57812 4.41016 5.57812 3.58984C5.57812 2.6875 4.89453 2.46875 4.12891 2.46875H2.10547ZM4.40234 8.86719C5.25 8.86719 5.96094 8.56641 5.96094 7.58203C5.96094 6.59766 5.38672 6.1875 4.42969 6.1875H2.10547V8.86719H4.40234ZM14.1914 2.27734V1.32031H10.2812V2.27734H14.1914ZM15.75 7.11719C15.75 7.22656 15.7227 7.36328 15.7227 7.47266H10.6641C10.6641 8.59375 11.2656 9.25 12.3867 9.25C12.9609 9.25 13.7266 8.94922 13.918 8.34766H15.6133C15.0938 9.93359 14 10.6992 12.332 10.6992C10.1172 10.6992 8.72266 9.19531 8.72266 7.00781C8.72266 4.90234 10.1719 3.28906 12.332 3.28906C14.5195 3.28906 15.75 5.03906 15.75 7.11719ZM10.6641 6.24219H13.8086C13.7266 5.3125 13.2344 4.76562 12.25 4.76562C11.3477 4.76562 10.7188 5.33984 10.6641 6.24219Z" fill="#000D44"/>
</svg>
