<svg width="70" height="70" viewBox="0 0 70 70" fill="none" xmlns="http://www.w3.org/2000/svg">
<rect width="70" height="70" rx="16" fill="#1F5FFF"/>
<path d="M35 17C31.4399 17 27.9598 18.0557 24.9997 20.0335C22.0397 22.0114 19.7326 24.8226 18.3702 28.1117C17.0078 31.4008 16.6513 35.02 17.3459 38.5116C18.0404 42.0033 19.7547 45.2106 22.2721 47.7279C24.7894 50.2453 27.9967 51.9596 31.4884 52.6541C34.98 53.3487 38.5992 52.9922 41.8883 51.6298C45.1774 50.2674 47.9886 47.9603 49.9664 45.0003C51.9443 42.0402 53 38.5601 53 35C53 32.6362 52.5344 30.2956 51.6298 28.1117C50.7252 25.9278 49.3994 23.9435 47.7279 22.2721C46.0565 20.6006 44.0722 19.2748 41.8883 18.3702C39.7044 17.4656 37.3638 17 35 17ZM35 49.4C32.152 49.4 29.3679 48.5554 26.9998 46.9732C24.6317 45.3909 22.786 43.1419 21.6961 40.5106C20.6062 37.8794 20.3211 34.984 20.8767 32.1907C21.4323 29.3974 22.8038 26.8315 24.8177 24.8177C26.8315 22.8038 29.3974 21.4323 32.1907 20.8767C34.984 20.3211 37.8794 20.6062 40.5106 21.6961C43.1419 22.786 45.3909 24.6317 46.9732 26.9998C48.5555 29.3679 49.4 32.1519 49.4 35C49.4 38.8191 47.8829 42.4818 45.1823 45.1823C42.4818 47.8829 38.8191 49.4 35 49.4Z" fill="white"/>
<path d="M42.1953 33.2H36.7953V27.8C36.7953 27.3226 36.6057 26.8648 36.2681 26.5272C35.9305 26.1896 35.4727 26 34.9953 26C34.5179 26 34.0601 26.1896 33.7225 26.5272C33.385 26.8648 33.1953 27.3226 33.1953 27.8V35C33.1953 35.4774 33.385 35.9352 33.7225 36.2728C34.0601 36.6104 34.5179 36.8 34.9953 36.8H42.1953C42.6727 36.8 43.1305 36.6104 43.4681 36.2728C43.8057 35.9352 43.9953 35.4774 43.9953 35C43.9953 34.5226 43.8057 34.0648 43.4681 33.7272C43.1305 33.3896 42.6727 33.2 42.1953 33.2Z" fill="white"/>
</svg>
