<svg width="23" height="21" viewBox="0 0 23 21" fill="none" xmlns="http://www.w3.org/2000/svg">
<path d="M4 0.5C4.49479 0.526042 4.80729 0.786458 4.9375 1.28125L4.97656 1.75H21.4219C21.8385 1.77604 22.1641 1.94531 22.3984 2.25781C22.6328 2.57031 22.7109 2.9349 22.6328 3.35156L20.5234 10.8516C20.3151 11.4245 19.9115 11.724 19.3125 11.75H6.92969L7.28125 13.625H19.3125C19.8854 13.6771 20.1979 13.9896 20.25 14.5625C20.1979 15.1354 19.8854 15.4479 19.3125 15.5H6.46094C5.99219 15.474 5.69271 15.2266 5.5625 14.7578L3.21875 2.375H1.1875C0.614583 2.32292 0.302083 2.01042 0.25 1.4375C0.302083 0.864583 0.614583 0.552083 1.1875 0.5H4ZM18.8438 9.875L20.6016 3.625H5.36719L6.57812 9.875H18.8438ZM5.25 18.625C5.27604 18.1042 5.45833 17.6615 5.79688 17.2969C6.16146 16.9583 6.60417 16.776 7.125 16.75C7.64583 16.776 8.08854 16.9583 8.45312 17.2969C8.79167 17.6615 8.97396 18.1042 9 18.625C8.97396 19.1458 8.79167 19.5885 8.45312 19.9531C8.08854 20.2917 7.64583 20.474 7.125 20.5C6.60417 20.474 6.16146 20.2917 5.79688 19.9531C5.45833 19.5885 5.27604 19.1458 5.25 18.625ZM20.25 18.625C20.224 19.1458 20.0417 19.5885 19.7031 19.9531C19.3385 20.2917 18.8958 20.474 18.375 20.5C17.8542 20.474 17.4115 20.2917 17.0469 19.9531C16.7083 19.5885 16.526 19.1458 16.5 18.625C16.526 18.1042 16.7083 17.6615 17.0469 17.2969C17.4115 16.9583 17.8542 16.776 18.375 16.75C18.8958 16.776 19.3385 16.9583 19.7031 17.2969C20.0417 17.6615 20.224 18.1042 20.25 18.625Z" fill="#000D44"/>
</svg>
