<svg width="70" height="70" viewBox="0 0 70 70" fill="none" xmlns="http://www.w3.org/2000/svg">
<mask id="mask0_6_7304" style="mask-type:luminance" maskUnits="userSpaceOnUse" x="2" y="18" width="22" height="24">
<path d="M3.62341 19.6285H22.439V40.2952H3.62341V19.6285Z" fill="white" stroke="white" stroke-width="1.69605"/>
</mask>
<g mask="url(#mask0_6_7304)">
<path d="M10.2009 40.2789H3.74729C3.71955 40.2789 3.69101 40.2681 3.66662 40.2437C3.64224 40.2193 3.63147 40.1908 3.63147 40.1631V29.1456C3.63147 23.9894 7.82319 19.8007 12.9813 19.8007C15.5647 19.8007 17.9023 20.8446 19.5946 22.5358C21.2895 24.2385 22.3322 26.564 22.3322 29.1456V32.6649L11.5715 32.8106L11.5692 32.8106L10.6682 32.8204H10.1271H9.21732L9.28117 33.7279L9.41856 35.6809C9.41857 35.6809 9.41857 35.681 9.41857 35.681C9.41858 35.6811 9.41858 35.6811 9.41858 35.6811C9.52712 37.2306 9.78929 38.7732 10.2009 40.2789Z" fill="#04CE78" stroke="black" stroke-width="1.69605"/>
</g>
<path d="M12.8978 45.9283C14.051 47.9828 15.4995 49.9028 17.2155 51.627L17.2167 51.6282C18.877 53.2848 20.7091 54.7009 22.6746 55.8357L17.8228 60.674C17.6345 60.8557 17.3453 60.8486 17.1735 60.6769L17.1734 60.6768L7.9747 51.485L7.97436 51.4846C7.79924 51.31 7.79924 51.0148 7.97436 50.8401L7.97441 50.8401L12.8978 45.9283Z" fill="#FFE534" stroke="black"/>
<mask id="mask1_6_7304" style="mask-type:luminance" maskUnits="userSpaceOnUse" x="27" y="57" width="16" height="9">
<path d="M27.8071 57.9756H42.1344V65.5H27.8071V57.9756Z" fill="white" stroke="white"/>
</mask>
<g mask="url(#mask1_6_7304)">
<path d="M28.0359 58.1721C29.8395 58.7105 31.6984 59.0385 33.5812 59.1485C34.048 59.1777 34.522 59.1877 35.0003 59.1877C37.403 59.1877 39.7427 58.8426 41.9558 58.2037V64.9046C41.9558 65.1624 41.7477 65.3684 41.4988 65.3684H28.4997C28.2481 65.3684 28.0359 65.1568 28.0359 64.9046V58.1721Z" fill="#FFE534" stroke="black"/>
</g>
<path d="M47.4068 55.9017C51.5095 53.5847 54.9151 50.1475 57.1833 45.996L62.0252 50.8369L62.0265 50.8383C62.2024 51.0128 62.2024 51.3065 62.0265 51.4809L62.025 51.4824L52.8387 60.6737C52.8386 60.6738 52.8385 60.6739 52.8384 60.674C52.6622 60.8493 52.3564 60.8486 52.182 60.6742L52.1819 60.6741L47.4068 55.9017Z" fill="#FFE534" stroke="black"/>
<path d="M14.7238 39.8147L14.7239 39.8153C15.7395 43.1477 17.6128 46.251 20.142 48.7859L20.1421 48.786C23.9425 52.5958 28.7978 54.831 33.815 55.1064L14.7238 39.8147ZM14.7238 39.8147L13.9613 37.3192H56.0415L55.3404 39.78C55.3404 39.78 55.3404 39.7801 55.3404 39.7801C52.7626 48.8218 44.3952 55.1385 35.0005 55.1385C34.5966 55.1385 34.2018 55.1272 33.8152 55.1064L14.7238 39.8147Z" fill="#FFE534" stroke="black" stroke-width="1.69605"/>
<mask id="mask2_6_7304" style="mask-type:luminance" maskUnits="userSpaceOnUse" x="6" y="4" width="14" height="12">
<path d="M7.80261 4.84802H18.1674V14.9173H7.80261V4.84802Z" fill="white" stroke="white" stroke-width="1.69605"/>
</mask>
<g mask="url(#mask2_6_7304)">
<path d="M17.9245 9.91858C17.9245 12.6469 15.713 14.8595 12.9816 14.8595C10.253 14.8595 8.03967 12.6468 8.03967 9.91858C8.03967 7.19141 10.2529 4.97864 12.9816 4.97864C15.7131 4.97864 17.9245 7.19132 17.9245 9.91858Z" fill="#1F5FFF" stroke="black" stroke-width="1.69605"/>
</g>
<mask id="mask3_6_7304" style="mask-type:luminance" maskUnits="userSpaceOnUse" x="51" y="4" width="12" height="12">
<path d="M52.0255 4.84802H62.139V14.9173H52.0255V4.84802Z" fill="white" stroke="white" stroke-width="1.69605"/>
</mask>
<g mask="url(#mask3_6_7304)">
<path d="M61.9626 9.91858C61.9626 12.6468 59.7493 14.8595 57.0207 14.8595C54.2888 14.8595 52.0758 12.6465 52.0758 9.91858C52.0758 7.19169 54.2887 4.97864 57.0207 4.97864C59.7494 4.97864 61.9626 7.19141 61.9626 9.91858Z" fill="#1F5FFF" stroke="black" stroke-width="1.69605"/>
</g>
<mask id="mask4_6_7304" style="mask-type:luminance" maskUnits="userSpaceOnUse" x="46" y="18" width="22" height="24">
<path d="M47.5026 19.6285H66.377V40.2952H47.5026V19.6285Z" fill="white" stroke="white" stroke-width="1.69605"/>
</mask>
<g mask="url(#mask4_6_7304)">
<path d="M59.8228 40.2789C60.2106 38.7931 60.4653 37.2535 60.5735 35.6726L60.5735 35.6715L60.7041 33.7252L60.7648 32.8204H59.8579H59.3422L58.4237 32.8106L58.4212 32.8106L47.6696 32.6649V29.1456C47.6696 23.9895 51.8612 19.8007 57.0204 19.8007C59.6056 19.8007 61.9402 20.8445 63.6326 22.5358C65.3276 24.2385 66.3703 26.564 66.3703 29.1456V40.1631C66.3703 40.1897 66.3599 40.2183 66.3348 40.2433C66.3096 40.2685 66.2806 40.2789 66.2544 40.2789H59.8228Z" fill="#04CE78" stroke="black" stroke-width="1.69605"/>
</g>
<path d="M39.9433 13.6473C39.9433 16.3735 37.732 18.5863 35.0004 18.5863C32.2698 18.5863 30.0585 16.3736 30.0585 13.6473C30.0585 10.9184 32.2695 8.70838 35.0004 8.70838C37.7323 8.70838 39.9433 10.9185 39.9433 13.6473Z" fill="#04CE78" stroke="black" stroke-width="1.69605"/>
<path d="M43.8767 29.9389L43.876 29.9369C43.4173 28.5392 42.6349 27.2927 41.6138 26.2706C41.6137 26.2706 41.6137 26.2705 41.6137 26.2705M43.8767 29.9389L25.3224 29.6724C26.6661 25.6158 30.4852 22.687 35.0001 22.687C37.82 22.687 40.368 23.8265 42.2132 25.6708L41.6133 26.2702C41.6134 26.2703 41.6135 26.2704 41.6137 26.2705M43.8767 29.9389C44.1584 30.79 44.3252 31.7062 44.3482 32.6533M43.8767 29.9389L44.3482 32.6533M41.6137 26.2705C39.9212 24.579 37.5865 23.535 35.0001 23.535C30.862 23.535 27.3597 26.2188 26.1275 29.9391L26.1268 29.9411C25.843 30.7909 25.6761 31.7063 25.653 32.6533H44.3482M41.6137 26.2705L44.3482 32.6533" fill="#1F5FFF" stroke="black" stroke-width="1.69605"/>
</svg>
