<svg width="69" height="60" viewBox="0 0 69 60" fill="none" xmlns="http://www.w3.org/2000/svg">
<path d="M20.2671 10.6447L20.2669 10.6448C20.105 10.7581 20.0206 10.8388 19.9597 10.9321C19.8978 11.0271 19.8362 11.1729 19.7874 11.4485C19.6853 12.0249 19.6644 12.995 19.6644 14.8411C19.6644 16.006 19.684 16.8969 19.7491 17.5828C19.8148 18.276 19.923 18.7086 20.0688 18.9864C20.1993 19.2352 20.3653 19.3717 20.6224 19.4602C20.9111 19.5597 21.3171 19.5986 21.9229 19.5986C22.3273 19.5986 22.6957 19.6151 23.101 19.7067C23.5058 19.7982 23.9242 19.959 24.4446 20.2237C25.4695 20.7449 26.9665 21.7101 29.638 23.4646C31.0188 24.3714 32.0245 24.835 32.7456 24.9457C33.0954 24.9994 33.3514 24.9656 33.5454 24.8825C33.7361 24.8008 33.9094 24.6534 34.0654 24.4042C34.2165 24.1628 34.2527 23.9873 34.2463 23.8729C34.2407 23.7702 34.1991 23.6709 34.0869 23.5686C33.8317 23.3358 33.2422 23.126 32.2457 23.1245H32.2457C31.4569 23.1233 30.8064 23.0295 30.0238 22.7226C29.2621 22.4239 28.3855 21.9269 27.1365 21.1485L20.2671 10.6447ZM20.2671 10.6447C20.5713 10.4315 20.9176 10.0071 21.2281 9.5541C21.551 9.08313 21.8777 8.51781 22.133 7.96653C23.7518 4.4721 26.7498 1.93759 30.5546 0.857837C31.5282 0.581589 33.4237 0.436327 35.1638 0.52682L35.1639 0.526827C40.2962 0.792444 44.2583 3.33247 46.3152 7.62247L46.766 7.4063L20.2671 10.6447ZM43.7736 21.3992L43.7736 21.3991C43.9219 21.1767 44.0152 21.028 44.072 20.9138C44.0992 20.8593 44.1128 20.8227 44.1195 20.7988C44.1227 20.7874 44.1241 20.7798 44.1247 20.7754C44.1253 20.7711 44.1253 20.7692 44.1253 20.7691L44.1252 20.7683C44.125 20.7675 44.1244 20.7647 44.1225 20.7592C44.1183 20.7477 44.108 20.7246 44.0831 20.6861C44.0291 20.6023 43.9378 20.4929 43.7802 20.3189C43.5919 20.1111 43.4561 19.8213 43.352 19.5226C43.2442 19.2135 43.1543 18.8469 43.0801 18.4471C42.9318 17.6469 42.8395 16.674 42.8054 15.6792C42.7713 14.6832 42.795 13.6524 42.8831 12.7347C42.97 11.8284 43.1232 10.9907 43.3676 10.4054L43.3677 10.4053C43.5144 10.0543 43.6137 9.80568 43.6749 9.60687C43.735 9.41172 43.7479 9.2964 43.7422 9.21098C43.7306 9.03778 43.6417 8.85838 43.2497 8.30784C42.6401 7.45164 41.7167 6.53936 40.7072 5.76007C39.6955 4.9791 38.6321 4.35866 37.7554 4.05984L43.7736 21.3992ZM43.7736 21.3992C41.427 24.9194 38.6494 26.6438 35.033 26.9037M43.7736 21.3992L35.033 26.9037M23.2346 10.5377C22.9421 10.2454 22.645 9.92179 22.6603 9.3974C22.6669 9.17131 22.7308 8.93933 22.8186 8.69734C22.9076 8.45229 23.0357 8.15893 23.1958 7.80379C23.6483 6.79996 24.56 5.66137 25.5969 4.66771C26.6368 3.67112 27.8517 2.77325 28.9501 2.27872L23.2346 10.5377ZM23.2346 10.5377C23.9797 11.2831 24.2315 12.3308 24.0328 15.7633M23.2346 10.5377L24.0328 15.7633M24.0328 15.7633C24.0328 15.7634 24.0328 15.7634 24.0328 15.7634L24.0328 15.7633ZM35.033 26.9037C33.2882 27.0288 31.832 26.8716 30.5178 26.4046M35.033 26.9037L30.5178 26.4046M30.5178 26.4046C29.2044 25.9379 28.0026 25.1509 26.7816 23.9742L30.5178 26.4046ZM53.2866 45.1515V53.0538H50.2854H47.2843V48.1492C47.2843 45.933 47.259 44.5446 47.1699 43.6856C47.1258 43.2596 47.0623 42.9207 46.9574 42.6637C46.845 42.3886 46.6656 42.1635 46.3801 42.0539L46.3798 42.0538C46.2726 42.0126 46.1068 41.9682 45.9187 42.0118C45.7136 42.0593 45.5708 42.1896 45.4797 42.3285C45.3957 42.4566 45.345 42.606 45.3098 42.7504C45.2732 42.8998 45.2456 43.0769 45.2236 43.2808C45.1369 44.0837 45.1173 45.5145 45.1173 47.9252V53.0538H34.3359H23.5545V47.9131C23.5545 45.5444 23.5321 44.1054 23.4445 43.2584C23.4017 42.8452 23.3384 42.5076 23.2179 42.2637C23.1533 42.1331 23.0593 42.0016 22.9173 41.9056C22.7698 41.8058 22.6122 41.7724 22.471 41.7724C22.3298 41.7724 22.1722 41.8058 22.0247 41.9056C21.8827 42.0016 21.7886 42.1331 21.7241 42.2637C21.6036 42.5076 21.5402 42.8452 21.4975 43.2584C21.4098 44.1054 21.3875 45.5444 21.3875 47.9131V53.0538H18.3863H15.3852V45.1515C15.3852 41.6977 15.4132 39.5545 15.5039 38.1419C15.5947 36.7261 15.7464 36.1009 15.9605 35.65L15.9605 35.6499C16.4847 34.5453 17.5667 33.3646 19.0286 32.2909C20.4832 31.2227 22.2793 30.2862 24.1844 29.6544C25.1555 29.3323 26.5965 29.2356 28.855 29.3926C32.2724 29.6309 33.8955 29.6389 40.4767 29.4563C42.2668 29.4067 43.2018 29.4031 43.9887 29.5409C44.7603 29.6761 45.4081 29.9508 46.6181 30.524C48.0056 31.1814 49.8243 32.3422 50.6392 33.0784C51.3137 33.6876 51.789 34.1452 52.1443 34.6372C52.4902 35.1164 52.7323 35.6433 52.9024 36.3963C53.2535 37.9498 53.2866 40.3824 53.2866 45.1515ZM63.0106 56.9967L63.2182 56.5418L63.0106 56.9967C64.0277 57.4609 64.9937 57.9163 65.7555 58.2877C65.5412 58.2936 65.3086 58.2994 65.0581 58.3052C63.3995 58.3432 60.9747 58.3775 57.964 58.4064C51.9434 58.4641 43.5871 58.5 34.3487 58.5C25.1103 58.5 16.7403 58.4719 10.6976 58.4266C7.67602 58.404 5.23764 58.3771 3.56395 58.3473C3.30984 58.3428 3.07362 58.3382 2.85587 58.3335C3.58209 57.9752 4.49219 57.5385 5.45897 57.0871L9.35573 55.2674L34.2372 55.2442L59.12 55.221L63.0106 56.9967Z" fill="#1F5FFF" stroke="black"/>
<path d="M2.5 58.5L9.5 55.5H59L65.5 58.5H2.5Z" fill="#04CE78" stroke="black"/>
</svg>
