<svg width="141" height="128" viewBox="0 0 141 128" fill="none" xmlns="http://www.w3.org/2000/svg">
<g id="arrow">
<g id="Group">
<path id="Vector" d="M10.5353 42.0058C17.0264 53.0822 23.7578 63.6577 33.0238 72.682C42.4124 81.8311 53.9316 89.0192 66.6931 92.3277C78.4733 95.384 91.3552 95.3033 102.73 90.7102C107.694 88.705 112.368 85.9374 116.417 82.4296C118.586 80.55 120.607 78.4827 122.364 76.2048C123.954 74.1436 124.955 71.8045 127.148 70.3429C128.731 69.2811 130.946 70.8674 130.843 72.6331C130.601 76.6898 126.527 80.7214 123.842 83.5415C120.662 86.8818 116.97 89.7419 113.032 92.1209C105.005 96.9645 95.7487 99.6499 86.399 100.106C64.4424 101.182 43.4021 88.91 28.9857 73.1472C20.9013 64.3075 13.8729 53.7736 8.9968 42.824C8.52812 41.8069 9.95929 41.0261 10.5353 42.0058Z" fill="#D8DDE1"/>
</g>
<g id="Group_2">
<path id="Vector_2" d="M115.57 76.0948C115.491 73.9564 118.922 73.031 120.904 72.0915C124.041 70.6052 127.169 69.1664 130.346 67.7715C132.031 67.0332 134.433 68.2043 133.796 70.337C132.948 73.1613 132.178 76.0148 131.694 78.9261C131.251 81.6096 131.403 84.3437 130.322 86.855C129.606 88.5215 127.202 87.8911 126.715 86.4342C125.855 83.8783 126.503 80.9978 126.925 78.3792C127.43 75.2434 128.211 72.1928 129.285 69.2042C130.25 70.1381 131.225 71.0705 132.19 72.0045C128.935 73.2265 125.674 74.3824 122.387 75.5013C120.302 76.2151 117.693 77.8809 115.692 76.3792C115.587 76.3031 115.553 76.2158 115.57 76.0948Z" fill="#D8DDE1"/>
</g>
</g>
</svg>
