<svg width="54" height="56" viewBox="0 0 54 56" fill="none" xmlns="http://www.w3.org/2000/svg">
<mask id="mask0_11_10081" style="mask-type:luminance" maskUnits="userSpaceOnUse" x="27" y="19" width="19" height="18">
<path d="M27.7051 19.1787H45.2379V36.7115H27.7051V19.1787Z" fill="white"/>
</mask>
<g mask="url(#mask0_11_10081)">
<mask id="mask1_11_10081" style="mask-type:luminance" maskUnits="userSpaceOnUse" x="27" y="19" width="19" height="18">
<path d="M36.4715 19.1787C31.6299 19.1787 27.7051 23.1036 27.7051 27.9451C27.7051 32.7867 31.6299 36.7115 36.4715 36.7115C41.313 36.7115 45.2379 32.7867 45.2379 27.9451C45.2379 23.1036 41.313 19.1787 36.4715 19.1787Z" fill="white"/>
</mask>
<g mask="url(#mask1_11_10081)">
<path d="M27.7051 19.1787H45.2379V36.7115H27.7051V19.1787Z" fill="#04CE78"/>
</g>
</g>
<mask id="mask2_11_10081" style="mask-type:luminance" maskUnits="userSpaceOnUse" x="0" y="0" width="47" height="47">
<path d="M0 0H46.3573V46.3573H0V0Z" fill="white"/>
</mask>
<g mask="url(#mask2_11_10081)">
<path d="M46.3383 27.8025C46.3383 23.0654 43.0364 19.0931 38.6152 18.0434V4.63335C38.6152 2.078 36.5372 0 33.9819 0H4.63415C4.59377 0 4.55419 0.00316643 4.51778 0.00870782C2.01547 0.0712457 0 2.1255 0 4.64127C0 5.82395 0.650712 6.60132 0.724333 6.68603C0.870782 6.85385 1.08294 6.95043 1.30617 6.95043H7.72384V41.7041C7.72384 44.2595 9.80263 46.3383 12.358 46.3383H41.7057C44.2611 46.3383 46.3391 44.2595 46.3391 41.7041C46.3391 40.5215 45.6892 39.7441 45.6147 39.6594C45.4691 39.4916 45.2561 39.395 45.0329 39.395H38.6152V37.5624C43.0364 36.5119 46.3383 32.5403 46.3383 27.8025ZM44.7938 27.8025C44.7938 32.4865 40.9822 36.2982 36.2982 36.2982C31.6141 36.2982 27.8033 32.4865 27.8033 27.8025C27.8033 23.1185 31.6141 19.3076 36.2982 19.3076C40.9822 19.3076 44.7938 23.1185 44.7938 27.8025ZM7.72305 5.40598H1.72732C1.63786 5.22311 1.54445 4.95634 1.54445 4.64127C1.54445 2.9377 2.93058 1.55237 4.63415 1.55237C4.6666 1.55237 4.69906 1.54999 4.73072 1.54603C6.38838 1.5967 7.72305 2.96224 7.72305 4.63335V5.40598ZM44.7938 41.7041C44.7938 43.4077 43.4085 44.7938 41.7049 44.7938H15.8087C16.5433 43.9729 16.9905 42.89 16.9905 41.7041C16.9905 41.4263 16.9549 41.1698 16.8987 40.9394H44.6118C44.7012 41.1223 44.7938 41.3891 44.7938 41.7041ZM37.0708 39.395H15.686C15.3859 39.395 15.1184 39.5715 14.9909 39.843C14.8635 40.1138 14.907 40.4383 15.0986 40.6679C15.1017 40.6727 15.4469 41.0954 15.4469 41.7041C15.4469 43.4077 14.0616 44.7938 12.358 44.7938C10.6544 44.7938 9.26829 43.4077 9.26829 41.7041V4.63335C9.26829 3.44592 8.81628 2.36536 8.07928 1.54445H33.9827C35.6862 1.54445 37.0716 2.92979 37.0716 4.63335V17.802C36.8159 17.783 36.5602 17.7632 36.299 17.7632C30.7632 17.7632 26.2596 22.2667 26.2596 27.8025C26.2596 33.3383 30.7632 37.8426 36.299 37.8426C36.5602 37.8426 36.8159 37.8236 37.0716 37.803V39.3942L37.0708 39.395Z" fill="#000D44"/>
</g>
<path d="M16.2187 13.7013V18.4677C15.1239 18.2872 14.3481 17.6998 13.8209 16.6453C13.6293 16.2638 13.1654 16.1118 12.7839 16.3002C12.4023 16.491 12.2479 16.9549 12.4387 17.3364C13.2224 18.9023 14.5199 19.8221 16.2195 20.0335V20.8528C16.2195 21.2795 16.5646 21.6246 16.9913 21.6246C17.4188 21.6246 17.7639 21.2795 17.7639 20.8528V20.0224C19.952 19.7145 21.6255 18.1288 21.6255 16.2187C21.6255 13.9428 19.6076 13.1298 17.7639 12.5574V7.79107C18.858 7.97156 19.6345 8.55815 20.1618 9.61338C20.3525 9.99495 20.8172 10.1477 21.1988 9.95853C21.5795 9.76775 21.7347 9.30386 21.5439 8.9223C20.7602 7.35647 19.4628 6.43582 17.7631 6.22525V5.40592C17.7631 4.97845 17.418 4.6333 16.9905 4.6333C16.5638 4.6333 16.2187 4.97845 16.2187 5.40592V6.23633C14.0307 6.54427 12.3572 8.12989 12.3572 10.0401C12.3572 12.316 14.375 13.129 16.2187 13.7013ZM20.0802 16.2179C20.0802 17.2945 19.0923 18.1938 17.7631 18.4526V14.1842C19.2181 14.6742 20.0802 15.1737 20.0802 16.2171V16.2179ZM16.2187 7.80453V12.0729C14.7637 11.5829 13.9016 11.0834 13.9016 10.0401C13.9016 8.96346 14.8896 8.06418 16.2187 7.80453Z" fill="#1F5FFF"/>
<path d="M23.1692 23.9409H12.3572C11.9297 23.9409 11.5846 24.2861 11.5846 24.7135C11.5846 25.1402 11.9297 25.4862 12.3572 25.4862H23.1692C23.5966 25.4862 23.9418 25.1402 23.9418 24.7135C23.9418 24.2861 23.5966 23.9409 23.1692 23.9409Z" fill="#000D44"/>
<path d="M23.1692 29.3477H12.3572C11.9297 29.3477 11.5846 29.6928 11.5846 30.1195C11.5846 30.547 11.9297 30.8921 12.3572 30.8921H23.1692C23.5966 30.8921 23.9418 30.547 23.9418 30.1195C23.9418 29.6928 23.5966 29.3477 23.1692 29.3477Z" fill="#000D44"/>
<path d="M25.4862 10.812H33.2093C33.6368 10.812 33.9819 10.4669 33.9819 10.0402C33.9819 9.61272 33.6368 9.26758 33.2093 9.26758H25.4862C25.0596 9.26758 24.7136 9.61272 24.7136 10.0402C24.7136 10.4669 25.0596 10.812 25.4862 10.812Z" fill="#000D44"/>
<path d="M33.9819 15.4462C33.9819 15.0187 33.6368 14.6736 33.2093 14.6736H25.4862C25.0596 14.6736 24.7136 15.0187 24.7136 15.4462C24.7136 15.8729 25.0596 16.218 25.4862 16.218H33.2093C33.6368 16.218 33.9819 15.8729 33.9819 15.4462Z" fill="#000D44"/>
<path d="M23.1692 34.7537H12.3572C11.9297 34.7537 11.5846 35.0988 11.5846 35.5255C11.5846 35.953 11.9297 36.2981 12.3572 36.2981H23.1692C23.5966 36.2981 23.9418 35.953 23.9418 35.5255C23.9418 35.0988 23.5966 34.7537 23.1692 34.7537Z" fill="#000D44"/>
<mask id="mask3_11_10081" style="mask-type:luminance" maskUnits="userSpaceOnUse" x="27" y="19" width="19" height="20">
<path d="M27.3988 19.218H45.4351V38.5098H27.3988V19.218Z" fill="white"/>
</mask>
<g mask="url(#mask3_11_10081)">
<path d="M36.4929 36.697C41.3126 36.697 45.2324 31.9097 45.2324 27.3991C45.2324 22.8885 41.3126 19.218 36.4929 19.218C31.674 19.218 27.7534 22.8885 27.7534 27.3991C27.7542 31.909 31.674 36.697 36.4929 36.697Z" fill="#1F5FFF"/>
</g>
<mask id="mask4_11_10081" style="mask-type:luminance" maskUnits="userSpaceOnUse" x="19" y="38" width="35" height="18">
<path d="M19.6979 38.3074H53.2792V56.0001H19.6979V38.3074Z" fill="white"/>
</mask>
<g mask="url(#mask4_11_10081)">
<path d="M36.9417 41.2823C39.3367 41.2823 41.5586 40.5169 43.372 39.2199C48.5201 40.2025 52.4115 44.7268 52.4115 50.1595C52.4115 50.6583 52.1268 51.2394 51.3723 51.8685C50.6221 52.494 49.4912 53.0914 48.027 53.6078C45.1053 54.6384 41.0196 55.29 36.4707 55.29C31.9218 55.29 27.8362 54.6384 24.9148 53.6079C23.4506 53.0914 22.3198 52.494 21.5697 51.8685C20.8153 51.2394 20.5306 50.6583 20.5306 50.1595C20.5306 44.7267 24.4214 40.2025 29.5687 39.2199C31.3826 40.5169 33.6038 41.2823 36.0004 41.2823H36.9417Z" fill="#04CE78" stroke="black" stroke-width="1.51991"/>
</g>
</svg>
