<svg width="36" height="36" viewBox="0 0 36 36" fill="none" xmlns="http://www.w3.org/2000/svg">
<circle cx="18" cy="18" r="17.5" stroke="white"/>
<path d="M24.5 12C24.9167 12.0208 25.2708 12.1667 25.5625 12.4375C25.8333 12.7292 25.9792 13.0833 26 13.5C25.9792 14 25.7812 14.3958 25.4062 14.6875L18.5938 19.8125C18.1979 20.0625 17.8021 20.0625 17.4062 19.8125L10.5938 14.6875C10.2188 14.3958 10.0208 14 10 13.5C10.0208 13.0833 10.1667 12.7292 10.4375 12.4375C10.7292 12.1667 11.0833 12.0208 11.5 12H24.5ZM16.8125 20.5938C17.1667 20.8646 17.5625 21 18 21C18.4375 21 18.8333 20.8646 19.1875 20.5938L26 15.5V22C25.9792 22.5625 25.7812 23.0312 25.4062 23.4062C25.0312 23.7812 24.5625 23.9792 24 24H12C11.4375 23.9792 10.9688 23.7812 10.5938 23.4062C10.2188 23.0312 10.0208 22.5625 10 22V15.5L16.8125 20.5938Z" fill="white"/>
</svg>
