<svg width="50" height="50" viewBox="0 0 50 50" fill="none" xmlns="http://www.w3.org/2000/svg">
<g clip-path="url(#clip0_17_25734)">
<path d="M18.5825 23.4129C18.5825 23.4129 14.8677 14.1052 18.8904 7.4625C22.7726 1.05174 30.3545 -0.835368 38.4023 2.03886C46.4502 4.91308 49.6298 14.8677 47.2094 20.6829C43.8411 28.7756 34.9232 33.3443 33.7916 39.5022C32.406 47.0422 25.0946 50.6118 20.6742 48.8005C16.5822 47.1238 12.8274 42.6251 16.9175 34.3742C20.2581 27.6353 18.5825 23.4129 18.5825 23.4129Z" fill="#04CE78"/>
<path d="M43.8025 5.65228C46.1612 9.67534 46.6985 14.5879 45.2613 18.0409C41.893 26.1336 32.9751 30.7022 31.8435 36.8602C30.4578 44.4002 23.1465 47.9697 18.7261 46.1584C17.7158 45.7444 16.7263 45.1581 15.8701 44.386C16.8554 46.5638 18.7263 48.0021 20.6742 48.8003C25.0948 50.6115 32.406 47.042 33.7917 39.5021C34.9234 33.3441 43.8412 28.7755 47.2095 20.6828C48.9821 16.4237 47.7505 9.94428 43.8025 5.65228Z" fill="#1F5FFF"/>
<path d="M23.4506 16.446C23.4506 16.446 26.3753 10.2381 32.9742 10.2381C39.5732 10.2381 42.0483 15.5479 42.0483 15.5479C42.3888 8.36225 33.5161 4.19467 27.3364 7.84223C23.9758 9.82583 23.3352 13.5036 23.4504 16.4461" fill="#1F5FFF"/>
<path d="M37.3564 21.5355C36.9815 15.6249 30.9004 11.2538 23.4507 16.4459L24.1751 20.8653C24.1751 20.8653 27.8927 20.6447 28.0634 23.7695C28.2256 26.7393 24.1751 26.995 24.1751 26.995L23.988 26.8804C23.7377 28.3669 23.2895 29.8865 22.5099 31.1248C22.5099 31.1248 20.2331 37.8289 24.4074 38.0819C28.5817 38.3349 27.2219 32.9112 29.6253 31.1403C32.0285 29.3692 37.6395 25.9987 37.3564 21.5355Z" fill="#1F5FFF"/>
<path d="M37.2231 23.0745C37.3398 22.5773 37.3899 22.0641 37.3564 21.5355C36.9815 15.6249 30.9003 11.2538 23.4507 16.4459L23.8359 18.7963C30.6534 14.3159 36.246 17.8324 37.2231 23.0745Z" fill="#1F5FFF"/>
<path d="M32.1962 43.79C31.8645 43.5595 31.4089 43.6416 31.1784 43.9734C29.9153 45.7917 28.1269 47.2069 26.1428 47.9585C24.2952 48.6583 22.4029 48.7183 20.9512 48.1236C19.6669 47.5973 17.3631 46.3192 16.3639 43.6713C15.4348 41.2094 15.8416 38.1906 17.5725 34.6987C21.0181 27.748 19.3354 23.3279 19.2617 23.1421C19.2484 23.1088 17.934 19.7629 17.7676 15.7604C17.7508 15.3568 17.4082 15.0416 17.0067 15.0602C16.6032 15.077 16.2897 15.4177 16.3065 15.8211C16.4838 20.0832 17.8454 23.5389 17.9028 23.6826C17.9184 23.7218 19.4217 27.676 16.2623 34.0493C14.3436 37.9196 13.9174 41.3306 14.9957 44.1878C15.8811 46.5342 17.7993 48.4128 20.3967 49.477C21.262 49.8315 22.2016 50.0001 23.1716 50.0001C26.4777 50.0001 30.1337 48.0407 32.3796 44.8078C32.61 44.4761 32.5278 44.0205 32.1962 43.79Z" fill="#000D44"/>
<path d="M47.2693 9.65879C45.4965 5.65321 42.4347 2.70262 38.6481 1.35037C34.5171 -0.125216 30.4523 -0.397384 26.8936 0.562872C23.234 1.55037 20.2501 3.80516 18.2648 7.08369C17.2337 8.78623 16.5987 10.7949 16.3771 13.0543C16.3377 13.4562 16.6316 13.814 17.0334 13.8534C17.4361 13.8929 17.7931 13.5989 17.8325 13.1971C18.0325 11.1572 18.5988 9.35537 19.5157 7.8414C23.1308 1.87157 30.2736 -0.0878133 38.1563 2.72752C41.5616 3.94374 44.3231 6.61542 45.932 10.2506C47.4666 13.7177 47.6973 17.6074 46.5342 20.4019C44.9383 24.2363 42.0779 27.2304 39.3117 30.1257C36.4205 33.1521 33.6896 36.0104 33.0723 39.37C32.9113 40.2463 32.6589 41.0951 32.3223 41.8927C32.1654 42.2648 32.3397 42.6938 32.7118 42.8507C32.8045 42.8899 32.901 42.9085 32.9958 42.9085C33.2809 42.9085 33.552 42.7406 33.6699 42.4613C34.0477 41.566 34.3305 40.6148 34.5108 39.6342C35.0492 36.7047 37.5146 34.1241 40.3693 31.136C43.0949 28.2831 46.1839 25.0497 47.8846 20.9638C49.1964 17.8118 48.9606 13.4799 47.2693 9.65879Z" fill="#000D44"/>
<path d="M42.0136 16.2782C42.0254 16.2787 42.0371 16.279 42.0488 16.279C42.4367 16.279 42.76 15.974 42.7786 15.5824C42.9378 12.2226 41.2677 9.23368 38.1964 7.38231C34.7341 5.2953 30.3255 5.22869 26.9646 7.21229C26.6169 7.41756 26.5014 7.86591 26.7065 8.21366C26.9119 8.56132 27.3601 8.67704 27.708 8.47167C30.6125 6.75721 34.4329 6.82127 37.4412 8.63466C40.0377 10.1998 41.4506 12.7068 41.3177 15.513C41.2988 15.9166 41.6101 16.2591 42.0136 16.2782Z" fill="#000D44"/>
<path d="M25.8967 8.88919C25.5876 8.62932 25.1263 8.66936 24.8665 8.97845C23.346 10.7874 22.6086 13.3607 22.7206 16.4344C22.7202 16.458 22.7214 16.4815 22.7234 16.5053C22.7272 16.5996 22.7292 16.6928 22.7346 16.7879C22.8708 19.1781 23.4539 21.0124 23.4787 21.0893C23.4798 21.0925 23.4815 21.0954 23.4826 21.0986C23.4945 21.1339 23.5086 21.1682 23.5253 21.2006C23.5262 21.2025 23.5274 21.2043 23.5284 21.2062C23.5465 21.2403 23.5669 21.2727 23.5897 21.3032C23.59 21.3036 23.5903 21.304 23.5906 21.3043C23.6139 21.3352 23.6397 21.3638 23.6674 21.3905C23.6689 21.3918 23.6703 21.3932 23.6717 21.3946C23.757 21.4754 23.8607 21.5351 23.9747 21.5677C23.9753 21.5679 23.9758 21.568 23.9764 21.5682C24.0138 21.5789 24.0522 21.5866 24.0915 21.5912C24.0935 21.5914 24.0956 21.5915 24.0976 21.5918C24.136 21.5959 24.175 21.5974 24.2144 21.5953C24.215 21.5953 24.2156 21.5954 24.2162 21.5954C24.2162 21.5954 24.218 21.5953 24.2184 21.5953C24.2187 21.5953 24.2189 21.5953 24.2192 21.5953C24.2548 21.5935 25.0586 21.5604 25.8458 21.8473C26.7934 22.1927 27.2801 22.8346 27.3333 23.8094C27.4538 26.0158 24.2633 26.2561 24.1275 26.2653C23.7253 26.2916 23.4199 26.6385 23.4453 27.0411C23.4698 27.4285 23.7915 27.7263 24.1744 27.7263C24.1899 27.7263 24.2054 27.7258 24.2212 27.7249C25.8724 27.6207 28.9531 26.6515 28.7935 23.7296C28.7373 22.6988 28.3544 21.86 27.6555 21.2365C26.7543 20.4324 25.542 20.2085 24.7989 20.1502L24.248 16.7893C28.3598 14.0884 31.3479 14.815 32.785 15.5079C34.9844 16.5686 36.4562 18.896 36.6267 21.5819C36.7336 23.268 35.8813 24.972 34.0212 26.7913C33.7325 27.0736 33.7273 27.5367 34.0097 27.8254C34.1529 27.9718 34.3426 28.0453 34.5324 28.0453C34.7169 28.0453 34.9015 27.9759 35.0437 27.8368C37.2266 25.702 38.2217 23.6257 38.0861 21.4892C37.8823 18.277 36.0945 15.4804 33.4203 14.1906C31.7934 13.4059 28.5313 12.5656 24.1913 15.1036C24.2818 13.3091 24.7406 11.4014 25.9863 9.91936C26.2459 9.61038 26.2059 9.14905 25.8967 8.88919Z" fill="#000D44"/>
<path d="M21.8176 30.8894C21.6668 31.3335 20.3864 35.2904 21.8477 37.4663C22.3941 38.2798 23.2639 38.745 24.3631 38.8116C24.4765 38.8184 24.5863 38.8218 24.6933 38.8218C27.4999 38.8215 28.1372 36.5069 28.6524 34.6337C28.984 33.4285 29.2971 32.2902 30.059 31.7288C30.3229 31.5342 30.6349 31.3141 30.9652 31.081C31.6184 30.6201 32.3586 30.0975 33.1228 29.5001C33.4409 29.2514 33.4973 28.7919 33.2485 28.4737C32.9999 28.1556 32.5404 28.0993 32.2221 28.3479C31.486 28.9232 30.7613 29.4347 30.122 29.886C29.7853 30.1236 29.4674 30.348 29.1914 30.5513C28.0214 31.4134 27.6253 32.8533 27.2423 34.2457C26.6763 36.3032 26.2681 37.4625 24.4514 37.3517C23.7983 37.3122 23.3568 37.0897 23.0623 36.6518C22.1621 35.3135 22.8578 32.3785 23.2021 31.3597C23.332 30.9773 23.1272 30.562 22.745 30.4321C22.3629 30.3025 21.9474 30.5071 21.8176 30.8894Z" fill="#000D44"/>
<path d="M1.47516 20.4458C1.19723 20.7388 1.20934 21.2016 1.5025 21.4796C2.45368 22.3819 3.02155 23.9084 3.02155 25.5629C3.02155 27.2174 2.45368 28.7439 1.5025 29.6462C1.20953 29.9242 1.19733 30.3871 1.47526 30.68C1.6191 30.8316 1.81217 30.908 2.00582 30.908C2.18649 30.908 2.36754 30.8414 2.50895 30.7072C3.74557 29.5339 4.48395 27.6108 4.48395 25.5628C4.48395 23.5148 3.74557 21.5916 2.50895 20.4184C2.21578 20.1407 1.75299 20.1529 1.47516 20.4458Z" fill="#000D44"/>
<path d="M6.08065 17.2078C5.78778 16.9298 5.32489 16.942 5.04686 17.235C4.76903 17.528 4.78114 17.9908 5.07421 18.2687C6.78671 19.8933 7.80908 22.62 7.80908 25.5629C7.80908 28.5056 6.78671 31.2324 5.07421 32.8569C4.78124 33.1349 4.76903 33.5977 5.04686 33.8907C5.19071 34.0423 5.38387 34.1186 5.57743 34.1186C5.75819 34.1186 5.93915 34.052 6.08065 33.9179C8.07861 32.0225 9.27138 28.8991 9.27138 25.5629C9.27148 22.2265 8.0787 19.1032 6.08065 17.2078Z" fill="#000D44"/>
<path d="M9.84834 14.2912C9.55537 14.0133 9.09258 14.0255 8.81455 14.3186C8.53652 14.6116 8.54873 15.0743 8.8419 15.3524C11.2459 17.6328 12.6811 21.4499 12.6811 25.5629C12.6811 29.6759 11.2459 33.493 8.8419 35.7736C8.54893 36.0515 8.53672 36.5144 8.81455 36.8074C8.9584 36.9589 9.15156 37.0353 9.34522 37.0353C9.52588 37.0353 9.70694 36.9687 9.84834 36.8345C12.5378 34.2832 14.1436 30.0695 14.1436 25.5629C14.1436 21.0564 12.5378 16.8425 9.84834 14.2912Z" fill="#000D44"/>
</g>
<defs>
<clipPath id="clip0_17_25734">
<rect width="50" height="50" fill="white"/>
</clipPath>
</defs>
</svg>
