<svg width="50" height="50" viewBox="0 0 50 50" fill="none" xmlns="http://www.w3.org/2000/svg">
<g id="icon" clip-path="url(#clip0_17_24642)">
<path id="Vector" d="M29.6614 15.2839C29.9609 15.2339 30.2683 15.208 30.5819 15.208C33.6455 15.208 36.1289 17.6914 36.1289 20.7549C36.1289 21.3325 36.0404 21.8894 35.8767 22.4132C35.8767 22.4132 34.6453 25.1022 34.2692 25.3871C33.8931 25.6721 28.8409 26.7368 27.2235 24.8786C25.6064 23.0201 24.4536 19.8535 24.4536 19.8535L29.6614 15.2839Z" fill="#04CE78"/>
<path id="Vector_2" d="M19.895 12.1938V18.0879L20.8651 18.1966L24.7423 10.8392L31.6157 8.1071C31.2315 7.29991 30.7703 6.56672 30.2469 5.92395C29.368 5.4803 28.4167 5.2373 27.4233 5.2373C23.9966 5.2373 21.068 8.12274 19.895 12.1938Z" fill="#04CE78"/>
<path id="Vector_3" d="M36.5925 11.866C36.5925 11.2778 36.5925 10.6834 36.5925 10.1475C32.5326 10.3187 24.4103 11.6554 23.7866 19.5572L27.5784 21.2436C27.5784 21.2436 27.4613 11.5555 36.5925 11.866Z" fill="#1F5FFF"/>
<path id="Vector_4" d="M17.2083 16.6111V7.24869C17.2083 6.56242 16.6517 6.00586 15.9654 6.00586H15.2197C14.8283 6.21529 14.562 6.62727 14.562 7.1022V17.1856L17.2083 16.6111Z" fill="#1F5FFF"/>
<path id="Vector_5" d="M39.4821 27.1261C38.7276 25.4377 37.4359 24.1171 35.8803 23.3145C35.8303 23.3252 35.7811 23.3355 35.7308 23.3469C35.7308 23.3469 35.6312 23.2473 35.3981 23.0875C33.9607 22.4646 32.3342 22.2673 30.7141 22.6072C30.6294 22.6252 30.5439 22.6439 30.4573 22.6633C30.4573 22.6633 28.7453 20.9513 22.8955 20.3093C21.6187 19.0912 20.3587 18.1665 19.1308 17.5459C17.902 17.9152 16.7454 18.6949 15.6846 19.9049C12.2605 23.8104 13.2233 30.7661 14.8999 33.5481C15.828 36.0143 16.1164 37.758 18.6497 40.7358C22.1138 44.8083 26.812 47.6404 32.0156 48.8687L32.367 48.9519C33.7757 48.7691 35.1231 48.2358 36.2797 47.3909L36.94 46.9087C39.7965 44.8221 41.5894 41.5845 41.843 38.0563C42.0723 34.8627 41.5089 31.6618 40.2023 28.7386L39.4821 27.1261Z" fill="#04CE78"/>
<path id="Vector_6" d="M39.9248 30.6326C39.926 30.6349 39.9271 30.6372 39.9279 30.6391C40.0938 31.0107 40.4459 31.2285 40.8194 31.2285C40.9529 31.2285 41.0891 31.2007 41.2203 31.1423C41.72 30.9203 41.936 30.3507 41.7124 29.8457C41.4893 29.3406 40.9224 29.1174 40.4219 29.3376C39.9214 29.558 39.7032 30.1268 39.9248 30.6326Z" fill="#000D44"/>
<path id="Vector_7" d="M42.6191 33.4789C42.5352 32.9463 42.0351 32.5824 41.5022 32.6671C40.9696 32.751 40.6061 33.2511 40.6904 33.784C40.9094 35.1714 40.9696 36.5855 40.8689 37.9867C40.6355 41.2349 38.9936 44.1993 36.3642 46.1204L35.7038 46.6025C34.4103 47.5474 32.8802 48.0468 31.2784 48.0468C30.6986 48.0468 30.1184 47.9793 29.5546 47.8461L26.9667 47.235C21.9649 46.054 17.4025 43.2784 14.1199 39.4199C12.6608 37.7044 12.0028 36.4566 11.4974 35.1714C11.5378 35.041 11.5523 34.9002 11.5332 34.7556C11.5279 34.7137 11.0472 30.4958 16.9955 27.7881C21.0749 25.9311 22.9834 22.7554 23.6475 21.3863C28.1199 22.0035 29.6591 23.2624 29.7735 23.3612C30.0097 23.6114 30.3354 23.6923 30.6727 23.616C30.7539 23.5977 30.8344 23.5801 30.9145 23.5633C34.0437 22.9064 37.2713 24.5731 38.5904 27.5245C38.8105 28.017 39.3881 28.2379 39.8806 28.0178C40.373 27.7976 40.5935 27.2201 40.3738 26.7276C39.6265 25.0564 38.3699 23.6492 36.8055 22.7142C36.8063 22.7108 36.8078 22.7077 36.809 22.7043C37.0058 22.0752 37.1054 21.4191 37.1054 20.7546C37.1054 20.6215 37.1 20.4895 37.0924 20.3582H37.7699C38.3089 20.3582 38.7464 19.9211 38.7464 19.3817C38.7464 18.8423 38.3089 18.4051 37.7699 18.4051H36.6659C36.4149 17.7574 36.0643 17.1589 35.6314 16.6298L36.0735 16.1876C36.455 15.8062 36.455 15.1878 36.0735 14.8063C35.692 14.4252 35.074 14.4252 34.6926 14.8063L34.1814 15.3175C33.3895 14.7918 32.4766 14.4344 31.494 14.2963C32.7879 13.2614 34.4877 12.7712 36.5591 12.8418C36.8235 12.8517 37.0806 12.7517 37.2713 12.5679C37.4617 12.384 37.5688 12.1307 37.5688 11.866V8.14589C37.5688 7.63777 37.1794 7.21472 36.6728 7.17276C36.5145 7.15979 34.6857 7.02056 32.308 7.30666C31.2449 5.24939 29.7484 3.72123 28.0272 2.87284L28.7184 1.84097C29.0186 1.39274 28.8984 0.786208 28.4502 0.486373C28.0024 0.186157 27.3958 0.305938 27.0956 0.754164L26.1061 2.23159C25.6842 2.15377 25.2543 2.11219 24.819 2.11219C24.568 2.11219 24.3181 2.12631 24.0706 2.15263V0.976561C24.0706 0.437163 23.6334 0 23.094 0C22.5546 0 22.1174 0.437163 22.1174 0.976561V2.64663C21.2012 3.01971 20.3333 3.58314 19.5406 4.32929C18.9474 4.88738 18.4138 5.53283 17.9457 6.24884C17.5795 5.52634 16.8295 5.02929 15.9655 5.02929H13.3147C12.0909 5.02929 11.0953 6.02492 11.0953 7.24867V17.2313C10.604 17.6132 10.1302 18.0606 9.67698 18.5775C7.53618 21.0193 7.11008 24.2191 7.12953 26.4732C7.15166 29.0229 7.76811 31.6223 8.74238 33.2889C8.88963 33.6833 9.022 34.0637 9.15055 34.4325C9.80706 36.3147 10.4269 38.0927 12.6322 40.6852C16.1826 44.8588 21.1138 47.8599 26.5181 49.1359L29.1056 49.747C29.8166 49.9148 30.5475 49.9999 31.2784 49.9999C33.2972 49.9999 35.2259 49.3705 36.8555 48.1799L37.5158 47.6977C40.6103 45.4371 42.5424 41.949 42.8171 38.1267C42.9285 36.5772 42.8617 35.0135 42.6191 33.4789ZM30.702 21.6144C30.3083 21.3405 29.6373 20.9503 28.5887 20.5589C28.6696 19.6189 28.9423 17.8478 29.8594 16.2418C30.097 16.2044 30.3396 16.1846 30.5819 16.1846C33.1018 16.1846 35.1522 18.235 35.1522 20.755C35.1522 21.1429 35.103 21.5259 35.0077 21.8971C33.6214 21.4477 32.1367 21.3466 30.702 21.6144ZM35.6157 9.08735V10.894C33.1965 10.9989 31.2006 11.8068 29.6724 13.3014C27.5263 15.4014 26.8789 18.3185 26.6848 19.976C25.7506 19.7429 24.6412 19.5327 23.3286 19.376C23.0318 19.1009 22.7362 18.8415 22.4417 18.5966C22.4432 18.573 22.4451 18.5497 22.4451 18.5257C22.4451 15.9027 23.2928 13.7909 24.964 12.2494C28.1424 9.31776 33.5009 9.06675 35.6157 9.08735ZM24.819 4.06531C25.3084 4.06531 25.7906 4.13741 26.2598 4.27436C26.2602 4.27436 26.261 4.27474 26.2613 4.27474C27.8177 4.72945 29.2276 5.91086 30.2633 7.64655C27.9932 8.13597 25.5369 9.06637 23.6456 10.8082C21.8447 12.4664 20.8086 14.6209 20.5546 17.2252C19.7554 16.7293 18.9646 16.3482 18.1849 16.0839V10.437C18.2017 10.3977 18.2173 10.3576 18.2295 10.3157C19.3064 6.57729 21.9546 4.06531 24.819 4.06531ZM13.0484 7.24867C13.0484 7.10181 13.1678 6.98241 13.3147 6.98241H15.9655C16.1124 6.98241 16.2318 7.10181 16.2318 7.24867V15.6635C15.9045 15.6349 15.5798 15.6273 15.2571 15.6418C14.493 15.6757 13.756 15.8321 13.0484 16.1075V7.24867ZM11.1456 19.8654C12.4079 18.4253 13.8205 17.6609 15.3441 17.593C17.2869 17.506 19.5223 18.5619 21.8279 20.6508C21.2317 21.8208 19.5727 24.4689 16.1864 26.0105C12.4491 27.7114 10.8538 30.0193 10.1733 31.6554C10.1618 31.6833 10.1511 31.7104 10.1397 31.7378C8.90527 29.0031 8.24151 23.1777 11.1456 19.8654Z" fill="#000D44"/>
<path id="Vector_8" d="M19.5136 39.2743C19.0986 38.9298 18.4829 38.9874 18.1384 39.4025C17.7943 39.8175 17.8515 40.4332 18.2666 40.7773C20.9082 42.9692 24.0721 44.5447 27.4157 45.3343C27.4913 45.3522 27.5668 45.3606 27.6412 45.3606C28.0837 45.3606 28.4846 45.0577 28.5906 44.6084C28.7146 44.0835 28.3896 43.5574 27.8647 43.4334C24.8126 42.7129 21.9249 41.2743 19.5136 39.2743Z" fill="#000D44"/>
<path id="Vector_9" d="M15.7095 36.781C15.3018 37.1342 15.2556 37.748 15.6085 38.1554C15.8019 38.3873 16.0796 38.5067 16.3596 38.5067C16.5801 38.5067 16.8017 38.4327 16.984 38.2805C17.3983 37.9353 17.4544 37.3196 17.1092 36.9053L17.0893 36.8821C16.7361 36.4743 16.117 36.4277 15.7095 36.781Z" fill="#000D44"/>
</g>
<defs>
<clipPath id="clip0_17_24642">
<rect width="50" height="50" fill="white"/>
</clipPath>
</defs>
</svg>
