<svg width="47" height="47" viewBox="0 0 47 47" fill="none" xmlns="http://www.w3.org/2000/svg">
<path d="M3.76001 7.99001V4.70001L6.58001 3.29001L9.40001 4.23001L10.34 6.58001L9.87001 8.46001L3.76001 7.99001Z" fill="#E3E3E3"/>
<mask id="mask0_7_14" style="mask-type:luminance" maskUnits="userSpaceOnUse" x="2" y="2" width="43" height="43">
<path d="M2.82007 2.82001H44.1801V44.18H2.82007V2.82001Z" fill="white"/>
</mask>
<g mask="url(#mask0_7_14)">
<path d="M10.8099 5.64001L9.3999 3.76001L10.8099 2.82001L34.7799 3.29001L37.1299 6.11001V38.07L17.3899 38.54V40.89L15.0399 42.77H13.1599L11.7499 41.83L10.8099 39.95V5.64001Z" fill="#F5F5F5"/>
<circle cx="35.25" cy="27.73" r="7.99" fill="#D80027"/>
<path d="M15.98 42.77C17.108 42.77 17.7033 39.95 17.86 38.54H43.71L44.18 40.89L41.36 42.77H15.98Z" fill="white"/>
<path d="M44.1801 27.636C44.1801 23.4074 41.2321 19.8627 37.2867 18.9246V6.95601C37.2867 4.67474 35.432 2.82001 33.1507 2.82001H6.95607C6.92053 2.82001 6.88498 2.82324 6.85159 2.82862C4.6188 2.88463 2.82007 4.71675 2.82007 6.96247C2.82007 8.01801 3.40062 8.71273 3.46632 8.78813C3.59665 8.93784 3.78621 9.02401 3.98547 9.02401H9.71448V40.044C9.71448 42.3253 11.5692 44.18 13.8505 44.18H40.0451C42.3253 44.18 44.1811 42.3253 44.1811 40.044C44.1811 38.9885 43.6006 38.2948 43.5338 38.2184C43.4035 38.0686 43.2139 37.9825 43.0147 37.9825H37.2867V36.3475C41.2321 35.4093 44.1801 31.8646 44.1801 27.636ZM42.8014 27.636C42.8014 31.8172 39.4 35.2187 35.2187 35.2187C31.0375 35.2187 27.6361 31.8172 27.6361 27.636C27.6361 23.4548 31.0375 20.0533 35.2187 20.0533C39.4 20.0533 42.8014 23.4548 42.8014 27.636ZM9.7134 7.64534H4.36137C4.28167 7.48162 4.19874 7.24467 4.19874 6.96247C4.19874 5.44271 5.43523 4.20514 6.95607 4.20514C6.98515 4.20514 7.01423 4.20298 7.04224 4.19975C8.52215 4.24607 9.7134 5.46425 9.7134 6.95601V7.64534ZM42.8014 40.044C42.8014 41.5648 41.5649 42.8013 40.0441 42.8013H16.9299C17.5858 42.0689 17.9854 41.1017 17.9854 40.044C17.9854 39.7963 17.9531 39.5669 17.9035 39.3611H42.6388C42.7185 39.5249 42.8014 39.7629 42.8014 40.044ZM35.9081 37.9825H16.82C16.5529 37.9825 16.3138 38.1408 16.1996 38.3831C16.0865 38.6244 16.1253 38.9142 16.2965 39.1188C16.2998 39.1231 16.6078 39.5012 16.6078 40.044C16.6078 41.5648 15.3702 42.8013 13.8505 42.8013C12.3296 42.8013 11.0931 41.5648 11.0931 40.044V6.95601C11.0931 5.89616 10.6892 4.93109 10.0311 4.19867H33.1518C34.6716 4.19867 35.9091 5.43517 35.9091 6.95601V18.7102C35.6808 18.693 35.4525 18.6747 35.2198 18.6747C30.2782 18.6747 26.2585 22.6944 26.2585 27.636C26.2585 32.5777 30.2782 36.5973 35.2198 36.5973C35.4525 36.5973 35.6808 36.5801 35.9091 36.5618V37.9825H35.9081Z" fill="#000D44"/>
</g>
<path d="M33.84 25.85V23.97L36.19 23.5L36.66 25.85L39.48 26.79L39.01 29.14L36.66 29.61V31.49H33.84V29.14H31.02L31.49 26.32L33.84 25.85Z" fill="white"/>
<path d="M33.1506 23.8447V25.568H31.4273C30.8575 25.568 30.3933 26.0322 30.3933 26.602V28.67C30.3933 29.2398 30.8575 29.704 31.4273 29.704H33.1506V31.4273C33.1506 31.9971 33.6149 32.4613 34.1846 32.4613H36.2526C36.8224 32.4613 37.2866 31.9971 37.2866 31.4273V29.704H39.01C39.5798 29.704 40.044 29.2398 40.044 28.67V26.602C40.044 26.0322 39.5798 25.568 39.01 25.568H37.2866V23.8447C37.2866 23.2749 36.8224 22.8107 36.2526 22.8107H34.1846C33.6149 22.8107 33.1506 23.2749 33.1506 23.8447ZM34.5293 26.2573V24.1893H35.908V26.2573C35.908 26.6386 36.216 26.9467 36.5973 26.9467H38.6653V28.3253H36.5973C36.216 28.3253 35.908 28.6334 35.908 29.0147V31.0827H34.5293V29.0147C34.5293 28.6334 34.2213 28.3253 33.84 28.3253H31.772V26.9467H33.84C34.2213 26.9467 34.5293 26.6386 34.5293 26.2573Z" fill="black"/>
<path d="M17.296 15.0492V19.3037C16.3191 19.1432 15.6266 18.6187 15.1559 17.6773C14.9846 17.3369 14.571 17.2012 14.2307 17.3692C13.8903 17.5394 13.7524 17.9541 13.9226 18.2944C14.6216 19.6914 15.7795 20.5132 17.2971 20.7017V21.4331C17.2971 21.8144 17.6052 22.1224 17.9864 22.1224C18.3677 22.1224 18.6758 21.8144 18.6758 21.4331V20.692C20.6285 20.4163 22.1224 19.001 22.1224 17.2971C22.1224 15.2657 20.3205 14.5397 18.6758 14.0281V9.77364C19.6527 9.93521 20.3453 10.4587 20.8159 11.4011C20.9861 11.7415 21.4008 11.8783 21.7412 11.7092C22.0815 11.539 22.2194 11.1243 22.0492 10.7839C21.3502 9.38697 20.1923 8.56516 18.6747 8.37667V7.64533C18.6747 7.26404 18.3667 6.95599 17.9854 6.95599C17.6041 6.95599 17.296 7.26404 17.296 7.64533V8.38636C15.3433 8.66102 13.8494 10.0763 13.8494 11.7813C13.8494 13.8127 15.6502 14.5387 17.296 15.0492ZM20.7427 17.296C20.7427 18.2568 19.8606 19.0592 18.6747 19.2908V15.48C19.9737 15.9184 20.7427 16.3643 20.7427 17.2949V17.296ZM17.296 9.78657V13.5962C15.9971 13.1589 15.228 12.713 15.228 11.7813C15.228 10.8206 16.1102 10.0181 17.296 9.78657Z" fill="#1F5FFF"/>
<path d="M23.4999 24.1893H13.8492C13.468 24.1893 13.1599 24.4974 13.1599 24.8787C13.1599 25.26 13.468 25.568 13.8492 25.568H23.4999C23.8812 25.568 24.1892 25.26 24.1892 24.8787C24.1892 24.4974 23.8812 24.1893 23.4999 24.1893Z" fill="#1F5FFF"/>
<path d="M23.4999 29.0147H13.8492C13.468 29.0147 13.1599 29.3227 13.1599 29.704C13.1599 30.0853 13.468 30.3933 13.8492 30.3933H23.4999C23.8812 30.3933 24.1892 30.0853 24.1892 29.704C24.1892 29.3227 23.8812 29.0147 23.4999 29.0147Z" fill="#04CE78"/>
<path d="M25.5682 12.4706H32.4616C32.8429 12.4706 33.1509 12.1626 33.1509 11.7813C33.1509 11.4 32.8429 11.092 32.4616 11.092H25.5682C25.187 11.092 24.8789 11.4 24.8789 11.7813C24.8789 12.1626 25.187 12.4706 25.5682 12.4706Z" fill="#1F5FFF"/>
<path d="M33.1509 16.6067C33.1509 16.2254 32.8429 15.9173 32.4616 15.9173H25.5682C25.187 15.9173 24.8789 16.2254 24.8789 16.6067C24.8789 16.9879 25.187 17.296 25.5682 17.296H32.4616C32.8429 17.296 33.1509 16.9879 33.1509 16.6067Z" fill="#04CE78"/>
<path d="M23.4999 33.84H13.8492C13.468 33.84 13.1599 34.148 13.1599 34.5293C13.1599 34.9106 13.468 35.2187 13.8492 35.2187H23.4999C23.8812 35.2187 24.1892 34.9106 24.1892 34.5293C24.1892 34.148 23.8812 33.84 23.4999 33.84Z" fill="#1F5FFF"/>
</svg>
