<svg width="50" height="50" viewBox="0 0 50 50" fill="none" xmlns="http://www.w3.org/2000/svg">
<path d="M9.07639 10.9203L15.5346 10.3821L16.0728 8.22938L19.3019 7.69119V9.84392H26.2982L26.8364 8.22938H28.9892L30.0655 10.3821L37.0619 10.9203V15.7639L33.8328 16.3021L30.0655 17.9167L25.7601 21.6839L23.6073 26.5276L24.1455 30.8331L26.8364 35.6767L30.6037 38.9058L33.2946 39.444L37.0619 39.9822V43.7494L36.5237 45.364H25.7601H9.61457L8.53821 44.5772V30.2949V17.3785L9.07639 10.9203Z" fill="#0052B4"/>
<path d="M11.7673 42.1348V13.6111L15.5346 13.0729L16.0728 14.6874H29.5274L30.0656 13.6111H34.371V16.302L30.0656 17.3783C27.0517 18.67 24.8631 22.9396 24.1455 24.9129C23.7868 26.7068 23.6074 31.1558 25.7601 34.6002C27.9128 38.0446 32.3977 39.6232 34.371 39.982L33.8328 42.1348H11.7673Z" fill="white"/>
<circle cx="35.4473" cy="28.142" r="9.14911" fill="white"/>
<path d="M16.0726 14.1493V8.76743L18.7635 8.22925V9.8438L26.2981 9.30561L26.8363 8.76743H29.5272V14.1493H16.0726Z" fill="#F0F1F5"/>
<path fill-rule="evenodd" clip-rule="evenodd" d="M33.685 43.1058H12.0074C11.3416 43.1058 10.7994 42.5647 10.7994 41.9V13.9556C10.7994 13.2898 11.3416 12.7487 12.0074 12.7487H15.8092C16.1629 12.7487 16.4495 13.0352 16.4495 13.3878C16.4495 13.7404 16.1629 14.027 15.8092 14.027H12.0788V41.8275H33.6136V39.6342C33.6136 39.2816 33.8991 38.9951 34.2528 38.9951C34.6064 38.9951 34.893 39.2816 34.893 39.6342V41.9C34.893 42.5647 34.3508 43.1058 33.685 43.1058Z" fill="#000D44"/>
<path fill-rule="evenodd" clip-rule="evenodd" d="M34.2528 16.8594C33.9002 16.8594 33.6136 16.574 33.6136 16.2203V14.027H29.8832C29.5295 14.027 29.244 13.7404 29.244 13.3878C29.244 13.0352 29.5295 12.7487 29.8832 12.7487H33.685C34.3508 12.7487 34.893 13.2898 34.893 13.9556V16.2203C34.893 16.574 34.6064 16.8594 34.2528 16.8594Z" fill="#000D44"/>
<path fill-rule="evenodd" clip-rule="evenodd" d="M29.8832 15.2871H15.8093C15.4556 15.2871 15.1691 15.0006 15.1691 14.648V9.56895C15.1691 8.53141 16.0149 7.68774 17.0535 7.68774H19.0987C19.4513 7.68774 19.7379 7.97429 19.7379 8.32689C19.7379 8.67948 19.4513 8.96603 19.0987 8.96603H17.0535C16.7201 8.96603 16.4495 9.2366 16.4495 9.56895V14.0089H29.243V9.56895C29.243 9.2366 28.9724 8.96603 28.639 8.96603H26.5937C26.2411 8.96603 25.9546 8.67948 25.9546 8.32689C25.9546 7.97429 26.2411 7.68774 26.5937 7.68774H28.639C29.6776 7.68774 30.5223 8.53141 30.5223 9.56895V14.648C30.5223 15.0006 30.2358 15.2871 29.8832 15.2871Z" fill="#000D44"/>
<path fill-rule="evenodd" clip-rule="evenodd" d="M35.9156 45.902H9.77682C8.7968 45.902 8 45.1063 8 44.1284V11.7271C8 10.7482 8.7968 9.95242 9.77682 9.95242H15.8093C16.1618 9.95242 16.4484 10.239 16.4484 10.5916C16.4484 10.9452 16.1618 11.2307 15.8093 11.2307H9.77682C9.50305 11.2307 9.27935 11.4533 9.27935 11.7271V44.1284C9.27935 44.4011 9.50305 44.6248 9.77682 44.6248H35.9156C36.1894 44.6248 36.4131 44.4011 36.4131 44.1284V39.6331C36.4131 39.2805 36.6985 38.994 37.0522 38.994C37.4059 38.994 37.6924 39.2805 37.6924 39.6331V44.1284C37.6924 45.1063 36.8956 45.902 35.9156 45.902Z" fill="#000D44"/>
<path fill-rule="evenodd" clip-rule="evenodd" d="M35.6462 40.3539C33.9673 40.3539 32.3386 40.0258 30.8025 39.3771C29.3197 38.7507 27.9892 37.8549 26.8473 36.7151C25.7064 35.5742 24.8095 34.2458 24.1821 32.7652C23.5323 31.2312 23.2031 29.6035 23.2031 27.9269C23.2031 26.2512 23.5323 24.6236 24.1821 23.0896C24.8095 21.6089 25.7064 20.2806 26.8473 19.1397C27.9892 17.9999 29.3197 17.1041 30.8025 16.4777C32.3386 15.829 33.9684 15.5009 35.6462 15.5009C37.3239 15.5009 38.9548 15.829 40.4909 16.4777C41.9726 17.1041 43.3031 17.9999 44.445 19.1397C45.5859 20.2806 46.4828 21.6089 47.1102 23.0886C47.76 24.6236 48.0892 26.2512 48.0892 27.9269C48.0892 29.6035 47.76 31.2312 47.1102 32.7652C46.4828 34.2458 45.5859 35.5742 44.445 36.7151C43.3031 37.8549 41.9726 38.7507 40.4909 39.3771C38.9548 40.0258 37.325 40.3539 35.6462 40.3539ZM35.6462 16.7781C34.141 16.7781 32.6784 17.0732 31.3 17.6548C29.9706 18.2172 28.7775 19.0204 27.7528 20.0441C26.728 21.0667 25.9237 22.2587 25.3613 23.5871C24.7786 24.9623 24.4825 26.4227 24.4825 27.9269C24.4825 29.432 24.7786 30.8914 25.3613 32.2677C25.9237 33.596 26.728 34.788 27.7528 35.8107C28.7775 36.8344 29.9706 37.6376 31.3011 38.2C32.6773 38.7816 34.1399 39.0767 35.6462 39.0767C37.1524 39.0767 38.615 38.7816 39.9923 38.1989C41.3217 37.6376 42.5159 36.8344 43.5406 35.8107C44.5643 34.788 45.3686 33.596 45.9321 32.2677C46.5137 30.8925 46.8098 29.432 46.8098 27.9269C46.8098 26.4227 46.5137 24.9623 45.9321 23.5871C45.3686 22.2587 44.5643 21.0667 43.5406 20.0441C42.5159 19.0204 41.3217 18.2172 39.9923 17.6548C38.6139 17.0732 37.1524 16.7781 35.6462 16.7781Z" fill="#000D44"/>
<path fill-rule="evenodd" clip-rule="evenodd" d="M37.0522 16.8614C36.6985 16.8614 36.4131 16.5748 36.4131 16.2223V11.727C36.4131 11.4532 36.1894 11.2306 35.9156 11.2306H29.8832C29.5295 11.2306 29.244 10.9451 29.244 10.5914C29.244 10.2388 29.5295 9.95227 29.8832 9.95227H35.9156C36.8956 9.95227 37.6924 10.748 37.6924 11.727V16.2223C37.6924 16.5748 37.4059 16.8614 37.0522 16.8614Z" fill="#000D44"/>
<mask id="mask0_21_10703" style="mask-type:luminance" maskUnits="userSpaceOnUse" x="18" y="5" width="10" height="6">
<path d="M18.3372 5H27.3363V10.5904H18.3372V5Z" fill="white"/>
</mask>
<g mask="url(#mask0_21_10703)">
<path fill-rule="evenodd" clip-rule="evenodd" d="M26.5936 10.4476H19.0986C18.7449 10.4476 18.4584 10.1621 18.4584 9.80847V6.17921C18.4584 5.53367 18.9846 5.00745 19.6312 5.00745H26.061C26.7076 5.00745 27.2338 5.53367 27.2338 6.17921V9.80847C27.2338 10.1621 26.9472 10.4476 26.5936 10.4476ZM19.7377 9.17039H25.9544V6.28573H19.7377V9.17039Z" fill="#000D44"/>
</g>
<path fill-rule="evenodd" clip-rule="evenodd" d="M26.4776 21.1428H20.59C20.2364 21.1428 19.9498 20.8563 19.9498 20.5037C19.9498 20.1511 20.2364 19.8645 20.59 19.8645H26.4776C26.8302 19.8645 27.1167 20.1511 27.1167 20.5037C27.1167 20.8563 26.8302 21.1428 26.4776 21.1428Z" fill="#000D44"/>
<path fill-rule="evenodd" clip-rule="evenodd" d="M15.9711 21.6552C15.807 21.6552 15.6441 21.5924 15.5184 21.4677L14.6321 20.5825C14.3818 20.3333 14.3818 19.9285 14.6321 19.6792C14.8813 19.4299 15.2861 19.4299 15.5365 19.6792L15.9711 20.1128L17.5711 18.5138C17.8214 18.2646 18.2262 18.2646 18.4765 18.5138C18.7258 18.7631 18.7258 19.1679 18.4765 19.4182L16.4238 21.4677C16.2981 21.5924 16.1341 21.6552 15.9711 21.6552Z" fill="#1F5FFF"/>
<path fill-rule="evenodd" clip-rule="evenodd" d="M23.9988 26.6405H20.59C20.2364 26.6405 19.9498 26.355 19.9498 26.0014C19.9498 25.6488 20.2364 25.3622 20.59 25.3622H23.9988C24.3525 25.3622 24.639 25.6488 24.639 26.0014C24.639 26.355 24.3525 26.6405 23.9988 26.6405Z" fill="#1F5FFF"/>
<path fill-rule="evenodd" clip-rule="evenodd" d="M15.9711 27.1529C15.807 27.1529 15.6441 27.0911 15.5184 26.9665L14.6321 26.0813C14.3818 25.8309 14.3818 25.4261 14.6321 25.1769C14.8813 24.9276 15.2861 24.9276 15.5365 25.1769L15.9711 25.6104L17.5711 24.0115C17.8214 23.7633 18.2262 23.7633 18.4765 24.0115C18.7258 24.2618 18.7258 24.6666 18.4765 24.9159L16.4238 26.9665C16.2981 27.0911 16.1341 27.1529 15.9711 27.1529Z" fill="#04CE78"/>
<path fill-rule="evenodd" clip-rule="evenodd" d="M24.3951 32.1393H20.59C20.2364 32.1393 19.9498 31.8527 19.9498 31.5001C19.9498 31.1465 20.2364 30.861 20.59 30.861H24.3951C24.7487 30.861 25.0353 31.1465 25.0353 31.5001C25.0353 31.8527 24.7487 32.1393 24.3951 32.1393Z" fill="#000D44"/>
<path fill-rule="evenodd" clip-rule="evenodd" d="M15.9711 32.6517C15.8017 32.6517 15.6387 32.5845 15.5184 32.4642L14.6321 31.579C14.3818 31.3297 14.3818 30.9249 14.6321 30.6756C14.8813 30.4253 15.2861 30.4253 15.5365 30.6756L15.9711 31.1092L17.5711 29.5103C17.8214 29.261 18.2262 29.261 18.4765 29.5103C18.7258 29.7595 18.7258 30.1643 18.4765 30.4136L16.4238 32.4642C16.3034 32.5845 16.1405 32.6517 15.9711 32.6517Z" fill="#1F5FFF"/>
<path fill-rule="evenodd" clip-rule="evenodd" d="M28.1063 37.637H20.59C20.2364 37.637 19.9498 37.3504 19.9498 36.9978C19.9498 36.6452 20.2364 36.3587 20.59 36.3587H28.1063C28.46 36.3587 28.7455 36.6452 28.7455 36.9978C28.7455 37.3504 28.46 37.637 28.1063 37.637Z" fill="#1F5FFF"/>
<path fill-rule="evenodd" clip-rule="evenodd" d="M15.9711 38.1493C15.807 38.1493 15.6441 38.0875 15.5184 37.9619L14.6321 37.0777C14.3818 36.8274 14.3818 36.4236 14.6321 36.1733C14.8813 35.9241 15.2861 35.9241 15.5365 36.1733L15.9711 36.6069L17.5711 35.0079C17.8214 34.7587 18.2262 34.7587 18.4765 35.0079C18.7258 35.2583 18.7258 35.6631 18.4765 35.9123L16.4238 37.9619C16.2981 38.0875 16.1341 38.1493 15.9711 38.1493Z" fill="#04CE78"/>
<path fill-rule="evenodd" clip-rule="evenodd" d="M35.646 37.7691C34.3155 37.7691 33.0255 37.5091 31.8101 36.9957C30.6362 36.5004 29.5827 35.7909 28.6783 34.8865C27.7739 33.9832 27.0623 32.9307 26.5659 31.759C26.0525 30.5446 25.7915 29.2557 25.7915 27.9273C25.7915 26.599 26.0525 25.31 26.5659 24.0967C27.0623 22.9239 27.7739 21.8715 28.6783 20.9681C29.5827 20.0648 30.6362 19.3554 31.8101 18.859C33.0255 18.3455 34.3155 18.0856 35.646 18.0856C36.9765 18.0856 38.2665 18.3455 39.4819 18.859C40.6558 19.3554 41.7093 20.0648 42.6137 20.9681C43.5192 21.8715 44.2297 22.9239 44.7261 24.0967C45.2395 25.31 45.5005 26.599 45.5005 27.9273C45.5005 29.2557 45.2395 30.5446 44.7261 31.759C44.2297 32.9307 43.5192 33.9832 42.6137 34.8865C41.7093 35.7909 40.6558 36.5004 39.4819 36.9957C38.2665 37.5091 36.9765 37.7691 35.646 37.7691ZM35.646 19.3639C30.9174 19.3639 27.0719 23.2051 27.0719 27.9273C27.0719 32.6495 30.9174 36.4918 35.646 36.4918C40.3746 36.4918 44.2212 32.6495 44.2212 27.9273C44.2212 23.2051 40.3746 19.3639 35.646 19.3639Z" fill="#000D44"/>
<path fill-rule="evenodd" clip-rule="evenodd" d="M35.646 20.656C35.2923 20.656 35.0068 20.3705 35.0068 20.0169V18.7247C35.0068 18.3722 35.2923 18.0856 35.646 18.0856C35.9996 18.0856 36.2862 18.3722 36.2862 18.7247V20.0169C36.2862 20.3705 35.9996 20.656 35.646 20.656Z" fill="#1F5FFF"/>
<path fill-rule="evenodd" clip-rule="evenodd" d="M31.6866 21.7149C31.4651 21.7149 31.2499 21.6009 31.1317 21.3953L30.484 20.2757C30.3082 19.9711 30.4126 19.5801 30.7183 19.4033C31.0251 19.2275 31.4161 19.3319 31.5929 19.6376L32.2395 20.7561C32.4163 21.0619 32.3119 21.4528 32.0062 21.6296C31.905 21.6872 31.7953 21.7149 31.6866 21.7149Z" fill="#000D44"/>
<path fill-rule="evenodd" clip-rule="evenodd" d="M28.7861 24.6102C28.6774 24.6102 28.5677 24.5825 28.4665 24.5239L27.3459 23.8773C27.0391 23.7015 26.9347 23.3106 27.1115 23.0049C27.2884 22.6992 27.6793 22.5948 27.985 22.7716L29.1067 23.4171C29.4124 23.594 29.5179 23.9849 29.34 24.2906C29.2218 24.4951 29.0066 24.6102 28.7861 24.6102Z" fill="#000D44"/>
<path fill-rule="evenodd" clip-rule="evenodd" d="M27.7239 28.5654H26.4307C26.0771 28.5654 25.7905 28.2788 25.7905 27.9263C25.7905 27.5737 26.0771 27.2871 26.4307 27.2871H27.7239C28.0776 27.2871 28.3641 27.5737 28.3641 27.9263C28.3641 28.2788 28.0776 28.5654 27.7239 28.5654Z" fill="#1F5FFF"/>
<path fill-rule="evenodd" clip-rule="evenodd" d="M27.6643 33.1661C27.4438 33.1661 27.2287 33.0522 27.1094 32.8466C26.9336 32.5409 27.038 32.151 27.3437 31.9741L28.4643 31.3275C28.7711 31.1518 29.1621 31.2562 29.3389 31.5619C29.5157 31.8676 29.4103 32.2586 29.1045 32.4343L27.9839 33.0809C27.8827 33.1384 27.773 33.1661 27.6643 33.1661Z" fill="#000D44"/>
<path fill-rule="evenodd" clip-rule="evenodd" d="M31.0346 36.5355C30.927 36.5355 30.8163 36.5078 30.7161 36.4503C30.4093 36.2735 30.3049 35.8825 30.4818 35.5768L31.1284 34.4572C31.3052 34.1515 31.6972 34.0471 32.0029 34.2239C32.3087 34.4008 32.4141 34.7917 32.2373 35.0964L31.5896 36.2159C31.4714 36.4205 31.2562 36.5355 31.0346 36.5355Z" fill="#000D44"/>
<path fill-rule="evenodd" clip-rule="evenodd" d="M35.6429 37.7691C35.2893 37.7691 35.0038 37.4836 35.0038 37.1299V35.8378C35.0038 35.4852 35.2893 35.1986 35.6429 35.1986C35.9966 35.1986 36.2831 35.4852 36.2831 35.8378V37.1299C36.2831 37.4836 35.9966 37.7691 35.6429 37.7691Z" fill="#1F5FFF"/>
<path fill-rule="evenodd" clip-rule="evenodd" d="M40.2511 36.5376C40.0295 36.5376 39.8144 36.4226 39.6961 36.218L39.0495 35.0985C38.8727 34.7928 38.9771 34.4018 39.2839 34.225C39.5896 34.0492 39.9805 34.1536 40.1574 34.4593L40.804 35.5789C40.9808 35.8846 40.8764 36.2756 40.5707 36.4513C40.4695 36.5099 40.3598 36.5376 40.2511 36.5376Z" fill="#000D44"/>
<path fill-rule="evenodd" clip-rule="evenodd" d="M43.6236 33.1694C43.515 33.1694 43.4052 33.1417 43.304 33.0841L42.1834 32.4375C41.8766 32.2618 41.7722 31.8708 41.9491 31.5651C42.1259 31.2594 42.5168 31.1539 42.8225 31.3308L43.9432 31.9763C44.25 32.1531 44.3544 32.5441 44.1775 32.8498C44.0593 33.0543 43.8441 33.1694 43.6236 33.1694Z" fill="#000D44"/>
<path fill-rule="evenodd" clip-rule="evenodd" d="M44.8593 28.5686H43.565C43.2114 28.5686 42.9248 28.282 42.9248 27.9295C42.9248 27.5758 43.2114 27.2903 43.565 27.2903H44.8593C45.2129 27.2903 45.4995 27.5758 45.4995 27.9295C45.4995 28.282 45.2129 28.5686 44.8593 28.5686Z" fill="#1F5FFF"/>
<path fill-rule="evenodd" clip-rule="evenodd" d="M42.5052 24.6134C42.2836 24.6134 42.0684 24.4983 41.9502 24.2927C41.7733 23.9881 41.8788 23.5971 42.1845 23.4203L43.3051 22.7737C43.6109 22.5979 44.0029 22.7023 44.1797 23.008C44.3565 23.3138 44.2511 23.7047 43.9454 23.8805L42.8247 24.5271C42.7235 24.5857 42.6138 24.6134 42.5052 24.6134Z" fill="#000D44"/>
<path fill-rule="evenodd" clip-rule="evenodd" d="M39.6054 21.717C39.4968 21.717 39.387 21.6893 39.2859 21.6318C38.9801 21.4549 38.8757 21.064 39.0515 20.7583L39.6992 19.6398C39.876 19.333 40.2669 19.2286 40.5727 19.4044C40.8794 19.5812 40.9838 19.9721 40.807 20.2778L40.1604 21.3974C40.0422 21.6019 39.827 21.717 39.6054 21.717Z" fill="#000D44"/>
<path fill-rule="evenodd" clip-rule="evenodd" d="M35.6461 29.6956C34.6757 29.6956 33.8853 28.9073 33.8853 27.938C33.8853 26.9686 34.6757 26.1793 35.6461 26.1793C36.6165 26.1793 37.4069 26.9686 37.4069 27.938C37.4069 28.9073 36.6165 29.6956 35.6461 29.6956ZM35.6461 27.4575C35.3808 27.4575 35.1657 27.6727 35.1657 27.938C35.1657 28.2032 35.3808 28.4184 35.6461 28.4184C35.9113 28.4184 36.1276 28.2032 36.1276 27.938C36.1276 27.6727 35.9113 27.4575 35.6461 27.4575Z" fill="#000D44"/>
<path fill-rule="evenodd" clip-rule="evenodd" d="M36.4375 27.7867C36.2735 27.7867 36.1105 27.7239 35.9848 27.5992C35.7355 27.35 35.7355 26.9452 35.9848 26.6959L38.3763 24.3055C38.6255 24.0563 39.0303 24.0563 39.2806 24.3045C39.531 24.5548 39.531 24.9596 39.2806 25.2088L36.8903 27.5992C36.7656 27.7239 36.6016 27.7867 36.4375 27.7867Z" fill="#000D44"/>
<path fill-rule="evenodd" clip-rule="evenodd" d="M38.829 31.7568C38.6649 31.7568 38.502 31.694 38.3773 31.5694L35.9837 29.1822C35.7345 28.9329 35.7334 28.5281 35.9837 28.2778C36.233 28.0285 36.6378 28.0285 36.8881 28.2778L39.2806 30.665C39.531 30.9153 39.531 31.3201 39.2817 31.5694C39.1571 31.694 38.993 31.7568 38.829 31.7568Z" fill="#1F5FFF"/>
</svg>
