<svg width="50" height="50" viewBox="0 0 50 50" fill="none" xmlns="http://www.w3.org/2000/svg">
<path d="M16.3708 19.7315C23.2307 20.001 27.1506 16.3118 28.2531 14.4335L29.9986 16.7303L31.7442 19.0272L34.9292 19.7315V23.1615L32.7242 24.8458L29.6312 30.6338L30.5499 34.0331L25.5275 43.1898L20.5663 33.4206L21.7607 30.6338C20.3642 30.4133 18.6064 26.6833 17.902 24.8458L15.7583 22.7327L16.3708 19.7315Z" fill="#FFBE9D"/>
<path d="M19.556 12.9732L17.2285 4.61299C22.8879 0.767976 30.7339 3.0109 33.9494 4.61299L31.9589 12.9732C30.7829 11.511 24.4763 12.1834 21.6997 12.4316L19.556 12.9732Z" fill="white"/>
<path d="M11.2566 35.84L20.6583 33.6656L25.5582 43.1592L30.8868 33.6656L40.166 36.3606L43.1366 46.681H7.76538L11.2566 35.84Z" fill="white"/>
<path d="M25.1977 11.2469C25.2628 12.2911 23.5664 12.4166 23.4952 11.3556C23.4248 10.2953 25.1273 10.1805 25.1977 11.2469ZM25.6004 4.39918C25.5468 4.39918 25.494 4.40454 25.4412 4.41449C25.3884 4.42521 25.3378 4.44052 25.2881 4.46119C25.2383 4.48186 25.1916 4.50712 25.1472 4.53621C25.1028 4.56607 25.0615 4.60051 25.0232 4.63803C24.9857 4.67554 24.952 4.71688 24.9221 4.76128C24.8923 4.80644 24.867 4.85314 24.8464 4.9029C24.8265 4.95189 24.8104 5.00319 24.8004 5.05601C24.7897 5.10806 24.7843 5.16165 24.7843 5.21524V6.29158H23.7294C23.6759 6.29158 23.623 6.29694 23.5702 6.30765C23.5174 6.3176 23.4669 6.33368 23.4171 6.35358C23.3673 6.37425 23.3206 6.39952 23.2762 6.42937C23.2318 6.45923 23.1905 6.49291 23.1522 6.53119C23.1147 6.5687 23.081 6.61004 23.0512 6.65444C23.0213 6.69884 22.9961 6.7463 22.9754 6.7953C22.9547 6.84506 22.9394 6.89635 22.9295 6.9484C22.9187 7.00123 22.9134 7.05405 22.9134 7.10763C22.9134 7.16122 22.9187 7.21404 22.9295 7.26687C22.9394 7.31969 22.9547 7.37021 22.9754 7.41997C22.9961 7.46973 23.0213 7.51643 23.0512 7.56083C23.081 7.60523 23.1147 7.64657 23.1522 7.68485C23.1905 7.72236 23.2318 7.75604 23.2762 7.7859C23.3206 7.81575 23.3673 7.84101 23.4171 7.86168C23.4669 7.88159 23.5174 7.89766 23.5702 7.90762C23.623 7.91833 23.6759 7.92369 23.7294 7.92369H24.7843V8.95716C24.7843 9.01075 24.7897 9.06357 24.8004 9.11639C24.8104 9.16845 24.8265 9.21974 24.8464 9.2695C24.867 9.31849 24.8923 9.36596 24.9221 9.41036C24.952 9.45476 24.9857 9.4961 25.0232 9.53361C25.0615 9.57188 25.1028 9.60557 25.1472 9.63542C25.1916 9.66528 25.2383 9.69054 25.2881 9.71045C25.3378 9.73112 25.3884 9.74643 25.4412 9.75714C25.494 9.76786 25.5468 9.77322 25.6004 9.77322C25.654 9.77322 25.7068 9.76786 25.7596 9.75714C25.8117 9.74643 25.863 9.73112 25.9127 9.71045C25.9617 9.69054 26.0092 9.66528 26.0536 9.63542C26.098 9.60557 26.1393 9.57188 26.1776 9.53361C26.2151 9.4961 26.2488 9.45476 26.2787 9.41036C26.3085 9.36596 26.3338 9.31849 26.3545 9.2695C26.3744 9.21974 26.3904 9.16845 26.4004 9.11639C26.4111 9.06357 26.4165 9.01075 26.4165 8.95716V7.92369H27.4714C27.525 7.92369 27.5778 7.91833 27.6306 7.90762C27.6834 7.89766 27.7339 7.88159 27.7837 7.86168C27.8327 7.84101 27.8802 7.81575 27.9246 7.7859C27.969 7.75604 28.0103 7.72236 28.0486 7.68485C28.0861 7.64657 28.1198 7.60523 28.1496 7.56083C28.1795 7.51643 28.2047 7.46973 28.2254 7.41997C28.2453 7.37021 28.2614 7.31969 28.2713 7.26687C28.2821 7.21404 28.2874 7.16122 28.2874 7.10763C28.2874 7.05405 28.2821 7.00123 28.2713 6.9484C28.2614 6.89635 28.2453 6.84506 28.2254 6.7953C28.2047 6.7463 28.1795 6.69884 28.1496 6.65444C28.1198 6.61004 28.0861 6.5687 28.0486 6.53119C28.0103 6.49291 27.969 6.45923 27.9246 6.42937C27.8802 6.39952 27.8327 6.37425 27.7837 6.35358C27.7339 6.33368 27.6834 6.3176 27.6306 6.30765C27.5778 6.29694 27.525 6.29158 27.4714 6.29158H26.4165V5.20375C26.4157 5.15093 26.4096 5.09811 26.3989 5.04605C26.3874 4.99476 26.3721 4.94424 26.3514 4.89525C26.33 4.84625 26.3047 4.79955 26.2748 4.75592C26.245 4.71228 26.2113 4.67171 26.1738 4.6342C26.1355 4.59669 26.0949 4.56377 26.0505 4.53391C26.0061 4.50482 25.9594 4.48033 25.9104 4.46042C25.8607 4.43975 25.8102 4.42444 25.7581 4.41449C25.706 4.40454 25.6532 4.39918 25.6004 4.39918ZM43.125 47.5691H7.81478C7.75201 47.5683 7.69077 47.5607 7.63029 47.5461C7.56905 47.5316 7.51087 47.5109 7.45498 47.4826C7.3991 47.455 7.34704 47.4214 7.29881 47.3815C7.25058 47.3417 7.20771 47.2973 7.16944 47.2476C7.13116 47.1978 7.09977 47.145 7.07375 47.0876C7.04772 47.0309 7.02858 46.972 7.01633 46.9107C7.00408 46.8495 6.99872 46.7875 7.00026 46.7255C7.00179 46.6627 7.01021 46.6015 7.02628 46.541C7.23834 45.7793 9.5556 37.3921 9.74546 36.7506C10.0831 35.5158 10.9856 34.934 12.1821 34.6837L19.7701 33.0952C19.0597 32.7698 18.3799 32.3916 17.73 31.9591C17.6442 31.8971 17.5738 31.8213 17.5171 31.7318C17.4613 31.6422 17.4237 31.545 17.4046 31.4416C17.3862 31.3375 17.3878 31.2334 17.4092 31.1301C17.4314 31.0267 17.4712 30.931 17.5302 30.843C17.5891 30.7549 17.6626 30.6815 17.7499 30.6225C17.8371 30.5628 17.9328 30.5222 18.0362 30.5C18.1395 30.4778 18.2436 30.4755 18.3477 30.4939C18.4519 30.5115 18.5483 30.549 18.6386 30.6041C19.2006 30.9777 19.7877 31.3061 20.4009 31.5886L20.6995 30.5391C20.2708 30.1946 19.8719 29.8179 19.5029 29.4091C19.1339 29.0003 18.7994 28.5648 18.5001 28.1031C18.2008 27.6408 17.9397 27.1585 17.7177 26.6547C17.4957 26.151 17.315 25.6328 17.1757 25.1C17.0211 25.0318 16.8726 24.953 16.7294 24.8634C16.587 24.7738 16.4515 24.6743 16.3229 24.5648C16.1943 24.4554 16.0741 24.3382 15.9623 24.2112C15.8506 24.0849 15.7488 23.9517 15.6561 23.81C15.5635 23.6692 15.4824 23.5222 15.4104 23.3691C15.3392 23.216 15.2795 23.059 15.2313 22.8975C15.1823 22.736 15.1455 22.5722 15.1203 22.4053C15.095 22.2384 15.082 22.0707 15.0812 21.9023V20.2702C15.0843 20.1569 15.0981 20.0444 15.1233 19.9334C15.1478 19.8224 15.1823 19.7152 15.2274 19.6111C15.2734 19.5062 15.3277 19.4074 15.392 19.3141C15.4563 19.2199 15.5283 19.1334 15.6094 19.0538C15.6906 18.9734 15.7779 18.9022 15.8728 18.8394C15.9669 18.7759 16.0665 18.7231 16.1713 18.6787C16.2762 18.635 16.3842 18.6013 16.4952 18.5784C16.6069 18.5546 16.7195 18.5424 16.8328 18.5409C17.7843 18.4919 18.7198 18.7093 19.6721 18.7093C20.0855 18.7108 20.4966 18.681 20.9054 18.6205C21.3142 18.56 21.7161 18.4689 22.1119 18.348C22.5069 18.2278 22.8912 18.0777 23.2632 17.8986C23.636 17.7202 23.9936 17.5151 24.3357 17.2823C24.6772 17.0504 25.0002 16.7932 25.3034 16.513C25.6065 16.232 25.8875 15.9296 26.1455 15.6066C26.4034 15.2843 26.6354 14.9436 26.8421 14.5854C27.0488 14.2279 27.2279 13.8566 27.3787 13.4715C27.4323 13.3345 27.5173 13.2212 27.6329 13.1316C27.7493 13.042 27.8802 12.9885 28.0264 12.9716C28.1718 12.9548 28.3119 12.9762 28.4451 13.0367C28.5791 13.0972 28.6878 13.1875 28.7712 13.3085C28.9243 13.5504 29.0315 13.8114 29.092 14.0916C29.353 15.1664 29.7986 16.1585 30.4302 17.0665C30.5886 17.2908 30.7693 17.4944 30.9721 17.6781C31.175 17.8626 31.3963 18.0218 31.6343 18.1573C31.8724 18.2928 32.1227 18.4008 32.3846 18.4812C32.6471 18.5608 32.9143 18.6121 33.1876 18.6327C33.8077 18.6327 34.4714 18.4697 35.0264 18.7476C35.7606 19.1173 35.929 20.0796 35.945 20.9232C35.9849 21.6887 35.8907 22.4374 35.6626 23.1693C35.547 23.536 35.3663 23.8667 35.1221 24.1637C34.8771 24.46 34.5862 24.6996 34.2486 24.8825C34.0948 24.94 33.957 25.0234 33.8352 25.1329C33.735 25.263 33.6684 25.4077 33.6339 25.5677C33.3346 26.5468 32.8998 27.4609 32.3287 28.3106C31.7583 29.1603 31.0763 29.9083 30.2832 30.5551L30.6698 31.9423C31.3235 31.6047 31.9413 31.2097 32.5216 30.7557C33.1019 30.3025 33.6347 29.7996 34.12 29.2461C34.6061 28.6926 35.0364 28.0993 35.4107 27.4654C35.7851 26.8308 36.0974 26.1679 36.3477 25.4751C36.8514 24.091 37.186 22.6679 37.3513 21.2042C37.5167 19.7405 37.509 18.2783 37.3268 16.8161C37.2924 16.1402 37.1799 15.4772 36.99 14.8273C36.7994 14.1781 36.5368 13.5588 36.2007 12.9709C36.0293 12.6799 35.8218 12.4166 35.5784 12.1808C35.3357 11.9458 35.0655 11.7468 34.7692 11.5845C34.4722 11.4222 34.1591 11.3028 33.8299 11.2247C33.5007 11.1474 33.1669 11.1144 32.8286 11.1274C32.6854 11.4543 32.589 11.7958 32.5407 12.1494C32.5101 12.3293 32.4366 12.4893 32.3203 12.6294C32.2031 12.7695 32.0592 12.8706 31.8877 12.9326C31.7132 12.9578 31.5409 12.9448 31.371 12.8951C29.8453 12.5123 28.2989 12.2512 26.7319 12.1119C26.6783 12.1089 26.6255 12.1004 26.5734 12.0867C26.5213 12.0736 26.4716 12.0553 26.4234 12.0315C26.3744 12.0086 26.3292 11.981 26.2863 11.9481C26.2435 11.9159 26.2044 11.88 26.1684 11.8402C26.1325 11.7996 26.1011 11.7567 26.0735 11.7108C26.0467 11.6641 26.0245 11.6159 26.0061 11.5653C25.9885 11.5148 25.9763 11.4627 25.9686 11.4099C25.961 11.3563 25.9587 11.3028 25.9617 11.2499C25.9648 11.1963 25.9732 11.1435 25.987 11.0915C26 11.0394 26.0184 10.9889 26.0421 10.9407C26.0651 10.8924 26.0926 10.8473 26.1256 10.8044C26.1577 10.7615 26.1937 10.7217 26.2335 10.6865C26.2741 10.6505 26.3169 10.6191 26.3629 10.5916C26.4096 10.5648 26.4578 10.5418 26.5083 10.5242C26.5589 10.5066 26.6109 10.4944 26.6637 10.4867C26.7173 10.479 26.7709 10.4767 26.8245 10.4798C28.2713 10.5709 29.6945 10.8067 31.0939 11.1872L33.0843 4.66023C31.8632 4.3211 30.6246 4.06617 29.3691 3.89546C28.1129 3.72398 26.8513 3.63901 25.5843 3.63901C24.3166 3.63901 23.055 3.72398 21.7995 3.89546C20.5433 4.06617 19.3047 4.3211 18.0836 4.66023L20.0909 11.1872C20.5854 11.0563 21.0861 10.9422 21.5921 10.8442C21.6441 10.8342 21.6977 10.8297 21.7513 10.8304C21.8049 10.8304 21.8577 10.8365 21.9105 10.8473C21.9626 10.858 22.0139 10.8741 22.0629 10.8947C22.1126 10.9162 22.1593 10.9414 22.2037 10.9713C22.2481 11.0019 22.2887 11.0363 22.3262 11.0746C22.3645 11.1121 22.3974 11.1542 22.4273 11.1986C22.4564 11.2438 22.4809 11.2913 22.5015 11.341C22.5214 11.3908 22.5367 11.4413 22.5467 11.4941C22.5566 11.547 22.5612 11.5998 22.5605 11.6534C22.5605 11.7077 22.5544 11.7605 22.5436 11.8126C22.5329 11.8654 22.5168 11.9167 22.4954 11.9657C22.4747 12.0147 22.4495 12.0622 22.4189 12.1066C22.389 12.1502 22.3545 12.1915 22.3163 12.229C22.278 12.2666 22.2367 12.3002 22.1915 12.3293C22.1471 12.3592 22.0996 12.3837 22.0499 12.4036C22.0001 12.4235 21.9488 12.4388 21.8968 12.4488C21.1833 12.5911 20.4798 12.7726 19.7862 12.9931C19.7349 13.0076 19.6821 13.0183 19.6285 13.0229C19.5757 13.0283 19.5221 13.0275 19.4685 13.0221C19.4157 13.0168 19.3628 13.0068 19.3116 12.9908C19.2603 12.9754 19.2113 12.9548 19.1638 12.9295C19.1163 12.9042 19.0719 12.8752 19.0298 12.8415C18.9885 12.807 18.951 12.7695 18.9165 12.7289C18.8821 12.6876 18.8522 12.6432 18.8262 12.5965C18.8009 12.549 18.7795 12.5 18.7634 12.4488L17.8555 9.33227C16.316 10.5395 15.1899 12.5628 14.5048 15.3693C13.3243 20.2051 13.6022 24.1591 15.3315 27.134C15.3813 27.2274 15.4119 27.3269 15.4234 27.4318C15.4349 27.5366 15.4265 27.64 15.3974 27.7418C15.3683 27.8429 15.3216 27.9355 15.2573 28.0189C15.1922 28.1024 15.1141 28.1713 15.023 28.2241C14.9319 28.2777 14.834 28.3114 14.7298 28.3267C14.625 28.342 14.5216 28.3374 14.419 28.3121C14.3165 28.2869 14.2223 28.244 14.1366 28.182C14.0508 28.12 13.9796 28.045 13.923 27.9554C11.9755 24.6054 11.6386 20.2434 12.9224 14.9834C13.7653 11.5294 15.2611 9.09266 17.3602 7.70092L16.3267 4.33947C16.2977 4.23612 16.2892 4.13048 16.3007 4.0233C16.3122 3.91689 16.3436 3.81584 16.3941 3.72092C16.4446 3.62599 16.5112 3.54408 16.5939 3.47518C16.6758 3.40628 16.7685 3.35499 16.871 3.32208C18.2896 2.88419 19.7334 2.55425 21.2024 2.33224C22.6707 2.111 24.1474 2 25.6333 2C27.1185 2 28.5952 2.111 30.0635 2.33224C31.5325 2.55425 32.9763 2.88419 34.3948 3.32208C34.4974 3.35576 34.5893 3.40705 34.6712 3.47671C34.7531 3.54561 34.8197 3.62752 34.8702 3.72245C34.9208 3.81661 34.9522 3.91766 34.9636 4.02407C34.9759 4.13048 34.9675 4.23612 34.9391 4.33947L33.356 9.48997C33.712 9.5183 34.0618 9.58031 34.4056 9.676C34.7493 9.77245 35.0808 9.9003 35.4 10.0611C35.7184 10.2211 36.0193 10.4109 36.301 10.6299C36.5835 10.848 36.8423 11.0922 37.0765 11.3609C37.3085 11.648 37.5129 11.9527 37.6912 12.275C38.714 13.9829 39.0187 16.0552 39.0677 18.0126C39.1588 20.6055 38.8303 23.144 38.0832 25.6274C37.6966 26.7857 37.1523 27.8643 36.4511 28.8641C35.9068 29.7322 35.2553 30.5115 34.4982 31.2028C33.6102 31.9316 32.6762 32.5968 31.6971 33.1985L38.7683 34.6837C38.9077 34.6959 39.0455 34.7189 39.1817 34.7518C39.3172 34.7847 39.4504 34.8283 39.5798 34.8812C39.7092 34.9348 39.834 34.9975 39.9541 35.0702C40.0736 35.1422 40.1876 35.2234 40.2948 35.3129C40.4027 35.4025 40.5023 35.4997 40.5957 35.6046C40.6883 35.7095 40.7725 35.8212 40.8483 35.9391C40.9241 36.0563 40.9907 36.1795 41.0473 36.3074C41.1047 36.4352 41.1514 36.5669 41.1882 36.7016C41.7761 38.8175 43.582 45.3713 43.9081 46.5303C43.925 46.5908 43.9341 46.652 43.9364 46.7148C43.9395 46.7775 43.9349 46.8403 43.9227 46.9016C43.9112 46.9636 43.892 47.0233 43.8668 47.0807C43.8415 47.1381 43.8094 47.1917 43.7719 47.2422C43.7343 47.292 43.6907 47.3371 43.6425 47.3777C43.5942 47.4183 43.5422 47.4527 43.4863 47.4811C43.4304 47.5094 43.3715 47.5308 43.3102 47.5454C43.2498 47.5607 43.1878 47.5683 43.125 47.5691ZM25.3937 30.6156H25.4373C28.5753 30.6156 31.3763 28.0212 32.2682 24.29C32.3042 24.1453 32.3738 24.0198 32.4787 23.9134C32.5828 23.8077 32.7068 23.735 32.8508 23.6967C32.9503 23.6707 33.0467 23.637 33.1401 23.5957C33.2343 23.5536 33.3239 23.5046 33.4096 23.4479C33.4953 23.3913 33.5757 23.3285 33.6515 23.2588C33.7265 23.1892 33.7962 23.1134 33.859 23.0322C33.9217 22.9511 33.9784 22.8654 34.0266 22.775C34.0756 22.6855 34.117 22.5913 34.1506 22.4941C34.1843 22.3976 34.2096 22.2981 34.2272 22.1971C34.244 22.096 34.2532 21.9934 34.254 21.8908V20.2595C34.2532 20.2181 34.2348 20.1875 34.1996 20.1669C33.7273 20.284 33.2488 20.3192 32.7643 20.2717C32.2797 20.2235 31.8173 20.0964 31.3763 19.8897C30.9729 19.683 30.5932 19.4396 30.2372 19.1594C29.8805 18.8792 29.5551 18.5669 29.2597 18.2232C28.9634 17.8794 28.7039 17.5112 28.4803 17.117C28.256 16.7227 28.0723 16.3109 27.9284 15.8806C27.7041 16.2236 27.4599 16.5505 27.195 16.8621C26.9301 17.1744 26.6469 17.4684 26.3453 17.7455C26.0436 18.0218 25.7267 18.2791 25.3929 18.5156C25.0599 18.7529 24.7132 18.9688 24.3526 19.1625C23.992 19.3562 23.6215 19.5276 23.2403 19.6754C22.8583 19.8231 22.4694 19.9464 22.0721 20.0459C21.6755 20.1454 21.2736 20.2197 20.8679 20.2687C20.4614 20.3184 20.0541 20.3422 19.6446 20.3406C19.0406 20.3406 17.1206 20.1883 16.7784 20.1615C16.7516 20.1653 16.7294 20.1776 16.7118 20.1982C16.6942 20.2189 16.6858 20.2434 16.6858 20.2702V21.9023C16.6865 22.0034 16.6957 22.1037 16.7126 22.2032C16.7302 22.3027 16.7547 22.4007 16.7876 22.4964C16.8205 22.5921 16.8603 22.6847 16.9085 22.7735C16.956 22.8623 17.0104 22.9473 17.0724 23.0277C17.1336 23.108 17.201 23.1831 17.2745 23.2527C17.348 23.3224 17.426 23.3852 17.5103 23.4426C17.5937 23.4992 17.681 23.549 17.7728 23.5919C17.8647 23.634 17.9589 23.6692 18.0568 23.6967C18.1992 23.7373 18.321 23.8108 18.4235 23.918C18.5254 24.0251 18.5935 24.1507 18.6279 24.2954C19.4869 27.9883 22.2719 30.5934 25.3937 30.6156ZM22.1302 31.4531L21.4612 33.8025L25.4695 41.6454L29.4893 33.8079L28.8202 31.4309C27.7561 31.9744 26.6262 32.2485 25.432 32.2523H25.3776C24.2278 32.237 23.14 31.9706 22.1142 31.4531H22.1302ZM42.0532 45.937L39.5622 36.9083C39.3394 36.413 38.7683 36.3648 38.3006 36.2499L30.865 34.6997L26.1929 43.8211C26.1217 43.9558 26.0214 44.0622 25.8913 44.141C25.7604 44.2199 25.6195 44.2589 25.4672 44.2589C25.3149 44.2589 25.1732 44.2199 25.0431 44.141C24.913 44.0622 24.8119 43.9558 24.7407 43.8211L20.074 34.6997C19.6009 34.7702 19.1332 34.8682 18.6708 34.9937C16.5931 35.4285 14.5155 35.9077 12.4271 36.2936C12.0681 36.3586 11.4916 36.4895 11.3776 36.9083L8.88653 45.937H42.0532ZM16.169 30.4304C16.2494 30.4327 16.3275 30.4227 16.4048 30.4013C16.4814 30.3798 16.5541 30.3477 16.6215 30.3048C16.6888 30.2619 16.7485 30.2106 16.8006 30.1494C16.8527 30.0889 16.8948 30.0223 16.9269 29.9488C16.9591 29.8753 16.9797 29.7996 16.9889 29.7199C16.9981 29.6403 16.9958 29.5615 16.982 29.4826C16.9675 29.4038 16.9422 29.3288 16.9055 29.2583C16.8695 29.1871 16.8228 29.1228 16.7677 29.0654L16.7241 29.0164C16.6858 28.9781 16.6452 28.9445 16.6 28.9146C16.5556 28.8855 16.5089 28.8602 16.4592 28.8396C16.4102 28.8189 16.3589 28.8036 16.3061 28.7936C16.254 28.7829 16.2012 28.7776 16.1476 28.7776C16.094 28.7776 16.0412 28.7829 15.9884 28.7936C15.9356 28.8036 15.885 28.8189 15.8353 28.8396C15.7863 28.8602 15.7388 28.8855 15.6944 28.9146C15.65 28.9445 15.6087 28.9781 15.5712 29.0164C15.4655 29.1397 15.4004 29.2821 15.3759 29.4428C15.3515 29.6028 15.3706 29.7582 15.4341 29.9075C15.4977 30.0575 15.5949 30.1793 15.7273 30.2734C15.8598 30.3676 16.0067 30.4196 16.169 30.4304Z" fill="#000D44"/>
<rect x="24.8232" y="4.3887" width="1.53122" height="5.38989" rx="0.76561" fill="#D80027"/>
<rect x="28.3145" y="6.28741" width="1.59247" height="5.38989" rx="0.796234" transform="rotate(90 28.3145 6.28741)" fill="#D80027"/>
</svg>
