<svg width="50" height="50" viewBox="0 0 50 50" fill="none" xmlns="http://www.w3.org/2000/svg">
<g id="icon" clip-path="url(#clip0_17_24803)">
<g id="Page-1">
<g id="027---Eye-Diagram">
<g id="Icons">
<path id="Shape" d="M49.1668 19.9999V29.9999C45.6976 30.2137 42.5392 32.0716 40.6668 34.9999C37.271 40.8826 31.1216 44.6397 24.3375 44.9765C17.5534 45.3133 11.062 42.1839 7.10016 36.6666C3.3335 34.9999 0.833496 31.4416 0.833496 24.9999C0.833496 18.5583 3.3335 14.9999 7.0835 13.3333C11.0442 7.80837 17.54 4.67354 24.3296 5.01049C31.1191 5.34744 37.2726 9.11004 40.6668 14.9999C42.5392 17.9283 45.6976 19.7862 49.1668 19.9999Z" fill="#04CE78"/>
<path id="Shape_2" d="M40.667 15C37.092 8.80801 30.4835 4.99542 23.3336 5C22.9003 5 22.5003 5 22.0503 5C28.762 5.41203 34.8174 9.16927 38.167 15C40.0393 17.9284 43.1978 19.7863 46.667 20V30C43.1978 30.2137 40.0393 32.0716 38.167 35C34.8174 40.8307 28.762 44.588 22.0503 45C22.4753 45 22.8836 45 23.3336 45C30.4835 45.0046 37.092 41.192 40.667 35C42.5393 32.0716 45.6978 30.2137 49.167 30V20C45.6978 19.7863 42.5393 17.9284 40.667 15Z" fill="#1F5FFF"/>
<path id="Shape_3" d="M15.8333 24.9998C15.8333 29.5998 13.7833 33.3332 11.25 33.3332C11.1114 33.3466 10.9719 33.3466 10.8333 33.3332C9.16667 33.0748 7.80833 31.2582 7.125 28.6998C7.34406 28.9953 7.68283 29.1784 8.05 29.1998C9.16667 29.1665 10 27.2998 10 24.9998C10 22.6998 9.16667 20.8332 8.06667 20.8332C7.6995 20.8546 7.36073 21.0377 7.14167 21.3332C7.825 18.7748 9.20833 16.9582 10.8333 16.6665C10.9664 16.6541 11.1003 16.6541 11.2333 16.6665C13.7833 16.6665 15.8333 20.3998 15.8333 24.9998Z" fill="#04CE78"/>
<path id="Shape_4" d="M11.25 16.6668C11.1114 16.6534 10.9719 16.6534 10.8333 16.6668C10.5423 16.7208 10.2612 16.8192 10 16.9585C11.925 17.9585 13.3333 21.1251 13.3333 24.9668C13.3333 28.8085 11.9333 31.9752 10 32.9752C10.2572 33.1377 10.5384 33.2586 10.8333 33.3335C10.9664 33.3459 11.1003 33.3459 11.2333 33.3335C13.7333 33.3335 15.8167 29.6002 15.8167 25.0001C15.8167 20.4001 13.7833 16.6668 11.25 16.6668Z" fill="#1F5FFF"/>
<path id="Shape_5" d="M10.0003 25.0002C10.0003 27.3002 9.16692 29.1668 8.06692 29.1668C7.69975 29.1454 7.36098 28.9623 7.14192 28.6668C6.50868 26.2634 6.50868 23.7369 7.14192 21.3335C7.36098 21.0381 7.69975 20.8549 8.06692 20.8335C9.16692 20.8335 10.0003 22.7002 10.0003 25.0002Z" fill="#1F5FFF"/>
<path id="Shape_6" d="M49.167 23.3335V26.6668H44.4087C41.2061 26.6535 38.2839 28.4912 36.9087 31.3835C36.6265 31.9897 36.3006 32.5746 35.9337 33.1335C34.9087 31.9918 34.167 28.8168 34.167 25.0835C34.167 21.3502 34.9337 18.0585 35.992 16.9585C36.3351 17.4926 36.6413 18.0494 36.9087 18.6252C38.2839 21.5174 41.2061 23.3551 44.4087 23.3418L49.167 23.3335Z" fill="#1F5FFF"/>
<path id="Rectangle-path" d="M46.667 23.3335H49.167V26.6668H46.667V23.3335Z" fill="#04CE78"/>
<path id="Shape_7" d="M34.1668 25.0832C34.1668 28.8165 34.9085 31.9915 35.9335 33.1332C33.196 37.3889 28.4975 39.9776 23.4376 40.0179C18.3776 40.0582 13.6384 37.5447 10.8335 33.3332C10.9665 33.3456 11.1004 33.3456 11.2335 33.3332C13.7335 33.3332 15.8168 29.5999 15.8168 24.9999C15.8168 20.3999 13.7668 16.6665 11.2335 16.6665C11.1004 16.6542 10.9665 16.6542 10.8335 16.6665C13.6449 12.4429 18.4009 9.92669 23.4744 9.97882C28.5479 10.031 33.2512 12.6443 35.9752 16.9249C34.9335 18.0582 34.1668 21.2832 34.1668 25.0832Z" fill="white"/>
<path id="Shape_8" d="M35.0002 25.1748C35.0002 25.1748 35.0002 25.1748 35.0002 25.1165C35.0056 25.0778 35.0056 25.0385 35.0002 24.9998C35.0868 24.549 34.7925 24.113 34.3419 24.0248C32.7336 23.6915 30.8336 22.8915 30.8336 20.8332C30.8497 19.8595 30.7263 18.8885 30.4669 17.9498C30.468 17.9304 30.468 17.9109 30.4669 17.8915C29.6669 15.3415 27.6419 14.1665 24.1669 14.1665C23.7067 14.1665 23.3336 14.5396 23.3336 14.9998C23.3336 15.4601 23.7067 15.8332 24.1669 15.8332C26.2586 15.8332 27.5836 16.2582 28.3336 17.2915C26.9208 17.3107 25.5872 17.947 24.6836 19.0332C24.6011 19.1308 24.512 19.2227 24.4169 19.3082C24.0342 19.7394 23.4852 19.9862 22.9086 19.9862C22.332 19.9862 21.783 19.7394 21.4002 19.3082C21.1913 19.0758 20.8699 18.9799 20.5677 19.0597C20.2656 19.1396 20.0335 19.3817 19.9666 19.687C19.8997 19.9922 20.0092 20.3093 20.2502 20.5082C20.9366 21.2278 21.8811 21.6445 22.8752 21.6665C23.8896 21.6369 24.8548 21.2228 25.5752 20.5082C25.6836 20.4082 25.7919 20.2915 25.9086 20.1665C26.66 19.2494 27.834 18.7886 29.0086 18.9498C29.1228 19.5709 29.1758 20.2017 29.1669 20.8332C29.1669 22.8748 30.4002 24.4248 32.5836 25.2248C31.6091 25.7128 30.7333 26.3768 30.0002 27.1832C28.3336 26.1665 26.0169 26.9082 25.0586 27.2998L22.9336 25.9582C22.6805 25.8004 22.3625 25.7896 22.0993 25.9298C21.8361 26.0701 21.6678 26.3401 21.6576 26.6382C21.6475 26.9362 21.7972 27.217 22.0502 27.3748L23.7169 28.4082L22.7419 29.4248C22.5842 29.5813 22.4954 29.7943 22.4954 30.0165C22.4954 30.2387 22.5842 30.4517 22.7419 30.6082C22.9019 30.7581 23.1144 30.8389 23.3336 30.8332C23.5633 30.8346 23.7834 30.7411 23.9419 30.5748L25.4919 28.9082C26.2502 28.5582 27.9919 27.9998 29.0502 28.5582C28.6963 29.2283 28.4543 29.9517 28.3336 30.6998C28.1376 32.1287 27.3439 33.4071 26.1502 34.2165C25.0996 34.7349 23.8676 34.7349 22.8169 34.2165C22.3889 34.0462 21.9039 34.2551 21.7336 34.6832C21.5633 35.1112 21.7722 35.5962 22.2002 35.7665C22.9659 36.0878 23.7866 36.2576 24.6169 36.2665C25.4451 36.2713 26.2604 36.0617 26.9836 35.6582C28.6209 34.6047 29.7212 32.8933 30.0002 30.9665C30.4586 28.1998 32.6836 26.8665 34.4586 26.2332C34.6719 26.1664 34.8495 26.0166 34.9513 25.8176C35.0532 25.6186 35.0708 25.387 35.0002 25.1748Z" fill="#1F5FFF"/>
</g>
<g id="Icons_copy">
<path id="Shape_9" d="M49.1667 19.1667C46.0036 18.9507 43.1251 17.2631 41.3917 14.6084C37.8793 8.51466 31.5293 4.6046 24.5067 4.21138C17.4842 3.81816 10.7374 6.99487 6.56667 12.6584C2.20833 14.675 0 18.825 0 25C0 31.175 2.20833 35.325 6.56667 37.3417C10.7374 43.0052 17.4842 46.1819 24.5067 45.7887C31.5293 45.3955 37.8793 41.4854 41.3917 35.3917C43.1251 32.737 46.0036 31.0494 49.1667 30.8334C49.6269 30.8334 50 30.4603 50 30V20C50 19.5398 49.6269 19.1667 49.1667 19.1667ZM39.9417 34.5584C36.6997 40.2039 30.8138 43.8178 24.3124 44.1547C17.811 44.4915 11.583 41.5052 7.775 36.225C7.67552 36.0865 7.5359 35.9817 7.375 35.925C3.58333 34.1667 1.66667 30.5167 1.66667 25C1.66667 19.4834 3.575 15.8334 7.34167 14.1667C7.51708 14.1118 7.66943 14.0005 7.775 13.85C11.583 8.56984 17.811 5.58357 24.3124 5.92043C30.8138 6.25729 36.6997 9.87122 39.9417 15.5167C41.8227 18.4349 44.8912 20.379 48.3333 20.8334V22.5H44.4083C41.5324 22.5085 38.9084 20.8608 37.6667 18.2667C35.039 12.7271 29.4645 9.18791 23.3333 9.16671C18.1507 9.16045 13.2963 11.7029 10.35 15.9667C7.75833 16.6667 5.83333 20.3834 5.83333 25C5.83333 29.6167 7.75833 33.3334 10.35 34.0334C13.5804 38.6723 19.0388 41.2371 24.6718 40.7628C30.3047 40.2885 35.2575 36.8471 37.6667 31.7334C38.9084 29.1393 41.5324 27.4916 44.4083 27.5H48.3333V29.1667C44.8779 29.6385 41.807 31.6116 39.9417 34.5584ZM48.3333 25.8334H44.4083C40.8899 25.8372 37.6841 27.8546 36.1583 31.025C36.0917 31.1667 36.0083 31.3084 35.9417 31.4417C35.2627 29.3926 34.944 27.2413 35 25.0834C34.9379 22.887 35.268 20.6971 35.975 18.6167C36.0333 18.7334 36.1 18.85 36.1583 18.975C37.6841 22.1455 40.8899 24.1629 44.4083 24.1667H48.3333V25.8334ZM8.06667 21.6667C8.33333 21.6667 9.16667 22.8167 9.16667 25C9.16667 27.1834 8.33333 28.3334 8.06667 28.3334C7.9914 28.3116 7.92269 28.2715 7.86667 28.2167C7.37774 26.1001 7.37774 23.9 7.86667 21.7834C7.92269 21.7286 7.9914 21.6885 8.06667 21.6667ZM10.8333 25C10.8333 22.35 9.85833 20.3667 8.45833 20.05C9.16667 18.4417 10.2417 17.5 11.25 17.5C13.0583 17.5 15 20.5167 15 25C15 29.4834 13.0583 32.5 11.25 32.5C10.2417 32.5 9.19167 31.5584 8.45833 29.95C9.85833 29.6334 10.8333 27.65 10.8333 25ZM16.6667 25C16.6667 20.5167 14.8583 16.8917 12.3833 16.0334C15.1991 12.5879 19.47 10.6656 23.9161 10.8425C28.3623 11.0195 32.467 13.2751 35 16.9334C33.9917 18.5 33.3333 21.5667 33.3333 25.0834C33.3333 28.6 33.9417 31.5584 34.9167 33.1417C32.2559 36.9038 27.9412 39.1481 23.3333 39.1667C19.0868 39.1697 15.0647 37.2597 12.3833 33.9667C14.8583 33.1084 16.6667 29.475 16.6667 25Z" fill="#000D44"/>
</g>
</g>
</g>
</g>
<defs>
<clipPath id="clip0_17_24803">
<rect width="50" height="50" fill="white"/>
</clipPath>
</defs>
</svg>
