<svg width="50" height="50" viewBox="0 0 50 50" fill="none" xmlns="http://www.w3.org/2000/svg">
<g id="icon" clip-path="url(#clip0_17_24724)">
<g id="Layer_x0020_1">
<path id="Vector" fill-rule="evenodd" clip-rule="evenodd" d="M14.8213 38.7231H13.3861V40.1584C13.3861 41.6229 11.1599 41.6229 11.1599 40.1584V38.7231H9.72466C8.23082 38.7231 8.23082 36.497 9.72466 36.497H11.1599V35.0324C11.1599 33.5679 13.3861 33.5679 13.3861 35.0324V36.497H14.8213C16.2859 36.497 16.2859 38.7231 14.8213 38.7231ZM43.8489 50.0002H26.0691C25.454 50.0002 24.9854 49.5023 24.9561 48.9164C24.1652 31.2539 17.8676 26.4501 17.0767 25.9229C4.15935 21.9686 6.03398 5.85844 6.06327 5.68269C6.12185 5.24333 6.44406 4.86254 6.88342 4.74538L24.4581 0.0295014C24.6924 -0.0290809 24.9561 0.000210265 25.1904 0.0880837C44.4933 8.87543 44.9619 22.5837 44.9619 23.1695V48.8579C44.9619 49.473 44.464 50.0002 43.8489 50.0002ZM27.1236 47.7448H33.2162L30.4921 30.1994C27.0064 30.7559 24.3702 27.0067 26.157 23.9018C27.2115 22.0564 29.4669 21.2949 31.4001 22.0857C33.5384 19.3617 37.932 20.2404 38.8401 23.6089C39.4259 25.8057 38.1664 28.0904 35.9988 28.7641L38.9572 47.7448H42.7358V23.1988C42.7065 22.7009 42.2378 10.4572 24.6339 2.31421L20.7381 3.3394L25.7469 10.8379C28.676 8.84614 32.6303 11.1601 32.3081 14.7044C32.1324 16.8426 30.4335 18.4536 28.3245 18.5708C27.5337 21.9686 23.1986 22.9938 20.9725 20.3283C19.5079 18.5708 19.6837 15.9639 21.3533 14.47L14.9678 4.89183L8.20152 6.70788C7.99649 9.72487 7.9379 20.8848 17.8676 23.8139C18.4241 23.9604 26.0105 28.4712 27.1236 47.7448ZM35.5009 47.7448H36.7018L33.6262 28.0026C33.5091 27.3289 34.0363 26.7137 34.7393 26.7137C36.0281 26.7137 36.9947 25.4542 36.6725 24.1947C36.1746 22.3201 33.5384 22.2029 32.8647 24.019C32.6011 24.7219 31.693 24.9563 31.1072 24.4876C29.6134 23.2574 27.3872 24.6634 27.9145 26.538C28.2367 27.8268 29.7012 28.4126 30.8436 27.7389C31.5173 27.3581 32.396 27.7682 32.5132 28.5298L35.5009 47.7448ZM18.4534 3.95452L17.2525 4.27672L23.843 14.1478C24.2238 14.7044 23.9895 15.4952 23.3743 15.7881C21.529 16.6376 21.9977 19.4202 24.0187 19.596C25.249 19.6839 26.3035 18.6587 26.2156 17.4577C26.157 16.6962 26.86 16.0811 27.5923 16.2861C29.4669 16.7547 30.8729 14.5579 29.6426 13.0641C28.7932 12.0389 27.2115 12.1267 26.4499 13.2105C26.0105 13.8549 25.0439 13.8256 24.6046 13.1812L18.4534 3.95452ZM12.273 44.845C8.26011 44.845 5.00879 41.5936 5.00879 37.6101C5.00879 33.5972 8.26011 30.3458 12.273 30.3458C16.2566 30.3458 19.5079 33.5972 19.5079 37.6101C19.5079 41.5936 16.2566 44.845 12.273 44.845ZM12.273 32.6013C9.51963 32.6013 7.26421 34.8274 7.26421 37.6101C7.26421 40.3634 9.51963 42.6188 12.273 42.6188C15.0264 42.6188 17.2818 40.3634 17.2818 37.6101C17.2818 34.8274 15.0264 32.6013 12.273 32.6013Z" fill="#000D44"/>
<path id="Vector_2" fill-rule="evenodd" clip-rule="evenodd" d="M23.3743 15.7882C21.5289 16.6377 21.9976 19.4203 24.0187 19.5961C25.2489 19.6839 26.3034 18.6587 26.2155 17.4578C26.157 16.6962 26.8599 16.0811 27.5922 16.2862C29.4669 16.7548 30.8728 14.558 29.6426 13.0641C28.7932 12.0389 27.2114 12.1268 26.4499 13.2106C26.0105 13.855 25.0439 13.8257 24.6045 13.1813L18.4534 3.95459L17.2524 4.27679L23.843 14.1479C24.2237 14.7044 23.9894 15.4953 23.3743 15.7882Z" fill="white"/>
<path id="Vector_3" fill-rule="evenodd" clip-rule="evenodd" d="M31.1073 24.4877C29.6134 23.2574 27.3873 24.6634 27.9145 26.5381C28.2367 27.8269 29.7013 28.4127 30.8437 27.739C31.5174 27.3582 32.3961 27.7683 32.5133 28.5299L35.501 47.7448H36.7019L33.6263 28.0026C33.5092 27.3289 34.0364 26.7138 34.7394 26.7138C36.0282 26.7138 36.9948 25.4543 36.6726 24.1948C36.1747 22.3201 33.5384 22.203 32.8648 24.019C32.6011 24.722 31.6931 24.9563 31.1073 24.4877Z" fill="white"/>
<path id="Vector_4" fill-rule="evenodd" clip-rule="evenodd" d="M26.1568 23.902C27.2113 22.0567 29.4667 21.2951 31.3999 22.086C33.5382 19.3619 37.9318 20.2406 38.8399 23.6091C39.4257 25.806 38.1662 28.0907 35.9986 28.7644L38.957 47.745H42.7356V23.199C42.7063 22.7011 42.2376 10.4574 24.6336 2.31445L20.7379 3.33964L25.7467 10.8382C28.6758 8.84638 32.6301 11.1604 32.3079 14.7046C32.1322 16.8429 30.4333 18.4539 28.3243 18.571C27.5335 21.9688 23.1984 22.994 20.9723 20.3285C19.5077 18.571 19.6834 15.9641 21.353 14.4703L14.9676 4.89207L8.20131 6.70813C7.99627 9.72512 7.93769 20.885 17.8674 23.8142C18.4239 23.9606 26.0103 28.4715 27.1234 47.745H33.216L30.4919 30.1996C27.0062 30.7562 24.37 27.0069 26.1568 23.902Z" fill="#04CE78"/>
<path id="Vector_5" fill-rule="evenodd" clip-rule="evenodd" d="M17.2817 37.6099C17.2817 34.8272 15.0263 32.6011 12.2729 32.6011C9.51958 32.6011 7.26416 34.8272 7.26416 37.6099C7.26416 40.3632 9.51958 42.6186 12.2729 42.6186C15.0263 42.6186 17.2817 40.3632 17.2817 37.6099ZM14.8213 36.4968C16.2858 36.4968 16.2858 38.7229 14.8213 38.7229H13.386V40.1582C13.386 41.6227 11.1599 41.6227 11.1599 40.1582V38.7229H9.72462C8.23077 38.7229 8.23077 36.4968 9.72462 36.4968H11.1599V35.0322C11.1599 33.5677 13.386 33.5677 13.386 35.0322V36.4968H14.8213Z" fill="#1F5FFF"/>
</g>
</g>
<defs>
<clipPath id="clip0_17_24724">
<rect width="50" height="50" fill="white"/>
</clipPath>
</defs>
</svg>
