<svg width="50" height="50" viewBox="0 0 50 50" fill="none" xmlns="http://www.w3.org/2000/svg">
<g clip-path="url(#clip0_17_25821)">
<path d="M21.4545 20.8382C18.2727 17.1719 18.1468 12.7762 18.4303 10.2074C18.5863 8.79291 18.0026 7.39864 16.8777 6.52699C15.3846 5.36999 13.2865 5.38334 11.8225 6.57658C8.80541 9.03629 4.16103 14.5176 2.01451 25.8518C-1.30656 43.3891 1.94508 48.7384 10.2313 48.7384C18.5176 48.7384 22.6081 49.1386 22.6081 36.5711C22.6081 24.004 20.1957 23.9849 21.4545 20.8382Z" fill="#04CE78"/>
<path d="M4.94457 25.8518C7.09109 14.5176 11.7355 9.03626 14.7521 6.57655C15.0874 6.30342 15.4559 6.09285 15.8428 5.94331C14.5114 5.43062 12.9714 5.64005 11.8225 6.57655C8.80542 9.03626 4.16103 14.5176 2.01451 25.8518C-1.30656 43.389 1.94508 48.7384 10.2313 48.7384C11.1473 48.7384 12.0117 48.7433 12.8253 48.735C4.78779 48.5896 1.6689 43.1499 4.94457 25.8518Z" fill="#1F5FFF"/>
<path d="M28.5455 20.8382C31.7274 17.1719 31.8529 12.7762 31.5694 10.2074C31.4134 8.79291 31.9971 7.39864 33.122 6.52699C34.6151 5.36999 36.7132 5.38334 38.1772 6.57658C41.1939 9.03629 45.8383 14.5176 47.9852 25.8518C51.3063 43.3891 48.0546 48.7384 39.7684 48.7384C31.4821 48.7384 27.3916 49.1386 27.3916 36.5711C27.3916 24.004 29.804 23.9849 28.5455 20.8382Z" fill="#04CE78"/>
<path d="M30.3217 36.5715C30.3217 24.004 32.7341 25.9381 31.4752 22.7913C34.6571 19.1254 34.7826 12.7762 34.4991 10.2074C34.3431 8.79294 34.9271 7.39867 36.0517 6.52701C36.3729 6.27829 36.7219 6.08374 37.0866 5.94336C35.7839 5.43906 34.2733 5.63476 33.122 6.52701C31.9971 7.39867 31.413 8.79294 31.5694 10.2074C31.8529 12.7762 31.727 17.1719 28.5452 20.8382C29.804 23.9849 27.3916 24.004 27.3916 36.5715C27.3916 49.1386 31.4821 48.7384 39.7684 48.7384C39.8817 48.7384 39.993 48.7369 40.1044 48.735C33.558 48.6686 30.3217 47.7493 30.3217 36.5715Z" fill="#1F5FFF"/>
<path d="M43.1855 40.6585C42.9074 37.7067 41.7306 30.6743 36.7684 26.6067C32.3919 23.0194 29.9005 19.9227 28.7629 18.3243C28.2682 17.6289 28.0012 16.798 28.0012 15.9447V2.5025C28.0012 1.79487 27.4274 1.22076 26.7194 1.22076H23.2809C22.5728 1.22076 21.9991 1.79487 21.9991 2.5025V15.9447C21.9991 16.798 21.7317 17.6289 21.2373 18.3243C20.0998 19.923 17.6084 23.0194 13.2318 26.6071C8.26968 30.6743 7.09285 37.7067 6.81476 40.6589C6.75029 41.3402 7.24238 41.9674 7.92445 42.0215C8.54014 42.0707 9.08717 41.6568 9.21343 41.0633C9.6876 38.8363 11.2531 33.2306 15.5393 29.4388C19.8129 25.6584 22.4237 24.7238 23.5025 22.7898C23.7966 22.263 24.3452 21.9292 24.9486 21.9292H25.0516C25.6551 21.9292 26.2037 22.263 26.4978 22.7898C27.5766 24.7238 30.1873 25.6584 34.4609 29.4388C38.7471 33.2306 40.3131 38.8363 40.7868 41.0633C40.9131 41.6568 41.4601 42.0707 42.0758 42.0215C42.7579 41.9674 43.25 41.3398 43.1855 40.6585Z" fill="#1F5FFF"/>
<path d="M1.5392 43.3174C1.92907 43.2102 2.15833 42.807 2.05075 42.4167C1.08182 38.8973 1.3046 33.5235 2.73168 25.9884C3.66933 21.0373 5.17994 16.7534 7.22194 13.2553C8.68946 10.7415 10.3919 8.68572 12.2825 7.14459C13.4857 6.16345 15.1897 6.14743 16.4264 7.10606C17.353 7.82399 17.8291 8.95352 17.6994 10.1269C17.4331 12.5428 17.5449 16.0645 19.5041 19.3825C19.2386 19.7098 18.9418 20.0626 18.6107 20.4407C18.6099 20.4414 18.6092 20.4426 18.6084 20.4434C17.8924 21.2666 17.1321 22.0463 16.3608 22.8176C16.172 23.0064 13.9343 25.1575 13.879 25.1022C13.3453 24.5621 12.722 23.8747 12.107 23.0675C12.1158 22.3717 12.1837 20.2931 12.6625 18.9099C12.7948 18.5276 12.5919 18.1103 12.2096 17.9783C11.8274 17.8459 11.4105 18.0485 11.2781 18.4307C11.0042 19.2215 10.8478 20.1721 10.7585 21.024C10.2493 20.1141 9.81326 19.1193 9.53136 18.0618C9.42683 17.6712 9.02553 17.4385 8.6349 17.543C8.2439 17.6472 8.01158 18.0485 8.11573 18.4395C8.48728 19.8334 9.09457 21.1216 9.78885 22.2652C8.83212 22.1714 7.63202 22.1958 6.53492 22.6326C6.15917 22.7821 5.97569 23.2082 6.1256 23.584C6.27209 23.9529 6.70849 24.1406 7.07699 23.9937C8.52924 23.4154 10.3385 23.7972 10.942 23.9529C11.5699 24.7776 12.2035 25.4841 12.7548 26.0487C12.4767 26.2772 12.2058 26.5171 11.943 26.7689C10.8802 27.7874 9.94563 28.9947 9.14569 30.3814C8.1203 29.5235 6.82484 28.2017 6.32626 26.6823C6.19999 26.2981 5.7861 26.0887 5.40158 26.215C5.01744 26.3412 4.80801 26.7551 4.93428 27.1393C5.14408 27.7782 5.45689 28.3794 5.82958 28.9375C5.19711 29.0272 4.43455 29.2061 3.68687 29.5582C3.32066 29.7302 3.1635 30.1666 3.33592 30.5324C3.50529 30.8929 3.95009 31.0531 4.31057 30.8834C5.33749 30.4005 6.43383 30.3249 6.93699 30.3181C7.43137 30.8437 7.95475 31.3091 8.45104 31.707C8.13213 32.3715 7.83878 33.0692 7.5748 33.8028C7.21737 34.7954 6.94004 35.767 6.72451 36.6806C6.48304 36.6081 6.22936 36.5402 5.96653 36.4803C5.75825 36.1091 5.38212 35.3355 5.29782 34.457C5.25929 34.0545 4.90185 33.7589 4.49902 33.7978C4.09619 33.8363 3.80093 34.1942 3.83946 34.5966C3.89859 35.2142 4.06186 35.7815 4.24305 36.2507C3.7399 36.2358 3.2314 36.2709 2.73663 36.3804C2.34143 36.4681 2.09233 36.8591 2.17969 37.2539C2.26743 37.6491 2.65843 37.8982 3.05325 37.8109C4.16371 37.5648 5.4195 37.8051 6.42467 38.1206C6.2534 39.0613 6.14697 39.9032 6.0825 40.5899C5.98141 41.6595 6.7844 42.6666 7.86357 42.752C8.81229 42.8272 9.72858 42.1478 9.92694 41.2155C9.98569 40.9397 10.062 40.6105 10.1581 40.2389C10.9371 40.9351 11.8114 41.9086 12.1711 43.0038C12.2951 43.3822 12.7178 43.5955 13.0954 43.4715C13.4799 43.3452 13.689 42.9313 13.5627 42.5468C13.4048 42.0662 13.1786 41.6111 12.9093 41.1842C13.4044 41.101 13.9743 40.9519 14.5343 40.6883C14.9005 40.5162 15.0573 40.0798 14.8853 39.7136C14.7128 39.3474 14.2764 39.1906 13.9106 39.3627C13.113 39.7384 12.2604 39.8098 11.8331 39.8197C11.4322 39.3978 11.0107 39.0232 10.6098 38.7012C11.2438 36.7691 12.3077 34.3132 14.0376 32.1052C14.2669 32.455 14.529 32.8205 14.825 33.1905C14.7235 34.0187 14.5419 36.2098 15.1737 37.9619C15.3087 38.3365 15.7375 38.5372 16.1113 38.4025C16.4916 38.2652 16.6892 37.8456 16.5519 37.4653C16.2334 36.5814 16.1704 35.5163 16.1891 34.6584C16.7262 35.1543 17.3332 35.6292 18.0187 36.0527C18.3524 36.2587 18.8148 36.1576 19.0269 35.8139C19.2394 35.4698 19.1325 35.0185 18.7881 34.806C16.9864 33.6937 15.7821 32.1663 15.0363 30.9444C15.3476 30.6152 15.6745 30.2948 16.0217 29.9877C17.8848 28.3394 19.4297 27.2388 20.671 26.3542C20.7874 26.2714 20.9007 26.1906 21.0124 26.1105C21.3969 27.9652 21.873 31.0486 21.873 36.5711C21.873 41.7667 21.1841 44.7711 19.6399 46.313C17.9336 48.0171 15.0142 48.0125 10.9741 48.0068C7.99556 48.0068 4.8473 47.6154 3.10704 44.8863C2.8896 44.5453 2.4368 44.445 2.09577 44.6624C1.75473 44.8799 1.65441 45.333 1.87185 45.6741C3.5011 48.2288 6.2347 49.4708 10.2287 49.4708C10.7124 49.4708 11.1961 49.4724 11.6798 49.4724C15.7077 49.4724 18.6553 49.3663 20.6752 47.3499C22.5166 45.5108 23.3382 42.1867 23.3382 36.5711C23.3382 30.199 22.7142 26.9726 22.3033 25.1518C23.0991 24.5201 23.714 23.909 24.1393 23.1464C24.3064 22.8474 24.6154 22.6616 24.9457 22.6616H25.0487C25.3795 22.6616 25.6885 22.8474 25.8552 23.1464C26.2805 23.909 26.8954 24.5201 27.6912 25.1518C27.2807 26.9726 26.6566 30.199 26.6566 36.5711C26.6566 42.1867 27.4779 45.5108 29.3197 47.3499C31.3392 49.3667 34.2864 49.4724 38.3147 49.4724C38.7984 49.4724 39.2821 49.4708 39.7658 49.4708C43.3287 49.4708 45.8712 48.4928 47.5378 46.4805C48.976 44.7448 49.7668 42.2515 49.9552 38.858C50.1444 35.4645 49.7343 31.1653 48.7021 25.7156C47.7149 20.5021 46.1043 15.992 43.9158 12.3104C43.709 11.9625 43.2593 11.8485 42.9118 12.0552C42.5639 12.262 42.4498 12.7114 42.6562 13.0593C44.7577 16.5936 46.3072 20.9435 47.2628 25.988C49.2114 36.2766 48.9401 42.4915 46.4098 45.5463C44.5925 47.7397 41.6739 48.0026 39.0208 48.0068C34.9807 48.0125 32.0609 48.0171 30.3546 46.313C28.8104 44.7711 28.1219 41.7667 28.1219 36.5711C28.1219 31.0486 28.5979 27.9652 28.9824 26.1105C29.0942 26.1906 29.2075 26.2714 29.3239 26.3542C30.926 27.4959 32.4984 28.6831 33.9728 29.9877C34.32 30.2948 34.6473 30.6152 34.9582 30.9444C34.2128 32.1659 33.0085 33.6937 31.2064 34.806C30.8623 35.0185 30.7555 35.4698 30.968 35.8139C31.1774 36.1534 31.6367 36.2621 31.9758 36.0527C32.6621 35.6292 33.269 35.1536 33.8069 34.6573C33.8256 35.5137 33.7626 36.578 33.443 37.4649C33.2744 37.9326 33.6356 38.446 34.1319 38.446C34.4321 38.446 34.7133 38.2602 34.8212 37.9619C35.4525 36.2098 35.2713 34.0187 35.1699 33.1905C35.4659 32.8201 35.728 32.4547 35.9568 32.1052C37.6872 34.3132 38.7511 36.7691 39.3851 38.7012C38.9842 39.0232 38.5627 39.3978 38.1617 39.8197C37.7345 39.8098 36.8823 39.7384 36.0843 39.3627C35.718 39.1906 35.282 39.3478 35.1096 39.7136C34.9376 40.0798 35.0943 40.5162 35.4605 40.6883C36.0205 40.9519 36.5908 41.101 37.0856 41.1842C36.8163 41.6111 36.5901 42.0662 36.4322 42.5468C36.3059 42.9313 36.5149 43.3452 36.8994 43.4715C37.2714 43.5936 37.6979 43.3876 37.8237 43.0038C38.1835 41.9086 39.0578 40.9351 39.8368 40.2389C39.9329 40.6105 40.0092 40.9397 40.0679 41.2155C40.0679 41.2166 40.0683 41.2174 40.0687 41.2185C40.2671 42.1451 41.1864 42.8264 42.1313 42.752C43.262 42.6628 44.0104 41.5897 43.904 40.5067C43.8387 39.8353 43.7346 39.0243 43.5702 38.1206C44.575 37.8051 45.8312 37.5648 46.9416 37.8109C47.3364 37.8982 47.7274 37.6487 47.8148 37.2539C47.9025 36.8591 47.6531 36.4681 47.2582 36.3804C46.7635 36.2709 46.255 36.2358 45.7518 36.2507C45.933 35.7815 46.0963 35.2142 46.1554 34.5966C46.1939 34.1942 45.8987 33.8363 45.4958 33.7978C45.0926 33.7589 44.7356 34.0545 44.6971 34.457C44.6127 35.3374 44.2374 36.1087 44.0283 36.4803C43.7655 36.5402 43.5118 36.6081 43.2704 36.6802C43.0548 35.767 42.7775 34.795 42.4201 33.8028C42.3533 33.6174 41.5183 31.7272 41.5438 31.707C42.0405 31.3087 42.5639 30.843 43.0586 30.3173C43.5588 30.3223 44.6482 30.3963 45.6843 30.8834C46.0383 31.0501 46.4869 30.8983 46.6589 30.5324C46.831 30.1666 46.6742 29.7302 46.308 29.5578C45.5603 29.2061 44.7978 29.0272 44.1653 28.9375C44.538 28.3794 44.8508 27.7782 45.0602 27.1393C45.1865 26.7551 44.9774 26.3412 44.5929 26.215C44.2088 26.0887 43.7949 26.2978 43.6686 26.6823C43.1697 28.2017 41.8746 29.5235 40.8488 30.3818C39.8513 28.6518 38.6439 27.2018 37.2397 26.0487C37.7913 25.4841 38.4253 24.7772 39.0532 23.9521C39.6559 23.7949 41.4569 23.4119 42.9179 23.9937C43.2887 24.1413 43.7216 23.9552 43.8693 23.584C44.0188 23.2082 43.8357 22.7821 43.4596 22.6326C42.3625 22.1958 41.1627 22.1714 40.206 22.2652C40.9003 21.122 41.5072 19.8334 41.8791 18.4395C41.9833 18.0489 41.751 17.6472 41.36 17.543C40.9693 17.4389 40.5677 17.6712 40.4635 18.0622C40.1816 19.1193 39.7456 20.1145 39.2363 21.024C39.1471 20.1721 38.9907 19.2215 38.7168 18.4307C38.5844 18.0485 38.1675 17.8459 37.7848 17.9783C37.4026 18.1107 37.2 18.5276 37.3324 18.9102C37.8112 20.2934 37.8787 22.3717 37.8878 23.0675C37.2729 23.8747 36.6496 24.5621 36.1155 25.1026C36.0991 25.0881 36.082 25.0736 36.0656 25.0595C34.6499 23.8358 33.3701 22.5021 32.0498 21.1815C31.4406 20.5196 30.9237 19.9158 30.4908 19.3829C32.45 16.0641 32.5618 12.5428 32.2951 10.1269C32.1658 8.95352 32.6419 7.82399 33.5685 7.10606C34.8052 6.14743 36.5088 6.16345 37.7124 7.14459C38.9281 8.13565 40.0832 9.36131 41.146 10.7876C41.3874 11.1119 41.8463 11.179 42.1706 10.9372C42.4952 10.6957 42.5624 10.2368 42.3205 9.91215C41.186 8.3897 39.947 7.07631 38.6382 6.00896C36.9033 4.59485 34.4497 4.56968 32.6709 5.94792C31.338 6.98094 30.6533 8.60333 30.8391 10.2875C31.0668 12.3516 30.9936 15.2992 29.5165 18.1202C29.4608 18.0439 29.407 17.9695 29.3574 17.8997C28.9477 17.3237 28.7311 16.6477 28.7311 15.9447V2.5025C28.7311 1.39204 27.8274 0.488342 26.7169 0.488342H23.2783C22.1679 0.488342 21.2642 1.39204 21.2642 2.5025V15.9447C21.2642 16.6477 21.0475 17.3237 20.6378 17.8997C20.5882 17.9695 20.5344 18.0439 20.4787 18.1202C19.0021 15.2992 18.9285 12.3516 19.1562 10.2875C19.342 8.60333 18.6572 6.98094 17.3244 5.94792C15.5456 4.56968 13.092 4.59485 11.3574 6.00896C9.33032 7.66148 7.51377 9.85073 5.95738 12.5168C3.83069 16.1595 2.26132 20.6001 1.29278 25.7156C-0.177405 33.4755 -0.391027 39.0659 0.638557 42.8058C0.745749 43.1957 1.14896 43.4249 1.5392 43.3174ZM21.8311 18.7489C22.4185 17.9238 22.7286 16.9541 22.7286 15.9447V2.5025C22.7286 2.19961 22.9751 1.95356 23.278 1.95356H26.7165C27.0194 1.95356 27.2658 2.19961 27.2658 2.5025V15.9447C27.2658 16.9541 27.576 17.9238 28.1631 18.7489C29.4021 20.4903 30.8352 22.0936 32.3451 23.6031C33.8725 25.1305 35.6128 26.4248 37.1531 27.9392C41.1986 31.9176 42.2045 38.105 42.4521 40.7131C42.4525 40.7177 42.4529 40.7226 42.4533 40.7272C42.4784 40.9931 42.2907 41.2693 42.0146 41.2914C42.0096 41.2918 42.0046 41.291 41.9997 41.2914C41.7636 41.3028 41.5496 41.1422 41.5003 40.9107C41.3447 40.1786 41.178 39.4237 40.9259 38.718C39.8925 35.8646 38.7477 33.1737 36.7919 30.8079C34.9315 28.5576 32.5343 26.8433 30.1734 25.161C29.1011 24.3965 27.7946 23.6164 27.1342 22.4331C26.2294 20.8103 23.7662 20.8077 22.8599 22.4327C22.1984 23.6187 20.8972 24.3935 19.8207 25.161C18.5516 26.0651 16.9723 27.1908 15.0512 28.8902C12.3588 31.2721 10.5171 34.4936 9.34787 37.862C9.00188 38.8588 8.71387 39.8784 8.49414 40.9107C8.44379 41.1472 8.22292 41.3108 7.97954 41.2914C7.7026 41.2693 7.51568 40.9923 7.54085 40.7272C7.63736 39.7033 7.85175 38.1206 8.32286 36.335C8.90422 34.132 9.77397 31.9805 11.0584 30.0899C11.7816 29.0253 12.6502 28.0285 13.6932 27.1732C15.0623 26.0509 16.3814 24.8665 17.6353 23.6168C19.1516 22.1058 20.589 20.4945 21.8311 18.7489Z" fill="#000D44"/>
</g>
<defs>
<clipPath id="clip0_17_25821">
<rect width="50" height="50" fill="white"/>
</clipPath>
</defs>
</svg>
