<svg width="44" height="44" viewBox="0 0 44 44" fill="none" xmlns="http://www.w3.org/2000/svg">
<rect width="44" height="44" fill="#1E1E1E"/>
<g id="02_Services" clip-path="url(#clip0_7_26)">
<rect width="1920" height="2783" transform="translate(-470 -1086)" fill="white"/>
<g id="Services">
<g id="s-9">
<g id="bg">
<g id="bg_2" filter="url(#filter0_d_7_26)">
<rect x="-122" y="-48" width="288" height="287" rx="20" fill="white"/>
</g>
<mask id="mask0_7_26" style="mask-type:alpha" maskUnits="userSpaceOnUse" x="-122" y="-48" width="288" height="287">
<rect id="bg_3" x="-122" y="-48" width="288" height="287" rx="20" fill="white"/>
</mask>
<g mask="url(#mask0_7_26)">
<g id="Group">
<g id="Group_2" opacity="0.35">
</g>
<g id="Group_3" opacity="0.45">
</g>
<g id="Group_4">
<path id="Vector" d="M22.7873 -14.0061C22.9864 -14.0061 23.1855 -13.9833 23.3733 -13.9435L37.1528 -37.7874C36.6976 -38.2823 36.4075 -38.9423 36.4075 -39.6648C36.4075 -41.2009 37.6534 -42.4469 39.1952 -42.4469C40.4355 -42.4469 41.471 -41.6333 41.8351 -40.5182H69.468C69.8322 -41.6333 70.8676 -42.4469 72.1078 -42.4469C73.644 -42.4469 74.8956 -41.2009 74.8956 -39.6648C74.8956 -38.948 74.6169 -38.2994 74.1674 -37.8044L87.9583 -13.9378C88.146 -13.9776 88.3451 -14.0004 88.5443 -14.0004C90.0804 -14.0004 91.332 -12.7544 91.332 -11.2183C91.332 -9.68218 90.0861 -8.43623 88.5443 -8.43623C88.3451 -8.43623 88.146 -8.45898 87.9583 -8.49881L74.1674 15.3678C74.6112 15.8628 74.8956 16.5114 74.8956 17.2282C74.8956 18.7643 73.6496 20.0103 72.1078 20.0103C70.8676 20.0103 69.8322 19.1967 69.468 18.0816H41.8351C41.471 19.1967 40.4355 20.0103 39.1952 20.0103C37.6591 20.0103 36.4075 18.7643 36.4075 17.2282C36.4075 16.5 36.692 15.8457 37.1528 15.3508L23.3733 -8.49313C23.1855 -8.4533 22.9864 -8.43053 22.7873 -8.43053C21.2512 -8.43053 19.9995 -9.6765 19.9995 -11.2126C20.0052 -12.7601 21.2512 -14.0061 22.7873 -14.0061ZM39.2009 14.4405C40.4412 14.4405 41.4767 15.254 41.8408 16.3691H69.4737C69.8378 15.254 70.8733 14.4405 72.1135 14.4405C72.3127 14.4405 72.5118 14.4632 72.6996 14.5031L86.4961 -9.36359C86.0524 -9.85856 85.7679 -10.5071 85.7679 -11.224C85.7679 -11.9408 86.0467 -12.5894 86.4961 -13.0844L72.6996 -36.951C72.5118 -36.9112 72.3127 -36.8884 72.1135 -36.8884C70.8733 -36.8884 69.8378 -37.702 69.4737 -38.8171H41.8408C41.4767 -37.702 40.4412 -36.8884 39.2009 -36.8884C39.0075 -36.8884 38.8198 -36.9055 38.6434 -36.9453L24.8525 -13.0901C25.2962 -12.5951 25.5807 -11.9465 25.5807 -11.2297C25.5807 -10.5128 25.3019 -9.86424 24.8525 -9.36927L38.6434 14.486C38.8198 14.4575 39.0075 14.4405 39.2009 14.4405Z" fill="#585858" fill-opacity="0.04"/>
</g>
</g>
</g>
</g>
<g id="icon">
<circle id="bg_4" cx="22" cy="22" r="40" fill="#E6E9EE"/>
<g id="icon_2" clip-path="url(#clip1_7_26)">
<path id="Vector_2" d="M42.3076 4.23154H39.7692V1.69312H36.3846V4.23154H33.8462V7.6161H36.3846V10.1545H39.7692V7.6161H42.3076V4.23154Z" fill="#04CE78"/>
<path id="Vector_3" d="M39.7691 11.0006H36.3846C35.9173 11.0006 35.5384 10.6218 35.5384 10.1545V8.46219H33.8461C33.3789 8.46219 33 8.08333 33 7.61605V4.23149C33 3.76421 33.3789 3.38535 33.8461 3.38535H35.5384V1.69306C35.5384 1.22579 35.9173 0.846924 36.3846 0.846924H39.7691C40.2364 0.846924 40.6153 1.22579 40.6153 1.69306V3.38535H42.3076C42.7748 3.38535 43.1537 3.76421 43.1537 4.23149V7.61605C43.1537 8.08333 42.7748 8.46219 42.3076 8.46219H40.6153V10.1545C40.6153 10.6218 40.2364 11.0006 39.7691 11.0006ZM37.2307 9.30833H38.923V7.61605C38.923 7.14877 39.3018 6.76991 39.7691 6.76991H41.4614V5.07763H39.7691C39.3018 5.07763 38.923 4.69877 38.923 4.23149V2.53921H37.2307V4.23149C37.2307 4.69877 36.8518 5.07763 36.3846 5.07763H34.6923V6.76991H36.3846C36.8518 6.76991 37.2307 7.14877 37.2307 7.61605V9.30833Z" fill="#000D44"/>
<path id="Vector_4" d="M7.08697 25.1735H0.84668V0.846985C4.61961 2.38144 7.08697 6.04902 7.08697 10.1223V25.1735Z" fill="#04CE78"/>
<path id="Vector_5" d="M7.08741 26.0196H0.847119C0.379841 26.0196 0.000977474 25.6408 0.000977474 25.1735V0.846944C0.000564319 0.565173 0.140624 0.30158 0.374469 0.144168C0.608315 -0.0132438 0.90496 -0.0438172 1.16607 0.0623636C5.26622 1.71746 7.94636 5.70069 7.9352 10.1223V25.1735C7.9352 25.3978 7.84596 25.6135 7.6869 25.7722C7.52783 25.9308 7.31217 26.0201 7.08741 26.0196ZM1.69326 24.3274H6.24127V10.1223C6.2516 6.85835 4.51717 3.83736 1.69326 2.20044V24.3274Z" fill="#000D44"/>
<path id="Vector_6" d="M0.84668 25.3851H5.92353V43.154H0.84668V25.3851Z" fill="#1F5FFF"/>
<path id="Vector_7" d="M5.92396 44.0002H0.847118C0.37984 44.0002 0.000976562 43.6213 0.000976562 43.154V25.3851C0.000976562 24.9178 0.37984 24.5389 0.847118 24.5389H5.92396C6.39124 24.5389 6.77011 24.9178 6.77011 25.3851V43.154C6.77011 43.6213 6.39124 44.0002 5.92396 44.0002ZM1.69326 42.3079H5.07782V26.2312H1.69326V42.3079Z" fill="#000D44"/>
<path id="Vector_8" d="M17.7695 38.5002C17.7695 41.0704 15.6859 43.154 13.1157 43.154C10.5455 43.154 8.46191 41.0704 8.46191 38.5002C8.46191 35.93 10.5455 33.8464 13.1157 33.8464C15.6859 33.8464 17.7695 35.93 17.7695 38.5002Z" fill="#1F5FFF"/>
<path id="Vector_9" d="M13.1161 44.0001C10.0786 44.0001 7.61621 41.5377 7.61621 38.5002C7.61621 35.4627 10.0786 33.0003 13.1161 33.0003C16.1536 33.0003 18.616 35.4627 18.616 38.5002C18.6123 41.5361 16.152 43.9964 13.1161 44.0001ZM13.1161 34.6926C11.0132 34.6926 9.30849 36.3973 9.30849 38.5002C9.30849 40.6028 11.0132 42.3079 13.1161 42.3079C15.2191 42.3079 16.9238 40.6028 16.9238 38.5002C16.9213 36.3981 15.2178 34.6947 13.1161 34.6926Z" fill="#000D44"/>
<path id="Vector_10" d="M17.7695 38.9233C17.3022 38.9233 16.9233 38.5445 16.9233 38.0772V6.76998C16.9233 6.54522 17.0126 6.33038 17.1712 6.17173L19.7097 3.63331C20.0414 3.3127 20.5694 3.31724 20.8958 3.64363C21.2222 3.97003 21.2268 4.49763 20.9062 4.8298L18.6156 7.11992V38.0772C18.6156 38.5445 18.2368 38.9233 17.7695 38.9233Z" fill="#000D44"/>
<path id="Vector_11" d="M32.1542 38.5002C32.1542 41.0704 30.0707 43.154 27.5005 43.154C24.9302 43.154 22.8467 41.0704 22.8467 38.5002C22.8467 35.93 24.9302 33.8464 27.5005 33.8464C30.0707 33.8464 32.1542 35.93 32.1542 38.5002Z" fill="#1F5FFF"/>
<path id="Vector_12" d="M27.5004 44.0001C24.4629 44.0001 22.0005 41.5377 22.0005 38.5002C22.0005 35.4627 24.4629 33.0003 27.5004 33.0003C30.5379 33.0003 33.0003 35.4627 33.0003 38.5002C32.9966 41.5361 30.5363 43.9964 27.5004 44.0001ZM27.5004 34.6926C25.3974 34.6926 23.6928 36.3973 23.6928 38.5002C23.6928 40.6028 25.3974 42.3079 27.5004 42.3079C29.6034 42.3079 31.308 40.6028 31.308 38.5002C31.3056 36.3981 29.6021 34.6947 27.5004 34.6926Z" fill="#000D44"/>
<path id="Vector_13" d="M22.8463 38.9233C22.3791 38.9233 22.0002 38.5445 22.0002 38.0772V7.11992L19.7097 4.8298C19.3891 4.49763 19.3936 3.97003 19.72 3.64363C20.0464 3.31724 20.574 3.3127 20.9062 3.63331L23.4446 6.17173C23.6032 6.33038 23.6925 6.54522 23.6925 6.76998V38.0772C23.6925 38.5445 23.3136 38.9233 22.8463 38.9233Z" fill="#000D44"/>
<path id="Vector_14" d="M30.4619 15.2314L43.154 22.0005V43.154H38.9233V24.5389L30.4619 15.2314Z" fill="#04CE78"/>
<path id="Vector_15" d="M43.154 44.0001H38.9233C38.456 44.0001 38.0771 43.6213 38.0771 43.154V24.8661L29.8355 15.8007C29.5571 15.4962 29.5389 15.0355 29.7921 14.7099C30.0454 14.384 30.497 14.2889 30.8602 14.4839L43.5523 21.2531C43.8283 21.4006 44.0001 21.6877 44.0001 22.0005V43.154C44.0001 43.6213 43.6213 44.0001 43.154 44.0001ZM39.7694 42.3079H42.3078V22.5078L34.3736 18.2771L39.5492 23.9692C39.6909 24.1249 39.7694 24.3282 39.7694 24.5389V42.3079Z" fill="#000D44"/>
<path id="Vector_16" d="M22.8464 25.385H17.7695V6.76993L20.308 4.23151L22.8464 6.76993V25.385Z" fill="#04CE78"/>
<path id="Vector_17" d="M22.8463 26.2312H17.7695C17.3022 26.2312 16.9233 25.8523 16.9233 25.385V6.76994C16.9233 6.54518 17.0126 6.33034 17.1712 6.17169L19.7097 3.63327C20.0402 3.30275 20.5756 3.30275 20.9062 3.63327L23.4446 6.17169C23.6032 6.33034 23.6925 6.54518 23.6925 6.76994V25.385C23.6925 25.8523 23.3136 26.2312 22.8463 26.2312ZM18.6156 24.5389H22.0002V7.11988L20.3079 5.4276L18.6156 7.11988V24.5389Z" fill="#000D44"/>
</g>
</g>
</g>
</g>
</g>
<defs>
<filter id="filter0_d_7_26" x="-152" y="-72" width="348" height="347" filterUnits="userSpaceOnUse" color-interpolation-filters="sRGB">
<feFlood flood-opacity="0" result="BackgroundImageFix"/>
<feColorMatrix in="SourceAlpha" type="matrix" values="0 0 0 0 0 0 0 0 0 0 0 0 0 0 0 0 0 0 127 0" result="hardAlpha"/>
<feOffset dy="6"/>
<feGaussianBlur stdDeviation="15"/>
<feComposite in2="hardAlpha" operator="out"/>
<feColorMatrix type="matrix" values="0 0 0 0 0 0 0 0 0 0 0 0 0 0 0 0 0 0 0.06 0"/>
<feBlend mode="normal" in2="BackgroundImageFix" result="effect1_dropShadow_7_26"/>
<feBlend mode="normal" in="SourceGraphic" in2="effect1_dropShadow_7_26" result="shape"/>
</filter>
<clipPath id="clip0_7_26">
<rect width="1920" height="2783" fill="white" transform="translate(-470 -1086)"/>
</clipPath>
<clipPath id="clip1_7_26">
<rect width="44" height="44" fill="white"/>
</clipPath>
</defs>
</svg>
