<svg width="907" height="365" viewBox="0 0 907 365" fill="none" xmlns="http://www.w3.org/2000/svg">
<g opacity="0.2">
<path d="M876.574 81.1303C877.937 81.4212 879.064 82.1927 880.245 82.8776C887.902 87.3271 895.567 91.7643 903.236 96.1912C904.415 96.8699 905.593 97.5816 907.002 97.695C907.002 97.1443 907.002 96.5955 907.002 96.0448C902.991 94.1284 899.12 91.9665 895.47 89.4168C888.68 85.9182 882.084 82.0875 875.684 77.9205C871.393 76.0784 867.58 73.376 863.491 71.177C861.731 70.2322 862.096 68.2643 860.942 67.1194C858.839 68.1776 858.458 70.0012 858.718 72.1156C864.243 75.9546 869.508 80.334 876.574 81.1303Z" fill="#D8DDE1"/>
<path d="M907.002 164.532C905.327 164.744 903.943 165.648 902.534 166.465C894.757 170.968 886.997 175.502 879.217 179.997C878.401 180.467 877.478 180.754 876.605 181.125C869.72 182.538 863.6 185.218 859.589 191.411C859.181 192.958 859.453 194.253 860.936 195.105C862.623 191.489 862.621 191.485 866.348 189.445C869.461 187.741 872.577 186.043 875.694 184.341C879.274 181.577 883.398 179.708 887.242 177.379C889.92 175.756 892.73 174.347 895.48 172.843C899.106 170.254 903.016 168.152 907.002 166.182C907.002 165.631 907.002 165.083 907.002 164.532Z" fill="#D8DDE1"/>
<path d="M148.067 191.044C146.876 190.744 145.7 190.289 144.493 190.177C141.821 189.932 139.442 191.489 138.284 194.039C137.254 196.304 137.67 199.07 139.493 200.89C141.362 202.754 143.58 203.644 146.223 202.616C147.115 202.27 147.972 201.834 148.846 201.438C149.179 200.842 149.542 200.262 149.839 199.65C151.019 197.226 150.809 194.897 149.293 192.684C148.907 192.118 148.477 191.588 148.067 191.044Z" fill="#D8DDE1"/>
<path d="M120.846 185.15C122.249 186.359 123.677 185.884 125.041 185.129C127.914 183.539 130.732 181.851 133.612 180.271C138.161 177.773 142.462 174.825 147.256 172.775C149.202 171.531 151.153 170.293 153.096 169.041C154.124 168.379 155.162 167.725 156.144 166.999C156.659 166.619 156.505 166.031 156.311 165.501C156.142 165.097 155.864 164.796 155.479 164.591C152.923 164.026 150.992 165.6 149.066 166.735C140.715 171.651 132.374 176.579 123.953 181.373C122.519 182.19 120.558 182.809 120.846 185.15Z" fill="#D8DDE1"/>
<path d="M208.207 256.946C205.965 257.6 204.169 259.085 202.165 260.182C198.139 262.387 194.133 264.626 190.12 266.849C186.756 268.908 183.431 271.035 180.02 273.013C173.539 276.772 167.007 280.444 160.497 284.151C159.677 285.557 159.924 286.69 161.36 287.517C162.201 285.714 163.569 284.444 165.274 283.457C172.027 279.546 178.751 275.584 185.518 271.697C186.692 271.023 188.023 270.622 189.281 270.094C189.821 269.261 190.614 268.747 191.459 268.26C196.327 265.459 201.188 262.645 206.038 259.809C207.247 259.101 208.489 258.592 209.906 258.592C210.098 257.257 209.628 256.609 208.207 256.946Z" fill="#D8DDE1"/>
<path d="M190.946 182.685C196.91 185.633 202.606 189.044 208.223 192.599C209.15 192.279 209.513 191.611 209.422 190.66C209.082 189.028 207.873 188.044 206.573 187.31C192.036 179.087 177.945 170.074 162.988 162.586C162.326 162.436 161.686 162.547 161.045 162.714C159.964 163.273 159.158 163.979 159.646 165.365C160.761 165.381 161.832 165.592 162.798 166.174C171.485 171.399 180.516 176.04 189.026 181.567C189.139 181.639 189.224 181.756 189.321 181.853C189.597 181.876 189.873 181.899 190.149 181.921C190.423 182.165 190.688 182.421 190.946 182.685Z" fill="#D8DDE1"/>
<path d="M159.644 165.363C160.225 164.81 160.806 164.255 161.387 163.702C163.338 160.802 162.238 158.941 159.346 157.687C158.59 157.565 157.829 157.559 157.067 157.625C155.05 157.922 153.895 159.121 153.462 161.076C153.497 162.815 153.417 164.625 155.666 165.175C155.895 165.256 156.109 165.365 156.309 165.501C157.424 165.456 158.534 165.411 159.644 165.363Z" fill="#D8DDE1"/>
<path d="M161.358 287.517C161.07 286.395 160.783 285.273 160.495 284.151C159.628 283.779 158.781 283.338 157.79 283.429C156.396 283.554 155.174 284.505 154.84 285.821C154.517 287.09 154.789 288.241 155.734 289.178C156.655 290.087 158.231 290.263 159.502 289.601C160.378 289.145 160.93 288.379 161.358 287.517Z" fill="#D8DDE1"/>
<path d="M110.373 311.49C109.988 311.878 109.594 312.259 109.215 312.657C105.526 316.538 105.843 320.436 110.124 323.817C110.445 324.071 110.769 324.327 111.092 324.581C112.174 324.572 113.271 324.676 114.334 324.533C117.927 324.051 120.339 320.969 120.047 317.357C119.765 313.879 117.179 311.42 113.613 311.312C112.536 311.279 111.453 311.426 110.373 311.49Z" fill="#D8DDE1"/>
<path d="M155.668 165.175C154.696 164.02 154.719 162.597 154.597 161.212C152.745 160.61 152.082 162.537 150.737 163.019C150.45 163.259 150.197 163.531 149.964 163.822C149.701 164.082 149.427 164.333 149.136 164.56C143.008 167.436 137.355 171.166 131.408 174.365C130.868 174.545 130.384 174.819 129.943 175.17C129.677 175.421 129.412 175.673 129.134 175.912C128.849 176.137 128.559 176.356 128.25 176.548C128.079 176.618 127.916 176.702 127.743 176.768C124.47 178.633 120.758 179.863 118.475 183.174C118.339 183.563 118.296 183.962 118.319 184.372C118.428 185.005 118.817 185.478 119.231 185.934C119.771 185.672 120.309 185.41 120.848 185.148C123.613 182.615 127.107 181.247 130.25 179.326C136.552 175.477 142.975 171.824 149.371 168.129C151.38 166.97 153.386 165.769 155.668 165.175Z" fill="#D8DDE1"/>
<path d="M119.229 185.934C119.235 185.397 119.239 184.859 119.246 184.323C118.935 184.038 118.588 183.807 118.209 183.623C117.791 183.514 117.375 183.512 116.955 183.617C112.579 185.369 107.918 186.699 105.575 191.431C105.306 192.952 105.512 194.286 107.005 195.118C107.246 195.105 107.487 195.087 107.728 195.064C107.598 193.067 108.414 191.732 110.28 190.864C113.373 189.428 116.016 187.161 119.229 185.934Z" fill="#D8DDE1"/>
<path d="M262.552 -26.1218C261.278 -22.1281 257.881 -20.7275 254.404 -19.4237C252.622 -17.6868 250.393 -16.6182 248.27 -15.428C242.343 -12.1068 236.647 -8.37507 230.502 -5.44788C225.193 -1.99878 219.912 1.49982 213.929 3.73184C213.085 5.22947 213.099 6.61778 214.448 7.83693C215.104 8.19793 215.804 8.1938 216.389 7.78329C228.485 -0.728058 241.999 -6.87538 254.32 -15.0195C257.898 -17.0184 262.242 -17.9983 264.053 -22.3571C264.317 -23.9208 264.061 -25.274 262.552 -26.1218Z" fill="#D8DDE1"/>
<path d="M856.822 10.1391C856.812 26.642 856.808 43.1448 856.789 59.6456C856.787 61.5703 856.717 63.4949 856.68 65.4195C857.498 66.2406 858.345 66.2302 859.214 65.5062C858.264 63.728 858.464 61.7889 858.462 59.8869C858.45 43.3635 858.45 26.84 858.448 10.3186C857.957 9.80079 857.413 9.74304 856.822 10.1391Z" fill="#D8DDE1"/>
<path d="M856.822 10.1392C857.364 10.199 857.906 10.2588 858.448 10.3186C859 9.94525 859.632 9.65026 860.087 9.18199C862.108 7.10676 861.61 4.55499 858.954 3.3936C858.357 3.13162 857.663 3.09242 857.014 2.95215C853.489 5.90203 853.456 7.10676 856.822 10.1392Z" fill="#D8DDE1"/>
<path d="M859.214 65.5063C858.37 65.4774 857.525 65.4486 856.681 65.4197C854.658 66.5192 854.225 68.3696 854.309 70.4613C854.309 71.7609 854.946 72.619 856.124 73.11C857.35 73.3885 858.423 73.2214 859.161 72.0683C860.984 70.8636 861.11 69.0441 860.945 67.1195C860.366 66.5811 859.789 66.0447 859.214 65.5063Z" fill="#D8DDE1"/>
<path d="M501.612 86.929C501.361 86.9682 501.108 86.995 500.854 87.0115C500.358 87.4777 499.929 88.0573 499.355 88.3915C495.093 90.8711 490.808 93.3114 486.517 95.7415C485.318 96.4202 484.08 97.0411 482.621 96.6141C482.621 96.612 482.654 96.9957 482.654 96.9957C481.847 98.8482 482.597 100.179 484.08 101.264C489.057 99.4918 493.014 95.9251 497.618 93.4847C498.673 92.9257 499.515 91.9582 500.756 91.6942C507.64 87.915 514.399 83.9192 521.145 79.8967C525.202 77.3305 529.952 75.8493 533.264 72.1135C533.361 70.8614 532.716 70.0713 531.662 69.537C527.515 68.7077 524.919 71.6494 521.897 73.5658C521.667 73.935 521.51 74.3352 521.421 74.7622C521.401 74.9767 521.38 75.1913 521.36 75.4058C519.269 76.7054 517.2 78.0401 515.085 79.2984C511.785 81.2623 508.47 83.1993 505.129 85.0889C504.307 85.5551 503.361 85.8026 502.471 86.1513C502.195 86.4194 501.872 86.6381 501.612 86.929Z" fill="#D8DDE1"/>
<path d="M84.6747 183.5C87.365 184.459 89.6887 186.122 92.1833 187.452C93.374 188.087 94.5008 188.851 95.7059 189.455C98.1841 190.697 100.394 192.155 101.017 195.126C102.504 194.334 102.763 193.061 102.417 191.553C102.137 189.208 100.374 188.18 98.5776 187.093C85.5893 179.227 72.3311 171.824 59.1739 164.257C57.0336 163.028 56.1745 159.707 52.9279 160.361C51.2902 161.858 51.4221 163.529 52.45 165.285C53.4059 165.371 54.3164 165.567 55.1693 166.066C64.7998 171.704 74.4385 177.325 84.071 182.959C84.2976 183.091 84.4748 183.316 84.6747 183.5Z" fill="#D8DDE1"/>
<path d="M16.2745 182.706C18.1862 182.272 19.6817 181.012 21.3235 180.073C27.3511 176.624 33.3106 173.058 39.3094 169.559C40.601 168.806 41.9153 168.063 43.4252 167.803L43.4315 167.826C43.7116 167.554 43.9855 167.275 44.276 167.015C45.4111 165.809 46.8592 165.363 48.4599 165.283C49.496 163.568 49.5908 161.931 48.0726 160.423C47.2589 159.884 46.4597 160.101 45.8046 160.654C37.7706 167.432 28.0968 171.529 19.2574 176.991C17.1829 178.274 14.713 179.153 14.3505 182.085C14.7378 183.075 15.3578 183.347 16.2745 182.706Z" fill="#D8DDE1"/>
<path d="M47.6317 289.122C48.4969 289.524 49.3395 289.976 50.3386 289.976C52.2626 289.974 53.7953 288.538 53.8097 286.694C53.8241 284.858 52.2997 283.387 50.386 283.36C49.3848 283.346 48.5402 283.798 47.673 284.192C47.0632 284.6 47.2301 285.417 46.7707 285.904C46.7686 286.407 46.7686 286.913 46.7666 287.416C47.2342 287.893 47.0652 288.693 47.6317 289.122Z" fill="#D8DDE1"/>
<path d="M47.5597 160.406C47.4649 162.104 47.399 163.795 48.4578 165.28C49.7886 165.79 51.1173 165.771 52.448 165.284C53.511 163.799 53.4327 162.104 53.3462 160.406C53.7417 158.997 52.8806 158.326 51.8094 157.776C50.9154 157.479 50.0172 157.477 49.1191 157.765C48.0211 158.302 47.1703 158.987 47.5597 160.406Z" fill="#D8DDE1"/>
<path d="M46.7707 285.904C47.0714 285.333 47.3701 284.761 47.6709 284.192C47.1209 284.629 46.8489 285.215 46.7707 285.904Z" fill="#D8DDE1"/>
<path d="M47.6318 289.122C47.3434 288.553 47.0551 287.985 46.7667 287.416C46.8429 288.093 47.1065 288.672 47.6318 289.122Z" fill="#D8DDE1"/>
<path d="M420.008 1.19263C417.602 -0.0657177 415.154 -1.24773 412.8 -2.59684C408.311 -5.16716 403.878 -7.8303 399.422 -10.4543C398.194 -13.0081 396.083 -14.4933 393.677 -15.925C388.463 -19.0254 382.74 -21.3523 378.286 -25.6699C377.57 -26.3651 376.682 -26.7055 375.74 -25.9339C374.768 -24.8468 374.574 -23.6008 374.968 -22.2311C375.641 -19.537 377.982 -18.4272 380.058 -17.2658C386.798 -13.5011 393.351 -9.39601 400.273 -5.96135C405.248 -2.34104 410.725 0.456196 416.131 3.31944C418.93 4.80264 420.862 7.90929 424.474 7.87835C425.885 6.6757 425.905 5.27296 425.065 3.74851C423.176 3.29674 421.46 2.50666 420.008 1.19263Z" fill="#D8DDE1"/>
<path d="M478.501 -21.9259C478.199 -22.4932 477.898 -23.0584 477.595 -23.6257C474.204 -21.6268 470.857 -19.5495 467.408 -17.6599C465.4 -16.5604 463.665 -14.8978 461.288 -14.51C460.994 -14.248 460.664 -14.0252 460.406 -13.722C460.137 -13.6766 459.865 -13.6374 459.593 -13.6003C459.039 -12.7772 458.233 -12.278 457.393 -11.7953C452.529 -8.99389 447.688 -6.15126 442.812 -3.37259C441.873 -2.83625 440.812 -2.51652 439.806 -2.09569C437.258 0.262152 433.997 1.46068 431.084 3.22442C430.541 3.55242 429.768 3.49877 429.101 3.62048C428.577 4.90357 429.348 5.56988 430.295 6.15574C433.94 6.88186 436.304 4.44562 438.927 2.64475C439.279 2.47353 439.631 2.30026 439.986 2.13729C440.35 1.99702 440.719 1.86086 441.092 1.74122C445.605 -0.715647 449.917 -3.54177 454.525 -5.81916C457.061 -7.07132 458.472 -9.40026 460.396 -11.2383C463.937 -13.9757 468.045 -15.7745 471.817 -18.1323C473.984 -19.4897 476.268 -20.6676 478.501 -21.9259Z" fill="#D8DDE1"/>
<path d="M430.778 5.27493C430.217 4.72415 429.657 4.1713 429.097 3.62052C427.729 2.95628 426.39 3.1605 425.063 3.74842C424.136 4.93868 424.095 6.36619 423.992 7.77512C423.607 9.89367 424.744 10.888 426.618 11.3377C427.356 11.4078 428.087 11.3851 428.812 11.2036C431.602 9.93905 432.759 8.12787 430.778 5.27493Z" fill="#D8DDE1"/>
<path d="M210.93 2.91504C210.584 3.15227 210.238 3.38949 209.89 3.62671C208.831 4.38378 207.36 4.70353 207.065 6.28161C206.742 8.74879 207.877 10.3186 210.094 11.2263C210.765 11.3996 211.453 11.4243 212.141 11.3954C212.594 11.3728 213.033 11.2758 213.455 11.1066C214.572 10.2753 215.528 9.36764 214.986 7.77099C214.887 6.35793 214.825 4.9325 213.927 3.72986C212.928 3.45962 211.929 3.18734 210.93 2.91504Z" fill="#D8DDE1"/>
<path d="M290.638 273.475C295.194 270.777 299.741 268.062 304.312 265.387C307.709 263.398 311.137 261.459 314.552 259.499C315.421 259.136 316.291 258.771 317.158 258.408C317.79 257.051 317.545 255.914 316.313 255.021C313.147 254.831 311.196 257.325 308.803 258.672C296.333 265.688 283.994 272.939 271.57 280.037C269.615 281.155 267.934 282.43 267.1 284.607C266.789 286.11 267.014 287.422 268.418 288.309C269.498 285.83 271.372 284.301 273.781 283.051C277.995 280.867 282.031 278.335 286.118 275.909C287.292 275.212 288.431 274.482 289.805 274.245L289.807 274.267C290.085 274.008 290.364 273.741 290.638 273.475Z" fill="#D8DDE1"/>
<path d="M356.578 278.401C361.112 280.609 365.451 283.16 369.713 285.848C370.64 285.572 371.044 284.928 371.023 283.984C370.45 281.745 368.559 280.796 366.786 279.817C363.088 277.77 359.499 275.528 355.744 273.585C345.815 267.431 335.358 262.156 325.693 255.568C324.687 254.883 323.94 253.785 322.493 254.32C321.074 255.485 320.979 256.874 321.807 258.414C325.213 259.512 328.058 261.678 331.129 263.394C337.651 267.037 344.074 270.856 350.553 274.573C352.087 275.454 353.622 276.32 354.924 277.539C355.206 277.572 355.489 277.605 355.771 277.638C356.049 277.884 356.317 278.137 356.578 278.401Z" fill="#D8DDE1"/>
<path d="M321.81 258.412C322.745 257.251 322.722 255.846 322.807 254.47C323.379 252.372 322.238 251.413 320.438 250.891C319.725 250.805 319.014 250.809 318.304 250.922C316.217 251.687 314.954 252.876 316.081 255.283C316.246 256.393 316.466 257.484 317.158 258.41C318.707 259.186 320.258 259.174 321.81 258.412Z" fill="#D8DDE1"/>
<path d="M101.14 190.967C101.099 192.353 101.058 193.74 101.017 195.124C103.765 197.337 104.261 197.335 107.005 195.118C106.954 193.74 106.904 192.362 106.853 190.986C106.435 189.049 105.046 188.727 103.367 188.88C102.724 189.034 102.185 189.36 101.758 189.87C101.575 190.245 101.369 190.612 101.14 190.967Z" fill="#D8DDE1"/>
<path d="M230.49 267.677C236.085 270.299 241.2 273.774 246.57 276.794C249.784 278.602 253.158 280.165 256.044 282.525H256.042C256.479 283.014 257.245 282.853 257.671 283.361L257.69 283.371C257.972 283.649 258.275 283.903 258.567 284.167C259.639 284.448 260.712 284.726 261.783 285.007C263.235 285.376 263.662 284.541 263.763 283.317C262.636 281.001 260.265 280.543 258.223 279.588C244.714 270.808 230.071 263.918 216.817 254.714C216.121 254.229 215.367 253.936 214.512 254.349C213.097 255.551 213.081 256.956 213.915 258.485C214.685 258.757 215.52 258.916 216.216 259.318C220.466 261.767 224.899 263.91 228.86 266.847L228.854 266.845C229.282 267.347 230.065 267.159 230.49 267.677Z" fill="#D8DDE1"/>
<path d="M213.911 258.483C214.823 257.288 214.877 255.867 214.984 254.458C215.396 252.436 214.337 251.525 212.522 251.182C211.816 251.225 211.256 251.564 210.782 252.071C208.887 253.148 208.063 254.79 208.203 256.946C208.767 257.494 209.334 258.043 209.9 258.592C211.26 259.287 212.588 259.002 213.911 258.483Z" fill="#D8DDE1"/>
<path d="M387.919 227.465C387.816 229.31 389.176 230.881 391.048 231.084C392.812 231.275 394.433 229.796 394.546 227.892C394.657 226.005 393.294 224.404 391.456 224.268C389.666 224.138 388.022 225.625 387.919 227.465Z" fill="#D8DDE1"/>
<path d="M374.696 283.365C373.254 283.255 371.88 283.474 370.613 284.208C370.314 284.755 370.014 285.302 369.715 285.846C370.551 289.852 371.118 290.238 375.46 289.749C377.026 287.404 376.869 285.262 374.696 283.365Z" fill="#D8DDE1"/>
<path d="M430.788 191.767C432.203 191.642 433.375 190.893 434.551 190.212C443.661 184.925 452.754 179.605 461.857 174.305C463.276 173.48 464.728 172.713 466.166 171.919C466.451 171.644 466.733 171.368 467.017 171.094C467.443 170.539 467.474 169.98 467.04 169.412C465.581 168.395 464.108 168.843 462.8 169.6C455.149 174.039 447.311 178.165 439.953 183.099C436.026 185.119 431.758 186.59 428.767 190.109C428.907 191.314 429.323 192.182 430.788 191.767Z" fill="#D8DDE1"/>
<path d="M480.236 165.941C480.671 165.994 481.105 166.046 481.54 166.099C482.158 165.78 482.955 165.887 483.462 165.297L483.367 165.171C485.532 164.602 485.501 162.861 485.512 161.14C485.153 159.199 484.014 158.029 482.078 157.644C481.334 157.561 480.588 157.563 479.843 157.66C477.261 158.347 476.161 160.059 476.372 162.683C476.567 164.441 478.063 164.777 479.321 165.375C479.626 165.563 479.931 165.753 480.236 165.941Z" fill="#D8DDE1"/>
<path d="M479.321 165.375C478.674 164.583 477.869 163.9 477.587 162.857C472.698 162.477 469.534 165.134 466.988 168.884C466.984 169.082 466.982 169.28 466.978 169.478C466.99 170.017 467.002 170.557 467.015 171.096C469.256 169.883 471.504 168.678 473.739 167.453C475.5 166.485 477.177 165.305 479.321 165.375Z" fill="#D8DDE1"/>
<path d="M484.38 161.214C484.265 162.592 484.284 164.003 483.365 165.173C487.295 166.367 490.496 168.956 494.05 170.864C496.405 172.129 498.856 173.34 500.838 175.227C501.101 175.246 501.361 175.275 501.62 175.316C501.894 175.568 502.166 175.824 502.436 176.079L502.42 176.063C502.84 176.591 503.635 176.393 504.062 176.911C509.99 179.92 515.764 183.205 521.339 186.835C523.772 191.392 528.094 193.313 532.626 194.95C533.598 193.855 533.789 192.613 533.332 191.248C531.519 186.911 526.775 186.301 523.66 183.613C523.335 183.359 522.985 183.145 522.626 182.947C522.27 182.755 521.887 182.633 521.497 182.538C514.425 178.767 507.778 174.26 500.687 170.522C496.145 167.867 491.456 165.46 487.194 162.347C486.331 161.72 485.66 160.75 484.38 161.214Z" fill="#D8DDE1"/>
<path d="M483.46 165.297C482.821 165.565 482.181 165.831 481.54 166.099C482.282 166.079 482.945 165.862 483.46 165.297Z" fill="#D8DDE1"/>
<path d="M9.72154 360.579C9.7236 362.481 11.1965 364.047 12.9867 364.051C14.7953 364.055 16.2599 362.527 16.2764 360.612C16.295 358.659 14.9148 357.421 12.8177 357.508C10.9369 357.584 9.71948 358.793 9.72154 360.579Z" fill="#D8DDE1"/>
<path d="M858.452 251.898C858.454 235.374 858.452 218.851 858.462 202.327C858.464 200.425 858.266 198.488 859.202 196.704C858.192 195.906 857.175 195.93 856.145 196.663C854.649 198.222 854.882 200.231 854.869 202.107C854.766 216.899 854.769 231.692 854.869 246.485C854.882 248.36 854.647 250.373 856.171 251.92C856.938 252.48 857.698 252.498 858.452 251.898Z" fill="#D8DDE1"/>
<path d="M858.452 251.898C857.904 251.956 857.356 252.016 856.808 252.073C853.603 252.018 852.878 253.86 853.335 256.612C853.807 257.789 855.061 257.93 855.943 258.565C856.526 258.827 857.107 259.089 857.69 259.351C859.406 258.761 861.05 258.064 861.27 255.937C861.493 253.808 860.059 252.779 858.452 251.898Z" fill="#D8DDE1"/>
<path d="M856.682 196.795C857.523 196.766 858.361 196.735 859.202 196.706C859.779 196.172 860.355 195.638 860.932 195.103C860.901 193.734 860.872 192.364 860.841 190.992C860.609 190.678 860.413 190.342 860.259 189.979C859.9 189.459 859.416 189.109 858.829 188.884C857.76 188.545 856.719 188.607 855.714 189.119C855.119 189.443 854.684 189.944 854.247 190.445C853.638 191.147 853.168 191.922 852.958 192.842C852.976 195.314 853.734 197.092 856.682 196.795Z" fill="#D8DDE1"/>
<path d="M264.239 290.022C265.242 291.783 265.059 293.724 265.059 295.63C265.065 310.398 265.059 325.166 265.065 339.936C265.065 341.715 265.104 343.491 265.127 345.269C265.625 346.445 266.383 346.857 267.543 346.098C266.731 344.59 266.711 342.952 266.711 341.298C266.727 324.182 266.737 307.067 266.748 289.951C265.891 289.233 265.052 289.229 264.239 290.022Z" fill="#D8DDE1"/>
<path d="M264.239 290.022C265.075 289.997 265.913 289.974 266.75 289.949C267.306 289.403 267.862 288.856 268.418 288.311C268.375 286.981 268.334 285.652 268.291 284.322C267.131 281.708 265.543 281.605 263.61 283.524C263.001 284.019 262.393 284.514 261.783 285.007C261.703 287.119 262.164 288.965 264.239 290.022Z" fill="#D8DDE1"/>
<path d="M267.543 346.096C266.738 345.82 265.932 345.543 265.127 345.267L265.125 345.254C264.853 345.521 264.558 345.756 264.235 345.958C262.96 346.775 262.372 347.928 262.531 349.446C262.733 351.369 264.478 352.755 266.247 352.402C268.161 352.021 269.401 350.31 269.047 348.493C268.855 347.511 268.287 346.742 267.543 346.096Z" fill="#D8DDE1"/>
<path d="M258.565 284.167C258.273 283.901 257.98 283.635 257.688 283.371C257.982 283.635 258.273 283.901 258.565 284.167Z" fill="#D8DDE1"/>
<path d="M290.638 273.475C290.362 273.739 290.084 274.005 289.805 274.27C290.084 274.005 290.36 273.739 290.638 273.475Z" fill="#D8DDE1"/>
<path d="M855.943 258.565C855.387 258.025 854.83 257.484 854.272 256.944C852.659 255.817 851.063 256.372 849.635 257.21C844.924 259.97 839.986 262.355 835.553 265.581C827.844 269.634 820.297 273.971 812.883 278.542C812.423 278.886 811.937 279.192 811.418 279.443C811.043 279.561 810.681 279.707 810.318 279.858C808.606 281.197 806.307 281.941 805.693 284.407C805.603 285.799 805.943 286.962 807.385 287.521C808.116 286.086 808.866 284.668 810.6 284.211C813.952 282.158 817.279 280.06 820.663 278.061C824.757 275.646 828.891 273.3 833.029 270.959C833.73 270.563 834.533 270.348 835.287 270.049C837.329 268.176 839.854 267.052 842.184 265.639C845.688 263.512 849.312 261.583 852.855 259.522C853.831 258.955 854.824 258.596 855.943 258.565Z" fill="#D8DDE1"/>
<path d="M648.243 260.255C654.524 263.466 660.626 266.984 666.472 270.94C666.738 270.965 667 271.004 667.259 271.06C667.537 271.299 667.809 271.542 668.075 271.794C671.769 273.263 675.021 275.544 678.464 277.473C682.151 279.542 685.803 281.675 689.458 283.804C690.041 284.144 690.554 284.605 691.098 285.009L691.114 285.017C691.421 285.26 691.662 285.576 691.973 285.815L691.971 285.776C692.276 286.077 692.632 286.162 693.042 286.028C693.796 285.545 694.169 284.873 694.08 283.963C693.5 281.983 691.924 281.036 690.216 280.223C682.779 275.687 675.168 271.448 667.721 266.922C667.391 266.691 667.033 266.526 666.654 266.402C666.268 266.317 665.881 266.239 665.5 266.142C660.634 262.689 655.402 259.861 650.169 257.034C648.742 256.263 647.273 255.471 645.539 256.106C644.577 256.669 643.683 257.272 644.185 258.623C645.075 258.66 645.965 258.693 646.635 259.413L646.622 259.407C647.04 259.918 647.831 259.724 648.243 260.255Z" fill="#D8DDE1"/>
<path d="M668.073 271.796C667.801 271.551 667.529 271.305 667.257 271.062C667.529 271.307 667.801 271.551 668.073 271.796Z" fill="#D8DDE1"/>
<path d="M598.847 281.756C601.036 280.633 603.226 279.511 605.416 278.389C608.994 275.619 613.129 273.77 616.964 271.427C619.638 269.793 622.45 268.388 625.2 266.882C630.012 263.759 634.891 260.754 640.154 258.431C640.963 256.981 640.93 255.634 639.674 254.433C638.314 253.697 637.457 254.565 636.514 255.365C633.739 257.719 630.569 259.454 627.339 261.084C626.797 261.319 626.389 261.733 625.946 262.101C625.614 262.288 625.289 262.486 624.957 262.674C618.427 266.247 611.934 269.886 605.713 273.991C602.592 275.39 599.531 276.873 597.421 279.738C597.308 280.149 597.306 280.561 597.409 280.974C597.699 281.582 598.084 282.018 598.847 281.756Z" fill="#D8DDE1"/>
<path d="M639.113 254.452C639.247 255.834 639.198 257.265 640.154 258.431C641.472 259.01 642.805 259.27 644.181 258.623C644.76 258.043 645.337 257.461 645.915 256.882C647.862 254.02 646.704 252.203 643.927 250.924C643.196 250.806 642.461 250.8 641.723 250.866C639.805 251.297 638.67 252.3 639.113 254.452Z" fill="#D8DDE1"/>
<path d="M504.062 176.909C503.514 176.626 502.968 176.344 502.42 176.061C502.968 176.344 503.516 176.626 504.062 176.909Z" fill="#D8DDE1"/>
<path d="M519.72 244.554C519.996 244.56 520.27 244.564 520.546 244.57C520.746 244.403 520.818 244.23 520.76 244.051C520.702 243.869 520.643 243.778 520.579 243.778L520.535 243.741C520.266 244.011 519.994 244.282 519.72 244.554Z" fill="#D8DDE1"/>
<path d="M502.437 176.079C502.165 175.826 501.893 175.57 501.621 175.316C501.893 175.57 502.165 175.824 502.437 176.079Z" fill="#D8DDE1"/>
<path d="M648.243 260.254C647.701 259.972 647.162 259.689 646.62 259.406C647.16 259.689 647.701 259.972 648.243 260.254Z" fill="#D8DDE1"/>
<path d="M719.96 274.29C723.693 272.073 727.419 269.843 731.16 267.64C735.021 265.366 738.879 263.091 742.772 260.88C744.414 259.947 746.013 258.862 747.959 258.602C748.409 257.257 747.595 256.622 746.569 256.102C744.83 255.582 743.308 256.284 741.909 257.129C734.442 261.651 726.657 265.639 719.443 270.583C718.489 271.161 717.91 271.967 717.908 273.121C718.069 273.781 718.481 274.179 719.154 274.301C719.424 274.296 719.692 274.292 719.96 274.29Z" fill="#D8DDE1"/>
<path d="M719.157 274.3C718.844 273.981 718.533 273.663 718.219 273.343C714.678 271.134 712.878 274.707 710.305 275.722C707.042 277.155 704.063 279.103 700.979 280.864C699.473 281.725 698.452 282.921 697.939 284.576C697.663 286.114 697.926 287.443 699.375 288.313C700.893 285.211 700.866 285.166 703.909 283.377C705.915 282.197 708.012 281.174 710.07 280.079C712.085 278.28 714.697 277.448 716.852 275.872C717.601 275.324 718.388 274.824 719.157 274.3Z" fill="#D8DDE1"/>
<path d="M699.376 288.313C699.356 286.983 699.335 285.652 699.315 284.322C696.88 281.302 696.115 281.283 693.586 284.177C693.299 284.734 693.013 285.291 692.727 285.848C692.272 286.696 692.039 287.527 692.91 288.274C696.05 290.696 696.598 290.698 699.376 288.313Z" fill="#D8DDE1"/>
<path d="M692.91 288.274C692.848 287.466 692.789 286.657 692.727 285.848C692.475 285.818 692.222 285.795 691.969 285.778C691.95 286.738 692.109 287.627 692.91 288.274Z" fill="#D8DDE1"/>
<path d="M691.973 285.817C691.687 285.551 691.4 285.285 691.114 285.019C691.398 285.285 691.685 285.551 691.973 285.817Z" fill="#D8DDE1"/>
<path d="M792.583 281.677C794.946 282.146 796.672 283.835 798.724 284.899C799.785 285.45 799.938 286.684 800.621 287.521C802.096 286.898 802.43 285.696 802.288 284.248C799.849 279.881 795.078 278.787 791.24 276.374C789.471 275.837 787.866 274.02 785.812 275.654C785.524 276.044 785.509 276.444 785.769 276.856L785.773 276.805C786.125 277.017 786.35 277.376 786.69 277.605C788.331 278.701 789.975 279.796 791.617 280.891L791.642 280.904C791.951 281.166 792.233 281.461 792.583 281.677Z" fill="#D8DDE1"/>
<path d="M786.688 277.605C786.383 277.339 786.078 277.073 785.771 276.805C785.779 277.067 785.812 277.325 785.87 277.58C786.142 277.584 786.416 277.593 786.688 277.605Z" fill="#D8DDE1"/>
<path d="M356.578 278.401C356.31 278.148 356.04 277.892 355.773 277.638C356.04 277.892 356.308 278.146 356.578 278.401Z" fill="#D8DDE1"/>
<path d="M803.085 290.174C803.1 306.634 803.112 323.093 803.135 339.555C803.137 341.473 803.201 343.394 803.234 345.312C803.722 345.754 804.221 345.756 804.731 345.353C804.764 339.035 804.808 332.718 804.826 326.4C804.861 314.314 804.884 302.225 804.911 290.139C804.289 289.495 803.681 289.481 803.085 290.174Z" fill="#D8DDE1"/>
<path d="M804.731 345.354C804.233 345.339 803.732 345.327 803.234 345.312C802.531 345.938 801.685 346.464 801.157 347.212C800.185 348.592 800.552 350.55 801.798 351.631C803.139 352.794 804.894 352.79 806.229 351.623C807.463 350.544 807.828 348.557 806.849 347.2C806.316 346.461 805.448 345.96 804.731 345.354Z" fill="#D8DDE1"/>
<path d="M803.085 290.174C803.693 290.162 804.303 290.149 804.91 290.137C806.037 289.551 806.95 288.763 807.384 287.521C807.187 286.366 807.145 285.172 806.55 284.116C804.853 281.541 803.157 281.531 801.47 284.126C800.856 285.176 800.815 286.368 800.621 287.521C801.056 288.763 801.987 289.547 803.085 290.174Z" fill="#D8DDE1"/>
<path d="M792.583 281.677C792.27 281.419 791.955 281.159 791.642 280.902C791.955 281.162 792.268 281.419 792.583 281.677Z" fill="#D8DDE1"/>
<path d="M762.617 323.062C760.79 323.174 759.378 324.777 759.453 326.652C759.529 328.556 761.024 329.878 762.996 329.785C764.947 329.695 766.263 328.226 766.146 326.272C766.032 324.391 764.448 322.949 762.617 323.062Z" fill="#D8DDE1"/>
<path d="M592.139 285.826C594.072 284.765 596.004 283.705 597.934 282.647C598.237 282.35 598.542 282.053 598.845 281.756C598.503 281.403 598.163 281.052 597.819 280.699C595.481 281.543 593.394 282.849 591.346 284.227C590.883 285.12 590.936 285.758 592.139 285.826Z" fill="#D8DDE1"/>
<path d="M563.394 332.038C563.102 332.308 562.811 332.578 562.519 332.848C562.811 332.578 563.104 332.308 563.394 332.038Z" fill="#D8DDE1"/>
<path d="M3.91449 74.5848C4.19259 74.6054 4.47065 74.6261 4.74875 74.6446C5.02273 74.8922 5.28643 75.15 5.54187 75.4162C10.9164 77.972 15.9099 81.2107 21.0764 84.14C21.9004 84.6083 22.6749 85.1528 23.641 85.2849C24.1333 84.9672 24.1767 84.5195 24.016 84.01C23.9006 83.8924 23.7852 83.7748 23.6699 83.6573C18.3798 80.5939 13.1 77.5099 7.79138 74.4837C6.13514 73.5389 4.46655 72.6313 3.06987 71.309C0.981031 71.1646 0.779181 69.2111 -0.14576 67.9507C-1.9462 68.9099 -1.9462 70.3333 -1.17164 71.9547C0.702965 72.4848 2.46425 73.2336 3.91449 74.5848Z" fill="#D8DDE1"/>
<path d="M-0.269582 191.064C-1.314 190.753 -2.34199 190.29 -3.40907 190.167C-4.76043 190.01 -5.76768 190.781 -6.40422 191.955C-7.06754 193.176 -6.78123 194.744 -5.76359 195.747C-4.78509 196.71 -3.61916 196.935 -2.34608 196.512C-1.22956 196.143 -0.570314 195.27 -0.0862137 194.245C0.216606 193.164 0.548238 192.081 -0.269582 191.064Z" fill="#D8DDE1"/>
<path d="M-0.269516 191.064C-0.209776 192.124 -0.147947 193.185 -0.0861473 194.245C0.764632 192.945 1.01999 191.076 3.07587 190.93C7.25149 188.067 11.5384 185.404 16.2311 183.454C16.2476 183.202 16.2619 182.953 16.2764 182.701C15.7325 182.427 15.1888 182.153 14.647 181.878C14.3668 181.876 14.0866 181.876 13.8085 181.874C11.1181 184.277 7.85508 185.781 4.78362 187.576C3.00172 188.617 1.12098 189.478 -0.269516 191.064Z" fill="#D8DDE1"/>
<path d="M210.786 252.069C211.33 252.024 211.871 251.978 212.415 251.935C213.917 251.04 214.152 249.546 214.17 248.011C214.381 231.591 214.356 215.169 214.189 198.748C214.183 198.047 213.971 197.403 213.589 196.815C212.625 195.947 211.651 195.933 210.673 196.791C210.699 207.792 210.728 218.791 210.751 229.792C210.767 237.219 210.773 244.645 210.786 252.069Z" fill="#D8DDE1"/>
<path d="M210.673 196.791C211.507 196.754 212.339 196.716 213.173 196.679C214.564 197.205 215.283 196.397 215.87 195.322C216.146 193.989 216.107 192.653 215.909 191.312C215.783 190.876 215.573 190.489 215.281 190.144C214.953 189.847 214.613 189.562 214.267 189.288C213.884 189.067 213.47 188.939 213.031 188.902C211.974 188.919 210.893 188.789 209.902 189.321C209.554 189.573 209.296 189.899 209.132 190.297C209.109 190.505 209.088 190.716 209.068 190.924C208.788 191.481 208.507 192.04 208.227 192.597C208.188 194.495 209.047 195.866 210.673 196.791Z" fill="#D8DDE1"/>
<path d="M157.242 104.22C157.209 110.365 157.158 116.51 157.15 122.658C157.133 134.678 157.139 146.696 157.137 158.717C157.7 158.725 158.26 158.735 158.822 158.743C158.827 141.927 158.835 125.111 158.829 108.292C158.829 106.926 158.744 105.561 158.701 104.195C158.206 103.859 157.722 103.863 157.242 104.22Z" fill="#D8DDE1"/>
<path d="M151.476 164.548C151.173 164.812 150.871 165.074 150.568 165.338C150.873 165.076 151.176 164.812 151.476 164.548Z" fill="#D8DDE1"/>
<path d="M131.657 176.09C131.377 176.346 131.099 176.601 130.819 176.857C131.099 176.601 131.379 176.346 131.657 176.09Z" fill="#D8DDE1"/>
<path d="M130.042 176.925C129.743 177.189 129.443 177.451 129.144 177.715C129.445 177.451 129.743 177.187 130.042 176.925Z" fill="#D8DDE1"/>
<path d="M836.997 79.5544C834.205 81.7348 831 83.2325 827.968 85.0127C823.994 87.3458 820.039 89.7119 816.04 92.0017C814.874 92.67 813.585 93.1259 812.353 93.6788C809.768 93.8892 807.137 94.0088 805.769 96.804C805.32 98.4027 805.53 99.8446 806.799 101.023C808.385 101.856 809.226 100.583 810.359 99.8632C818.984 94.3843 827.848 89.3096 836.778 84.3547C841.152 81.9555 845.286 79.1459 849.715 76.8335C851.87 75.7072 853.835 74.2797 855.086 72.0848C855.423 72.0126 855.761 71.9425 856.099 71.8703C855.664 71.1936 855.028 70.7749 854.307 70.4634C852.338 70.7027 850.78 71.862 849.132 72.8088C845.117 75.111 841.277 77.7308 836.997 79.5544Z" fill="#D8DDE1"/>
<path d="M501.612 86.9291C501.901 86.6712 502.187 86.4134 502.476 86.1555C502.189 86.4113 501.901 86.6712 501.612 86.9291Z" fill="#D8DDE1"/>
<path d="M461.379 35.0543C461.067 35.3163 460.758 35.5824 460.445 35.8423C455.969 39.5514 455.582 44.3434 459.417 48.5866C459.782 48.9889 460.155 49.385 460.526 49.7831C461.72 50.0637 462.903 50.4907 464.112 50.5959C467.721 50.9136 470.943 48.8528 472.233 45.5439C473.514 42.2557 472.468 38.5962 469.633 36.3168C468.407 35.3307 467.017 34.8068 465.47 34.8088C464.106 34.813 462.742 34.9677 461.379 35.0543Z" fill="#D8DDE1"/>
<path d="M459.551 86.2071C456.785 85.6234 454.712 83.6801 452.29 82.4238C448.524 80.4703 444.907 78.2259 441.252 76.0599C440.682 75.7216 440.247 75.1502 439.751 74.6861C437.493 71.5093 434.897 68.9307 430.538 69.465C429.409 69.9085 428.732 70.6862 428.705 71.9445C431.616 75.5917 435.917 77.0646 439.868 79.0882C446.213 83.4182 452.926 87.1168 459.724 90.6691C464.207 93.8459 469.124 96.2924 473.846 99.0649C475.018 99.7539 476.301 100.358 477.751 99.7663C478.474 99.2217 478.971 98.5987 478.456 97.6415C473.502 94.7535 468.535 91.8882 463.603 88.9631C462.203 88.1318 460.901 87.1292 459.551 86.2071Z" fill="#D8DDE1"/>
<path d="M478.458 97.6435C478.178 98.2191 477.896 98.7966 477.613 99.3722C475.891 102.039 477.294 103.473 479.64 104.54C480.363 104.659 481.093 104.668 481.822 104.597C483.727 104.16 484.836 103.139 484.43 101.014C484.31 99.4671 484.036 97.988 482.658 96.9979C481.597 96.9958 480.536 96.9917 479.478 96.9875C479.086 97.1072 478.829 97.4352 478.489 97.6332L478.458 97.6435Z" fill="#D8DDE1"/>
<path d="M478.487 97.629C478.816 97.4145 479.146 97.1979 479.476 96.9834C479.146 97.2 478.816 97.4145 478.487 97.629Z" fill="#D8DDE1"/>
<path d="M532.98 72.029C534.303 72.6004 535.63 72.5653 536.956 72.0434C538.178 71.439 539.327 70.7624 539.686 69.2916C539.743 66.4716 538.46 64.8214 535.576 64.5676C534.836 64.6481 534.295 65.0792 533.798 65.5867C531.987 66.7109 531.33 68.4314 531.277 70.4674C531.985 70.8305 532.568 71.3358 532.98 72.029Z" fill="#D8DDE1"/>
<path d="M522.293 74.6138C521.984 74.8778 521.677 75.1439 521.368 75.408C521.677 75.1439 521.986 74.8799 522.293 74.6138Z" fill="#D8DDE1"/>
<path d="M51.6055 158.873C51.6261 156.301 51.6117 153.726 51.6818 151.156C51.7394 148.967 51.5149 146.832 50.8371 144.749C50.3201 144.243 49.7989 144.241 49.2756 144.736C49.2736 149.434 49.2696 154.131 49.2675 158.828C50.0462 158.844 50.8248 158.859 51.6055 158.873Z" fill="#D8DDE1"/>
<path d="M438.974 1.15334C439.236 0.90167 439.497 0.652059 439.759 0.400391C439.497 0.652059 439.236 0.903733 438.974 1.15334Z" fill="#D8DDE1"/>
<path d="M428.318 65.4176C428.283 62.0057 428.219 58.5937 428.215 55.1817C428.192 40.1662 428.184 25.1486 428.172 10.1331C427.636 10.1867 427.102 10.2403 426.567 10.294C426.567 26.8319 426.569 43.3698 426.569 59.9077C426.569 61.8179 426.697 63.7467 425.809 65.5393C426.678 66.2304 427.517 66.2407 428.318 65.4176Z" fill="#D8DDE1"/>
<path d="M208.168 6.16608C208.742 5.32031 209.317 4.47247 209.892 3.6267C208.32 3.64732 207.006 2.9707 205.681 2.20125C195.635 -3.64488 185.559 -9.43945 175.513 -15.2835C170.785 -18.0333 166.096 -20.8532 161.389 -23.6401C159.813 -23.4772 159.148 -22.5695 159.257 -21.0286C161.128 -18.089 164.327 -17.0452 167.223 -15.6796C169.586 -14.5656 171.807 -13.3382 173.718 -11.5601C180.7 -7.13729 188.54 -4.20596 195.171 0.829473C198.179 2.34774 200.976 4.2435 203.99 5.75558C205.372 6.4487 206.672 7.05105 208.168 6.16608Z" fill="#D8DDE1"/>
<path d="M212.438 65.4114C212.434 47.0417 212.43 28.6719 212.426 10.3022C211.882 10.2527 211.338 10.2032 210.794 10.1516C210.784 28.6204 210.773 47.0912 210.765 65.5599C211.361 65.9519 211.923 65.9457 212.438 65.4114Z" fill="#D8DDE1"/>
<path d="M268.383 -21.9754C269.908 -21.0636 271.42 -20.1271 272.963 -19.2483C274.034 -18.6377 275.175 -18.1426 275.867 -17.0431C276.201 -15.0318 277.818 -14.0953 279.328 -13.2413C290.831 -6.73501 302.289 -0.154488 313.607 6.67151C314.46 7.18722 315.3 7.53791 316.305 7.21817C317.541 6.32289 317.793 5.18007 317.16 3.81446C316.291 3.45552 315.422 3.09659 314.554 2.73765C310.294 0.28285 306.034 -2.1699 301.776 -4.6247C295.386 -8.30896 288.986 -11.9767 282.61 -15.6837C278.123 -18.2932 273.667 -20.9563 269.197 -23.5947C268.923 -23.0522 268.653 -22.5138 268.383 -21.9754Z" fill="#D8DDE1"/>
<path d="M320.314 251.995C320.314 235.539 320.314 219.084 320.32 202.628C320.32 200.71 320.365 198.789 320.39 196.871C319.787 196.254 319.187 196.252 318.59 196.879C318.61 213.331 318.631 229.78 318.651 246.231C318.654 248.15 318.656 250.07 318.658 251.988C319.212 251.991 319.764 251.993 320.314 251.995Z" fill="#D8DDE1"/>
<path d="M102.801 190.13C102.504 190.338 102.21 190.544 101.913 190.753C102.207 190.544 102.504 190.338 102.801 190.13Z" fill="#D8DDE1"/>
<path d="M321.173 72.1404C323.643 72.0723 325.588 73.4565 327.575 74.589C336.561 79.709 345.504 84.9095 354.454 90.0955C354.918 90.3637 355.309 90.7597 355.736 91.098C359.054 92.9422 362.367 94.7988 365.698 96.6265C367.544 97.6393 368.948 99.0297 369.688 101.035C371.744 100.319 372.269 98.7987 371.907 96.8101C368.553 93.3734 364.025 91.7251 360.097 89.1569C358.638 88.2038 357.079 87.3581 355.49 86.6031C346.577 81.5222 337.816 76.1774 328.863 71.1688C326.896 70.0693 325.256 68.0951 322.636 68.4376C321.194 69.2936 320.367 70.3973 321.173 72.1404Z" fill="#D8DDE1"/>
<path d="M373.87 158.793C373.34 158.801 372.811 158.807 372.282 158.816L372.207 158.762C371.795 159.278 370.982 159.075 370.609 159.659L370.636 159.657C369.4 161.532 369.432 163.376 370.759 165.194C372.065 165.718 373.382 166.044 374.749 165.402C376.218 164.777 377.699 164.165 377.611 162.159C377.722 160.295 376.921 159.032 375.139 158.424C374.663 158.349 374.238 158.475 373.87 158.793Z" fill="#D8DDE1"/>
<path d="M371.505 96.9669C370.36 98.0809 369.729 99.4258 369.684 101.033C370.195 102.188 371.054 103.005 372.158 103.585C373.009 103.979 373.843 104.441 374.842 104.245C376.377 103.75 377.254 102.685 377.543 101.113C377.58 99.5662 377.184 98.2562 375.596 97.6126C375.297 97.3672 374.997 97.1196 374.698 96.8741C373.608 96.0531 372.537 95.8138 371.505 96.9669Z" fill="#D8DDE1"/>
<path d="M376.486 162.021C376.367 163.383 375.693 164.462 374.752 165.4C375.858 165.371 376.915 165.54 377.891 166.102C385.429 170.421 393.199 174.345 400.339 179.341C400.597 179.366 400.852 179.407 401.103 179.465C401.381 179.71 401.662 179.956 401.94 180.201C403.857 180.636 405.382 181.876 407.022 182.831C411.628 185.513 416.421 187.881 420.799 190.953L420.84 190.975C421.155 191.225 421.435 191.516 421.773 191.739C422.606 191.964 423.055 192.5 423.289 193.337C423.46 193.944 423.837 194.493 424.122 195.068C425.541 194.224 425.811 192.923 425.578 191.421C424.921 188.525 422.43 187.359 420.218 186.134C413.531 182.435 407.059 178.369 400.374 174.673C393.5 171.092 387.069 166.733 380.225 163.096C379.078 162.485 378.031 161.322 376.486 162.021Z" fill="#D8DDE1"/>
<path d="M401.939 180.201C401.661 179.956 401.381 179.708 401.103 179.463C401.383 179.71 401.661 179.956 401.939 180.201Z" fill="#D8DDE1"/>
<path d="M424.169 191.06C424.152 192.397 424.138 193.731 424.121 195.068C424.61 195.749 425.184 196.351 426.002 196.599C428.089 197.232 429.9 196.31 430.524 194.216C430.755 193.443 430.709 192.584 430.788 191.765C430.046 191.423 429.379 190.988 428.915 190.291C426.968 188.288 425.401 188.636 424.169 191.06Z" fill="#D8DDE1"/>
<path d="M421.773 191.739C421.462 191.485 421.151 191.229 420.838 190.975C421.151 191.231 421.462 191.485 421.773 191.739Z" fill="#D8DDE1"/>
<path d="M480.079 103.634C480.102 118.986 480.125 134.336 480.147 149.687C480.152 152.703 480.152 155.719 480.156 158.733C480.716 158.731 481.276 158.731 481.837 158.729C481.835 142.011 481.833 125.294 481.837 108.577C481.837 106.933 481.888 105.288 481.917 103.644C481.305 103.642 480.691 103.638 480.079 103.634Z" fill="#D8DDE1"/>
<path d="M536.198 190.117C534.729 189.865 533.392 190.241 532.129 190.973C532.065 192.362 532 193.75 531.936 195.138C532.519 195.683 533.102 196.229 533.685 196.774C534.463 197.455 535.339 197.853 536.402 197.713C537.753 197.399 538.612 196.568 538.995 195.239C539.267 192.875 539.059 190.769 536.198 190.117Z" fill="#D8DDE1"/>
<path d="M522.155 185.076C521.891 184.83 521.627 184.583 521.364 184.337C521.627 184.583 521.891 184.828 522.155 185.076Z" fill="#D8DDE1"/>
<path d="M836.956 182.687C842.94 185.624 848.611 189.115 854.301 192.574C854.608 192.077 854.913 191.582 855.22 191.085C855.139 190.903 855.061 190.722 854.981 190.542C854.064 188.644 852.723 187.279 850.826 186.202C846.069 183.498 841.391 180.651 836.63 177.944C832.321 176.271 828.78 173.266 824.8 171.015C819.51 168.026 813.851 165.571 809.232 161.456C808.612 160.903 807.796 160.693 806.95 161.093C805.609 162.157 805.355 163.56 805.666 165.148C806.762 167.585 809.084 168.494 811.239 169.61C811.575 169.802 811.914 169.992 812.242 170.2C812.683 170.586 813.115 170.982 813.667 171.211C819.431 174.468 825.298 177.565 830.827 181.202C832.821 182.511 835.013 181.837 836.956 182.687Z" fill="#D8DDE1"/>
<path d="M860.116 190.699C859.803 190.513 859.488 190.328 859.175 190.144C859.488 190.33 859.801 190.513 860.116 190.699Z" fill="#D8DDE1"/>
<path d="M813.132 280.062C812.848 280.307 812.565 280.553 812.281 280.796C812.565 280.551 812.85 280.307 813.132 280.062Z" fill="#D8DDE1"/>
<path d="M627.734 262.736C627.445 262.99 627.157 263.244 626.869 263.495C627.159 263.241 627.448 262.988 627.734 262.736Z" fill="#D8DDE1"/>
<path d="M641.577 196.925C641.598 213.351 641.62 229.778 641.641 246.204C641.643 248.121 641.643 250.037 641.643 251.954C642.203 251.966 642.766 251.98 643.328 251.993C643.334 235.542 643.338 219.09 643.351 202.639C643.353 200.72 643.392 198.8 643.413 196.882C642.786 196.254 642.172 196.24 641.577 196.925Z" fill="#D8DDE1"/>
<path d="M536.215 196.739C535.372 196.751 534.527 196.764 533.685 196.776C533.712 208.039 533.738 219.303 533.765 230.566C533.771 232.761 533.73 234.947 534.293 237.115C534.562 238.159 534.534 239.296 534.538 240.389C534.55 244.234 534.519 248.081 534.505 251.927C535.073 252.251 535.481 252.11 535.726 251.502C535.057 238.349 538.303 225.361 537.341 212.188C537.082 208.636 537.352 205.048 537.267 201.477C537.224 199.837 537.296 198.154 536.215 196.739Z" fill="#D8DDE1"/>
<path d="M535.372 252.003C535.081 251.976 534.793 251.951 534.502 251.925C534.253 251.982 534 252.007 533.744 252.001C533.188 252.587 532.527 253.107 532.096 253.773C531.101 255.312 531.386 257.014 532.706 258.163C533.965 259.258 535.916 259.268 537.176 258.188C538.505 257.049 538.818 255.333 537.835 253.806C537.407 253.142 536.717 252.651 536.144 252.081C535.949 251.452 535.691 251.425 535.372 252.003Z" fill="#D8DDE1"/>
<path d="M785.767 276.856C785.814 276.503 785.864 276.151 785.911 275.798C786.16 275.505 786.249 275.169 786.179 274.787C786.031 274.441 785.823 274.135 785.549 273.875C785.161 273.455 784.731 273.079 784.356 272.644C775.972 266.891 766.879 262.34 758.165 257.144C756.416 256.1 755.254 253.565 752.556 254.357C751.173 255.553 751.147 256.943 751.969 258.456C753.235 258.538 754.317 259.081 755.398 259.71C763.914 264.671 772.445 269.607 780.975 274.544C782.514 275.435 784.008 276.425 785.767 276.856Z" fill="#D8DDE1"/>
<path d="M751.97 258.456C752.996 257.292 752.967 255.838 753.087 254.423C753.53 252.82 752.763 251.817 751.441 251.087C750.771 250.84 750.075 250.813 749.369 250.833C748.887 250.858 748.417 250.939 747.951 251.073C745.469 252.488 744.175 254.239 746.309 256.948C746.859 257.499 747.41 258.049 747.96 258.6C749.323 259.254 750.656 259.105 751.97 258.456Z" fill="#D8DDE1"/>
<path d="M592.139 285.826C591.875 285.293 591.612 284.759 591.348 284.227C590.374 283.757 589.43 283.22 588.275 283.315C586.728 283.441 585.492 284.499 585.156 286.063C584.851 287.478 585.718 289.157 587.063 289.758C588.474 290.387 590.209 290.013 591.138 288.87C591.857 287.983 592.055 286.923 592.139 285.826Z" fill="#D8DDE1"/>
<path d="M534.641 302.341C534.608 304.189 536.091 305.691 537.986 305.73C539.935 305.771 541.344 304.399 541.364 302.438C541.387 300.492 539.988 299.042 538.075 299.024C536.214 299.003 534.674 300.49 534.641 302.341Z" fill="#D8DDE1"/>
<path d="M48.3879 103.485C49.2716 104.967 49.2592 106.609 49.2571 108.257C49.2427 120.145 49.2345 132.031 49.2263 143.919C49.2386 144.192 49.253 144.466 49.2715 144.738C49.7927 144.743 50.314 144.747 50.8351 144.749C50.8516 131.272 50.868 117.797 50.8845 104.321C50.8371 104.139 50.7898 103.96 50.7424 103.778C50.0502 102.93 49.2902 102.623 48.3879 103.485Z" fill="#D8DDE1"/>
<path d="M24.4836 86.1285C30.6863 89.72 36.8951 93.3011 43.0854 96.9152C44.2596 97.6001 45.3884 98.3427 46.7727 98.5201C47.5823 98.6913 47.8728 98.2024 48.0273 97.5341C47.6401 95.3516 46.2805 94.7595 44.272 95.2278C42.0142 94.5718 40.189 93.0969 38.1826 91.9685C33.3231 89.2352 28.4902 86.4586 23.6451 83.6985C23.6431 84.2286 23.641 84.7588 23.639 85.2869C23.9233 85.5674 24.2034 85.848 24.4836 86.1285Z" fill="#D8DDE1"/>
<path d="M5.54175 75.4163C5.27601 75.1584 5.01231 74.9006 4.74863 74.6448C5.01231 74.9026 5.27601 75.1584 5.54175 75.4163Z" fill="#D8DDE1"/>
<path d="M256.833 166.174C254.746 167.475 252.699 168.841 250.569 170.068C242.38 174.786 234.111 179.37 225.983 184.191C222.225 186.419 218.15 188.145 214.801 191.048C214.815 192.386 214.828 193.725 214.842 195.064C216.371 191.984 216.331 191.916 219.372 190.128C227.033 185.622 234.735 181.185 242.419 176.715C246.556 174.308 250.684 171.886 254.823 169.483C255.766 168.934 256.736 168.428 257.694 167.904C259.631 167.005 261.209 165.311 263.53 165.266C264.55 163.554 264.655 161.918 263.126 160.416C259.412 160.548 258.127 163.364 256.833 166.174Z" fill="#D8DDE1"/>
<path d="M210.042 190.235C209.719 190.466 209.393 190.697 209.07 190.928C209.393 190.695 209.717 190.464 210.042 190.235Z" fill="#D8DDE1"/>
<path d="M190.109 82.7993C193.321 80.8086 196.52 78.8035 199.746 76.8376C201.359 75.8536 203.009 74.9254 204.659 74.0012C206.305 73.0791 207.916 72.0353 209.92 72.0931C210.04 70.7749 209.595 70.0694 208.145 70.4593C204.694 71.5299 201.901 73.8444 198.731 75.4473C195.558 77.0522 192.738 79.3213 189.316 80.4559C187.436 79.8659 185.853 80.7158 184.341 81.607C179.686 84.3444 174.94 86.9271 170.292 89.6851C168.179 91.649 165.233 92.1523 162.977 93.9078C161.677 94.9186 160.289 95.7458 159.961 97.526C159.974 98.4687 160.396 99.1103 161.329 99.3702C165.313 96.9732 169.277 94.537 173.29 92.1874C178.365 89.2127 183.478 86.2999 188.585 83.381C189.049 83.1108 189.599 82.987 190.109 82.7993Z" fill="#D8DDE1"/>
<path d="M161.327 99.3661C161.024 98.8215 160.724 98.2789 160.421 97.7343C160.126 96.1459 158.987 95.7396 157.582 95.6921C156.69 95.7582 155.903 96.0841 155.209 96.6431C154.888 96.9237 154.64 97.2661 154.461 97.6539C154.307 99.0525 153.948 100.468 154.657 101.829C155.205 102.413 155.751 102.997 156.299 103.581C156.614 103.789 156.921 104.01 157.224 104.239L157.242 104.222C157.728 104.214 158.214 104.206 158.699 104.197L158.732 104.216C159.067 104.016 159.374 103.783 159.648 103.502C161.092 102.483 161.397 101.002 161.327 99.3661Z" fill="#D8DDE1"/>
<path d="M159.646 103.502C159.341 103.739 159.036 103.979 158.732 104.216C159.036 103.976 159.341 103.739 159.646 103.502Z" fill="#D8DDE1"/>
<path d="M154.657 101.829C154.711 100.395 154.762 98.9616 155.487 97.6641C155.308 94.2335 152.057 93.8374 150.088 92.1748C149.73 92.0448 149.371 91.9087 149.019 91.7581C148.675 91.593 148.331 91.4301 147.993 91.2589C142.361 87.3106 135.971 84.6247 130.38 80.6042C130.061 80.3608 129.71 80.1772 129.336 80.039C128.95 79.9441 128.565 79.8471 128.188 79.7296C123.046 76.4868 117.717 73.5678 112.442 70.5601C110.866 69.6628 109.316 68.9449 107.458 69.4916C106.404 70.0135 105.701 70.7376 106 72.0351C107.837 72.0598 109.391 72.9077 110.917 73.7865C116.195 76.825 121.47 79.8636 126.719 82.9497C127.879 83.6325 128.922 84.5113 130.017 85.3013C130.289 85.324 130.561 85.357 130.831 85.4004C131.107 85.6376 131.371 85.8872 131.626 86.145C137.203 89.2455 142.787 92.3316 148.347 95.463C148.918 95.7848 149.342 96.3665 149.837 96.8286C150.09 96.8451 150.343 96.876 150.593 96.9193C150.873 97.1834 151.157 97.4412 151.45 97.6888C152.756 97.9425 153.594 98.6439 153.887 100.009C154.023 100.639 154.393 101.222 154.657 101.829Z" fill="#D8DDE1"/>
<path d="M151.45 97.6847C151.163 97.4269 150.877 97.1711 150.591 96.9153C150.879 97.1731 151.165 97.4289 151.45 97.6847Z" fill="#D8DDE1"/>
<path d="M157.222 104.236C156.913 104.018 156.606 103.797 156.297 103.578C156.606 103.799 156.915 104.018 157.222 104.236Z" fill="#D8DDE1"/>
<path d="M370.605 -21.9795C370.337 -22.2456 370.069 -22.5117 369.801 -22.7778C368.396 -22.6417 367.193 -21.963 366.013 -21.2802C358.203 -16.7646 350.417 -12.2098 342.607 -7.69422C336.454 -4.13579 330.286 -0.604179 324.108 2.90681C323.404 3.307 322.586 3.50502 321.822 3.79795C321.191 5.1223 321.408 6.25481 322.578 7.17484C326.821 7.10058 329.541 3.83922 332.925 2.03215C340.708 -2.12244 348.223 -6.77418 355.847 -11.2217C359.909 -13.4805 363.893 -15.8755 367.941 -18.1632C369.43 -19.0049 370.652 -20.0549 370.605 -21.9795Z" fill="#D8DDE1"/>
<path d="M322.916 6.94368C322.745 5.82767 322.516 4.73229 321.824 3.79782C320.265 3.03662 318.709 3.02427 317.158 3.8164C316.468 4.74675 316.231 5.83387 316.081 6.94987C314.966 9.39642 316.268 10.5681 318.378 11.3169C319.107 11.4201 319.836 11.4222 320.569 11.3252C322.726 10.6053 324.007 9.41085 322.916 6.94368Z" fill="#D8DDE1"/>
<path d="M64.0272 93.5157C64.9027 92.8638 65.7267 92.1212 66.664 91.5745C71.9767 88.4782 77.3163 85.4231 82.6558 82.3701C83.0019 82.172 83.4324 82.1184 83.8238 81.9988C88.5886 78.5394 93.959 76.0804 98.8927 72.8995C99.832 72.293 100.918 72.0991 102.024 72.0372C102.599 70.5478 101.941 69.6381 100.623 69.0337C96.8698 69.0028 94.2906 71.6494 91.2398 73.211C89.4476 74.129 87.7604 75.2429 85.9971 76.2186C85.4491 76.4414 85.0392 76.8581 84.588 77.2171C84.2543 77.4027 83.9206 77.5863 83.5766 77.7534C77.0402 81.415 70.3741 84.8558 64.227 89.1816C59.7506 91.5766 54.6191 93 51.6527 97.6538C51.3334 99.2566 51.5827 100.701 52.8558 101.846C53.3461 102.122 54.0073 102.345 54.372 101.953C57.2951 98.8007 61.8374 97.5053 64.0272 93.5157Z" fill="#D8DDE1"/>
<path d="M83.7517 137.467C82.9854 136.904 82.2891 136.18 81.4383 135.813C80.0787 135.225 78.4905 135.734 77.7201 136.766C76.8611 137.915 76.8569 139.866 77.7077 141.025C78.4864 142.088 80.0417 142.614 81.4013 142.036C82.2541 141.673 82.9586 140.959 83.7291 140.4C83.7373 139.421 83.7435 138.443 83.7517 137.467Z" fill="#D8DDE1"/>
<path d="M100.419 69.5639C100.953 70.389 101.486 71.2142 102.02 72.0373C103.347 72.5736 104.673 72.5674 105.998 72.0311C106.562 71.5071 107.129 70.9831 107.695 70.4592C109.621 67.5856 108.371 65.8157 105.652 64.5511C104.924 64.3469 104.181 64.3263 103.431 64.3552C100.584 65.0235 98.7054 66.2509 100.419 69.5639Z" fill="#D8DDE1"/>
<path d="M51.6756 104.288C51.6962 104.044 51.7229 103.799 51.7517 103.558C51.1419 103.186 50.8783 103.5 50.7423 104.067L50.8845 104.321C51.1481 104.302 51.4119 104.292 51.6756 104.288Z" fill="#D8DDE1"/>
<path d="M218.183 73.6504C218.449 73.6937 218.713 73.7433 218.974 73.8031C219.24 74.0609 219.518 74.3023 219.809 74.5292C220.348 74.8345 220.888 75.1377 221.428 75.4431C226.607 78.4424 231.785 81.4377 236.962 84.4392C242.846 87.8491 248.727 91.261 254.602 94.6833C254.831 94.8174 255.002 95.0505 255.199 95.2362C256.757 98.6543 259.361 100.874 262.924 102.004C264.531 100.612 265.145 98.9493 264.3 96.8947C263.215 96.8597 262.069 96.9752 261.13 96.3315C259.223 95.0258 256.932 94.3594 255.218 92.7401C254.921 92.4719 254.643 92.1852 254.332 91.9335C254.077 91.9356 253.823 91.9211 253.57 91.8881C249.063 89.3446 244.541 86.8259 240.05 84.2514C233.553 80.5259 227.08 76.7612 220.598 73.0151C219.796 72.5076 218.993 72.0001 218.191 71.4927C217.508 71.6453 217.046 71.9816 217.116 72.7717C217.335 73.2296 217.751 73.4483 218.183 73.6504Z" fill="#D8DDE1"/>
<path d="M240.419 50.3423C240.46 52.1761 242.028 53.6923 243.822 53.6346C245.653 53.5748 247.081 52.04 247.04 50.171C247.001 48.3269 245.456 46.8272 243.649 46.8787C241.851 46.9282 240.378 48.5063 240.419 50.3423Z" fill="#D8DDE1"/>
<path d="M316.072 68.7554C315.226 70.0282 314.169 71.0142 312.803 71.7837C305.049 76.159 297.33 80.5983 289.618 85.0437C285.582 87.3685 281.712 89.9822 277.458 91.9171C277.208 92.1812 276.949 92.4329 276.677 92.6721C276.399 92.699 276.121 92.7237 275.843 92.7505C273.196 94.4957 270.765 96.6596 267.432 97.0598C267.034 98.576 267.683 99.5064 269.08 100.026C271.002 100.317 272.472 99.296 274.024 98.3945C278.395 95.8572 282.694 93.1961 287.08 90.6877C295.157 86.4774 302.806 81.5121 310.805 77.1594C312.552 76.2085 313.609 74.6304 314.556 72.9595C315.483 72.0559 316.653 72.1199 317.811 72.1385C318.532 70.3438 317.803 69.2917 316.072 68.7554Z" fill="#D8DDE1"/>
<path d="M269.162 99.3927C268.585 98.615 268.008 97.8373 267.43 97.0617C266.387 97.006 265.343 96.9503 264.3 96.8926C262.591 98.1406 262.455 99.9435 262.564 101.831C262.803 104.839 264.865 105.356 267.096 104.595C269.455 103.789 270.998 102.128 269.162 99.3927Z" fill="#D8DDE1"/>
<path d="M254.334 91.9314C254.629 92.1996 254.923 92.4677 255.22 92.738C254.923 92.4698 254.629 92.2016 254.334 91.9314Z" fill="#D8DDE1"/>
<path d="M804.836 103.484C805.819 102.811 806.828 102.167 807.325 101.008C807.216 99.6404 807.275 98.2273 806.311 97.0804C804.774 96.2697 803.24 96.2408 801.707 97.099C799.911 97.3919 799.565 98.7616 799.367 100.249C799.478 102.522 800.586 103.935 802.879 104.325C803.652 104.329 804.268 103.966 804.836 103.484Z" fill="#D8DDE1"/>
<path d="M533.796 65.5845C534.348 65.5227 534.902 65.4608 535.454 65.3989C537.275 64.2664 537.203 62.3851 537.222 60.6234C537.366 46.2081 537.31 31.7929 537.273 17.3777C537.267 14.9641 536.109 12.8786 535.716 10.5908C535.137 9.70175 534.432 9.77601 533.666 10.3268C533.697 16.6495 533.746 22.9721 533.759 29.2927C533.782 41.3934 533.786 53.49 533.796 65.5845Z" fill="#D8DDE1"/>
<path d="M533.666 10.3309C534.274 10.3639 534.883 10.3948 535.491 10.4279C535.8 10.7393 536.045 10.694 536.222 10.2917C536.7 9.64399 537.327 9.05812 537.629 8.33818C538.602 6.02365 537.428 3.98555 534.943 3.59774C534.29 3.49666 533.604 3.61838 532.933 3.63901C532.854 3.7504 532.772 3.85973 532.696 3.97113C530.555 7.13761 530.646 7.72964 533.666 10.3309Z" fill="#D8DDE1"/>
<path d="M424.171 71.1832C424.428 71.2409 424.676 71.3276 424.91 71.4431C425.242 71.6225 425.555 71.8268 425.856 72.0537C426.88 72.0124 427.904 71.9732 428.927 71.932C429.529 71.441 430.128 70.9521 430.73 70.4632C430.835 68.3447 430.367 66.5005 428.316 65.4175C427.479 65.4567 426.641 65.4959 425.804 65.5351C425.246 66.0776 424.686 66.6201 424.128 67.1626C423.557 68.5097 423.417 69.8506 424.171 71.1832Z" fill="#D8DDE1"/>
<path d="M546.187 77.0439C546.438 77.0439 546.687 77.0665 546.935 77.1078C547.194 77.3987 547.518 77.6173 547.802 77.8793C548.69 78.23 549.635 78.4775 550.455 78.9479C555.568 81.8771 560.654 84.8538 565.74 87.8285C566.088 88.0327 566.367 88.3545 566.678 88.6227C566.647 90.2379 567.757 91.028 568.927 91.8077C574.036 95.2073 579.917 97.4166 584.35 101.864C584.748 102.262 585.374 102.176 585.922 102.009C587.568 100.626 588.135 98.871 587.733 96.773C587.428 96.1851 586.969 95.7437 586.404 95.4116C580.449 92.4018 574.85 88.7629 569.071 85.4376C568.006 84.8249 566.999 84.1215 565.819 83.7378C560.908 80.9055 556.097 77.902 551.137 75.1646C549.069 74.0218 547.182 72.0909 544.426 73.0089C542.118 72.4684 540.306 71.0843 538.563 69.5784C538.027 70.3994 537.494 71.2204 536.96 72.0414C540.163 72.5798 542.664 74.5065 545.26 76.2455L545.268 76.2497C545.567 76.522 545.849 76.8169 546.187 77.0439Z" fill="#D8DDE1"/>
<path d="M566.702 173.614C563.11 176.379 558.969 178.235 555.125 180.583C552.445 182.219 549.633 183.636 546.879 185.152C546.475 185.69 545.688 185.492 545.266 185.994L545.27 185.992C543.68 187.031 542.089 188.075 540.497 189.111C539.187 189.963 537.724 190.183 536.196 190.119C537.961 191.355 538.132 193.172 538.008 195.097C539.383 191.978 539.347 191.92 542.396 190.126C548.506 186.528 554.655 183.003 560.792 179.448C562.207 178.629 563.631 177.823 565.05 177.012C571.166 173.452 577.284 169.895 583.394 166.324C584.105 165.91 584.799 165.487 585.648 165.443C585.943 165.39 586.235 165.338 586.53 165.285C587.076 163.729 586.396 162.815 584.97 162.287C578.426 163.892 573.247 168.115 567.619 171.471C566.935 171.873 566.634 172.738 566.702 173.614Z" fill="#D8DDE1"/>
<path d="M523.825 114.202C524.631 114.13 525.486 114.204 526.231 113.955C527.894 113.395 528.852 111.665 528.518 110.12C528.162 108.465 526.724 107.421 524.927 107.471C523.928 107.498 523.127 108.007 522.286 108.436C521.66 108.894 521.798 109.705 521.434 110.285C521.44 110.673 521.446 111.058 521.452 111.446C521.776 112.067 521.646 112.892 522.311 113.36L522.212 113.253C522.565 113.884 523.415 113.67 523.825 114.202Z" fill="#D8DDE1"/>
<path d="M521.436 110.285C521.72 109.668 522.004 109.053 522.289 108.436C521.71 108.915 521.473 109.554 521.436 110.285Z" fill="#D8DDE1"/>
<path d="M523.826 114.202C523.385 113.723 522.882 113.346 522.215 113.251C522.623 113.787 523.169 114.091 523.826 114.202Z" fill="#D8DDE1"/>
<path d="M522.313 113.358C522.235 112.628 521.957 111.987 521.454 111.446C521.479 112.201 521.722 112.859 522.313 113.358Z" fill="#D8DDE1"/>
<path d="M424.171 71.1832C424.156 69.8444 424.142 68.5036 424.128 67.1648C423.357 69.8754 421.353 71.3524 418.998 72.6458C413.842 75.4781 408.766 78.4527 403.672 81.3985C402.601 82.0194 401.55 82.6548 400.312 82.8776C399.826 83.3438 399.41 83.9276 398.843 84.2556C391.106 88.7278 383.346 93.1651 375.594 97.6105C375.868 98.741 376.144 99.8735 376.418 101.004C376.943 101.245 377.526 101.299 377.975 100.967C384.65 96.0139 392.379 92.7937 399.16 88.0182C404.529 85.3757 409.533 82.0751 414.843 79.3398C416.934 78.263 418.051 76.491 419.196 74.6447C420.733 73.3162 422.785 72.7283 424.171 71.1832Z" fill="#D8DDE1"/>
<path d="M402.141 9.88752C402.139 11.6141 403.861 13.3284 405.596 13.3263C407.332 13.3242 409.05 11.6162 409.05 9.88752C409.05 8.21041 407.256 6.40335 405.596 6.40748C403.923 6.40954 402.143 8.20423 402.141 9.88752Z" fill="#D8DDE1"/>
<path d="M101.989 3.66595C100.458 3.45347 99.1296 2.71497 97.8318 1.96409C89.3034 -2.96614 80.7915 -7.92939 72.2754 -12.8802C71.7336 -13.1525 71.1919 -13.4228 70.6501 -13.6951C70.1887 -13.2247 69.2967 -13.5919 68.9794 -12.8369C68.9897 -12.577 68.998 -12.315 69.0062 -12.0551C71.0436 -8.05729 75.4211 -7.14963 78.6862 -4.78147C80.3342 -3.58501 82.2788 -2.79493 84.1369 -1.90996C88.0798 0.718117 92.2822 2.90887 96.3445 5.33685C97.6011 6.08774 98.903 6.92319 100.514 6.69627C101.913 6.13311 102.588 5.20896 101.989 3.66595Z" fill="#D8DDE1"/>
<path d="M148.91 -17.8579C150.953 -19.403 153.143 -20.7088 155.432 -21.8495C154.75 -23.1759 154.659 -24.6076 154.68 -26.0598C154.389 -25.7648 154.099 -25.4698 153.808 -25.1748C146.846 -21.243 139.842 -17.3814 133.015 -13.2082C132.088 -12.6409 131.087 -12.1933 130.38 -11.3207C130.151 -10.9741 130.007 -10.5966 129.937 -10.1902C129.945 -9.98602 129.958 -9.7818 129.968 -9.57758C126.353 -7.37239 122.766 -5.12181 119.116 -2.97437C115.933 -1.1013 112.662 0.62324 109.471 2.48187C108.383 3.11517 107.314 3.65977 106.035 3.67421C105.429 5.20073 106.103 6.12077 107.465 6.72312C110.975 6.81388 113.43 4.39208 116.246 2.89651C120.646 0.55723 124.758 -2.29775 129.13 -4.69892C134.873 -7.52091 140.155 -11.1557 145.789 -14.1674C147.365 -15.0132 147.762 -16.7213 148.91 -17.8579Z" fill="#D8DDE1"/>
<path d="M208.145 70.4571C208.736 71.0017 209.329 71.5463 209.921 72.0909C211.257 72.6293 212.58 72.4767 213.896 72.0084C216.253 70.7892 215.312 68.9492 214.801 67.1896C214.014 66.5975 213.227 66.0034 212.438 65.4114C211.88 65.4609 211.321 65.5104 210.763 65.5599C208.75 66.5831 208.141 68.3551 208.145 70.4571Z" fill="#D8DDE1"/>
<path d="M214.799 67.1895C214.992 68.8892 215.141 70.5808 213.894 72.0083C214.764 72.3301 215.635 72.654 216.504 72.9778C216.661 73.0975 216.82 73.2171 216.976 73.3368C217.108 73.1903 217.24 73.0418 217.372 72.8953C217.644 72.4271 217.918 71.9588 218.189 71.4905C216.195 70.7417 215.806 68.7222 214.799 67.1895Z" fill="#D8DDE1"/>
<path d="M257.69 191.786C256.31 192.044 255.461 192.778 255.453 194.278C255.449 195.239 255.409 196.201 255.407 197.162C255.401 201.694 255.432 206.226 255.395 210.758C255.362 214.82 255.189 215.002 251.273 215.039C246.885 215.08 242.495 215.047 238.105 215.053C237.01 215.055 235.907 215.03 234.816 215.113C233.137 215.241 232.449 215.775 232.422 217.333C232.342 222.001 232.331 226.671 232.412 231.337C232.443 233.101 233.135 233.615 235.069 233.73C236.163 233.794 237.263 233.769 238.359 233.769C242.885 233.776 247.413 233.734 251.936 233.792C255.01 233.831 255.271 234.13 255.389 237.047C255.426 238.006 255.403 238.97 255.403 239.931C255.405 243.915 255.397 247.898 255.409 251.881C255.412 252.84 255.414 253.808 255.521 254.759C255.675 256.145 256.24 256.657 257.624 256.826C257.896 256.859 258.172 256.877 258.444 256.875C263.654 256.834 268.863 256.787 274.073 256.741C274.092 250.837 274.108 244.934 274.133 239.032C274.137 237.934 274.129 236.833 274.221 235.741C274.324 234.498 274.802 233.992 275.989 233.883C277.079 233.782 278.179 233.784 279.275 233.78C283.798 233.769 288.324 233.784 292.848 233.767C293.804 233.763 294.766 233.726 295.715 233.611C296.457 233.522 296.912 233.01 297.081 232.276C297.143 232.01 297.188 231.733 297.188 231.461C297.19 226.793 297.225 222.125 297.16 217.458C297.137 215.829 296.535 215.264 294.883 215.148C293.245 215.032 291.595 215.061 289.952 215.055C285.976 215.043 282 215.084 278.024 215.039C274.349 214.995 274.174 214.81 274.143 210.979C274.106 206.175 274.147 201.368 274.129 196.564C274.112 191.961 274.098 191.964 269.611 191.916C265.637 191.875 261.664 191.829 257.69 191.786Z" fill="#D8DDE1"/>
<path d="M316.946 190.885C316.147 190.35 315.347 189.816 314.548 189.284C313.549 187.248 311.989 185.868 309.987 184.762C302.089 180.401 294.615 175.283 286.388 171.508C282.173 168.585 277.808 165.918 273.241 163.581C271.894 162.892 270.571 162.258 269.003 162.747C267.936 163.275 267.17 163.977 267.545 165.322C269.109 165.346 270.433 166.002 271.762 166.772C280.292 171.721 288.845 176.624 297.388 181.552C302.728 184.632 308.03 187.776 313.409 190.783C314.884 191.609 315.302 193.055 316.132 194.274C317.547 193.418 317.823 192.289 316.946 190.885Z" fill="#D8DDE1"/>
<path d="M267.543 165.32C268.103 164.781 268.666 164.243 269.226 163.704C270.995 161.163 270.013 159.213 267.605 158.085C265.318 157.012 263.351 157.604 262.663 160.418C262.543 162.108 262.448 163.791 263.536 165.262C264.863 165.811 266.2 165.815 267.543 165.32Z" fill="#D8DDE1"/>
<path d="M316.946 190.885C316.674 192.013 316.402 193.144 316.13 194.272C316.633 195.442 317.535 196.234 318.59 196.879C319.189 196.877 319.789 196.873 320.39 196.871C321 196.337 321.719 195.883 322.195 195.246C323 194.173 322.994 192.935 322.323 191.784C321.653 190.637 320.594 190 319.259 190.157C318.47 190.249 317.716 190.631 316.946 190.885Z" fill="#D8DDE1"/>
<path d="M316.072 68.7553C316.161 70.1353 316.874 71.1957 317.811 72.1405C318.932 72.1405 320.052 72.1405 321.173 72.1405C322.1 71.208 322.827 70.1704 322.914 68.7986C324.049 66.3273 322.693 65.2794 320.563 64.6729C319.807 64.6605 319.203 65.0195 318.643 65.4836C317.413 66.2799 316.332 67.1937 316.072 68.7553Z" fill="#D8DDE1"/>
<path d="M370.609 159.657C371.254 159.558 371.781 159.245 372.209 158.76C371.55 158.834 371.013 159.127 370.609 159.657Z" fill="#D8DDE1"/>
<path d="M395.374 115.927C394.291 120.428 393.518 124.923 394.142 129.618C394.8 134.579 396.522 139.062 399.198 143.233C399.855 144.256 400.479 145.302 401.118 146.337L401.085 146.319C401.332 146.624 401.616 146.898 401.853 147.212C403.106 148.454 404.342 149.714 405.617 150.935C411.078 156.159 417.332 160.22 424.033 163.659C425.677 164.503 427.082 164.505 428.631 163.601C430.981 162.232 433.373 160.932 435.746 159.601C436.809 159.005 437.872 158.409 438.935 157.813C440.711 156.342 442.487 154.869 444.262 153.398C447.317 150.867 450.014 147.994 452.35 144.784C456.392 139.231 458.649 133.071 458.695 126.152C458.699 125.474 458.777 124.795 458.82 124.114C458.81 123.834 458.798 123.555 458.787 123.277C458.252 120.729 457.914 118.132 456.948 115.689C455.642 112.395 453.615 109.711 450.428 108.028C449.21 107.384 447.944 106.854 446.563 106.689C444.662 106.462 442.758 106.268 440.855 106.06C437.703 106.949 434.525 107.756 431.554 109.191C426.196 110.375 421.835 107.514 417.188 105.72C414.543 104.698 411.57 105.198 408.874 104.226C406.027 105.167 402.286 104.453 401.066 108.422C398.44 110.371 396.983 113.206 395.374 115.927Z" fill="#D8DDE1"/>
<path d="M401.849 147.212C401.593 146.915 401.338 146.616 401.08 146.319C401.338 146.616 401.593 146.913 401.849 147.212Z" fill="#D8DDE1"/>
<path d="M807.331 161.213C806.833 160.053 805.833 159.395 804.843 158.731C804.278 158.261 803.664 157.904 802.896 157.904C800.609 158.273 799.505 159.682 799.359 161.933C799.377 163.905 800.591 164.866 802.305 165.398C803.683 166.033 804.999 165.728 806.297 165.136C807.273 163.993 807.199 162.576 807.331 161.213Z" fill="#D8DDE1"/>
<path d="M813.105 168.74C813.387 168.985 813.671 169.229 813.954 169.474C813.671 169.229 813.389 168.983 813.105 168.74Z" fill="#D8DDE1"/>
<path d="M802.307 165.396C801.341 164.47 800.72 163.368 800.564 162.021C797.34 161.609 795.535 164.443 792.899 165.375C792.373 165.627 791.99 166.064 791.541 166.415C791.209 166.597 790.886 166.791 790.561 166.978C785.007 169.823 779.824 173.334 774.2 176.051C773.831 176.168 773.493 176.344 773.17 176.552C772.851 176.767 772.579 177.035 772.35 177.342C772.099 177.627 771.817 177.874 771.493 178.078C771.139 178.243 770.791 178.409 770.424 178.551C765.319 181.426 760.213 184.296 755.166 187.271C753.46 188.277 752.012 189.42 751.474 191.433C751.229 192.941 751.515 194.235 752.933 195.068C753.827 192.869 755.293 191.392 757.452 190.179C766.836 184.909 776.075 179.38 785.386 173.978C787.151 172.952 789.007 172.084 790.82 171.143C793.399 169.126 796.285 167.616 799.169 166.102C800.164 165.582 801.202 165.373 802.307 165.396Z" fill="#D8DDE1"/>
<path d="M800.667 233.615C800.574 235.494 801.961 237.043 803.825 237.14C805.704 237.239 807.24 235.851 807.335 233.974C807.43 232.07 806.066 230.549 804.181 230.461C802.274 230.372 800.76 231.729 800.667 233.615Z" fill="#D8DDE1"/>
<path d="M694.412 229.765C695.269 229.367 696.161 229.031 696.977 228.561C702.409 225.435 703.068 218.298 698.305 214.168C697.597 213.553 696.791 213.05 696.029 212.493C694.941 212.413 693.852 212.256 692.764 212.264C688.045 212.295 684.431 215.645 684.019 220.317C683.642 224.588 686.751 228.637 691.151 229.512C692.212 229.724 693.324 229.689 694.412 229.765Z" fill="#D8DDE1"/>
<path d="M645.903 192.636C648.336 191.159 650.718 189.587 653.214 188.228C657.617 185.833 661.765 182.978 666.378 180.969C668.518 178.992 671.21 177.907 673.67 176.449C677.543 174.151 681.418 171.853 685.313 169.59C686.609 168.837 687.907 168.059 689.411 167.766L689.425 167.818C689.72 167.562 689.994 167.279 690.292 167.028C691.415 165.837 692.824 165.344 694.429 165.336C694.843 164.002 694.074 163.304 693.042 162.749C691.817 162.32 690.539 162.384 689.479 163.028C681.922 167.605 673.926 171.434 666.658 176.496C659.963 180.183 653.025 183.454 646.886 188.092C646.033 188.931 644.845 189.488 644.599 190.833C644.585 191.757 644.956 192.407 645.903 192.636Z" fill="#D8DDE1"/>
<path d="M711.832 172.758C714.547 173.373 716.677 175.139 719.027 176.459C722.925 178.652 726.793 180.896 730.66 183.141C731.239 183.477 731.744 183.941 732.283 184.345C732.285 184.9 732.306 185.573 732.739 185.864C737.034 188.77 740.764 192.842 746.555 192.754C747.665 192.296 748.333 191.518 748.347 190.268C745.373 186.485 740.731 185.144 736.937 182.557C735.254 181.41 733.383 180.498 731.566 179.539C724.527 175.64 717.808 171.188 710.664 167.471C707.654 166 704.984 163.977 702.185 162.17C701.167 161.512 700.376 160.523 698.99 161.124C697.613 162.318 697.589 163.706 698.407 165.212C699.416 165.6 700.471 165.901 701.429 166.392C704.69 168.057 707.862 169.879 710.874 171.968L710.89 171.976C711.197 172.245 711.481 172.542 711.832 172.758Z" fill="#D8DDE1"/>
<path d="M698.404 165.212C699.401 164.049 699.403 162.605 699.531 161.198C699.879 159.09 698.752 158.087 696.873 157.648C696.136 157.58 695.405 157.6 694.682 157.782C691.892 159.044 690.735 160.856 692.696 163.711C693.273 164.253 693.851 164.794 694.43 165.336C695.773 165.908 697.096 165.798 698.404 165.212Z" fill="#D8DDE1"/>
<path d="M690.292 167.026C690.004 167.29 689.713 167.552 689.425 167.816C689.713 167.554 690.002 167.29 690.292 167.026Z" fill="#D8DDE1"/>
<path d="M645.903 192.636C645.61 192.052 645.318 191.467 645.025 190.883C644.964 190.65 644.904 190.417 644.844 190.181C644.597 189.75 644.259 189.41 643.833 189.156C641.696 188.277 640.024 188.861 638.773 190.771C638.633 191.957 638.707 193.127 639.055 194.276C639.439 195.596 640.392 196.37 641.577 196.927C642.189 196.912 642.801 196.898 643.412 196.886C645.071 195.953 645.944 194.563 645.903 192.636Z" fill="#D8DDE1"/>
<path d="M639.056 194.274C639.118 193.208 639.179 192.139 639.241 191.072C640.012 188.325 637.805 187.518 636.127 186.528C633.189 184.797 630.181 183.186 627.402 181.193C627.069 180.952 626.704 180.773 626.319 180.639C625.932 180.546 625.538 180.463 625.151 180.368C615.601 174.58 605.952 168.959 596.191 163.533C594.881 162.805 593.639 161.9 592.001 162.24C590.629 162.826 589.954 163.754 590.522 165.285C591.313 165.477 592.191 165.507 592.879 165.885C596.708 167.991 600.497 170.17 604.279 172.36C604.734 172.624 605.06 173.111 605.445 173.495C607.447 174.035 609.163 175.149 610.927 176.187C615.152 178.675 619.414 181.103 623.647 183.576C624.463 184.053 625.221 184.634 626.006 185.167L626.02 185.173C626.325 185.443 626.609 185.74 626.957 185.961C627.207 185.963 627.452 185.988 627.697 186.037C627.961 186.322 628.28 186.542 628.568 186.796C631.712 187.706 634.19 189.833 636.979 191.386C638.143 192.038 638.337 193.331 639.056 194.274Z" fill="#D8DDE1"/>
<path d="M590.52 165.285C591.056 164.457 591.591 163.63 592.125 162.803C593.804 160.138 592.308 158.789 590.042 157.751C589.323 157.578 588.592 157.563 587.857 157.602C585.076 158.31 583.201 159.531 584.942 162.786C585.469 163.618 585.998 164.447 586.526 165.278C587.859 165.87 589.189 165.866 590.52 165.285Z" fill="#D8DDE1"/>
<path d="M626.953 185.963C626.64 185.701 626.329 185.439 626.016 185.175C626.329 185.437 626.642 185.701 626.953 185.963Z" fill="#D8DDE1"/>
<path d="M628.564 186.798C628.274 186.544 627.981 186.293 627.691 186.039C627.983 186.291 628.274 186.544 628.564 186.798Z" fill="#D8DDE1"/>
<path d="M848.679 100.148C850.57 100.158 852.006 98.708 852.023 96.7689C852.041 94.8051 850.657 93.4189 848.696 93.4312C846.784 93.4436 845.287 94.9103 845.291 96.7628C845.297 98.5946 846.84 100.136 848.679 100.148Z" fill="#D8DDE1"/>
<path d="M790.814 91.1124C789.957 90.7143 789.069 90.3719 788.251 89.9057C783.878 87.4199 779.519 84.9094 775.166 82.3865C774.585 82.0503 774.076 81.5861 773.534 81.1818L773.516 81.1736C773.207 80.9034 772.921 80.6022 772.562 80.3938C772.317 80.3918 772.074 80.3608 771.835 80.303C771.561 80.0514 771.285 79.7997 771.009 79.5522L771.013 79.5872C769.637 77.3305 767.647 75.8452 765.395 74.4672C761.838 72.2889 757.802 70.8139 754.894 67.6103C754.232 66.8801 753.314 66.5376 752.349 67.2679C751.369 68.3117 751.148 69.5391 751.464 70.8964C751.993 72.5137 753.021 73.6978 754.5 74.5683C759.646 77.6007 764.732 80.7342 770.01 83.5273C770.348 83.6449 770.696 83.7563 771.03 83.8883C771.499 84.1173 771.915 84.4308 772.29 84.798C772.539 85.0538 772.826 85.258 773.12 85.454C773.555 85.782 774.029 86.0378 774.523 86.2606C780.042 89.0248 785.06 92.6761 790.624 95.3537C790.95 95.5352 791.277 95.7126 791.597 95.9065C792.031 96.2696 792.443 96.6636 792.975 96.8884C795.581 97.8188 797.375 100.62 800.564 100.21C800.761 99.106 800.984 98.0106 801.707 97.0989C797.725 95.7436 794.215 93.528 790.814 91.1124Z" fill="#D8DDE1"/>
<path d="M749.593 221.471C749.587 231.624 749.581 241.777 749.575 251.929C750.079 252.005 750.582 252.083 751.087 252.16C751.105 243.36 751.138 234.557 751.126 225.757C751.124 224.528 750.914 223.298 750.798 222.071C750.598 221.473 750.281 221.097 749.593 221.471Z" fill="#D8DDE1"/>
<path d="M749.593 221.471C749.997 221.673 750.401 221.873 750.802 222.073C750.959 221.599 751.118 221.126 751.278 220.652C751.272 212.671 751.266 204.689 751.26 196.708C750.403 195.992 749.566 195.988 748.751 196.776C749.663 198.398 749.529 200.18 749.534 201.94C749.556 208.45 749.575 214.96 749.593 221.471Z" fill="#D8DDE1"/>
<path d="M748.753 196.776C749.589 196.754 750.425 196.731 751.262 196.708C751.82 196.162 752.376 195.617 752.935 195.07C752.914 193.744 752.895 192.42 752.875 191.093C752.578 190.169 752.123 189.383 751.118 189.078C749.888 188.902 748.751 188.958 748.131 190.291C747.529 190.782 746.928 191.273 746.326 191.762C746.215 193.88 746.586 195.763 748.753 196.776Z" fill="#D8DDE1"/>
<path d="M593.917 53.9129C594.866 53.8118 595.824 53.7685 596.663 53.1992C597.944 52.3287 598.358 51.1012 598.132 49.6304C597.919 48.2463 596.809 47.2025 595.373 46.959C594.038 46.7342 592.722 47.419 591.941 48.7001C591.412 49.5685 591.474 50.5402 591.389 51.4891C591.519 51.6128 591.544 51.7531 591.463 51.914C591.558 52.4545 591.879 52.834 592.32 53.1311L592.242 53.0321C592.633 53.6551 593.457 53.4673 593.929 53.9356L593.917 53.9129Z" fill="#D8DDE1"/>
<path d="M593.934 53.9336C593.371 53.6324 592.809 53.3312 592.246 53.03C592.681 53.5664 593.252 53.8531 593.934 53.9336Z" fill="#D8DDE1"/>
<path d="M592.323 53.1291C592.038 52.7248 591.752 52.3204 591.466 51.9141C591.752 52.3184 592.038 52.7227 592.323 53.1291Z" fill="#D8DDE1"/>
<path d="M52.5202 97.6909C50.8681 96.8018 49.218 96.8967 47.57 97.7053C47.3043 97.9776 47.0386 98.2478 46.7749 98.5201C46.7049 100.373 46.5483 102.254 48.3879 103.485C49.1728 103.679 49.9576 103.873 50.7424 104.065C51.0782 103.894 51.416 103.725 51.7518 103.553C52.2915 102.98 52.8313 102.409 53.373 101.835C53.3277 100.406 53.2824 98.974 52.5202 97.6909Z" fill="#D8DDE1"/>
<path d="M233.075 153.149C233.271 148.701 229.299 145.073 224.944 145.034C220.4 144.992 216.504 149.052 216.612 153.52C216.715 157.877 220.554 161.648 224.878 161.637C229.513 161.629 233.12 157.889 233.075 153.149Z" fill="#D8DDE1"/>
<path d="M218.183 73.6505C217.913 73.3988 217.644 73.1472 217.374 72.8955L217.258 73.0007C217.079 73.1946 217.034 73.37 217.12 73.5309C217.203 73.6835 217.281 73.7578 217.353 73.7578C217.629 73.7227 217.905 73.6856 218.183 73.6505Z" fill="#D8DDE1"/>
<path d="M217.351 73.7576C217.328 73.5039 217.298 73.2501 217.256 72.9985C217.005 72.984 216.754 72.9758 216.504 72.9779C216.789 73.2378 217.071 73.4977 217.351 73.7576Z" fill="#D8DDE1"/>
<path d="M157.242 96.9669C156.546 96.9112 155.981 97.1835 155.499 97.6621C156.179 97.6765 156.74 97.396 157.242 96.9669Z" fill="#D8DDE1"/>
<path d="M148.91 93.5468C148.63 93.2827 148.347 93.0187 148.067 92.7546C148.349 93.0187 148.63 93.2827 148.91 93.5468Z" fill="#D8DDE1"/>
<path d="M129.144 82.0277C128.86 81.7554 128.573 81.481 128.287 81.2087C128.573 81.481 128.86 81.7534 129.144 82.0277Z" fill="#D8DDE1"/>
<path d="M320.331 65.4897C320.324 47.0684 320.32 28.6491 320.314 10.2278C319.764 10.2298 319.214 10.2299 318.664 10.2319C318.658 28.6491 318.652 47.0642 318.648 65.4814C319.208 65.4855 319.768 65.4876 320.331 65.4897Z" fill="#D8DDE1"/>
<path d="M86.3145 77.8938C86.0446 78.1475 85.7747 78.3992 85.5048 78.6509C85.7747 78.3992 86.0446 78.1455 86.3145 77.8938Z" fill="#D8DDE1"/>
<path d="M103.534 10.335C103.528 28.6862 103.52 47.0353 103.513 65.3865C104.063 65.4608 104.611 65.535 105.161 65.6093C105.149 47.1096 105.139 28.6099 105.126 10.1102C104.533 9.75127 104 9.80283 103.534 10.335Z" fill="#D8DDE1"/>
<path d="M803.151 158.717C803.716 158.721 804.28 158.727 804.845 158.731C804.843 140.316 804.841 121.901 804.836 103.486C804.276 103.492 803.718 103.498 803.158 103.502C801.332 104.62 801.324 106.493 801.343 108.261C801.46 118.969 800.704 129.684 801.823 140.388C802.28 144.759 800.867 149.128 801.299 153.543C801.483 155.426 801.178 157.479 803.151 158.717Z" fill="#D8DDE1"/>
<path d="M546.187 77.0437C545.88 76.7797 545.573 76.5136 545.266 76.2495C545.573 76.5156 545.88 76.7797 546.187 77.0437Z" fill="#D8DDE1"/>
<path d="M547.802 77.8792C547.513 77.6213 547.223 77.3635 546.934 77.1077C547.223 77.3655 547.511 77.6234 547.802 77.8792Z" fill="#D8DDE1"/>
<path d="M585.516 101.891C586.108 102.421 586.697 102.951 587.288 103.479C588.12 103.993 588.963 104.482 590.003 104.377C591.361 104.09 592.199 103.259 592.568 101.934C592.522 100.018 593.138 97.8024 590.399 97.0969C589.379 96.8019 588.345 96.7256 587.292 96.8741C585.508 98.1242 585.358 99.954 585.516 101.891Z" fill="#D8DDE1"/>
<path d="M103.534 10.3351C104.065 10.2608 104.595 10.1845 105.126 10.1102C106.531 9.16545 107.487 7.93598 107.623 6.18255C107.092 5.34709 106.562 4.51163 106.033 3.67617C104.688 3.11714 103.34 2.96035 101.991 3.66791C101.464 4.50543 100.938 5.34503 100.411 6.18255C100.528 8.26191 101.808 9.46662 103.534 10.3351Z" fill="#D8DDE1"/>
<path d="M258.489 206.499C258.489 209.387 258.539 212.275 258.475 215.163C258.417 217.702 258.071 218.084 255.609 218.117C250.803 218.183 245.997 218.143 241.191 218.158C239.955 218.162 238.717 218.147 237.487 218.236C236.066 218.339 235.551 218.832 235.512 220.34C235.444 223.088 235.45 225.84 235.532 228.586C235.576 230.003 236.132 230.525 237.617 230.584C239.949 230.679 242.285 230.65 244.619 230.661C248.327 230.675 252.035 230.63 255.741 230.706C257.972 230.752 258.433 231.201 258.466 233.378C258.532 237.914 258.491 242.454 258.508 246.99C258.514 248.639 258.512 250.291 258.615 251.937C258.687 253.068 259.293 253.672 260.491 253.699C263.371 253.761 266.255 253.761 269.133 253.676C270.301 253.643 270.81 253.037 270.921 251.819C271.022 250.726 271.02 249.623 271.024 248.525C271.035 244.125 271.02 239.725 271.037 235.323C271.041 234.364 271.072 233.396 271.189 232.445C271.3 231.537 271.883 230.927 272.796 230.828C273.884 230.71 274.986 230.683 276.082 230.679C280.475 230.665 284.869 230.675 289.266 230.671C290.09 230.671 290.916 230.686 291.735 230.62C293.437 230.483 294.01 230.017 294.055 228.373C294.131 225.627 294.102 222.876 294.024 220.128C293.989 218.94 293.381 218.354 292.255 218.251C291.163 218.15 290.061 218.15 288.963 218.145C284.431 218.135 279.899 218.145 275.367 218.137C274.545 218.135 273.717 218.135 272.899 218.051C271.739 217.931 271.224 217.411 271.119 216.186C271.024 215.092 271.032 213.989 271.03 212.889C271.022 208.351 271.03 203.813 271.02 199.274C271.018 198.451 271.006 197.622 270.905 196.805C270.767 195.666 270.246 195.132 268.972 195.103C266.093 195.041 263.209 195.046 260.329 195.126C259.169 195.157 258.65 195.751 258.594 197.009C258.501 199.068 258.522 201.133 258.504 203.194C258.493 204.293 258.501 205.395 258.501 206.494C258.497 206.499 258.493 206.499 258.489 206.499Z" fill="#D8DDE1"/>
<path d="M419.136 157.262C420.739 158.813 422.813 159.585 424.708 160.654C425.753 161.244 426.754 161.289 427.809 160.685C429.943 159.463 432.135 158.339 434.232 157.056C438.21 154.624 441.895 151.796 445.238 148.536C447.698 146.139 449.834 143.478 451.626 140.545C455.203 134.697 456.346 128.374 455.316 121.626C450.187 115.409 444.07 110.999 435.629 110.852C432.928 111.572 430.621 113.072 428.592 114.881C426.964 116.333 425.588 116.366 424.006 115.062C423.691 114.458 422.807 114.693 422.517 114.052L422.613 114.167C422.237 113.979 421.965 113.664 421.664 113.381L421.658 113.377C421.231 112.865 420.405 113.055 420.032 112.449L420.076 112.443C417.624 112.678 417.472 114.596 417.43 116.356C417.152 128.487 417.175 140.623 417.408 152.757C417.439 154.446 418.112 155.932 419.136 157.262Z" fill="#D8DDE1"/>
<path d="M419.136 157.262C419.155 144.033 419.167 130.804 419.204 117.575C419.209 115.828 418.891 114 420.074 112.443C417.126 110.177 413.686 109.35 410.079 109.237C404.03 109.047 399.81 112.018 398.032 117.818C396.25 123.634 396.41 129.484 398.483 135.214C399.132 137.011 399.943 138.789 400.949 140.409C405.466 147.678 411.648 153.186 419.136 157.262Z" fill="#D8DDE1"/>
<path d="M435.628 110.854C439.283 111.755 442.243 114.035 445.44 115.834C448.767 117.705 452.026 119.691 455.316 121.628C455.174 120.686 455.13 119.716 454.875 118.806C452.871 111.683 447.995 108.412 440.698 109.334C438.943 109.554 437.169 109.847 435.628 110.854Z" fill="#D8DDE1"/>
<path d="M422.517 114.052C422.877 114.59 423.384 114.912 424.006 115.062C423.673 114.485 423.18 114.144 422.517 114.052Z" fill="#D8DDE1"/>
<path d="M420.032 112.449C420.449 112.977 421.003 113.27 421.658 113.377C421.268 112.797 420.714 112.511 420.032 112.449Z" fill="#D8DDE1"/>
<path d="M421.664 113.381C421.979 113.643 422.296 113.905 422.611 114.167C422.461 113.705 422.127 113.464 421.664 113.381Z" fill="#D8DDE1"/>
<path d="M774.493 177.767C774.167 178.033 773.842 178.297 773.514 178.563C773.84 178.297 774.167 178.033 774.493 177.767Z" fill="#D8DDE1"/>
<path d="M773.518 178.559C773.263 178.792 773.005 179.027 772.75 179.26C773.007 179.025 773.263 178.792 773.518 178.559Z" fill="#D8DDE1"/>
<path d="M696.944 158.669C696.94 140.295 696.938 121.921 696.934 103.547C696.427 103.04 695.881 102.978 695.294 103.401C695.29 121.87 695.283 140.338 695.279 158.805C695.834 158.762 696.388 158.716 696.944 158.669Z" fill="#D8DDE1"/>
<path d="M645.005 190.876C644.669 190.664 644.333 190.449 643.998 190.237C644.333 190.449 644.669 190.662 645.005 190.876Z" fill="#D8DDE1"/>
<path d="M626.005 182.66C625.723 182.398 625.439 182.136 625.157 181.872C625.441 182.136 625.723 182.398 626.005 182.66Z" fill="#D8DDE1"/>
<path d="M589.661 158.859C589.674 142.323 589.682 125.785 589.7 109.249C589.702 107.337 589.76 105.425 589.791 103.51C588.957 103.5 588.122 103.49 587.286 103.479C588.153 105.138 588.052 106.941 588.052 108.727C588.046 125.364 588.038 142.001 588.03 158.638C588.576 158.712 589.117 158.784 589.661 158.859Z" fill="#D8DDE1"/>
<path d="M771.009 79.5503C771.285 79.802 771.561 80.0515 771.835 80.3032C771.559 80.0515 771.283 79.802 771.009 79.5503Z" fill="#D8DDE1"/>
<path d="M772.56 80.3938C772.878 80.6537 773.197 80.9136 773.514 81.1736C773.197 80.9136 772.88 80.6537 772.56 80.3938Z" fill="#D8DDE1"/>
<path d="M752.941 67.1503C752.626 66.6923 752.313 66.2344 751.997 65.7764C751.192 65.665 750.378 65.4154 749.585 65.4711C747.783 65.597 746.514 66.9316 746.419 68.6087C746.334 70.1249 747.272 71.5359 748.842 71.9815C749.608 72.1981 750.457 72.1177 751.268 72.1713C751.81 71.8227 752.352 71.4761 752.891 71.1275C752.908 69.8011 752.924 68.4767 752.941 67.1503Z" fill="#D8DDE1"/>
<path d="M771.868 82.824C772.41 83.1086 772.954 83.3933 773.496 83.6759C772.952 83.3913 772.41 83.1086 771.868 82.824Z" fill="#D8DDE1"/>
<path d="M773.512 83.6863C773.829 83.9483 774.144 84.2082 774.461 84.4702C774.146 84.2082 773.829 83.9462 773.512 83.6863Z" fill="#D8DDE1"/>
<path d="M643.318 10.2218C645.238 9.12638 646.08 7.48023 645.843 5.27916C645.691 5.14301 645.621 4.9718 645.637 4.76757C643.616 2.79755 641.515 2.72327 639.334 4.4932C638.648 7.0037 639.239 9.00056 641.653 10.261C642.218 10.721 642.774 10.721 643.318 10.2218Z" fill="#D8DDE1"/>
<path d="M626.016 77.0644C622.205 79.9379 617.895 81.9843 613.794 84.3669C612.166 85.3117 610.654 86.5432 608.753 86.9826C606.025 89.4931 602.499 90.7122 599.466 92.74C597.785 93.8643 595.952 94.7596 594.207 95.7889C593.021 96.4883 591.754 96.9091 590.398 97.0947C591.692 98.4583 591.605 100.16 591.564 101.852C592.957 98.7223 592.926 98.6687 595.966 96.8781C601.967 93.3424 608.007 89.8727 614.031 86.3741C616.511 84.9342 619.001 83.5108 621.463 82.0379C622.639 81.3345 623.776 80.5774 625.157 80.3299C625.356 80.3505 625.556 80.3711 625.756 80.3918C626.156 80.466 626.553 80.464 626.951 80.3732C629.959 78.234 633.683 77.5615 636.748 75.4801C638.481 74.3043 640.164 73.2584 640.786 71.1192C640.893 69.6794 640.557 68.4767 639.056 67.9094C638.367 69.9351 637.006 71.2409 635.063 72.1713C632.519 73.3904 630.095 74.8613 627.618 76.2248C627.225 76.7715 626.442 76.5693 626.02 77.0603L626.016 77.0644Z" fill="#D8DDE1"/>
<path d="M643.318 10.2217C642.764 10.2341 642.208 10.2485 641.654 10.2609C641.649 26.8153 641.649 43.3718 641.641 59.9262C641.641 61.8364 641.796 63.7714 640.885 65.562C641.794 66.2283 642.646 66.2736 643.409 65.3309C643.388 50.8001 643.367 36.2673 643.345 21.7366C643.339 17.8976 643.326 14.0607 643.318 10.2217Z" fill="#D8DDE1"/>
<path d="M643.408 65.3308C642.568 65.4071 641.727 65.4855 640.885 65.5618C640.036 66.1601 639.362 66.8945 639.051 67.9135C639.334 69.077 639.616 70.2425 639.9 71.4059C639.943 71.6081 639.987 71.8123 640.03 72.0165C640.217 72.4002 640.485 72.7138 640.829 72.9675C641.787 73.5472 642.811 73.64 643.882 73.3801C644.292 73.2769 644.665 73.0913 645.005 72.8458C645.312 72.5797 645.571 72.2641 645.786 71.9175C646.214 71.1708 646.144 70.4013 645.878 69.6216C645.959 67.668 645.093 66.2632 643.408 65.3308Z" fill="#D8DDE1"/>
<path d="M626.018 77.0645C626.648 76.9737 627.192 76.7138 627.617 76.229C627.083 76.5075 626.552 76.786 626.018 77.0645Z" fill="#D8DDE1"/>
<path d="M130.874 52.3039C131.575 52.7185 132.232 53.259 132.986 53.5189C134.442 54.0222 136.064 53.3394 136.875 52.0378C137.598 50.8784 137.512 49.2839 136.665 48.1988C135.783 47.0684 134.413 46.5671 133.039 47.0353C132.281 47.2932 131.608 47.8027 130.895 48.1967C130.081 49.5623 130.127 50.9321 130.874 52.3039Z" fill="#D8DDE1"/>
<path d="M130.874 52.304C130.627 50.9343 130.633 49.5666 130.893 48.199C129.708 49.5605 129.719 50.9302 130.874 52.304Z" fill="#D8DDE1"/>
<path d="M794.138 143.084C794.744 143.81 795.23 144.71 795.98 145.227C797.507 146.282 799.67 145.747 800.673 144.258C801.62 142.851 801.357 140.994 800.042 139.825C798.656 138.593 796.582 138.67 795.284 140.128C794.756 140.722 794.482 141.541 794.093 142.257C793.877 142.453 793.811 142.641 793.895 142.82C793.982 142.995 794.062 143.084 794.138 143.084Z" fill="#D8DDE1"/>
<path d="M794.139 143.084C794.124 142.808 794.11 142.533 794.095 142.257C794.044 142.449 793.968 142.638 793.951 142.834C793.945 142.911 794.073 142.999 794.139 143.084Z" fill="#D8DDE1"/>
<path d="M417.566 100.95C417.849 100.695 418.131 100.437 418.413 100.181C418.131 100.437 417.849 100.692 417.566 100.95Z" fill="#D8DDE1"/>
<path d="M645.015 71.3502C651.506 75.1335 657.999 78.9127 664.482 82.7083C665.418 83.257 666.301 83.8986 667.208 84.4948C672.805 87.0898 677.837 90.6895 683.282 93.5528C686.415 95.201 689.227 97.4598 692.667 98.5263C694.111 98.8873 694.571 98.2086 694.41 96.8719C692.811 96.8925 691.406 96.4201 690.288 95.234C685.836 89.6457 679.899 86.6504 673.019 85.2972L672.988 85.2869C672.691 85.0105 672.389 84.7423 672.053 84.5133C671.799 84.5071 671.55 84.4762 671.303 84.4205C671.023 84.1668 670.736 83.9192 670.446 83.6779C670.174 83.6614 669.906 83.6222 669.641 83.5623C669.367 83.3354 669.105 83.0961 668.854 82.8424L668.858 82.8548C667.554 82.6712 666.602 81.8213 665.576 81.1117C658.953 77.3779 652.242 73.8009 645.883 69.6174C645.592 70.1971 645.304 70.7726 645.015 71.3502Z" fill="#D8DDE1"/>
<path d="M694.41 96.8741C693.829 97.4249 693.248 97.9757 692.667 98.5285C692.602 100.662 693.397 102.33 695.292 103.405C695.84 103.453 696.386 103.502 696.932 103.552C697.465 103.155 698.052 102.813 698.522 102.351C699.706 101.188 699.875 99.7683 699.21 98.3078C698.592 96.9504 697.391 96.4058 695.947 96.4739C695.432 96.4945 694.923 96.7318 694.41 96.8741Z" fill="#D8DDE1"/>
<path d="M648.262 146.376C647.714 146.655 647.168 146.933 646.62 147.212C647.166 146.933 647.714 146.655 648.262 146.376Z" fill="#D8DDE1"/>
<path d="M649.133 145.564C648.843 145.834 648.554 146.104 648.264 146.372C648.554 146.104 648.845 145.834 649.133 145.564Z" fill="#D8DDE1"/>
<path d="M644.968 148.844C644.42 149.122 643.87 149.4 643.322 149.679C643.872 149.4 644.42 149.122 644.968 148.844Z" fill="#D8DDE1"/>
<path d="M719.752 60.6523C716.794 59.5611 714.159 60.05 711.879 62.2655C711.351 63.8394 710.874 65.4237 710.958 67.1153L710.929 67.0988C711.376 67.5856 711.209 68.3592 711.728 68.813L711.72 68.8006C711.988 69.0647 712.225 69.3514 712.435 69.665L712.517 69.7516C712.828 69.9496 713.1 70.1889 713.337 70.4715C714.116 70.7088 714.88 71.0388 715.677 71.1688C718.065 71.5566 719.977 70.682 721.309 68.6934C722.661 66.6759 722.607 64.58 721.291 62.5522C720.848 61.8715 720.267 61.2836 719.752 60.6523Z" fill="#D8DDE1"/>
<path d="M668.854 82.8445C669.117 83.0838 669.379 83.3251 669.641 83.5644C669.379 83.3251 669.115 83.0838 668.854 82.8445Z" fill="#D8DDE1"/>
<path d="M670.446 83.678C670.732 83.9255 671.018 84.1731 671.303 84.4206C671.016 84.1731 670.73 83.9255 670.446 83.678Z" fill="#D8DDE1"/>
<path d="M672.051 84.5134C672.362 84.7713 672.675 85.0291 672.986 85.287C672.675 85.0291 672.364 84.7713 672.051 84.5134Z" fill="#D8DDE1"/>
<path d="M711.727 68.8131C711.657 68.1509 711.411 67.5692 710.927 67.0989C710.991 67.7652 711.236 68.3469 711.727 68.8131Z" fill="#D8DDE1"/>
<path d="M713.333 70.4694C713.059 70.2302 712.787 69.9888 712.513 69.7495C712.787 69.9909 713.059 70.2302 713.333 70.4694Z" fill="#D8DDE1"/>
<path d="M712.431 69.6629C712.192 69.3741 711.955 69.0874 711.716 68.7986C711.955 69.0874 712.194 69.3762 712.431 69.6629Z" fill="#D8DDE1"/>
<path d="M643.994 71.9857C644.329 71.7732 644.665 71.5628 645.003 71.3503C644.665 71.5628 644.329 71.7753 643.994 71.9857Z" fill="#D8DDE1"/>
<path d="M639.958 71.4268C640.289 71.6269 640.619 71.8249 640.951 72.025C640.619 71.8249 640.287 71.6248 639.958 71.4268Z" fill="#D8DDE1"/>
<path d="M664.736 98.5451C664.299 98.0541 663.743 97.7921 663.102 97.6931C663.648 97.9757 664.192 98.2604 664.736 98.5451Z" fill="#D8DDE1"/>
<path d="M648.253 89.4499C647.708 89.1714 647.164 88.8949 646.618 88.6165C647.164 88.8929 647.71 89.1714 648.253 89.4499Z" fill="#D8DDE1"/>
<path d="M661.439 96.8494C661.159 96.5832 660.879 96.3171 660.599 96.051C660.879 96.3151 661.159 96.5812 661.439 96.8494Z" fill="#D8DDE1"/>
<path d="M649.127 90.2607C648.841 89.9925 648.552 89.7223 648.266 89.4541C648.552 89.7243 648.839 89.9925 649.127 90.2607Z" fill="#D8DDE1"/>
</g>
</svg>
