<svg width="50" height="50" viewBox="0 0 50 50" fill="none" xmlns="http://www.w3.org/2000/svg">
<path d="M6.48928 35.7597L9.60087 21.4464L11.4678 20.8241L34.4936 20.2018H43.8284L45.0731 22.0687L40.7168 39.4936L39.4722 40.7383H8.35623L4.62232 40.116L4 36.382L6.48928 35.7597Z" fill="#1F5FFF"/>
<path d="M27.0258 37.6267H21.425L22.0473 33.8928L17.691 33.2704L19.558 27.6696L23.2919 27.0473L23.9142 23.3133H30.1374L29.5151 27.0473L33.249 27.6696L32.0044 33.2704L28.2705 33.8928L27.0258 37.6267Z" fill="white"/>
<path d="M42.2101 19.9033V20.5256H42.8324H44.3551C44.7428 20.5256 45.0171 20.6765 45.1784 20.8769C45.3399 21.0773 45.4289 21.3777 45.3466 21.7562L45.3465 21.7568L41.5685 39.2407C41.5684 39.241 41.5684 39.2412 41.5683 39.2414C41.3919 40.0501 40.539 40.7383 39.7184 40.7383H6.96997C5.67762 40.7383 4.62232 39.6824 4.62232 38.3839V11.9758C4.62232 10.6776 5.67739 9.62232 6.96997 9.62232H22.2544L25.1593 13.8152L25.345 14.0831H25.6709H39.8624C41.1555 14.0831 42.2101 15.1389 42.2101 16.4375V19.9033ZM33.326 28.3402L33.4855 27.5887H32.7172H29.4313L30.1308 24.2836L30.2898 23.5324H29.522H24.6918H24.1875L24.083 24.0257L23.3282 27.5887H19.7804H19.2761L19.1716 28.082L18.1464 32.9197L17.9872 33.671H18.7552H22.0374L21.3358 36.9784L21.1764 37.7298H21.9446H26.7748H27.2789L27.3836 37.2366L28.1399 33.671H31.6904H32.1945L32.2992 33.1779L33.326 28.3402ZM11.6826 20.5273H11.7532H40.6589H41.2812V19.905V16.4383C41.2812 15.6592 40.6501 15.0178 39.8641 15.0178H24.8595L21.9554 10.8234L21.7698 10.5553H21.4438H6.96913C6.18359 10.5553 5.5503 11.1954 5.5503 11.9758V36.3319L6.78088 36.4634L9.9041 22.0199C10.0735 21.237 10.8818 20.5651 11.6826 20.5273Z" stroke="#000D44" stroke-width="1.24464"/>
<path d="M14.441 18.7399H39.6238V16.8538H14.441C13.0448 16.8538 11.714 17.8186 11.2114 19.116H13.4728C13.7551 18.8857 14.1027 18.7399 14.441 18.7399Z" fill="white"/>
</svg>
