<svg width="202" height="287" viewBox="0 0 202 287" fill="none" xmlns="http://www.w3.org/2000/svg">
<g opacity="0.35">
<path d="M171.276 97.7258C171.475 97.7258 171.674 97.7486 171.862 97.7884L185.642 73.9445C185.187 73.4495 184.896 72.7896 184.896 72.067C184.896 70.5309 186.142 69.285 187.684 69.285C188.924 69.285 189.96 70.0986 190.324 71.2137H217.957C218.321 70.0986 219.356 69.285 220.597 69.285C222.133 69.285 223.385 70.5309 223.385 72.067C223.385 72.7839 223.106 73.4325 222.656 73.9274L236.447 97.7941C236.635 97.7543 236.834 97.7315 237.033 97.7315C238.569 97.7315 239.821 98.9775 239.821 100.514C239.821 102.05 238.575 103.296 237.033 103.296C236.834 103.296 236.635 103.273 236.447 103.233L222.656 127.1C223.1 127.595 223.385 128.243 223.385 128.96C223.385 130.496 222.139 131.742 220.597 131.742C219.356 131.742 218.321 130.929 217.957 129.814H190.324C189.96 130.929 188.924 131.742 187.684 131.742C186.148 131.742 184.896 130.496 184.896 128.96C184.896 128.232 185.181 127.578 185.642 127.083L171.862 103.239C171.674 103.279 171.475 103.301 171.276 103.301C169.74 103.301 168.488 102.055 168.488 100.519C168.488 98.9718 169.74 97.7258 171.276 97.7258ZM187.684 126.167C188.924 126.167 189.96 126.98 190.324 128.095H217.957C218.321 126.98 219.356 126.167 220.597 126.167C220.796 126.167 220.995 126.189 221.183 126.229L234.974 102.363C234.53 101.868 234.245 101.219 234.245 100.502C234.245 99.7854 234.524 99.1368 234.974 98.6418L221.177 74.7752C220.989 74.815 220.79 74.8377 220.591 74.8377C219.351 74.8377 218.315 74.0242 217.951 72.9091H190.318C189.954 74.0242 188.919 74.8377 187.678 74.8377C187.485 74.8377 187.297 74.8207 187.121 74.7808L173.33 98.6361C173.774 99.1311 174.058 99.7797 174.058 100.497C174.058 101.213 173.779 101.862 173.33 102.357L187.121 126.212C187.309 126.184 187.491 126.167 187.684 126.167Z" fill="#A0BCD0" fill-opacity="0.25"/>
<path d="M114.764 193.175C114.964 193.175 115.163 193.198 115.35 193.238L129.13 169.394C128.675 168.899 128.385 168.239 128.385 167.516C128.385 165.98 129.631 164.734 131.172 164.734C132.413 164.734 133.448 165.548 133.812 166.663H161.445C161.809 165.548 162.845 164.734 164.085 164.734C165.621 164.734 166.873 165.98 166.873 167.516C166.873 168.233 166.594 168.882 166.145 169.377L179.935 193.243C180.123 193.204 180.322 193.181 180.521 193.181C182.058 193.181 183.309 194.427 183.309 195.963C183.309 197.499 182.063 198.745 180.521 198.745C180.322 198.745 180.123 198.722 179.935 198.682L166.145 222.549C166.588 223.044 166.873 223.693 166.873 224.409C166.873 225.945 165.627 227.191 164.085 227.191C162.845 227.191 161.809 226.378 161.445 225.263H133.812C133.448 226.378 132.413 227.191 131.172 227.191C129.636 227.191 128.385 225.945 128.385 224.409C128.385 223.681 128.669 223.027 129.13 222.532L115.35 198.688C115.163 198.728 114.964 198.751 114.764 198.751C113.228 198.751 111.977 197.505 111.977 195.969C111.977 194.421 113.223 193.175 114.764 193.175ZM131.172 221.616C132.413 221.616 133.448 222.43 133.812 223.545H161.445C161.809 222.43 162.845 221.616 164.085 221.616C164.284 221.616 164.483 221.639 164.671 221.679L178.462 197.812C178.018 197.317 177.734 196.668 177.734 195.951C177.734 195.235 178.012 194.586 178.462 194.091L164.665 170.224C164.478 170.264 164.278 170.287 164.079 170.287C162.839 170.287 161.804 169.473 161.44 168.358H133.807C133.442 169.473 132.407 170.287 131.167 170.287C130.973 170.287 130.786 170.27 130.609 170.23L116.818 194.085C117.262 194.58 117.547 195.229 117.547 195.946C117.547 196.663 117.268 197.311 116.818 197.806L130.609 221.661C130.791 221.633 130.979 221.616 131.172 221.616Z" fill="#A0BCD0" fill-opacity="0.25"/>
<path d="M58.6281 225.991C58.8272 225.991 59.0264 226.014 59.2141 226.054L72.9936 202.21C72.5384 201.715 72.2483 201.055 72.2483 200.332C72.2483 198.796 73.4943 197.55 75.0361 197.55C76.2763 197.55 77.3118 198.364 77.6759 199.479H105.309C105.673 198.364 106.708 197.55 107.949 197.55C109.485 197.55 110.736 198.796 110.736 200.332C110.736 201.049 110.458 201.698 110.008 202.193L123.799 226.059C123.987 226.019 124.186 225.997 124.385 225.997C125.921 225.997 127.173 227.243 127.173 228.779C127.173 230.315 125.927 231.561 124.385 231.561C124.186 231.561 123.987 231.538 123.799 231.498L110.008 255.365C110.452 255.86 110.736 256.508 110.736 257.225C110.736 258.761 109.49 260.007 107.949 260.007C106.708 260.007 105.673 259.194 105.309 258.079H77.6759C77.3118 259.194 76.2763 260.007 75.0361 260.007C73.4999 260.007 72.2483 258.761 72.2483 257.225C72.2483 256.497 72.5327 255.843 72.9936 255.348L59.2141 231.504C59.0264 231.544 58.8272 231.567 58.6281 231.567C57.092 231.567 55.8403 230.321 55.8403 228.784C55.8403 227.237 57.092 225.991 58.6281 225.991ZM75.0361 254.432C76.2763 254.432 77.3118 255.245 77.6759 256.361H105.309C105.673 255.245 106.708 254.432 107.949 254.432C108.148 254.432 108.347 254.455 108.535 254.494L122.326 230.628C121.882 230.133 121.597 229.484 121.597 228.767C121.597 228.051 121.876 227.402 122.326 226.907L108.529 203.04C108.341 203.08 108.142 203.103 107.943 203.103C106.703 203.103 105.667 202.289 105.303 201.174H77.6702C77.3061 202.289 76.2706 203.103 75.0304 203.103C74.8369 203.103 74.6492 203.086 74.4728 203.046L60.6819 226.901C61.1257 227.396 61.4102 228.045 61.4102 228.762C61.4102 229.479 61.1314 230.127 60.6819 230.622L74.4728 254.477C74.6548 254.455 74.8426 254.432 75.0361 254.432Z" fill="#A0BCD0" fill-opacity="0.25"/>
<path d="M171.276 161.855C171.475 161.855 171.675 161.878 171.862 161.918L185.642 138.074C185.187 137.579 184.897 136.919 184.897 136.197C184.897 134.661 186.142 133.415 187.684 133.415C188.925 133.415 189.96 134.228 190.324 135.343H217.957C218.321 134.228 219.357 133.415 220.597 133.415C222.133 133.415 223.385 134.661 223.385 136.197C223.385 136.914 223.106 137.562 222.656 138.057L236.447 161.924C236.635 161.884 236.834 161.861 237.033 161.861C238.569 161.861 239.821 163.107 239.821 164.643C239.821 166.179 238.575 167.425 237.033 167.425C236.834 167.425 236.635 167.403 236.447 167.363L222.656 191.229C223.1 191.724 223.385 192.373 223.385 193.09C223.385 194.626 222.139 195.872 220.597 195.872C219.357 195.872 218.321 195.058 217.957 193.943H190.324C189.96 195.058 188.925 195.872 187.684 195.872C186.148 195.872 184.897 194.626 184.897 193.09C184.897 192.361 185.181 191.707 185.642 191.212L171.862 167.368C171.675 167.408 171.475 167.431 171.276 167.431C169.74 167.431 168.489 166.185 168.489 164.649C168.489 163.101 169.74 161.855 171.276 161.855ZM187.684 190.296C188.925 190.296 189.96 191.11 190.324 192.225H217.957C218.321 191.11 219.357 190.296 220.597 190.296C220.796 190.296 220.995 190.319 221.183 190.359L234.974 166.492C234.53 165.997 234.246 165.349 234.246 164.632C234.246 163.915 234.524 163.266 234.974 162.771L221.177 138.905C220.989 138.945 220.79 138.967 220.591 138.967C219.351 138.967 218.315 138.154 217.951 137.039H190.318C189.954 138.154 188.919 138.967 187.679 138.967C187.485 138.967 187.297 138.95 187.121 138.91L173.33 162.766C173.774 163.261 174.058 163.909 174.058 164.626C174.058 165.343 173.78 165.992 173.33 166.487L187.121 190.342C187.309 190.319 187.491 190.296 187.684 190.296Z" fill="#A0BCD0" fill-opacity="0.25"/>
<path d="M171.276 225.991C171.475 225.991 171.675 226.014 171.862 226.054L185.642 202.21C185.187 201.715 184.897 201.055 184.897 200.332C184.897 198.796 186.142 197.55 187.684 197.55C188.925 197.55 189.96 198.364 190.324 199.479H217.957C218.321 198.364 219.357 197.55 220.597 197.55C222.133 197.55 223.385 198.796 223.385 200.332C223.385 201.049 223.106 201.698 222.656 202.193L236.447 226.059C236.635 226.019 236.834 225.997 237.033 225.997C238.569 225.997 239.821 227.243 239.821 228.779C239.821 230.315 238.575 231.561 237.033 231.561C236.834 231.561 236.635 231.538 236.447 231.498L222.656 255.365C223.1 255.86 223.385 256.508 223.385 257.225C223.385 258.761 222.139 260.007 220.597 260.007C219.357 260.007 218.321 259.194 217.957 258.079H190.324C189.96 259.194 188.925 260.007 187.684 260.007C186.148 260.007 184.897 258.761 184.897 257.225C184.897 256.497 185.181 255.843 185.642 255.348L171.862 231.504C171.675 231.544 171.475 231.567 171.276 231.567C169.74 231.567 168.489 230.321 168.489 228.784C168.489 227.237 169.74 225.991 171.276 225.991ZM187.684 254.432C188.925 254.432 189.96 255.245 190.324 256.361H217.957C218.321 255.245 219.357 254.432 220.597 254.432C220.796 254.432 220.995 254.455 221.183 254.494L234.974 230.628C234.53 230.133 234.246 229.484 234.246 228.767C234.246 228.051 234.524 227.402 234.974 226.907L221.177 203.04C220.989 203.08 220.79 203.103 220.591 203.103C219.351 203.103 218.315 202.289 217.951 201.174H190.318C189.954 202.289 188.919 203.103 187.679 203.103C187.485 203.103 187.297 203.086 187.121 203.046L173.33 226.901C173.774 227.396 174.058 228.045 174.058 228.762C174.058 229.479 173.78 230.127 173.33 230.622L187.121 254.477C187.309 254.455 187.491 254.432 187.684 254.432Z" fill="#A0BCD0" fill-opacity="0.25"/>
<path d="M2.78751 193.175C2.98663 193.175 3.18578 193.198 3.37352 193.238L17.153 169.394C16.6979 168.899 16.4077 168.239 16.4077 167.516C16.4077 165.98 17.6537 164.734 19.1955 164.734C20.4357 164.734 21.4712 165.548 21.8353 166.663H49.4683C49.8324 165.548 50.8678 164.734 52.1081 164.734C53.6442 164.734 54.8959 165.98 54.8959 167.516C54.8959 168.233 54.6171 168.882 54.1676 169.377L67.9585 193.243C68.1463 193.204 68.3454 193.181 68.5445 193.181C70.0806 193.181 71.3323 194.427 71.3323 195.963C71.3323 197.499 70.0863 198.745 68.5445 198.745C68.3454 198.745 68.1463 198.722 67.9585 198.682L54.1676 222.549C54.6114 223.044 54.8959 223.693 54.8959 224.409C54.8959 225.945 53.6499 227.191 52.1081 227.191C50.8678 227.191 49.8324 226.378 49.4683 225.263H21.8353C21.4712 226.378 20.4357 227.191 19.1955 227.191C17.6594 227.191 16.4077 225.945 16.4077 224.409C16.4077 223.681 16.6922 223.027 17.153 222.532L3.37352 198.688C3.18578 198.728 2.98663 198.751 2.78751 198.751C1.25139 198.751 -0.000236511 197.505 -0.000236511 195.969C0.00545502 194.421 1.25139 193.175 2.78751 193.175ZM19.2012 221.616C20.4414 221.616 21.4769 222.43 21.841 223.545H49.4739C49.8381 222.43 50.8735 221.616 52.1138 221.616C52.3129 221.616 52.5121 221.639 52.6998 221.679L66.4907 197.812C66.0469 197.317 65.7624 196.668 65.7624 195.951C65.7624 195.235 66.0412 194.586 66.4907 194.091L52.6941 170.224C52.5064 170.264 52.3072 170.287 52.1081 170.287C50.8678 170.287 49.8324 169.473 49.4683 168.358H21.8353C21.4712 169.473 20.4357 170.287 19.1955 170.287C19.002 170.287 18.8143 170.27 18.6379 170.23L4.84703 194.085C5.29079 194.58 5.57528 195.229 5.57528 195.946C5.57528 196.663 5.29649 197.311 4.84703 197.806L18.6379 221.661C18.82 221.633 19.0077 221.616 19.2012 221.616Z" fill="#A0BCD0" fill-opacity="0.25"/>
</g>
<g opacity="0.45">
<path opacity="0.75" d="M120.408 70.0926H153.594L170.19 98.8009L153.594 127.509H120.408L103.818 98.8009L120.408 70.0926Z" fill="#BBCBD8" fill-opacity="0.3"/>
<path opacity="0.45" d="M174.787 39.4671H207.972L224.562 68.1754L207.972 96.8836H174.787L158.191 68.1754L174.787 39.4671Z" fill="#BBCBD8" fill-opacity="0.3"/>
<path opacity="0.45" d="M120.408 132.925H153.594L170.19 161.634L153.594 190.342H120.408L103.818 161.634L120.408 132.925Z" fill="#BBCBD8" fill-opacity="0.3"/>
<path opacity="0.25" d="M65.4324 101.321H98.6181L115.214 130.029L98.6181 158.738H65.4324L48.8424 130.029L65.4324 101.321Z" fill="#BBCBD8" fill-opacity="0.3"/>
<path opacity="0.25" d="M174.787 101.321H207.972L224.562 130.029L207.972 158.738H174.787L158.191 130.029L174.787 101.321Z" fill="#BBCBD8" fill-opacity="0.3"/>
</g>
<path d="M114.116 66.9976C114.315 66.9976 114.514 67.0204 114.702 67.0602L128.481 43.2164C128.026 42.7214 127.736 42.0614 127.736 41.3389C127.736 39.8028 128.982 38.5568 130.524 38.5568C131.764 38.5568 132.8 39.3704 133.164 40.4855H160.797C161.161 39.3704 162.196 38.5568 163.436 38.5568C164.973 38.5568 166.224 39.8028 166.224 41.3389C166.224 42.0557 165.945 42.7043 165.496 43.1993L179.287 67.0659C179.475 67.0261 179.674 67.0033 179.873 67.0033C181.409 67.0033 182.661 68.2493 182.661 69.7854C182.661 71.3215 181.415 72.5675 179.873 72.5675C179.674 72.5675 179.475 72.5447 179.287 72.5049L165.496 96.3715C165.94 96.8665 166.224 97.5151 166.224 98.2319C166.224 99.768 164.978 101.014 163.436 101.014C162.196 101.014 161.161 100.2 160.797 99.0853H133.164C132.8 100.2 131.764 101.014 130.524 101.014C128.988 101.014 127.736 99.768 127.736 98.2319C127.736 97.5037 128.021 96.8494 128.481 96.3545L114.702 72.5106C114.514 72.5504 114.315 72.5732 114.116 72.5732C112.58 72.5732 111.328 71.3272 111.328 69.7911C111.328 68.2436 112.574 66.9976 114.116 66.9976ZM130.524 95.4442C131.764 95.4442 132.8 96.2577 133.164 97.3729H160.797C161.161 96.2577 162.196 95.4442 163.436 95.4442C163.636 95.4442 163.835 95.4669 164.022 95.5068L177.813 71.6401C177.37 71.1451 177.085 70.4966 177.085 69.7797C177.085 69.0629 177.364 68.4143 177.813 67.9193L164.017 44.0527C163.829 44.0925 163.63 44.1153 163.431 44.1153C162.191 44.1153 161.155 43.3017 160.791 42.1866H133.158C132.794 43.3017 131.758 44.1153 130.518 44.1153C130.325 44.1153 130.137 44.0982 129.961 44.0584L116.17 67.9136C116.613 68.4086 116.898 69.0572 116.898 69.774C116.898 70.4909 116.619 71.1395 116.17 71.6344L129.961 95.4897C130.143 95.4612 130.33 95.4442 130.524 95.4442Z" fill="#585858" fill-opacity="0.04"/>
<path d="M58.7874 33.994C58.9865 33.994 59.1856 34.0167 59.3733 34.0566L73.1529 10.2127C72.6977 9.71772 72.4075 9.05776 72.4075 8.33522C72.4075 6.79911 73.6535 5.55314 75.1953 5.55314C76.4356 5.55314 77.471 6.36672 77.8351 7.48183H105.468C105.832 6.36672 106.868 5.55314 108.108 5.55314C109.644 5.55314 110.896 6.79911 110.896 8.33522C110.896 9.05207 110.617 9.70065 110.167 10.1956L123.958 34.0623C124.146 34.0224 124.345 33.9997 124.544 33.9997C126.08 33.9997 127.332 35.2456 127.332 36.7818C127.332 38.3179 126.086 39.5638 124.544 39.5638C124.345 39.5638 124.146 39.5411 123.958 39.5012L110.167 63.3679C110.611 63.8628 110.896 64.5114 110.896 65.2283C110.896 66.7644 109.65 68.0103 108.108 68.0103C106.868 68.0103 105.832 67.1968 105.468 66.0817H77.8351C77.471 67.1968 76.4356 68.0103 75.1953 68.0103C73.6592 68.0103 72.4075 66.7644 72.4075 65.2283C72.4075 64.5 72.692 63.8458 73.1529 63.3508L59.3733 39.5069C59.1856 39.5467 58.9865 39.5695 58.7874 39.5695C57.2512 39.5695 55.9996 38.3235 55.9996 36.7874C56.0053 35.2399 57.2512 33.994 58.7874 33.994ZM75.201 62.4405C76.4413 62.4405 77.4767 63.2541 77.8408 64.3692H105.474C105.838 63.2541 106.873 62.4405 108.114 62.4405C108.313 62.4405 108.512 62.4633 108.7 62.5031L122.496 38.6365C122.052 38.1415 121.768 37.4929 121.768 36.7761C121.768 36.0592 122.047 35.4106 122.496 34.9157L108.7 11.049C108.512 11.0888 108.313 11.1116 108.114 11.1116C106.873 11.1116 105.838 10.298 105.474 9.18292H77.8408C77.4767 10.298 76.4413 11.1116 75.201 11.1116C75.0075 11.1116 74.8198 11.0945 74.6434 11.0547L60.8525 34.91C61.2963 35.4049 61.5808 36.0535 61.5808 36.7704C61.5808 37.4872 61.302 38.1358 60.8525 38.6308L74.6434 62.486C74.8198 62.4576 75.0075 62.4405 75.201 62.4405Z" fill="#585858" fill-opacity="0.04"/>
<path d="M115.328 257.913C115.527 257.913 115.726 257.936 115.914 257.976L129.693 234.132C129.238 233.637 128.948 232.977 128.948 232.255C128.948 230.719 130.194 229.473 131.736 229.473C132.976 229.473 134.011 230.286 134.376 231.401H162.009C162.373 230.286 163.408 229.473 164.648 229.473C166.184 229.473 167.436 230.719 167.436 232.255C167.436 232.972 167.157 233.62 166.708 234.115L180.499 257.982C180.687 257.942 180.886 257.919 181.085 257.919C182.621 257.919 183.873 259.165 183.873 260.701C183.873 262.237 182.627 263.483 181.085 263.483C180.886 263.483 180.687 263.461 180.499 263.421L166.708 287.287C167.152 287.782 167.436 288.431 167.436 289.148C167.436 290.684 166.19 291.93 164.648 291.93C163.408 291.93 162.373 291.116 162.009 290.001H134.376C134.011 291.116 132.976 291.93 131.736 291.93C130.2 291.93 128.948 290.684 128.948 289.148C128.948 288.42 129.232 287.765 129.693 287.27L115.914 263.426C115.726 263.466 115.527 263.489 115.328 263.489C113.792 263.489 112.54 262.243 112.54 260.707C112.546 259.159 113.792 257.913 115.328 257.913ZM131.736 286.354C132.976 286.354 134.011 287.168 134.376 288.283H162.009C162.373 287.168 163.408 286.354 164.648 286.354C164.847 286.354 165.047 286.377 165.234 286.417L179.025 262.55C178.581 262.055 178.297 261.407 178.297 260.69C178.297 259.973 178.576 259.324 179.025 258.829L165.229 234.963C165.041 235.003 164.842 235.025 164.643 235.025C163.402 235.025 162.367 234.212 162.003 233.097H134.37C134.006 234.212 132.97 235.025 131.73 235.025C131.537 235.025 131.349 235.008 131.173 234.969L117.382 258.824C117.825 259.319 118.11 259.967 118.11 260.684C118.11 261.401 117.831 262.05 117.382 262.545L131.173 286.4C131.36 286.377 131.548 286.354 131.736 286.354Z" fill="#585858" fill-opacity="0.04"/>
<path opacity="0.45" d="M63.2478 123.914H75.8894L75.9065 122.212V111.266H88.1442V123.914H100.809V136.14H88.1442V148.787H75.9065V136.14H63.2478V123.914Z" fill="#939393" fill-opacity="0.25"/>
<path opacity="0.3" d="M128.208 189.75H140.85L140.873 188.049V177.103H153.11V189.75H165.769V201.976H153.11V214.624H140.873V201.976H128.208V189.75Z" fill="#939393" fill-opacity="0.25"/>
</svg>
