<svg width="22" height="21" viewBox="0 0 22 21" fill="none" xmlns="http://www.w3.org/2000/svg">
<mask id="mask0_23_10798" style="mask-type:luminance" maskUnits="userSpaceOnUse" x="0" y="0" width="22" height="21">
<path d="M0 0H21.5957V21H0V0Z" fill="white"/>
</mask>
<g mask="url(#mask0_23_10798)">
<path d="M19.9591 8.20302H19.61C19.4634 6.07991 18.5667 4.10379 17.0471 2.58417C15.3805 0.917563 13.1643 -0.000488281 10.8073 -0.000488281C8.45028 -0.000488281 6.23408 0.917563 4.56747 2.58417C3.04785 4.10379 2.15113 6.07991 2.00453 8.20302H1.65546C0.742834 8.20302 0.00280762 8.94266 0.00280762 9.85528V12.912C0.00280762 13.8246 0.742834 14.5646 1.65546 14.5646H1.95643C2.45405 16.9612 4.12842 18.9315 6.34539 19.8429V19.8798C6.34539 20.4937 6.8434 20.9914 7.45699 20.9914H8.88701C9.50098 20.9914 9.9986 20.4937 9.9986 19.8798V19.452C9.9986 18.838 9.50098 18.3404 8.88701 18.3404H7.45699C6.98574 18.3404 6.58276 18.634 6.42141 19.0486C4.51666 18.1856 3.09595 16.4376 2.6856 14.3327C2.87681 14.1636 2.99743 13.9161 2.99743 13.6407V9.12689C2.99743 8.88371 2.90357 8.66263 2.74998 8.49779C2.9218 4.20153 6.4699 0.759707 10.8073 0.759707C15.1447 0.759707 18.6927 4.20192 18.8646 8.49779C18.711 8.66263 18.6171 8.88371 18.6171 9.12689V13.6407C18.6171 14.1508 19.0306 14.5646 19.541 14.5646H19.9591C20.8717 14.5646 21.6114 13.8246 21.6114 12.912V9.85528C21.6114 8.94266 20.8717 8.20302 19.9591 8.20302Z" fill="#04CE78"/>
</g>
<path d="M14.0488 12.3353C13.5233 12.3353 13.0974 11.9095 13.0974 11.3839C13.0974 10.8584 13.5233 10.4325 14.0488 10.4325C14.5744 10.4325 15.0006 10.8584 15.0006 11.3839C15.0006 11.9095 14.5744 12.3353 14.0488 12.3353ZM10.8071 12.3353C10.2816 12.3353 9.85574 11.9095 9.85574 11.3839C9.85574 10.8584 10.2816 10.4325 10.8071 10.4325C11.3327 10.4325 11.7586 10.8584 11.7586 11.3839C11.7586 11.9095 11.3327 12.3353 10.8071 12.3353ZM7.56545 12.3353C7.03991 12.3353 6.61366 11.9095 6.61366 11.3839C6.61366 10.8584 7.03991 10.4325 7.56545 10.4325C8.091 10.4325 8.51686 10.8584 8.51686 11.3839C8.51686 11.9095 8.091 12.3353 7.56545 12.3353ZM15.0848 6.72656H6.52949C5.47996 6.72656 4.62939 7.57713 4.62939 8.62666V13.9407C4.62939 14.9902 5.47996 15.8411 6.52949 15.8411H15.0848C15.3264 15.8411 15.7492 16.5055 16.1347 17.2219C16.3573 17.6354 16.9849 17.4775 16.9849 17.0078V8.62666C16.9849 7.57713 16.1343 6.72656 15.0848 6.72656Z" fill="#04CE78"/>
</svg>
