<svg width="18" height="15" viewBox="0 0 18 15" fill="none" xmlns="http://www.w3.org/2000/svg">
<path d="M0.25 0.9375C0.302083 0.364583 0.614583 0.0520833 1.1875 0H16.8125C17.3854 0.0520833 17.6979 0.364583 17.75 0.9375C17.6979 1.51042 17.3854 1.82292 16.8125 1.875H1.1875C0.614583 1.82292 0.302083 1.51042 0.25 0.9375ZM0.25 7.1875C0.302083 6.61458 0.614583 6.30208 1.1875 6.25H16.8125C17.3854 6.30208 17.6979 6.61458 17.75 7.1875C17.6979 7.76042 17.3854 8.07292 16.8125 8.125H1.1875C0.614583 8.07292 0.302083 7.76042 0.25 7.1875ZM16.8125 14.375H1.1875C0.614583 14.3229 0.302083 14.0104 0.25 13.4375C0.302083 12.8646 0.614583 12.5521 1.1875 12.5H16.8125C17.3854 12.5521 17.6979 12.8646 17.75 13.4375C17.6979 14.0104 17.3854 14.3229 16.8125 14.375Z" fill="#000D44"/>
</svg>
