<svg xmlns="http://www.w3.org/2000/svg" xmlns:xlink="http://www.w3.org/1999/xlink" width="202" zoomAndPan="magnify" viewBox="0 0 151.5 46.499999" height="62" preserveAspectRatio="xMidYMid meet" version="1.0"><defs><g/><clipPath id="718227054a"><path d="M 8 0 L 48.53125 0 L 48.53125 45.453125 L 8 45.453125 Z M 8 0 " clip-rule="nonzero"/></clipPath></defs><g clip-path="url(#718227054a)"><path fill="#04ce78" d="M 45.40625 3.0625 C 43.613281 1.355469 41.214844 0.402344 38.742188 0.410156 C 36.1875 0.421875 33.785156 1.417969 31.980469 3.226562 L 28.535156 6.671875 L 25.171875 3.3125 C 21.429688 -0.429688 15.335938 -0.546875 11.558594 3.160156 C 7.742188 6.902344 7.71875 13.050781 11.492188 16.820312 L 29.738281 35.070312 C 31.820312 37.152344 31.917969 40.542969 29.875 42.664062 C 27.785156 44.835938 24.316406 44.859375 22.195312 42.738281 L 17.675781 38.21875 C 17.484375 38.027344 17.464844 37.726562 17.628906 37.511719 C 18.296875 36.632812 18.667969 35.519531 18.585938 34.316406 C 18.421875 31.945312 16.480469 30.035156 14.105469 29.910156 C 11.355469 29.769531 9.074219 31.984375 9.109375 34.710938 C 9.144531 37.238281 11.203125 39.324219 13.730469 39.390625 C 14.542969 39.410156 15.316406 39.222656 15.992188 38.878906 C 16.199219 38.777344 16.449219 38.820312 16.609375 38.980469 L 21.28125 43.652344 C 22.582031 44.953125 24.289062 45.601562 25.996094 45.601562 C 27.703125 45.601562 29.414062 44.953125 30.714844 43.652344 C 33.3125 41.050781 33.3125 36.820312 30.714844 34.21875 L 12.40625 15.910156 C 9.160156 12.664062 9.160156 7.386719 12.40625 4.140625 C 15.648438 0.894531 20.929688 0.894531 24.171875 4.140625 L 28.058594 8.027344 C 28.191406 8.15625 28.363281 8.21875 28.535156 8.214844 C 28.703125 8.21875 28.878906 8.15625 29.007812 8.027344 L 32.816406 4.21875 C 34.394531 2.640625 36.527344 1.707031 38.761719 1.703125 C 40.992188 1.699219 43.085938 2.566406 44.664062 4.140625 C 46.238281 5.714844 47.101562 7.808594 47.101562 10.039062 C 47.097656 12.273438 46.164062 14.40625 44.585938 15.988281 L 43.355469 17.21875 C 43.253906 17.320312 43.117188 17.375 42.972656 17.375 L 39.300781 17.375 C 39.097656 17.375 38.910156 17.261719 38.820312 17.078125 L 37.046875 13.535156 C 36.851562 13.136719 36.285156 13.136719 36.085938 13.535156 L 33.039062 19.621094 C 32.839844 20.019531 32.273438 20.019531 32.078125 19.621094 L 31.035156 17.539062 C 30.839844 17.144531 30.273438 17.144531 30.074219 17.539062 L 29.03125 19.621094 C 28.835938 20.019531 28.269531 20.019531 28.070312 19.621094 L 25.027344 13.53125 C 24.828125 13.136719 24.261719 13.136719 24.0625 13.53125 L 22.289062 17.078125 C 22.199219 17.257812 22.011719 17.375 21.808594 17.375 L 18.5625 17.375 C 18.207031 17.375 17.898438 17.648438 17.886719 18 C 17.878906 18.367188 18.171875 18.667969 18.535156 18.667969 L 22.609375 18.667969 C 22.8125 18.667969 23 18.550781 23.089844 18.371094 L 24.0625 16.421875 C 24.261719 16.023438 24.828125 16.023438 25.027344 16.421875 L 28.070312 22.511719 C 28.269531 22.90625 28.835938 22.90625 29.03125 22.511719 L 30.074219 20.429688 C 30.273438 20.03125 30.839844 20.03125 31.035156 20.429688 L 32.078125 22.511719 C 32.273438 22.910156 32.839844 22.910156 33.039062 22.511719 L 36.082031 16.421875 C 36.28125 16.027344 36.847656 16.023438 37.046875 16.421875 L 38.019531 18.371094 C 38.113281 18.554688 38.296875 18.667969 38.503906 18.667969 L 43.464844 18.667969 C 43.503906 18.667969 43.542969 18.664062 43.578125 18.65625 C 43.582031 18.65625 43.585938 18.65625 43.585938 18.65625 C 43.625 18.648438 43.664062 18.636719 43.699219 18.625 C 43.703125 18.621094 43.703125 18.621094 43.707031 18.621094 C 43.742188 18.605469 43.777344 18.585938 43.808594 18.566406 C 43.8125 18.566406 43.816406 18.5625 43.820312 18.5625 C 43.855469 18.539062 43.886719 18.511719 43.917969 18.484375 C 43.917969 18.480469 43.917969 18.480469 43.917969 18.480469 L 45.484375 16.917969 C 47.332031 15.066406 48.414062 12.5625 48.390625 9.945312 C 48.371094 7.328125 47.308594 4.875 45.40625 3.0625 Z M 10.402344 34.648438 C 10.402344 32.746094 11.949219 31.199219 13.851562 31.199219 C 15.753906 31.199219 17.300781 32.746094 17.300781 34.648438 C 17.300781 36.550781 15.753906 38.097656 13.851562 38.097656 C 11.949219 38.097656 10.402344 36.550781 10.402344 34.648438 Z M 10.402344 34.648438 " fill-opacity="1" fill-rule="nonzero"/></g><g fill="#ffffff" fill-opacity="1"><g transform="translate(35.086474, 34.835583)"><g><path d="M 3.859375 0 L 1.234375 0 L 1.234375 -13.875 L 4.1875 -13.875 L 9.875 -3.953125 L 9.875 -13.875 L 12.5 -13.875 L 12.5 0 L 9.53125 0 L 3.859375 -9.953125 Z M 3.859375 0 "/></g></g></g><g fill="#ffffff" fill-opacity="1"><g transform="translate(48.81759, 34.835583)"><g><path d="M 5.90625 0.203125 C 4.894531 0.203125 3.992188 -0.0195312 3.203125 -0.46875 C 2.410156 -0.914062 1.789062 -1.539062 1.34375 -2.34375 C 0.90625 -3.15625 0.6875 -4.097656 0.6875 -5.171875 C 0.6875 -6.203125 0.90625 -7.109375 1.34375 -7.890625 C 1.789062 -8.679688 2.40625 -9.300781 3.1875 -9.75 C 3.96875 -10.195312 4.875 -10.421875 5.90625 -10.421875 C 6.9375 -10.421875 7.847656 -10.195312 8.640625 -9.75 C 9.429688 -9.300781 10.046875 -8.679688 10.484375 -7.890625 C 10.929688 -7.109375 11.15625 -6.203125 11.15625 -5.171875 C 11.15625 -4.109375 10.9375 -3.171875 10.5 -2.359375 C 10.0625 -1.554688 9.445312 -0.925781 8.65625 -0.46875 C 7.863281 -0.0195312 6.945312 0.203125 5.90625 0.203125 Z M 5.90625 -1.90625 C 6.707031 -1.90625 7.359375 -2.207031 7.859375 -2.8125 C 8.359375 -3.425781 8.609375 -4.210938 8.609375 -5.171875 C 8.609375 -5.773438 8.492188 -6.3125 8.265625 -6.78125 C 8.046875 -7.257812 7.734375 -7.632812 7.328125 -7.90625 C 6.929688 -8.175781 6.457031 -8.3125 5.90625 -8.3125 C 5.382812 -8.3125 4.914062 -8.175781 4.5 -7.90625 C 4.09375 -7.644531 3.773438 -7.273438 3.546875 -6.796875 C 3.316406 -6.328125 3.203125 -5.785156 3.203125 -5.171875 C 3.203125 -4.191406 3.457031 -3.398438 3.96875 -2.796875 C 4.476562 -2.203125 5.125 -1.90625 5.90625 -1.90625 Z M 5.90625 -1.90625 "/></g></g></g><g fill="#ffffff" fill-opacity="1"><g transform="translate(60.675457, 34.835583)"><g><path d="M 5.921875 0 L 3.984375 0 L 0.21875 -10.203125 L 2.84375 -10.203125 L 4.953125 -3.765625 L 7.09375 -10.203125 L 9.71875 -10.203125 Z M 5.921875 0 "/></g></g></g><g fill="#ffffff" fill-opacity="1"><g transform="translate(70.605513, 34.835583)"><g><path d="M 4.0625 0.203125 C 3.101562 0.203125 2.300781 -0.0507812 1.65625 -0.5625 C 1.019531 -1.082031 0.703125 -1.828125 0.703125 -2.796875 C 0.703125 -3.347656 0.804688 -3.8125 1.015625 -4.1875 C 1.234375 -4.570312 1.519531 -4.882812 1.875 -5.125 C 2.195312 -5.351562 2.566406 -5.535156 2.984375 -5.671875 C 3.410156 -5.804688 3.832031 -5.914062 4.25 -6 L 7.296875 -6.5625 C 7.265625 -7.195312 7.097656 -7.675781 6.796875 -8 C 6.492188 -8.332031 6.039062 -8.5 5.4375 -8.5 C 4.976562 -8.5 4.566406 -8.359375 4.203125 -8.078125 C 3.847656 -7.804688 3.625 -7.429688 3.53125 -6.953125 L 1.09375 -6.953125 C 1.207031 -7.742188 1.484375 -8.394531 1.921875 -8.90625 C 2.359375 -9.414062 2.890625 -9.796875 3.515625 -10.046875 C 4.140625 -10.296875 4.785156 -10.421875 5.453125 -10.421875 C 6.046875 -10.421875 6.613281 -10.332031 7.15625 -10.15625 C 7.707031 -9.988281 8.171875 -9.734375 8.546875 -9.390625 C 8.941406 -9.035156 9.222656 -8.628906 9.390625 -8.171875 C 9.566406 -7.722656 9.671875 -7.25 9.703125 -6.75 C 9.734375 -6.257812 9.75 -5.78125 9.75 -5.3125 L 9.75 0 L 7.296875 0 L 7.296875 -1.375 C 7.035156 -0.925781 6.722656 -0.585938 6.359375 -0.359375 C 6.046875 -0.148438 5.691406 -0.00390625 5.296875 0.078125 C 4.898438 0.160156 4.488281 0.203125 4.0625 0.203125 Z M 4.65625 -1.734375 C 5.144531 -1.734375 5.582031 -1.828125 5.96875 -2.015625 C 6.5 -2.285156 6.859375 -2.644531 7.046875 -3.09375 C 7.234375 -3.539062 7.332031 -4.097656 7.34375 -4.765625 L 4.90625 -4.28125 C 4.5625 -4.21875 4.273438 -4.132812 4.046875 -4.03125 C 3.816406 -3.9375 3.628906 -3.820312 3.484375 -3.6875 C 3.390625 -3.59375 3.3125 -3.476562 3.25 -3.34375 C 3.195312 -3.207031 3.171875 -3.054688 3.171875 -2.890625 C 3.171875 -2.515625 3.3125 -2.226562 3.59375 -2.03125 C 3.875 -1.832031 4.226562 -1.734375 4.65625 -1.734375 Z M 4.65625 -1.734375 "/></g></g></g><g fill="#ffffff" fill-opacity="1"><g transform="translate(81.35398, 34.835583)"><g><path d="M 5.875 0.203125 C 4.851562 0.203125 3.953125 -0.0195312 3.171875 -0.46875 C 2.390625 -0.914062 1.78125 -1.539062 1.34375 -2.34375 C 0.90625 -3.15625 0.6875 -4.097656 0.6875 -5.171875 C 0.6875 -6.203125 0.90625 -7.109375 1.34375 -7.890625 C 1.78125 -8.679688 2.382812 -9.300781 3.15625 -9.75 C 3.9375 -10.195312 4.84375 -10.421875 5.875 -10.421875 C 7.101562 -10.421875 8.144531 -10.101562 9 -9.46875 C 9.851562 -8.84375 10.40625 -8.003906 10.65625 -6.953125 L 7.984375 -6.953125 C 7.671875 -7.929688 6.96875 -8.421875 5.875 -8.421875 C 5.082031 -8.421875 4.4375 -8.125 3.9375 -7.53125 C 3.445312 -6.9375 3.203125 -6.148438 3.203125 -5.171875 C 3.203125 -4.148438 3.445312 -3.332031 3.9375 -2.71875 C 4.4375 -2.101562 5.082031 -1.796875 5.875 -1.796875 C 6.46875 -1.796875 6.945312 -1.941406 7.3125 -2.234375 C 7.675781 -2.523438 7.914062 -2.925781 8.03125 -3.4375 L 10.6875 -3.4375 C 10.53125 -2.675781 10.226562 -2.019531 9.78125 -1.46875 C 9.332031 -0.925781 8.769531 -0.507812 8.09375 -0.21875 C 7.425781 0.0625 6.6875 0.203125 5.875 0.203125 Z M 5.875 0.203125 "/></g></g></g><g fill="#ffffff" fill-opacity="1"><g transform="translate(92.648052, 34.835583)"><g><path d="M 4.671875 0.203125 C 3.097656 0.203125 2.035156 -0.359375 1.484375 -1.484375 C 1.328125 -1.828125 1.21875 -2.203125 1.15625 -2.609375 C 1.09375 -3.015625 1.0625 -3.585938 1.0625 -4.328125 L 1.0625 -10.203125 L 3.515625 -10.203125 L 3.515625 -4.3125 C 3.515625 -3.789062 3.550781 -3.367188 3.625 -3.046875 C 3.707031 -2.722656 3.832031 -2.46875 4 -2.28125 C 4.289062 -1.96875 4.722656 -1.8125 5.296875 -1.8125 C 5.992188 -1.8125 6.515625 -2.019531 6.859375 -2.4375 C 7.066406 -2.675781 7.210938 -3 7.296875 -3.40625 C 7.390625 -3.8125 7.4375 -4.347656 7.4375 -5.015625 L 7.4375 -10.203125 L 9.890625 -10.203125 L 9.890625 0 L 7.4375 0 L 7.4375 -1.296875 C 7.0625 -0.773438 6.65625 -0.394531 6.21875 -0.15625 C 5.789062 0.0820312 5.273438 0.203125 4.671875 0.203125 Z M 4.671875 0.203125 "/></g></g></g><g fill="#ffffff" fill-opacity="1"><g transform="translate(103.669319, 34.835583)"><g><path d="M 3.5625 0 L 1.109375 0 L 1.109375 -10.203125 L 3.5625 -10.203125 L 3.5625 -8.984375 C 3.945312 -9.515625 4.378906 -9.882812 4.859375 -10.09375 C 5.335938 -10.3125 5.875 -10.421875 6.46875 -10.421875 L 6.765625 -10.421875 L 6.765625 -8.0625 L 6.203125 -8.0625 C 5.785156 -8.0625 5.425781 -8.003906 5.125 -7.890625 C 4.832031 -7.785156 4.585938 -7.632812 4.390625 -7.4375 C 4.117188 -7.164062 3.910156 -6.816406 3.765625 -6.390625 C 3.628906 -5.960938 3.5625 -5.410156 3.5625 -4.734375 Z M 3.5625 0 "/></g></g></g><g fill="#ffffff" fill-opacity="1"><g transform="translate(110.780401, 34.835583)"><g><path d="M 5.890625 0.203125 C 4.847656 0.203125 3.9375 -0.0195312 3.15625 -0.46875 C 2.375 -0.925781 1.765625 -1.550781 1.328125 -2.34375 C 0.898438 -3.132812 0.6875 -4.03125 0.6875 -5.03125 C 0.6875 -5.695312 0.789062 -6.351562 1 -7 C 1.207031 -7.644531 1.519531 -8.222656 1.9375 -8.734375 C 2.363281 -9.253906 2.898438 -9.664062 3.546875 -9.96875 C 4.191406 -10.269531 4.945312 -10.421875 5.8125 -10.421875 C 6.46875 -10.421875 7.101562 -10.316406 7.71875 -10.109375 C 8.332031 -9.898438 8.878906 -9.582031 9.359375 -9.15625 C 9.847656 -8.726562 10.234375 -8.179688 10.515625 -7.515625 C 10.804688 -6.847656 10.953125 -6.050781 10.953125 -5.125 L 10.953125 -4.59375 L 3.234375 -4.59375 C 3.265625 -4.382812 3.3125 -4.171875 3.375 -3.953125 C 3.445312 -3.742188 3.53125 -3.5625 3.625 -3.40625 C 3.863281 -2.925781 4.1875 -2.554688 4.59375 -2.296875 C 5 -2.035156 5.460938 -1.90625 5.984375 -1.90625 C 6.566406 -1.90625 7.050781 -2.054688 7.4375 -2.359375 C 7.832031 -2.660156 8.113281 -3.019531 8.28125 -3.4375 L 10.78125 -3.4375 C 10.59375 -2.78125 10.285156 -2.175781 9.859375 -1.625 C 9.429688 -1.070312 8.890625 -0.628906 8.234375 -0.296875 C 7.578125 0.0351562 6.796875 0.203125 5.890625 0.203125 Z M 3.34375 -6.4375 L 8.4375 -6.4375 C 8.425781 -6.570312 8.390625 -6.722656 8.328125 -6.890625 C 8.273438 -7.054688 8.1875 -7.222656 8.0625 -7.390625 C 7.832031 -7.753906 7.523438 -8.023438 7.140625 -8.203125 C 6.753906 -8.378906 6.335938 -8.46875 5.890625 -8.46875 C 5.441406 -8.46875 5.03125 -8.378906 4.65625 -8.203125 C 4.289062 -8.023438 3.988281 -7.753906 3.75 -7.390625 C 3.613281 -7.222656 3.519531 -7.054688 3.46875 -6.890625 C 3.414062 -6.722656 3.375 -6.570312 3.34375 -6.4375 Z M 3.34375 -6.4375 "/></g></g></g><g fill="#ffffff" fill-opacity="1"><g transform="translate(122.420025, 34.835583)"><g><path d="M 5.53125 0.203125 C 4.75 0.203125 4.003906 0.078125 3.296875 -0.171875 C 2.597656 -0.421875 2.007812 -0.816406 1.53125 -1.359375 C 1.050781 -1.898438 0.753906 -2.59375 0.640625 -3.4375 L 3.0625 -3.4375 C 3.21875 -2.875 3.503906 -2.445312 3.921875 -2.15625 C 4.347656 -1.875 4.878906 -1.734375 5.515625 -1.734375 C 6.035156 -1.734375 6.460938 -1.832031 6.796875 -2.03125 C 7.140625 -2.238281 7.3125 -2.53125 7.3125 -2.90625 C 7.3125 -3.207031 7.195312 -3.445312 6.96875 -3.625 C 6.75 -3.800781 6.457031 -3.9375 6.09375 -4.03125 C 5.726562 -4.132812 5.328125 -4.226562 4.890625 -4.3125 C 4.453125 -4.394531 4.003906 -4.492188 3.546875 -4.609375 C 3.097656 -4.734375 2.6875 -4.898438 2.3125 -5.109375 C 1.9375 -5.328125 1.632812 -5.613281 1.40625 -5.96875 C 1.175781 -6.332031 1.0625 -6.796875 1.0625 -7.359375 C 1.0625 -8.078125 1.238281 -8.660156 1.59375 -9.109375 C 1.957031 -9.554688 2.441406 -9.882812 3.046875 -10.09375 C 3.648438 -10.3125 4.300781 -10.421875 5 -10.421875 C 6.1875 -10.421875 7.179688 -10.117188 7.984375 -9.515625 C 8.785156 -8.921875 9.273438 -8.066406 9.453125 -6.953125 L 7.140625 -6.953125 C 6.992188 -7.503906 6.722656 -7.898438 6.328125 -8.140625 C 5.929688 -8.378906 5.484375 -8.5 4.984375 -8.5 C 4.492188 -8.5 4.109375 -8.40625 3.828125 -8.21875 C 3.546875 -8.03125 3.40625 -7.773438 3.40625 -7.453125 C 3.40625 -7.171875 3.515625 -6.953125 3.734375 -6.796875 C 3.953125 -6.640625 4.238281 -6.519531 4.59375 -6.4375 C 4.945312 -6.351562 5.332031 -6.269531 5.75 -6.1875 C 6.195312 -6.101562 6.65625 -6 7.125 -5.875 C 7.59375 -5.757812 8.019531 -5.597656 8.40625 -5.390625 C 8.800781 -5.179688 9.117188 -4.890625 9.359375 -4.515625 C 9.609375 -4.148438 9.734375 -3.675781 9.734375 -3.09375 C 9.734375 -2.09375 9.363281 -1.289062 8.625 -0.6875 C 7.882812 -0.09375 6.851562 0.203125 5.53125 0.203125 Z M 5.53125 0.203125 "/></g></g></g><g fill="#04ce78" fill-opacity="1"><g transform="translate(35.768659, 40.98619)"><g><path d="M 0.90625 0 L 0.296875 0 L 0.296875 -3.25 L 1.3125 -3.25 L 1.984375 -0.75 L 2.65625 -3.25 L 3.671875 -3.25 L 3.671875 0 L 3.0625 0 L 3.0625 -2.796875 L 2.28125 0 L 1.6875 0 L 0.90625 -2.78125 Z M 0.90625 0 "/></g></g></g><g fill="#04ce78" fill-opacity="1"><g transform="translate(40.162556, 40.98619)"><g><path d="M 2.46875 0 L 0.296875 0 L 0.296875 -3.25 L 2.46875 -3.25 L 2.46875 -2.703125 L 0.90625 -2.703125 L 0.90625 -1.90625 L 2.296875 -1.90625 L 2.296875 -1.359375 L 0.90625 -1.359375 L 0.90625 -0.546875 L 2.46875 -0.546875 Z M 2.46875 0 "/></g></g></g><g fill="#04ce78" fill-opacity="1"><g transform="translate(43.243952, 40.98619)"><g><path d="M 1.234375 0 L 0.296875 0 L 0.296875 -3.25 L 1.234375 -3.25 C 1.785156 -3.25 2.207031 -3.109375 2.5 -2.828125 C 2.789062 -2.546875 2.9375 -2.144531 2.9375 -1.625 C 2.9375 -1.101562 2.789062 -0.703125 2.5 -0.421875 C 2.207031 -0.140625 1.785156 0 1.234375 0 Z M 0.90625 -2.703125 L 0.90625 -0.546875 L 1.234375 -0.546875 C 1.441406 -0.546875 1.628906 -0.578125 1.796875 -0.640625 C 1.960938 -0.710938 2.09375 -0.828125 2.1875 -0.984375 C 2.28125 -1.140625 2.328125 -1.351562 2.328125 -1.625 C 2.328125 -1.875 2.28125 -2.078125 2.1875 -2.234375 C 2.09375 -2.398438 1.960938 -2.519531 1.796875 -2.59375 C 1.640625 -2.664062 1.453125 -2.703125 1.234375 -2.703125 Z M 0.90625 -2.703125 "/></g></g></g><g fill="#04ce78" fill-opacity="1"><g transform="translate(46.781312, 40.98619)"><g><path d="M 0.90625 0 L 0.296875 0 L 0.296875 -3.25 L 0.90625 -3.25 Z M 0.90625 0 "/></g></g></g><g fill="#04ce78" fill-opacity="1"><g transform="translate(48.409581, 40.98619)"><g><path d="M 1.75 0.0625 C 1.476562 0.0625 1.242188 0.015625 1.046875 -0.078125 C 0.847656 -0.171875 0.679688 -0.296875 0.546875 -0.453125 C 0.421875 -0.609375 0.328125 -0.785156 0.265625 -0.984375 C 0.203125 -1.191406 0.171875 -1.40625 0.171875 -1.625 C 0.171875 -1.851562 0.203125 -2.066406 0.265625 -2.265625 C 0.328125 -2.472656 0.421875 -2.65625 0.546875 -2.8125 C 0.679688 -2.96875 0.847656 -3.085938 1.046875 -3.171875 C 1.242188 -3.265625 1.476562 -3.3125 1.75 -3.3125 C 2.007812 -3.3125 2.238281 -3.265625 2.4375 -3.171875 C 2.632812 -3.085938 2.789062 -2.960938 2.90625 -2.796875 C 3.019531 -2.640625 3.09375 -2.453125 3.125 -2.234375 L 2.453125 -2.234375 C 2.429688 -2.410156 2.351562 -2.539062 2.21875 -2.625 C 2.082031 -2.71875 1.921875 -2.765625 1.734375 -2.765625 C 1.523438 -2.765625 1.351562 -2.71875 1.21875 -2.625 C 1.082031 -2.53125 0.976562 -2.394531 0.90625 -2.21875 C 0.84375 -2.050781 0.8125 -1.851562 0.8125 -1.625 C 0.8125 -1.40625 0.84375 -1.207031 0.90625 -1.03125 C 0.976562 -0.863281 1.082031 -0.726562 1.21875 -0.625 C 1.351562 -0.53125 1.523438 -0.484375 1.734375 -0.484375 C 1.921875 -0.484375 2.078125 -0.53125 2.203125 -0.625 C 2.335938 -0.71875 2.421875 -0.863281 2.453125 -1.0625 L 3.125 -1.0625 C 3.09375 -0.832031 3.019531 -0.632812 2.90625 -0.46875 C 2.789062 -0.300781 2.632812 -0.171875 2.4375 -0.078125 C 2.238281 0.015625 2.007812 0.0625 1.75 0.0625 Z M 1.75 0.0625 "/></g></g></g><g fill="#04ce78" fill-opacity="1"><g transform="translate(52.113135, 40.98619)"><g><path d="M 0.671875 0 L 0.03125 0 L 1.171875 -3.25 L 1.84375 -3.25 L 3 0 L 2.359375 0 L 2.125 -0.671875 L 0.890625 -0.671875 Z M 1.515625 -2.578125 L 1.0625 -1.203125 L 1.96875 -1.203125 Z M 1.515625 -2.578125 "/></g></g></g><g fill="#04ce78" fill-opacity="1"><g transform="translate(55.573792, 40.98619)"><g><path d="M 2.28125 0 L 0.296875 0 L 0.296875 -3.25 L 0.90625 -3.25 L 0.90625 -0.546875 L 2.28125 -0.546875 Z M 2.28125 0 "/></g></g></g><g fill="#04ce78" fill-opacity="1"><g transform="translate(58.335587, 40.98619)"><g/></g></g><g fill="#04ce78" fill-opacity="1"><g transform="translate(59.912722, 40.98619)"><g><path d="M 1.640625 0 L 0.296875 0 L 0.296875 -3.25 L 1.578125 -3.25 C 1.972656 -3.25 2.257812 -3.160156 2.4375 -2.984375 C 2.570312 -2.859375 2.640625 -2.675781 2.640625 -2.4375 C 2.640625 -2.25 2.597656 -2.085938 2.515625 -1.953125 C 2.429688 -1.828125 2.3125 -1.742188 2.15625 -1.703125 C 2.363281 -1.671875 2.523438 -1.585938 2.640625 -1.453125 C 2.753906 -1.328125 2.8125 -1.160156 2.8125 -0.953125 C 2.8125 -0.796875 2.78125 -0.65625 2.71875 -0.53125 C 2.664062 -0.414062 2.597656 -0.320312 2.515625 -0.25 C 2.421875 -0.175781 2.316406 -0.117188 2.203125 -0.078125 C 2.085938 -0.046875 1.976562 -0.0234375 1.875 -0.015625 C 1.78125 -0.00390625 1.703125 0 1.640625 0 Z M 0.90625 -2.703125 L 0.90625 -1.90625 L 1.546875 -1.90625 C 1.703125 -1.90625 1.816406 -1.9375 1.890625 -2 C 1.972656 -2.070312 2.015625 -2.175781 2.015625 -2.3125 C 2.015625 -2.4375 1.976562 -2.53125 1.90625 -2.59375 C 1.820312 -2.664062 1.664062 -2.703125 1.4375 -2.703125 Z M 0.90625 -1.40625 L 0.90625 -0.546875 L 1.5625 -0.546875 C 1.644531 -0.546875 1.734375 -0.550781 1.828125 -0.5625 C 1.921875 -0.582031 2 -0.617188 2.0625 -0.671875 C 2.101562 -0.703125 2.132812 -0.742188 2.15625 -0.796875 C 2.175781 -0.847656 2.1875 -0.914062 2.1875 -1 C 2.1875 -1.125 2.15625 -1.210938 2.09375 -1.265625 C 2.039062 -1.328125 1.96875 -1.363281 1.875 -1.375 C 1.789062 -1.394531 1.707031 -1.40625 1.625 -1.40625 Z M 0.90625 -1.40625 "/></g></g></g><g fill="#04ce78" fill-opacity="1"><g transform="translate(63.322245, 40.98619)"><g><path d="M 0.90625 0 L 0.296875 0 L 0.296875 -3.25 L 0.90625 -3.25 Z M 0.90625 0 "/></g></g></g><g fill="#04ce78" fill-opacity="1"><g transform="translate(64.950515, 40.98619)"><g><path d="M 2.28125 0 L 0.296875 0 L 0.296875 -3.25 L 0.90625 -3.25 L 0.90625 -0.546875 L 2.28125 -0.546875 Z M 2.28125 0 "/></g></g></g><g fill="#04ce78" fill-opacity="1"><g transform="translate(67.712313, 40.98619)"><g><path d="M 2.28125 0 L 0.296875 0 L 0.296875 -3.25 L 0.90625 -3.25 L 0.90625 -0.546875 L 2.28125 -0.546875 Z M 2.28125 0 "/></g></g></g><g fill="#04ce78" fill-opacity="1"><g transform="translate(70.47411, 40.98619)"><g><path d="M 0.90625 0 L 0.296875 0 L 0.296875 -3.25 L 0.90625 -3.25 Z M 0.90625 0 "/></g></g></g><g fill="#04ce78" fill-opacity="1"><g transform="translate(72.102381, 40.98619)"><g><path d="M 0.90625 0 L 0.296875 0 L 0.296875 -3.25 L 0.984375 -3.25 L 2.3125 -0.921875 L 2.3125 -3.25 L 2.9375 -3.25 L 2.9375 0 L 2.234375 0 L 0.90625 -2.328125 Z M 0.90625 0 "/></g></g></g><g fill="#04ce78" fill-opacity="1"><g transform="translate(75.7548, 40.98619)"><g><path d="M 1.75 0.0625 C 1.476562 0.0625 1.242188 0.015625 1.046875 -0.078125 C 0.847656 -0.171875 0.679688 -0.296875 0.546875 -0.453125 C 0.421875 -0.609375 0.328125 -0.785156 0.265625 -0.984375 C 0.203125 -1.191406 0.171875 -1.40625 0.171875 -1.625 C 0.171875 -1.851562 0.203125 -2.066406 0.265625 -2.265625 C 0.328125 -2.460938 0.421875 -2.640625 0.546875 -2.796875 C 0.679688 -2.960938 0.847656 -3.085938 1.046875 -3.171875 C 1.242188 -3.265625 1.476562 -3.3125 1.75 -3.3125 C 2.175781 -3.3125 2.507812 -3.210938 2.75 -3.015625 C 3 -2.816406 3.160156 -2.554688 3.234375 -2.234375 L 2.5625 -2.234375 C 2.5 -2.398438 2.398438 -2.53125 2.265625 -2.625 C 2.140625 -2.71875 1.96875 -2.765625 1.75 -2.765625 C 1.539062 -2.765625 1.363281 -2.710938 1.21875 -2.609375 C 1.082031 -2.515625 0.976562 -2.378906 0.90625 -2.203125 C 0.84375 -2.035156 0.8125 -1.847656 0.8125 -1.640625 C 0.8125 -1.421875 0.847656 -1.222656 0.921875 -1.046875 C 0.992188 -0.878906 1.101562 -0.742188 1.25 -0.640625 C 1.394531 -0.535156 1.578125 -0.484375 1.796875 -0.484375 C 2.054688 -0.484375 2.257812 -0.546875 2.40625 -0.671875 C 2.5625 -0.804688 2.644531 -1.003906 2.65625 -1.265625 L 1.921875 -1.265625 L 1.921875 -1.765625 L 3.265625 -1.765625 L 3.265625 0 L 2.703125 0 L 2.703125 -0.359375 C 2.585938 -0.203125 2.441406 -0.09375 2.265625 -0.03125 C 2.097656 0.03125 1.925781 0.0625 1.75 0.0625 Z M 1.75 0.0625 "/></g></g></g><g fill="#04ce78" fill-opacity="1"><g transform="translate(79.679946, 40.98619)"><g/></g></g><g fill="#04ce78" fill-opacity="1"><g transform="translate(81.257081, 40.98619)"><g><path d="M 1.578125 0.0625 C 1.421875 0.0625 1.257812 0.0390625 1.09375 0 C 0.9375 -0.0390625 0.789062 -0.101562 0.65625 -0.1875 C 0.519531 -0.269531 0.40625 -0.382812 0.3125 -0.53125 C 0.21875 -0.675781 0.164062 -0.851562 0.15625 -1.0625 L 0.78125 -1.0625 C 0.820312 -0.90625 0.882812 -0.78125 0.96875 -0.6875 C 1.050781 -0.601562 1.144531 -0.546875 1.25 -0.515625 C 1.363281 -0.484375 1.476562 -0.46875 1.59375 -0.46875 C 1.757812 -0.46875 1.898438 -0.5 2.015625 -0.5625 C 2.128906 -0.632812 2.1875 -0.75 2.1875 -0.90625 C 2.1875 -1.019531 2.144531 -1.109375 2.0625 -1.171875 C 1.988281 -1.234375 1.894531 -1.28125 1.78125 -1.3125 C 1.664062 -1.351562 1.535156 -1.390625 1.390625 -1.421875 C 1.253906 -1.453125 1.117188 -1.484375 0.984375 -1.515625 C 0.859375 -1.554688 0.738281 -1.609375 0.625 -1.671875 C 0.507812 -1.742188 0.414062 -1.832031 0.34375 -1.9375 C 0.28125 -2.050781 0.25 -2.191406 0.25 -2.359375 C 0.25 -2.566406 0.300781 -2.738281 0.40625 -2.875 C 0.507812 -3.019531 0.644531 -3.128906 0.8125 -3.203125 C 0.988281 -3.273438 1.1875 -3.3125 1.40625 -3.3125 C 1.613281 -3.3125 1.8125 -3.273438 2 -3.203125 C 2.1875 -3.128906 2.34375 -3.015625 2.46875 -2.859375 C 2.59375 -2.710938 2.675781 -2.519531 2.71875 -2.28125 L 2.078125 -2.28125 C 2.046875 -2.457031 1.960938 -2.585938 1.828125 -2.671875 C 1.703125 -2.753906 1.554688 -2.796875 1.390625 -2.796875 C 1.242188 -2.796875 1.117188 -2.757812 1.015625 -2.6875 C 0.910156 -2.625 0.859375 -2.53125 0.859375 -2.40625 C 0.859375 -2.3125 0.894531 -2.234375 0.96875 -2.171875 C 1.039062 -2.117188 1.132812 -2.070312 1.25 -2.03125 C 1.363281 -2 1.484375 -1.96875 1.609375 -1.9375 C 1.742188 -1.914062 1.878906 -1.882812 2.015625 -1.84375 C 2.160156 -1.800781 2.289062 -1.742188 2.40625 -1.671875 C 2.519531 -1.597656 2.613281 -1.503906 2.6875 -1.390625 C 2.757812 -1.273438 2.796875 -1.125 2.796875 -0.9375 C 2.796875 -0.632812 2.6875 -0.390625 2.46875 -0.203125 C 2.257812 -0.0234375 1.960938 0.0625 1.578125 0.0625 Z M 1.578125 0.0625 "/></g></g></g><g fill="#04ce78" fill-opacity="1"><g transform="translate(84.658082, 40.98619)"><g><path d="M 2.46875 0 L 0.296875 0 L 0.296875 -3.25 L 2.46875 -3.25 L 2.46875 -2.703125 L 0.90625 -2.703125 L 0.90625 -1.90625 L 2.296875 -1.90625 L 2.296875 -1.359375 L 0.90625 -1.359375 L 0.90625 -0.546875 L 2.46875 -0.546875 Z M 2.46875 0 "/></g></g></g><g fill="#04ce78" fill-opacity="1"><g transform="translate(87.739478, 40.98619)"><g><path d="M 2.21875 -1.40625 L 2.796875 0 L 2.140625 0 L 1.625 -1.296875 L 0.90625 -1.296875 L 0.90625 0 L 0.296875 0 L 0.296875 -3.25 L 1.6875 -3.25 C 1.894531 -3.25 2.078125 -3.210938 2.234375 -3.140625 C 2.390625 -3.078125 2.507812 -2.972656 2.59375 -2.828125 C 2.675781 -2.691406 2.71875 -2.515625 2.71875 -2.296875 C 2.71875 -2.078125 2.671875 -1.890625 2.578125 -1.734375 C 2.492188 -1.585938 2.375 -1.476562 2.21875 -1.40625 Z M 1.609375 -2.703125 L 0.90625 -2.703125 L 0.90625 -1.84375 L 1.609375 -1.84375 C 1.773438 -1.84375 1.898438 -1.878906 1.984375 -1.953125 C 2.066406 -2.023438 2.109375 -2.132812 2.109375 -2.28125 C 2.109375 -2.414062 2.0625 -2.519531 1.96875 -2.59375 C 1.882812 -2.664062 1.765625 -2.703125 1.609375 -2.703125 Z M 1.609375 -2.703125 "/></g></g></g><g fill="#04ce78" fill-opacity="1"><g transform="translate(91.110648, 40.98619)"><g><path d="M 1.828125 0 L 1.15625 0 L 0.015625 -3.25 L 0.65625 -3.25 L 1.5 -0.671875 L 2.34375 -3.25 L 2.984375 -3.25 Z M 1.828125 0 "/></g></g></g><g fill="#04ce78" fill-opacity="1"><g transform="translate(94.537216, 40.98619)"><g><path d="M 0.90625 0 L 0.296875 0 L 0.296875 -3.25 L 0.90625 -3.25 Z M 0.90625 0 "/></g></g></g><g fill="#04ce78" fill-opacity="1"><g transform="translate(96.165486, 40.98619)"><g><path d="M 1.75 0.0625 C 1.476562 0.0625 1.242188 0.015625 1.046875 -0.078125 C 0.847656 -0.171875 0.679688 -0.296875 0.546875 -0.453125 C 0.421875 -0.609375 0.328125 -0.785156 0.265625 -0.984375 C 0.203125 -1.191406 0.171875 -1.40625 0.171875 -1.625 C 0.171875 -1.851562 0.203125 -2.066406 0.265625 -2.265625 C 0.328125 -2.472656 0.421875 -2.65625 0.546875 -2.8125 C 0.679688 -2.96875 0.847656 -3.085938 1.046875 -3.171875 C 1.242188 -3.265625 1.476562 -3.3125 1.75 -3.3125 C 2.007812 -3.3125 2.238281 -3.265625 2.4375 -3.171875 C 2.632812 -3.085938 2.789062 -2.960938 2.90625 -2.796875 C 3.019531 -2.640625 3.09375 -2.453125 3.125 -2.234375 L 2.453125 -2.234375 C 2.429688 -2.410156 2.351562 -2.539062 2.21875 -2.625 C 2.082031 -2.71875 1.921875 -2.765625 1.734375 -2.765625 C 1.523438 -2.765625 1.351562 -2.71875 1.21875 -2.625 C 1.082031 -2.53125 0.976562 -2.394531 0.90625 -2.21875 C 0.84375 -2.050781 0.8125 -1.851562 0.8125 -1.625 C 0.8125 -1.40625 0.84375 -1.207031 0.90625 -1.03125 C 0.976562 -0.863281 1.082031 -0.726562 1.21875 -0.625 C 1.351562 -0.53125 1.523438 -0.484375 1.734375 -0.484375 C 1.921875 -0.484375 2.078125 -0.53125 2.203125 -0.625 C 2.335938 -0.71875 2.421875 -0.863281 2.453125 -1.0625 L 3.125 -1.0625 C 3.09375 -0.832031 3.019531 -0.632812 2.90625 -0.46875 C 2.789062 -0.300781 2.632812 -0.171875 2.4375 -0.078125 C 2.238281 0.015625 2.007812 0.0625 1.75 0.0625 Z M 1.75 0.0625 "/></g></g></g><g fill="#04ce78" fill-opacity="1"><g transform="translate(99.869041, 40.98619)"><g><path d="M 2.46875 0 L 0.296875 0 L 0.296875 -3.25 L 2.46875 -3.25 L 2.46875 -2.703125 L 0.90625 -2.703125 L 0.90625 -1.90625 L 2.296875 -1.90625 L 2.296875 -1.359375 L 0.90625 -1.359375 L 0.90625 -0.546875 L 2.46875 -0.546875 Z M 2.46875 0 "/></g></g></g><g fill="#04ce78" fill-opacity="1"><g transform="translate(102.950437, 40.98619)"><g><path d="M 1.578125 0.0625 C 1.421875 0.0625 1.257812 0.0390625 1.09375 0 C 0.9375 -0.0390625 0.789062 -0.101562 0.65625 -0.1875 C 0.519531 -0.269531 0.40625 -0.382812 0.3125 -0.53125 C 0.21875 -0.675781 0.164062 -0.851562 0.15625 -1.0625 L 0.78125 -1.0625 C 0.820312 -0.90625 0.882812 -0.78125 0.96875 -0.6875 C 1.050781 -0.601562 1.144531 -0.546875 1.25 -0.515625 C 1.363281 -0.484375 1.476562 -0.46875 1.59375 -0.46875 C 1.757812 -0.46875 1.898438 -0.5 2.015625 -0.5625 C 2.128906 -0.632812 2.1875 -0.75 2.1875 -0.90625 C 2.1875 -1.019531 2.144531 -1.109375 2.0625 -1.171875 C 1.988281 -1.234375 1.894531 -1.28125 1.78125 -1.3125 C 1.664062 -1.351562 1.535156 -1.390625 1.390625 -1.421875 C 1.253906 -1.453125 1.117188 -1.484375 0.984375 -1.515625 C 0.859375 -1.554688 0.738281 -1.609375 0.625 -1.671875 C 0.507812 -1.742188 0.414062 -1.832031 0.34375 -1.9375 C 0.28125 -2.050781 0.25 -2.191406 0.25 -2.359375 C 0.25 -2.566406 0.300781 -2.738281 0.40625 -2.875 C 0.507812 -3.019531 0.644531 -3.128906 0.8125 -3.203125 C 0.988281 -3.273438 1.1875 -3.3125 1.40625 -3.3125 C 1.613281 -3.3125 1.8125 -3.273438 2 -3.203125 C 2.1875 -3.128906 2.34375 -3.015625 2.46875 -2.859375 C 2.59375 -2.710938 2.675781 -2.519531 2.71875 -2.28125 L 2.078125 -2.28125 C 2.046875 -2.457031 1.960938 -2.585938 1.828125 -2.671875 C 1.703125 -2.753906 1.554688 -2.796875 1.390625 -2.796875 C 1.242188 -2.796875 1.117188 -2.757812 1.015625 -2.6875 C 0.910156 -2.625 0.859375 -2.53125 0.859375 -2.40625 C 0.859375 -2.3125 0.894531 -2.234375 0.96875 -2.171875 C 1.039062 -2.117188 1.132812 -2.070312 1.25 -2.03125 C 1.363281 -2 1.484375 -1.96875 1.609375 -1.9375 C 1.742188 -1.914062 1.878906 -1.882812 2.015625 -1.84375 C 2.160156 -1.800781 2.289062 -1.742188 2.40625 -1.671875 C 2.519531 -1.597656 2.613281 -1.503906 2.6875 -1.390625 C 2.757812 -1.273438 2.796875 -1.125 2.796875 -0.9375 C 2.796875 -0.632812 2.6875 -0.390625 2.46875 -0.203125 C 2.257812 -0.0234375 1.960938 0.0625 1.578125 0.0625 Z M 1.578125 0.0625 "/></g></g></g></svg>