<svg width="70" height="70" viewBox="0 0 70 70" fill="none" xmlns="http://www.w3.org/2000/svg">
<mask id="mask0_6_7381" style="mask-type:luminance" maskUnits="userSpaceOnUse" x="5" y="6" width="60" height="57">
<path d="M5 6H64.2388V63H5V6Z" fill="white"/>
</mask>
<g mask="url(#mask0_6_7381)">
<path d="M24.6611 17.9145L26.0837 16.1636L28.6007 18.3522L26.0837 20.322L24.6611 17.9145Z" fill="#04CE78"/>
<path d="M49.9398 12.0051L51.3624 10.2542L53.8793 12.4428L51.3624 14.4125L49.9398 12.0051Z" fill="#04CE78"/>
<path d="M54.9736 17.4765L56.3962 15.7256L58.9132 17.9142L56.3962 19.884L54.9736 17.4765Z" fill="#1F5FFF"/>
<path d="M59.7886 13.3183L61.2112 11.5674L63.7281 13.756L61.2112 15.7258L59.7886 13.3183Z" fill="#04CE78"/>
<path d="M18.2047 26.0124L19.6273 24.2615L22.1442 26.4501L19.6273 28.4199L18.2047 26.0124Z" fill="#1F5FFF"/>
<path d="M17.3293 57.5284L13.6086 43.7401L23.0197 41.2231L35.7138 46.257L37.5741 49.5399L53.4416 44.2872L55.6302 46.5853L55.3019 49.2116L37.2458 59.0604L32.1025 60.9208L20.0651 56.7624L17.3293 57.5284Z" fill="#B36B60" fill-opacity="0.23"/>
<path d="M11.42 62.1247L5.94849 43.6308L12.5144 41.8799L17.7671 60.3738L11.42 62.1247Z" fill="#04CE78"/>
<path d="M52.4238 43.7128C52.4101 43.7174 52.3964 43.722 52.3828 43.7265L38.0495 48.7718C37.768 47.3947 36.9587 45.9949 35.5315 45.3589L25.848 41.0284C23.4884 39.9739 21.4548 40.3866 19.7757 40.9292L13.7729 42.8739L13.4936 41.9186C13.4606 41.8046 13.4161 41.6952 13.3614 41.5892C13.3067 41.4843 13.2417 41.3852 13.1676 41.2928C13.0924 41.2005 13.0103 41.1161 12.9191 41.0398C12.8279 40.9634 12.7299 40.8961 12.6262 40.8391C12.5224 40.7821 12.413 40.7365 12.3001 40.7001C12.1862 40.6647 12.071 40.6408 11.9525 40.6283C11.8351 40.6146 11.7165 40.6134 11.598 40.6248C11.4806 40.6351 11.3643 40.6567 11.2503 40.6898L6.52879 42.0725C6.4148 42.1056 6.30537 42.15 6.2005 42.2047C6.09448 42.2606 5.99645 42.3244 5.90412 42.3997C5.81065 42.4738 5.72629 42.557 5.64992 42.6482C5.57469 42.7382 5.50743 42.8363 5.45044 42.94C5.39344 43.0449 5.3467 43.1531 5.31137 43.2671C5.27489 43.38 5.25095 43.4951 5.23727 43.6137C5.22473 43.7322 5.22359 43.8496 5.23385 43.9682C5.24411 44.0867 5.26463 44.203 5.29769 44.317L10.3532 61.6094C10.3862 61.7234 10.4307 61.834 10.4854 61.9388C10.5401 62.0449 10.6051 62.144 10.6792 62.2364C10.7533 62.3287 10.8365 62.413 10.9277 62.4894C11.0189 62.5658 11.1158 62.6331 11.2207 62.69C11.3244 62.747 11.4327 62.7938 11.5467 62.8303C11.6595 62.8656 11.7758 62.8895 11.8932 62.9032C12.0118 62.9157 12.1292 62.9169 12.2477 62.9066C12.3663 62.8964 12.4825 62.8747 12.5965 62.8417L17.3249 61.4578C17.4389 61.4247 17.5483 61.3803 17.6532 61.3244C17.758 61.2697 17.8561 61.2047 17.9484 61.1306C18.0407 61.0554 18.1251 60.9733 18.2003 60.8822C18.2767 60.791 18.3428 60.6929 18.3998 60.5892C18.4568 60.4855 18.5024 60.3772 18.5377 60.2632C18.5731 60.1503 18.597 60.0352 18.6107 59.9166C18.6232 59.7992 18.6244 59.6807 18.6141 59.5633C18.6038 59.4447 18.5822 59.3285 18.548 59.2156L18.1752 57.9389L19.9957 57.4601L28.3227 60.5083C29.572 60.9654 30.8727 61.3803 32.2018 61.3803C33.1206 61.386 33.9892 61.1797 34.8076 60.7602L53.3414 51.2818C53.3483 51.2796 53.354 51.2761 53.3597 51.2727C53.5261 51.1827 53.6994 51.0938 53.8829 50.9991C55.2929 50.2787 57.4246 49.1901 56.5696 46.2697C56.0099 44.3546 54.1496 43.209 52.4238 43.7128ZM16.9875 59.8163C16.9612 59.8642 16.9225 59.8973 16.8712 59.9132L12.1474 61.2948C12.095 61.3096 12.0437 61.3028 11.9958 61.2766C11.9479 61.2503 11.916 61.2116 11.9 61.1591L6.84454 43.8667C6.82973 43.8132 6.83543 43.763 6.86278 43.7151C6.88786 43.6672 6.92662 43.6353 6.97791 43.6194H6.98019L11.7051 42.2355C11.7222 42.231 11.7393 42.2287 11.7576 42.2287C11.7917 42.2287 11.8237 42.2367 11.8533 42.2526C11.9012 42.2788 11.9331 42.3176 11.9479 42.3689L17.0046 59.6704C17.0194 59.7217 17.0137 59.7696 16.9875 59.8163ZM53.1522 49.564C52.971 49.6575 52.7829 49.7532 52.6005 49.8524L34.077 59.325C32.5677 60.0933 31.0847 59.8015 28.8756 58.9945L20.3126 55.8609C20.1541 55.8027 19.9945 55.7947 19.8315 55.8369L17.7238 56.3909L14.2243 44.4196L20.2704 42.4612C22.263 41.8172 23.689 41.8286 25.1914 42.4988L34.8749 46.8294C35.8598 47.2682 36.5506 48.5187 36.5528 49.8695C36.5528 49.8741 36.554 49.8775 36.554 49.8809C36.554 49.8843 36.5528 49.8877 36.5528 49.8923C36.5528 50.2821 36.4845 50.6594 36.3477 51.0242C35.7116 52.7044 34.0667 52.7649 32.8504 52.3066L26.3324 49.8592C26.2321 49.8228 26.1284 49.8057 26.0224 49.8091C25.9152 49.8125 25.8138 49.8364 25.7157 49.8809C25.6188 49.9242 25.5333 49.9858 25.4615 50.0644C25.3886 50.1419 25.3327 50.2308 25.2951 50.3312C25.2575 50.4315 25.2404 50.5341 25.245 50.6412C25.2484 50.7484 25.2723 50.8498 25.3156 50.9467C25.3601 51.0447 25.4216 51.1291 25.4992 51.202C25.5778 51.275 25.6667 51.3309 25.7659 51.3685L32.2839 53.8159C32.8789 54.0461 33.4968 54.1647 34.1351 54.1704C35.8153 54.1704 37.23 53.2425 37.8535 51.5976C37.9937 51.2271 38.0849 50.8453 38.1293 50.452L52.8934 45.254C53.7495 45.018 54.7219 45.686 55.0251 46.7222C55.4833 48.2896 54.6979 48.774 53.1522 49.564ZM35.5007 21.3775C33.4147 21.6944 31.5418 22.6918 30.0223 24.3116C28.3318 26.1115 27.1714 28.6193 26.7553 31.3745L26.3142 34.2892C26.2606 34.6141 26.2435 34.9401 26.2629 35.2684C26.2823 35.5967 26.337 35.9181 26.4282 36.235C26.5194 36.5508 26.6436 36.8529 26.8021 37.1413C26.9594 37.4285 27.1475 37.6964 27.3652 37.9426C29.4592 40.3775 37.0909 40.5678 39.3912 40.5678H39.3981C41.0874 40.5678 49.6265 40.4402 51.774 37.9438C51.9918 37.6975 52.1799 37.4297 52.3372 37.1413C52.4956 36.854 52.621 36.5519 52.7122 36.235C52.8022 35.9193 52.8581 35.5978 52.8763 35.2695C52.8957 34.9412 52.8786 34.6141 52.825 34.2904L52.385 31.3745C51.969 28.6193 50.8085 26.1115 49.1181 24.3116C47.5974 22.6929 45.7246 21.6944 43.6397 21.3775C44.0033 21.0754 44.335 20.7425 44.6348 20.3778C46.0768 18.6257 46.8382 16.1578 46.8382 13.2397C46.8382 13.0014 46.8268 12.7643 46.8029 12.5272C46.779 12.2901 46.7448 12.0553 46.698 11.8216C46.6513 11.5879 46.5932 11.3577 46.5248 11.1297C46.4552 10.9017 46.3754 10.6783 46.2842 10.4583C46.1931 10.2383 46.0916 10.0228 45.9788 9.81309C45.867 9.60335 45.7439 9.3993 45.6117 9.20096C45.4795 9.00262 45.3381 8.81225 45.1877 8.62759C45.036 8.44406 44.8765 8.26738 44.7078 8.09981C44.5402 7.9311 44.3635 7.77152 44.18 7.61991C43.9953 7.46944 43.8049 7.32809 43.6066 7.19586C43.4094 7.06363 43.2054 6.94052 42.9956 6.82881C42.7859 6.7171 42.5704 6.61451 42.3504 6.52331C42.1304 6.43326 41.907 6.35233 41.679 6.28393C41.451 6.2144 41.2208 6.15626 40.9871 6.11067C40.7546 6.06393 40.5186 6.02859 40.2826 6.0058C40.0455 5.98186 39.8084 5.97046 39.5702 5.97046C39.3319 5.97046 39.0948 5.98186 38.8577 6.0058C38.6206 6.02859 38.3858 6.06393 38.1521 6.11067C37.9185 6.15626 37.6882 6.2144 37.4602 6.28393C37.2334 6.35233 37.0088 6.43326 36.7888 6.52331C36.5699 6.61451 36.3545 6.7171 36.1448 6.82881C35.935 6.94052 35.731 7.06363 35.5326 7.19586C35.3354 7.32809 35.1439 7.46944 34.9604 7.61991C34.7757 7.77152 34.6002 7.9311 34.4315 8.09981C34.2639 8.26738 34.1043 8.44406 33.9527 8.62759C33.8022 8.81225 33.6598 9.00262 33.5275 9.20096C33.3953 9.3993 33.2733 9.60335 33.1605 9.81309C33.0488 10.0228 32.9473 10.2383 32.8561 10.4583C32.7649 10.6783 32.6851 10.9017 32.6156 11.1297C32.5461 11.3577 32.4879 11.5879 32.4423 11.8216C32.3956 12.0553 32.3603 12.2901 32.3375 12.5272C32.3135 12.7643 32.3021 13.0014 32.3021 13.2397C32.3021 16.1578 33.0636 18.6257 34.5056 20.3778C34.8054 20.7425 35.1359 21.0765 35.4996 21.3786L35.5007 21.3775ZM50.7926 31.6161L51.2326 34.532C51.3055 34.9561 51.2827 35.3755 51.1631 35.7893C51.0445 36.2031 50.8416 36.5702 50.5543 36.8916L50.5532 36.8928C49.6721 37.9175 45.557 38.956 39.3969 38.9571H39.3889C34.0735 38.9571 29.6313 38.1079 28.5849 36.8916C28.2976 36.5702 28.0947 36.2031 27.975 35.7893C27.8553 35.3755 27.8325 34.9561 27.9055 34.5309L28.3466 31.6161C29.0032 27.2674 31.9248 22.8799 36.9701 22.8799H42.1692C47.2144 22.8799 50.1349 27.2674 50.7926 31.6161ZM39.569 7.57887C39.7549 7.57887 39.9395 7.58799 40.1242 7.60623C40.3077 7.62447 40.4912 7.65182 40.6725 7.6883C40.8549 7.72478 41.0338 7.76924 41.2105 7.82395C41.3883 7.87753 41.5627 7.94022 41.7337 8.0109C41.9047 8.08271 42.0723 8.16136 42.2353 8.24914C42.3983 8.33577 42.5567 8.43152 42.7118 8.53411C42.8657 8.63785 43.0139 8.74842 43.1575 8.86583C43.3 8.98324 43.4379 9.10749 43.5678 9.23858C43.6989 9.36967 43.8232 9.50646 43.9417 9.65008C44.0591 9.79371 44.1686 9.9419 44.2723 10.0958C44.3749 10.2497 44.4707 10.4093 44.5573 10.5723C44.6451 10.7364 44.7237 10.9028 44.7955 11.0738C44.8662 11.246 44.9289 11.4204 44.9825 11.597C45.036 11.7749 45.0816 11.9538 45.1181 12.1362C45.1546 12.3175 45.182 12.501 45.2002 12.6857C45.2184 12.8692 45.2276 13.055 45.2276 13.2397C45.2276 18.7557 42.2946 21.268 39.569 21.268C36.8447 21.268 33.9117 18.7557 33.9117 13.2397C33.9117 13.055 33.9208 12.8692 33.939 12.6857C33.9573 12.501 33.9846 12.3175 34.0211 12.1362C34.0576 11.9538 34.102 11.7749 34.1568 11.597C34.2103 11.4204 34.273 11.246 34.3437 11.075C34.4144 10.9028 34.4942 10.7364 34.5819 10.5723C34.6686 10.4093 34.7643 10.2508 34.8669 10.0958C34.9695 9.9419 35.0801 9.79371 35.1975 9.65008C35.3149 9.50646 35.4392 9.36967 35.5702 9.23858C35.7013 9.10749 35.8381 8.98324 35.9818 8.86583C36.1254 8.74842 36.2736 8.63785 36.4275 8.53411C36.5813 8.43152 36.7398 8.33691 36.9039 8.24914C37.0669 8.16136 37.2345 8.08271 37.4055 8.0109C37.5765 7.94022 37.7509 7.87753 37.9276 7.82395C38.1054 7.77038 38.2844 7.72478 38.4656 7.6883C38.648 7.65182 38.8304 7.62447 39.015 7.60623C39.1997 7.58799 39.3844 7.57887 39.569 7.57887ZM10.7225 44.7844C10.7487 44.8881 10.7556 44.9941 10.7408 45.1001C10.7259 45.2073 10.6906 45.3064 10.6359 45.3988C10.5812 45.4922 10.5105 45.5698 10.4239 45.6347C10.3384 45.6986 10.2426 45.7442 10.1389 45.7704C10.034 45.7966 9.92914 45.8012 9.82199 45.7852C9.71597 45.7692 9.6168 45.7328 9.52561 45.6769C9.43328 45.6211 9.35576 45.5492 9.29193 45.4626C9.22923 45.376 9.18478 45.2802 9.1597 45.1753L9.15628 45.1617C9.1312 45.0579 9.1255 44.9542 9.14146 44.8482C9.15742 44.7422 9.19276 44.643 9.24747 44.5518C9.30219 44.4606 9.37286 44.3831 9.45836 44.3193C9.54385 44.2554 9.63846 44.211 9.74219 44.1848C9.84592 44.1585 9.9508 44.154 10.0568 44.1699C10.1617 44.1848 10.2609 44.2201 10.352 44.276C10.4432 44.3307 10.5208 44.4013 10.5846 44.4868C10.6484 44.5735 10.6929 44.6681 10.7191 44.7718L10.7225 44.7844ZM50.7379 14.9575V21.9269C50.739 22.0329 50.7595 22.1344 50.8017 22.2324C50.8427 22.3293 50.9009 22.4159 50.9761 22.49C51.0513 22.5641 51.138 22.6222 51.236 22.6621C51.334 22.702 51.4366 22.7226 51.5426 22.7226C51.6487 22.7226 51.7501 22.702 51.8481 22.6621C51.9462 22.6222 52.0328 22.5641 52.108 22.49C52.1833 22.4159 52.2414 22.3293 52.2836 22.2324C52.3246 22.1344 52.3463 22.0329 52.3474 21.9269V14.9575C52.6028 14.8731 52.8387 14.7512 53.0553 14.5927C53.273 14.4331 53.46 14.2451 53.6173 14.0273C53.7757 13.8085 53.8954 13.5714 53.9786 13.316C54.0607 13.0596 54.1029 12.7974 54.1029 12.5272C54.1029 12.2582 54.0607 11.996 53.9786 11.7395C53.8954 11.4842 53.7757 11.2471 53.6173 11.0282C53.46 10.8105 53.273 10.6224 53.0553 10.4628C52.8387 10.3044 52.6028 10.1824 52.3474 10.0981V8.70396C52.3463 8.59795 52.3246 8.4965 52.2836 8.39846C52.2414 8.30157 52.1833 8.21494 52.108 8.14085C52.0328 8.06675 51.9462 8.00862 51.8481 7.96872C51.7501 7.92882 51.6487 7.9083 51.5426 7.9083C51.4366 7.9083 51.334 7.92882 51.236 7.96872C51.138 8.00862 51.0513 8.06675 50.9761 8.14085C50.9009 8.21494 50.8427 8.30157 50.8017 8.39846C50.7595 8.4965 50.739 8.59795 50.7379 8.70396V10.0981C50.4814 10.1824 50.2454 10.3044 50.0289 10.4628C49.8123 10.6224 49.6242 10.8105 49.4669 11.0294C49.3096 11.2471 49.1887 11.4842 49.1067 11.7407C49.0234 11.996 48.9824 12.2593 48.9824 12.5284C48.9824 12.7974 49.0234 13.0596 49.1067 13.316C49.1887 13.5714 49.3096 13.8085 49.4669 14.0273C49.6242 14.2451 49.8123 14.4343 50.0289 14.5927C50.2454 14.7523 50.4814 14.8731 50.7379 14.9575ZM51.5426 11.5788C51.668 11.5788 51.7889 11.6027 51.9051 11.6506C52.0214 11.6985 52.124 11.7669 52.2129 11.8558C52.3018 11.9459 52.3714 12.0485 52.4192 12.1647C52.4671 12.281 52.4911 12.4018 52.4911 12.5272C52.4911 12.6537 52.4671 12.7746 52.4192 12.8908C52.3714 13.0071 52.3018 13.1097 52.2129 13.1986C52.124 13.2887 52.0214 13.3571 51.9051 13.4049C51.7889 13.4528 51.668 13.4768 51.5426 13.4768C51.4161 13.4768 51.2953 13.4528 51.179 13.4049C51.0627 13.3571 50.9602 13.2887 50.8712 13.1986C50.7823 13.1097 50.7139 13.0071 50.6661 12.8908C50.617 12.7746 50.5931 12.6537 50.5931 12.5284C50.5942 12.4018 50.6182 12.281 50.6661 12.1647C50.7139 12.0485 50.7823 11.9459 50.8724 11.8569C50.9613 11.768 51.0627 11.6996 51.179 11.6506C51.2953 11.6027 51.4161 11.5788 51.5426 11.5788ZM16.8256 27.3301C16.9772 27.3312 17.1277 27.346 17.277 27.3757C17.4263 27.4053 17.5699 27.4498 17.7102 27.5079C17.8515 27.566 17.9837 27.6367 18.1103 27.7211C18.2368 27.8066 18.3531 27.9023 18.4614 28.0095C18.5685 28.1166 18.6643 28.234 18.7486 28.3605C18.833 28.4871 18.9048 28.6204 18.9629 28.7607C19.0211 28.9009 19.0644 29.0456 19.0951 29.195C19.1248 29.3432 19.1396 29.4936 19.1396 29.6464C19.1396 29.7524 19.1601 29.8561 19.2012 29.9541C19.2411 30.0533 19.3003 30.1399 19.3756 30.2152C19.4508 30.2916 19.5374 30.3497 19.6366 30.3907C19.7346 30.4318 19.8372 30.4511 19.9444 30.4511C20.0515 30.4511 20.1541 30.4318 20.2522 30.3907C20.3513 30.3497 20.438 30.2916 20.5143 30.2152C20.5896 30.1399 20.6477 30.0533 20.6887 29.9541C20.7286 29.8561 20.7492 29.7524 20.7492 29.6464C20.7503 29.4936 20.7651 29.3432 20.7947 29.195C20.8244 29.0456 20.8677 28.9009 20.927 28.7607C20.9851 28.6204 21.0558 28.4871 21.1401 28.3605C21.2245 28.234 21.3202 28.1166 21.4285 28.0095C21.5357 27.9023 21.652 27.8066 21.7785 27.7211C21.905 27.6367 22.0384 27.566 22.1786 27.5079C22.3188 27.4498 22.4636 27.4053 22.6118 27.3757C22.7611 27.346 22.9116 27.3312 23.0632 27.3301C23.1715 27.3324 23.2752 27.3118 23.3744 27.2719C23.4747 27.232 23.5624 27.1739 23.6388 27.0975C23.7152 27.0223 23.7745 26.9345 23.8155 26.8354C23.8577 26.7362 23.8782 26.6324 23.8782 26.5253C23.8782 26.417 23.8577 26.3144 23.8155 26.2141C23.7745 26.1149 23.7152 26.0272 23.6388 25.9519C23.5624 25.8767 23.4747 25.8186 23.3744 25.7775C23.2752 25.7376 23.1715 25.7182 23.0632 25.7194C22.9116 25.7194 22.7611 25.7046 22.6118 25.6749C22.4636 25.6453 22.3188 25.6008 22.1786 25.5427C22.0384 25.4846 21.905 25.4127 21.7785 25.3284C21.652 25.244 21.5357 25.1483 21.4285 25.0411C21.3202 24.9328 21.2245 24.8166 21.1401 24.69C21.0558 24.5635 20.9851 24.4301 20.927 24.2899C20.8677 24.1497 20.8244 24.005 20.7947 23.8556C20.7651 23.7063 20.7503 23.5558 20.7492 23.4042C20.7492 23.2971 20.7286 23.1945 20.6887 23.0953C20.6477 22.9973 20.5896 22.9095 20.5143 22.8343C20.438 22.759 20.3513 22.7009 20.2522 22.6599C20.1541 22.6188 20.0515 22.5983 19.9444 22.5983C19.8372 22.5983 19.7346 22.6188 19.6366 22.6599C19.5374 22.7009 19.4508 22.759 19.3756 22.8343C19.3003 22.9095 19.2411 22.9973 19.2012 23.0953C19.1601 23.1945 19.1396 23.2971 19.1396 23.4042C19.1396 23.5558 19.1248 23.7063 19.094 23.8556C19.0644 24.005 19.0211 24.1497 18.9629 24.2899C18.9048 24.4301 18.833 24.5635 18.7486 24.69C18.6643 24.8166 18.5685 24.9328 18.4614 25.04C18.3531 25.1483 18.2368 25.244 18.1103 25.3284C17.9837 25.4127 17.8515 25.4846 17.7102 25.5427C17.5699 25.6008 17.4263 25.6453 17.277 25.6749C17.1277 25.7046 16.9772 25.7194 16.8256 25.7194C16.7184 25.7182 16.6147 25.7376 16.5144 25.7775C16.4152 25.8186 16.3263 25.8767 16.2499 25.9519C16.1736 26.0272 16.1143 26.1149 16.0732 26.2141C16.0322 26.3144 16.0106 26.417 16.0106 26.5253C16.0106 26.6324 16.0322 26.7362 16.0732 26.8354C16.1143 26.9345 16.1736 27.0223 16.2499 27.0975C16.3263 27.1739 16.4152 27.232 16.5144 27.2719C16.6147 27.3118 16.7184 27.3324 16.8256 27.3301ZM19.9444 25.7844C20.1587 26.0648 20.4049 26.311 20.6842 26.5253C20.4049 26.7396 20.1587 26.9858 19.9444 27.2662C19.7312 26.9858 19.4839 26.7396 19.2046 26.5253C19.4839 26.311 19.7312 26.0648 19.9444 25.7844ZM62.4584 11.0419V8.70396C62.4584 8.59795 62.4379 8.49422 62.398 8.39619C62.357 8.29701 62.2988 8.21038 62.2225 8.13515C62.1472 8.05877 62.0606 8.00064 61.9614 7.9596C61.8634 7.91856 61.7608 7.89918 61.6536 7.89918C61.5465 7.89918 61.4439 7.91856 61.3459 7.9596C61.2467 8.00064 61.1601 8.05877 61.0848 8.13515C61.0084 8.21038 60.9503 8.29701 60.9093 8.39619C60.8694 8.49422 60.8489 8.59795 60.8489 8.70396V11.0419C60.5935 11.1274 60.3576 11.2482 60.1398 11.4078C59.9233 11.5663 59.7363 11.7555 59.5779 11.9732C59.4206 12.1921 59.3009 12.4292 59.2177 12.6845C59.1344 12.941 59.0934 13.2032 59.0934 13.4722C59.0934 13.7412 59.1344 14.0045 59.2177 14.2599C59.3009 14.5164 59.4206 14.7535 59.5779 14.9712C59.7363 15.19 59.9233 15.3781 60.1398 15.5377C60.3576 15.6962 60.5935 15.8181 60.8489 15.9025V21.9269C60.8489 22.0341 60.8694 22.1366 60.9093 22.2358C60.9503 22.3339 61.0084 22.4216 61.0848 22.4969C61.1601 22.5721 61.2467 22.6302 61.3459 22.6713C61.4439 22.7123 61.5465 22.7328 61.6536 22.7328C61.7608 22.7328 61.8634 22.7123 61.9614 22.6713C62.0606 22.6302 62.1472 22.5721 62.2225 22.4969C62.2988 22.4216 62.357 22.3339 62.398 22.2358C62.4379 22.1366 62.4584 22.0341 62.4584 21.9269V15.9025C62.7138 15.8181 62.9497 15.6962 63.1674 15.5366C63.384 15.3781 63.571 15.19 63.7294 14.9712C63.8867 14.7535 64.0064 14.5164 64.0896 14.2599C64.1717 14.0045 64.2139 13.7412 64.2139 13.4722C64.2139 13.2032 64.1717 12.941 64.0896 12.6845C64.0064 12.4292 63.8867 12.1921 63.7294 11.9732C63.571 11.7555 63.384 11.5663 63.1674 11.4078C62.9497 11.2482 62.7138 11.1274 62.4584 11.0419ZM61.6536 14.4217C61.5282 14.4217 61.4063 14.3978 61.29 14.3499C61.1737 14.3021 61.0711 14.2325 60.9822 14.1436C60.8933 14.0547 60.8249 13.9521 60.7771 13.8358C60.7292 13.7196 60.7052 13.5987 60.7052 13.4722C60.7052 13.3468 60.7292 13.226 60.7771 13.1086C60.8249 12.9923 60.8933 12.8897 60.9822 12.8008C61.0711 12.7119 61.1737 12.6435 61.29 12.5956C61.4063 12.5466 61.5282 12.5227 61.6536 12.5227C61.779 12.5227 61.901 12.5466 62.0161 12.5956C62.1324 12.6435 62.235 12.7119 62.325 12.8008C62.414 12.8897 62.4824 12.9923 62.5302 13.1097C62.5781 13.226 62.602 13.3468 62.602 13.4722C62.602 13.5987 62.5781 13.7196 62.5302 13.8358C62.4812 13.9521 62.4128 14.0547 62.3239 14.1436C62.235 14.2325 62.1324 14.3009 62.0161 14.3488C61.8999 14.3978 61.779 14.4217 61.6536 14.4217ZM22.3188 19.141C22.5194 19.141 22.7178 19.1603 22.9138 19.2002C23.111 19.239 23.3014 19.2971 23.4861 19.3746C23.6719 19.451 23.8474 19.5456 24.0138 19.6562C24.1803 19.7679 24.3342 19.8944 24.4755 20.0369C24.618 20.1783 24.7445 20.3322 24.8551 20.4986C24.9668 20.6662 25.0603 20.8417 25.1378 21.0264C25.2142 21.2122 25.2723 21.4025 25.3111 21.5998C25.351 21.7958 25.3703 21.9942 25.3703 22.1948C25.3692 22.3031 25.3886 22.4068 25.4296 22.506C25.4695 22.6063 25.5276 22.6941 25.6029 22.7704C25.6793 22.8468 25.7659 22.9061 25.8651 22.9483C25.9654 22.9893 26.068 23.0098 26.1763 23.0098C26.2834 23.0098 26.3871 22.9893 26.4863 22.9483C26.5855 22.9061 26.6733 22.8468 26.7485 22.7704C26.8237 22.6941 26.8819 22.6063 26.9229 22.506C26.9628 22.4068 26.9822 22.3031 26.981 22.1948C26.981 21.9942 27.0016 21.7958 27.0403 21.5986C27.0802 21.4025 27.1383 21.211 27.2147 21.0264C27.2922 20.8406 27.3857 20.665 27.4974 20.4986C27.6091 20.3322 27.7357 20.1771 27.877 20.0358C28.0195 19.8944 28.1734 19.7679 28.3398 19.6562C28.5074 19.5445 28.6829 19.451 28.8676 19.3735C29.0534 19.2971 29.2438 19.239 29.441 19.2002C29.637 19.1603 29.8354 19.141 30.036 19.141C30.142 19.1398 30.2435 19.1182 30.3415 19.0771C30.4384 19.035 30.525 18.9768 30.5991 18.9016C30.6732 18.8264 30.7313 18.7397 30.7712 18.6417C30.8111 18.5437 30.8316 18.4411 30.8316 18.3351C30.8316 18.229 30.8111 18.1276 30.7712 18.0296C30.7313 17.9315 30.6732 17.8449 30.5991 17.7685C30.525 17.6933 30.4384 17.6351 30.3415 17.5941C30.2435 17.5519 30.142 17.5314 30.036 17.5303C29.8354 17.5291 29.637 17.5098 29.441 17.4699C29.2438 17.4311 29.0522 17.373 28.8676 17.2966C28.6818 17.2191 28.5062 17.1245 28.3398 17.0139C28.1734 16.9022 28.0184 16.7757 27.877 16.6332C27.7345 16.4918 27.608 16.3368 27.4974 16.1704C27.3857 16.0039 27.2911 15.8273 27.2147 15.6414C27.1372 15.4568 27.0791 15.2653 27.0403 15.0692C27.0004 14.872 26.981 14.6737 26.981 14.473C26.9822 14.3647 26.9628 14.261 26.9229 14.1607C26.8819 14.0615 26.8237 13.9738 26.7485 13.8962C26.6733 13.8199 26.5855 13.7606 26.4863 13.7196C26.3871 13.6785 26.2834 13.6569 26.1763 13.6569C26.068 13.6569 25.9654 13.6785 25.8651 13.7196C25.7659 13.7606 25.6793 13.8199 25.6029 13.8962C25.5276 13.9738 25.4695 14.0615 25.4296 14.1607C25.3886 14.261 25.3692 14.3647 25.3703 14.473C25.3703 14.6725 25.351 14.872 25.3122 15.0681C25.2723 15.2653 25.2153 15.4556 25.1378 15.6414C25.0614 15.8273 24.9668 16.0028 24.8562 16.1692C24.7445 16.3368 24.618 16.4907 24.4767 16.6332C24.3353 16.7745 24.1803 16.901 24.0138 17.0128C23.8474 17.1245 23.6719 17.2191 23.4872 17.2955C23.3014 17.373 23.111 17.4311 22.9138 17.4699C22.7178 17.5098 22.5194 17.5291 22.3188 17.5303C22.2117 17.528 22.1079 17.5474 22.0076 17.5884C21.9084 17.6283 21.8195 17.6864 21.7432 17.7617C21.6668 17.8381 21.6075 17.9258 21.5665 18.025C21.5243 18.1242 21.5038 18.2279 21.5038 18.3351C21.5038 18.4433 21.5243 18.5459 21.5665 18.6462C21.6075 18.7454 21.6668 18.8332 21.7432 18.9084C21.8195 18.9837 21.9084 19.0418 22.0076 19.0828C22.1079 19.1227 22.2117 19.1421 22.3188 19.141ZM26.1763 17.0914C26.5114 17.585 26.9252 17.9999 27.4188 18.3351C26.9252 18.6713 26.5114 19.0851 26.1763 19.5776C25.8411 19.0851 25.4273 18.6713 24.9349 18.3351C25.4273 17.9999 25.8411 17.585 26.1763 17.0914ZM57.4041 15.7782V8.70396C57.4029 8.59795 57.3824 8.49536 57.3414 8.39619C57.3015 8.29815 57.2422 8.21152 57.167 8.13515C57.0917 8.05991 57.0051 8.00178 56.9059 7.96188C56.8079 7.92084 56.7053 7.90032 56.5981 7.90032C56.4921 7.90032 56.3895 7.92084 56.2904 7.96188C56.1923 8.00178 56.1057 8.05991 56.0293 8.13515C55.9541 8.21152 55.896 8.29815 55.8549 8.39619C55.8139 8.49536 55.7934 8.59795 55.7934 8.70396V15.7782C55.538 15.8626 55.3021 15.9846 55.0855 16.1441C54.8689 16.3037 54.6808 16.4918 54.5235 16.7107C54.3662 16.9284 54.2465 17.1655 54.1633 17.422C54.0812 17.6773 54.0402 17.9406 54.0402 18.2097C54.0402 18.4787 54.0812 18.7409 54.1633 18.9973C54.2465 19.2538 54.3662 19.4909 54.5235 19.7086C54.6808 19.9275 54.8689 20.1156 55.0855 20.2752C55.3021 20.4348 55.538 20.5567 55.7934 20.6411V21.9269C55.7934 22.0341 55.8139 22.1366 55.8549 22.2347C55.896 22.3339 55.9541 22.4205 56.0293 22.4957C56.1057 22.571 56.1923 22.6291 56.2904 22.6701C56.3895 22.7112 56.4921 22.7305 56.5981 22.7305C56.7053 22.7305 56.8079 22.7112 56.9059 22.6701C57.0051 22.6291 57.0917 22.571 57.167 22.4957C57.2422 22.4205 57.3015 22.3339 57.3414 22.2347C57.3824 22.1366 57.4029 22.0341 57.4041 21.9269V20.6411C57.6594 20.5567 57.8954 20.4348 58.1119 20.2752C58.3285 20.1156 58.5155 19.9275 58.6728 19.7086C58.8301 19.4909 58.9509 19.2538 59.033 18.9973C59.1162 18.742 59.1572 18.4787 59.1572 18.2097C59.1572 17.9406 59.1162 17.6785 59.033 17.422C58.9509 17.1655 58.8301 16.9284 58.6728 16.7107C58.5155 16.4918 58.3285 16.3037 58.1119 16.1441C57.8954 15.9846 57.6594 15.8626 57.4041 15.7782ZM56.5981 19.1603C56.4728 19.1603 56.3508 19.1364 56.2345 19.0885C56.1182 19.0407 56.0145 18.9723 55.9256 18.8833C55.8367 18.7933 55.7672 18.6907 55.7193 18.5744C55.6703 18.4582 55.6463 18.3362 55.6463 18.2097C55.6463 18.0843 55.6703 17.9623 55.7181 17.846C55.7672 17.7286 55.8355 17.626 55.9245 17.5371C56.0134 17.4482 56.1171 17.3787 56.2334 17.3308C56.3496 17.2829 56.4716 17.2578 56.597 17.2578C56.7235 17.259 56.8444 17.2829 56.9618 17.3308C57.078 17.3798 57.1806 17.4482 57.2696 17.5371C57.3585 17.6272 57.4269 17.7298 57.4759 17.8472C57.5238 17.9634 57.5477 18.0843 57.5477 18.2108C57.5477 18.3373 57.5226 18.4582 57.4747 18.5744C57.4269 18.6907 57.3585 18.7933 57.2684 18.8822C57.1795 18.9711 57.0769 19.0395 56.9606 19.0885C56.8444 19.1364 56.7235 19.1603 56.5981 19.1603Z" fill="black"/>
</g>
</svg>
