<svg width="70" height="70" viewBox="0 0 70 70" fill="none" xmlns="http://www.w3.org/2000/svg">
<circle cx="44.5" cy="19.5" r="2.5" fill="#04CE78"/>
<circle cx="59.5" cy="26.5" r="2.5" fill="#1F5FFF"/>
<circle cx="49.5" cy="37.5" r="2.5" fill="#04CE78"/>
<circle cx="43.5" cy="49.5" r="2.5" fill="#1F5FFF"/>
<path fill-rule="evenodd" clip-rule="evenodd" d="M24.9099 13.3291C24.7461 13.5102 24.5329 13.9873 24.436 14.3896C24.2038 15.3545 23.7034 16.1897 22.9496 16.8706C21.9211 17.7998 19.2893 18.8508 17.9907 18.8508C17.1638 18.8508 15.8769 18.4476 15.2277 17.9853C14.3547 17.3638 14.0005 17.5158 12.2559 19.2603C10.4729 21.0433 10.367 21.3151 11.052 22.3501C11.8757 23.595 12.0514 25.1259 11.5436 26.6335C10.519 29.6748 9.41316 30.927 7.26271 31.4813C6.79318 31.6024 6.3181 31.8213 6.20693 31.9679C6.0554 32.1677 6.00377 32.8104 6.00026 34.5381C5.99499 37.1455 6.06125 37.3212 7.12097 37.5096C7.95266 37.6575 9.29599 38.4179 9.89321 39.0789C10.7868 40.068 11.8463 42.7257 11.8463 43.9779C11.8463 44.8785 11.5133 46.0064 11.0426 46.7001C10.3703 47.6907 10.4808 47.9677 12.2559 49.7428C14.1014 51.5883 14.172 51.6094 15.7273 50.7774C16.6754 50.2701 16.8328 50.2322 17.9897 50.2336C19.1297 50.2349 19.3605 50.2887 20.7688 50.8823C22.046 51.4207 22.4433 51.6699 23.1281 52.3627C23.933 53.1768 24.2315 53.7404 24.5716 55.0865C24.6632 55.4489 24.853 55.7725 25.0294 55.867C25.4052 56.0681 29.6162 56.0536 29.9967 55.8499C30.1556 55.7649 30.3851 55.3037 30.5589 54.7201C31.1458 52.7491 32.0185 51.819 34.0839 50.9629C35.7349 50.2786 35.8345 50.1293 35.8345 48.3398C35.8345 46.2353 36.1401 46.3497 30.5125 46.3484C26.4894 46.3475 25.8218 46.3138 24.7581 46.0589C21.1748 45.1999 18.1687 42.7231 16.6535 39.3816C15.0287 35.7981 15.4005 31.1415 17.5652 27.9652C18.8446 26.0877 21.0525 24.2684 22.9954 23.4906C24.82 22.7603 25.7892 22.6538 30.616 22.6538C36.0984 22.6538 35.8345 22.7502 35.8345 20.7485C35.8345 18.8269 35.7949 18.777 33.4766 17.7764C31.9427 17.1144 30.945 15.9261 30.5116 14.2448C30.3874 13.7629 30.1723 13.2857 30.0336 13.1843C29.8563 13.0547 29.1032 13 27.4947 13C25.309 13 25.1947 13.0145 24.9099 13.3291ZM43.1683 15.4994C42.0414 15.8438 41.0113 16.7689 40.4957 17.9C40.1563 18.6447 40.1357 20.2365 40.4551 21.035C40.735 21.7345 40.7651 21.6811 39.1005 23.4427L37.9112 24.7015H33.0861C27.4256 24.7015 27.6346 24.6487 27.5304 26.1059C27.4786 26.828 27.5204 27.0342 27.786 27.371L28.1034 27.7732H33.4364C37.5874 27.7732 38.8735 27.7293 39.2399 27.5754C39.4988 27.4668 40.4908 26.5453 41.4445 25.5277L43.1784 23.6777H44.3047C45.2225 23.6777 45.5712 23.6077 46.1893 23.2997C49.2408 21.7791 49.3363 17.483 46.3546 15.8603C45.5017 15.396 44.0462 15.2312 43.1683 15.4994ZM43.6599 17.7359C42.1213 18.437 42.0025 20.5206 43.4582 21.2734C45.0426 22.0927 46.908 20.3323 46.125 18.7569C45.641 17.7827 44.5494 17.3307 43.6599 17.7359ZM58.7508 22.5637C57.792 22.831 56.9126 23.4746 56.3853 24.2953L55.9465 24.9781L52.6992 24.9862C47.9754 24.9977 48.4043 24.8329 45.3992 27.7929L42.8951 30.2598H35.715C30.7644 30.2598 28.4241 30.3102 28.1783 30.4221C27.7338 30.6247 27.4972 31.1273 27.4972 31.8687C27.4972 32.7215 27.7571 33.1641 28.3623 33.342C29.2019 33.5886 43.6998 33.4626 44.1718 33.2046C44.373 33.0946 45.6279 31.9264 46.9608 30.6083L49.3839 28.212H52.684H55.9841L56.1645 28.6472C56.3904 29.1927 57.4878 30.2159 58.1386 30.4878C60.1964 31.3476 62.6019 30.4372 63.6229 28.4125C64.1132 27.44 64.1275 25.7964 63.6536 24.8885C62.6648 22.9938 60.6442 22.0358 58.7508 22.5637ZM58.801 25.022C58.178 25.4455 57.9261 25.9137 57.9233 26.6536C57.9193 27.7169 58.7505 28.5445 59.8226 28.5445C60.9393 28.5445 61.7241 27.7178 61.7241 26.5417C61.7241 25.9823 61.6417 25.7773 61.2397 25.3388C60.8376 24.9 60.6324 24.7987 60.033 24.7428C59.444 24.6879 59.2167 24.7394 58.801 25.022ZM48.2674 33.6355C47.4647 33.9984 46.728 34.6824 46.3501 35.4158L46.0673 35.9643H37.0975C28.1641 35.9643 28.1264 35.9656 27.8489 36.2722C27.6352 36.5082 27.5703 36.8011 27.5703 37.5283C27.5703 39.1607 26.7768 39.0359 37.1533 39.0359H46.0456L46.4349 39.7003C47.4829 41.4886 49.9451 42.1596 51.8734 41.1826C53.3406 40.4391 54.1098 39.1573 54.1149 37.4474C54.1177 36.5106 54.0567 36.2555 53.6441 35.4816C53.1572 34.5678 52.3682 33.8679 51.4391 33.5254C50.6618 33.2388 49.0185 33.2959 48.2674 33.6355ZM49.2061 35.6672C48.7713 35.8432 48.1625 36.6128 48.0489 37.1305C47.7313 38.5759 49.437 39.8972 50.751 39.2237C51.8184 38.6767 52.2234 37.4077 51.6374 36.4468C51.1561 35.6571 50.0823 35.3128 49.2061 35.6672ZM27.9156 41.8022C27.6169 42.0439 27.5703 42.21 27.5703 43.0301C27.5703 43.7573 27.6352 44.0502 27.8489 44.2863C28.1216 44.5874 28.2326 44.5942 32.9852 44.5942C38.5295 44.5942 37.9664 44.4654 39.3352 46.0454L40.0898 46.9165L39.8456 47.7559C39.0199 50.5962 40.9302 53.2423 43.8062 53.2423C46.0483 53.2423 47.7818 51.6334 47.9419 49.4041C48.0692 47.631 47.3228 46.2593 45.7602 45.3942C45.0739 45.0142 44.8233 44.9588 43.7471 44.9481L42.5178 44.9358L41.2605 43.5068C40.5689 42.7207 39.7728 41.9555 39.4912 41.8063C39.0201 41.5564 38.552 41.5342 33.6201 41.5286C28.5563 41.5228 28.2418 41.5379 27.9156 41.8022ZM43.0624 47.2817C42.1456 47.6951 41.6221 48.855 41.9717 49.6988C42.625 51.276 44.7325 51.4534 45.5136 49.997C45.8582 49.3546 45.8517 48.7347 45.4947 48.1491C44.955 47.264 43.9203 46.895 43.0624 47.2817Z" fill="#000D44"/>
</svg>
