<svg width="60" height="60" viewBox="0 0 60 60" fill="none" xmlns="http://www.w3.org/2000/svg">
<path d="M4.5 17.5L17 5L41.5 4.5L48.25 12L55 19.5V41.5L41 55L17 56L4.5 39V17.5Z" fill="#E5FBF1"/>
<path d="M27.15 15.75H31.85V34.7H27.15V15.75ZM27.15 38.55H31.85V43.25H27.15V38.55Z" fill="#1F5FFF" stroke="black"/>
<path d="M58 18.1V40.9C58.0005 41.2743 57.927 41.6451 57.7837 41.9909C57.6404 42.3367 57.4301 42.6507 57.165 42.915L42.915 57.165C42.382 57.7008 41.6581 58 40.9 58H18.1C17.7257 58.0005 17.3549 57.927 17.0091 57.7837C16.6633 57.6404 16.3493 57.4301 16.0851 57.165L1.83505 42.915C1.29925 42.382 1 41.6581 1 40.9L58 18.1ZM58 18.1C58.0005 17.7257 57.927 17.3549 57.7837 17.0091M58 18.1L57.7837 17.0091M57.7837 17.0091C57.6404 16.6633 57.4301 16.3493 57.165 16.0851L57.7837 17.0091ZM56.4578 16.7922L56.4591 16.7934C56.6309 16.9646 56.7671 17.168 56.8599 17.392C56.9527 17.616 57.0004 17.8561 57 18.0986V18.1V40.9V40.9014C57.0004 41.1439 56.9527 41.384 56.8599 41.608C56.7671 41.832 56.6309 42.0354 56.4591 42.2066L56.4578 42.2078L42.2078 56.4578L42.206 56.4597C41.8621 56.8054 41.394 57 40.9 57H18.1H18.0986C17.8561 57.0004 17.616 56.9527 17.392 56.8599C17.168 56.7671 16.9646 56.6309 16.7934 56.4591L16.7922 56.4578L2.54216 42.2078L2.54027 42.206C2.19458 41.8621 2 41.394 2 40.9L2 18.1L2 18.0986C1.99965 17.8561 2.04726 17.616 2.14008 17.392C2.23291 17.168 2.36912 16.9646 2.54088 16.7934L2.54216 16.7922L16.7922 2.54216L16.7934 2.54088C16.9646 2.36912 17.168 2.23291 17.392 2.14008C17.616 2.04726 17.8561 1.99965 18.0986 2H18.1L40.9 2L40.9014 2C41.1439 1.99965 41.384 2.04726 41.608 2.14008C41.832 2.23291 42.0354 2.36912 42.2066 2.54088L42.2078 2.54216L56.4578 16.7922ZM53.0071 40.4272L53.3 40.1343V39.7201V19.2799V18.8657L53.0071 18.5728L40.4272 5.9929L40.1343 5.7H39.7201H19.2799H18.8657L18.5728 5.9929L5.9929 18.5728L5.7 18.8657V19.2799V39.7201V40.1343L5.9929 40.4272L18.5728 53.0071L18.8657 53.3H19.2799H39.7201H40.1343L40.4272 53.0071L53.0071 40.4272Z" fill="#04CE78" stroke="black" stroke-width="2"/>
</svg>
