<svg width="70" height="70" viewBox="0 0 70 70" fill="none" xmlns="http://www.w3.org/2000/svg">
<g clip-path="url(#clip0_6_7352)">
<path d="M33.1724 53.974C22.3293 53.974 13.5087 45.1516 13.5087 34.3104C13.5087 23.4653 22.3293 14.6449 33.1724 14.6449C44.0157 14.6449 52.8381 23.4655 52.8381 34.3104C52.8381 38.4088 51.5756 42.2173 49.4215 45.3709L53.3379 49.144C56.384 44.9864 58.1843 39.8586 58.1843 34.3094C58.1843 20.4306 46.9332 9.17944 33.0543 9.17944C19.1754 9.17944 7.92432 20.4304 7.92432 34.3094C7.92432 48.1883 19.1753 59.4393 33.0543 59.4393C39.5865 59.4393 45.5359 56.9468 50.0048 52.8614L45.7868 49.381C42.3698 52.2456 37.9696 53.974 33.1724 53.974Z" fill="#04CE78"/>
<path d="M45.4238 41.5195C46.6684 39.4048 47.383 36.941 47.383 34.3101C47.383 26.4458 41.0085 20.0713 33.1461 20.0713C25.2818 20.0713 18.9071 26.4458 18.9071 34.3101C18.9071 42.1726 25.2818 48.5472 33.1461 48.5472C36.2657 48.5472 39.1512 47.5431 41.4971 45.8411L36.4317 41.6616C35.4558 42.0853 34.3801 42.3217 33.2485 42.3217C28.8235 42.3217 25.2362 38.7348 25.2362 34.3092C25.2362 29.8843 28.8236 26.2969 33.2485 26.2969C37.673 26.2969 41.2608 29.8843 41.2608 34.3092C41.2608 35.2702 41.0878 36.1897 40.7772 37.0431L45.4238 41.5195Z" fill="#1F5FFF"/>
<path d="M62.295 55.1604L57.8375 50.8386C57.8884 50.7635 57.5183 50.6313 57.154 50.6189L53.5674 51.1529L53.3408 50.9359L39.0094 37.129L39.0423 37.0919C39.1342 36.989 39.125 36.8312 39.0222 36.7393L39.0185 36.736C38.9156 36.6442 38.7577 36.6532 38.6659 36.7561L38.6293 36.7972C38.0983 36.4398 37.4084 36.4416 36.8823 36.784L33.4744 34.1549C33.4455 34.1325 33.3868 34.1549 33.3417 34.2054L33.34 34.2073C33.2949 34.2579 33.2795 34.3186 33.305 34.345L36.3116 37.4375C36.0501 37.993 36.1327 38.662 36.5402 39.1394L36.5036 39.1806C36.4117 39.2835 36.4209 39.4414 36.5237 39.5332L36.5274 39.5365C36.6303 39.6283 36.7881 39.6192 36.88 39.5164L36.9131 39.4793L52.2633 52.1451L52.8378 52.6192L52.4912 52.3333L52.3712 55.8966C52.3615 56.1873 52.4876 56.4659 52.7125 56.6504L57.4742 60.5538C57.5684 60.6309 57.7098 60.5632 57.7087 60.4416L57.673 56.6098L59.5054 58.1221C59.5965 58.1976 59.7106 58.2299 59.8216 58.2213C59.8901 58.2161 59.9565 58.1934 60.0167 58.157C60.0299 58.1492 60.0433 58.1426 60.0556 58.1332C60.0597 58.1301 60.0632 58.1257 60.0672 58.1226C60.0854 58.1079 60.1033 58.0926 60.1193 58.0747L60.1201 58.0739L60.126 58.0672L60.1271 58.0661C60.1604 58.0286 60.1848 57.986 60.2032 57.9417C60.2064 57.9339 60.2112 57.9265 60.2139 57.9184C60.2142 57.9176 60.2142 57.9165 60.2146 57.9157C60.2326 57.8633 60.2407 57.8084 60.2386 57.7538C60.2348 57.6425 60.1897 57.5326 60.1042 57.4504L58.952 56.3418L58.4043 55.8142L62.2073 55.4139C62.3322 55.4006 62.385 55.2478 62.295 55.1604Z" fill="#83483F"/>
</g>
<defs>
<clipPath id="clip0_6_7352">
<rect width="70" height="70" fill="white"/>
</clipPath>
</defs>
</svg>
