<svg width="36" height="36" viewBox="0 0 36 36" fill="none" xmlns="http://www.w3.org/2000/svg">
<circle cx="18" cy="18" r="17.5" stroke="white"/>
<path d="M25.9688 22.0938L25.25 25.25C25.1042 25.7292 24.7812 25.9792 24.2812 26C21.6354 25.9792 19.2396 25.3229 17.0938 24.0312C14.9479 22.7604 13.2396 21.0521 11.9688 18.9062C10.6771 16.7604 10.0208 14.3646 10 11.7188C10.0208 11.2188 10.2708 10.8958 10.75 10.75L13.9062 10.0312C14.4062 9.94792 14.7812 10.1354 15.0312 10.5938L16.4688 13.9688C16.6354 14.4271 16.5417 14.8125 16.1875 15.125L14.5312 16.4688C15.0521 17.5521 15.7396 18.5208 16.5938 19.375C17.4479 20.2292 18.4167 20.9271 19.5 21.4688L20.875 19.7812C21.1875 19.4271 21.5729 19.3333 22.0312 19.5L25.4062 20.9375C25.8438 21.2083 26.0312 21.5938 25.9688 22.0938Z" fill="white"/>
</svg>
