<svg width="30" height="24" viewBox="0 0 30 24" fill="none" xmlns="http://www.w3.org/2000/svg">
<path d="M2.66334 21.9311C0.930403 20.0114 0 17.8583 0 14.3681C0 8.22637 4.13381 2.72165 10.1453 0L11.6477 2.41807C6.03668 5.58368 4.93971 9.6916 4.50227 12.2816C5.40575 11.7938 6.58853 11.6236 7.74774 11.7359C10.7829 12.029 13.1754 14.6278 13.1754 17.8583C13.1754 19.4872 12.555 21.0493 11.4506 22.2011C10.3463 23.3529 8.84851 24 7.28675 24C6.42307 23.9921 5.56952 23.8052 4.77578 23.45C3.98203 23.0948 3.26396 22.5785 2.66334 21.9311ZM19.488 21.9311C17.755 20.0114 16.8246 17.8583 16.8246 14.3681C16.8246 8.22637 20.9584 2.72165 26.9699 0L28.4723 2.41807C22.8613 5.58368 21.7643 9.6916 21.3269 12.2816C22.2304 11.7938 23.4132 11.6236 24.5724 11.7359C27.6075 12.029 30 14.6278 30 17.8583C30 19.4872 29.3796 21.0493 28.2753 22.2011C27.1709 23.3529 25.6731 24 24.1114 24C23.2477 23.9921 22.3941 23.8052 21.6004 23.45C20.8067 23.0948 20.0886 22.5785 19.488 21.9311Z" fill="#04CE78"/>
</svg>
