<svg width="70" height="70" viewBox="0 0 70 70" fill="none" xmlns="http://www.w3.org/2000/svg">
<path fill-rule="evenodd" clip-rule="evenodd" d="M41.8956 11.4997C40.6584 13.7415 40.4348 14.7309 41.1648 14.7309C41.6313 14.7309 41.7785 15.1542 41.7785 16.4933C41.7785 18.112 41.8584 18.2558 42.7577 18.2558C43.6569 18.2558 43.7368 18.112 43.7368 16.4933C43.7368 14.9921 43.8527 14.7309 44.5201 14.7309C44.9509 14.7309 45.3034 14.6467 45.3034 14.5437C45.3034 14.123 43.1642 10.031 42.9441 10.031C42.8133 10.031 42.3413 10.6921 41.8956 11.4997ZM29.6372 17.1893C29.6372 18.0106 30.9634 21.7807 31.2524 21.7807C31.4157 21.7807 31.6676 21.5891 31.8125 21.3549C31.977 21.089 32.5727 21.4113 33.4014 22.2142C34.6872 23.4605 34.744 23.4761 35.2896 22.7379C35.7988 22.0493 35.7423 21.8621 34.7025 20.7823C33.8166 19.8623 33.6591 19.482 34.0167 19.1244C34.5928 18.5483 34.6195 18.5675 31.8893 17.5876C30.5745 17.1156 29.6372 16.95 29.6372 17.1893ZM53.612 17.6291C51.6639 18.2883 51.2503 18.5628 51.6314 18.9439C52.0125 19.325 51.8864 19.6622 51.0271 20.5591C50.0628 21.5656 49.999 21.7846 50.4584 22.5197C51.1234 23.5846 51.2096 23.5705 52.542 22.1794C53.3547 21.331 53.7941 21.1219 54.1474 21.4152C54.4145 21.6369 54.7137 21.678 54.812 21.5061C55.1727 20.8744 56.3454 17.0264 56.2118 16.9128C56.1358 16.8481 54.9659 17.1705 53.612 17.6291ZM39.3667 20.2223C37.5005 21.2081 35.6037 23.5329 35.0597 25.5014C34.4397 27.7452 35.1455 30.7707 36.8249 33.065C37.5639 34.0747 38.3884 35.637 38.6563 36.5366C39.2249 38.446 39.5434 38.5627 43.7368 38.4029L46.6742 38.2909L47.3314 36.4701C47.6925 35.4686 48.616 33.7363 49.3829 32.6209C52.4825 28.1141 51.1763 22.6106 46.4333 20.1909C44.4853 19.1973 41.2803 19.2114 39.3667 20.2223ZM28.9518 29.1312C27.8211 29.7011 26.8957 30.2706 26.8957 30.3967C26.8957 30.6105 30.9978 32.747 31.4083 32.747C31.5113 32.747 31.5955 32.4826 31.5955 32.1595C31.5955 31.751 32.0064 31.572 32.9432 31.572C34.5145 31.572 34.7589 31.308 34.3038 30.1033C34.0594 29.4563 33.6548 29.2221 32.783 29.2221C31.9887 29.2221 31.5955 29.0278 31.5955 28.6346C31.5955 27.865 31.386 27.9042 28.9518 29.1312ZM54.3115 28.6346C54.3115 29.0216 53.9245 29.2221 53.1784 29.2221C52.0783 29.2221 51.5699 29.7892 51.5699 31.0167C51.5699 31.3903 52.0184 31.572 52.9407 31.572C53.8979 31.572 54.3115 31.7491 54.3115 32.1595C54.3115 32.4826 54.3957 32.747 54.4987 32.747C54.9088 32.747 59.0113 30.6105 59.0113 30.3971C59.0113 30.1836 54.9088 28.0471 54.4987 28.0471C54.3957 28.0471 54.3115 28.3115 54.3115 28.6346ZM32.6542 33.8405C31.8564 34.6575 31.2039 35.4576 31.2039 35.619C31.2039 35.78 31.5587 36.3917 31.9923 36.978C32.747 37.9991 32.7528 38.1142 32.1364 39.684C31.6229 40.9917 31.2446 41.3767 30.2709 41.5847C27.3664 42.2051 27.2532 43.8437 30.0097 45.3641C32.7325 46.8654 34.0101 49.1507 34.2541 52.9587C34.4499 56.0062 34.7291 56.3387 36.0745 55.125C36.8633 54.4125 36.9232 54.4129 38.5474 55.1395C39.9241 55.7555 40.2119 56.0712 40.2119 56.9661C40.2119 58.5038 40.884 58.9879 43.0181 58.9879C44.985 58.9879 45.6951 58.38 45.6951 56.6959C45.6951 56.139 46.1827 55.7332 47.4207 55.2605C49.1119 54.6146 49.1702 54.6193 50.3613 55.5002L51.5766 56.3986L53.14 54.8724C54.9374 53.1173 55.002 52.815 53.8846 51.3948C53.0762 50.3668 53.075 50.3327 53.7867 48.602C54.4231 47.0541 54.6507 46.8493 55.7324 46.8481C57.3938 46.8462 57.9045 46.0903 57.7612 43.8465C57.6429 41.9975 57.6116 41.956 56.1675 41.7229C55.3572 41.5921 54.6471 41.4139 54.5892 41.3266C54.5316 41.2392 54.1724 40.483 53.7914 39.6464C53.1162 38.1624 53.1189 38.1037 53.901 37.271C54.342 36.8014 54.7031 36.1172 54.7031 35.7502C54.7031 35.0511 52.1707 32.3553 51.5143 32.3553C50.7933 32.3553 48.8029 34.905 48.3517 36.4062C48.0035 37.5647 48.0086 38.061 48.3736 38.5603C48.6348 38.9171 49.3057 40.1532 49.865 41.3066C50.6938 43.0166 50.8367 43.7403 50.637 45.2231C49.9473 50.3499 44.3642 53.3617 39.579 51.1888C37.5201 50.254 36.0486 48.3176 35.4604 45.7691C35.064 44.0517 35.0946 43.5026 35.6695 41.9963C36.04 41.027 36.727 39.7455 37.1966 39.1486C38.1499 37.9364 38.1205 37.1386 37.043 35.0272C36.3933 33.7535 34.9731 32.3553 34.3293 32.3553C34.2055 32.3553 33.452 33.0235 32.6542 33.8405ZM39.2982 39.6664C38.7839 40.1806 39.053 41.4045 40.0165 42.9304C41.721 45.6305 44.1504 45.5427 46.0613 42.7111C47.0271 41.28 47.1849 40.7767 46.8579 40.1661C46.5023 39.5011 46.0162 39.4051 43.0048 39.4051C41.11 39.4051 39.4415 39.5226 39.2982 39.6664Z" fill="#000D44"/>
<path d="M24.8157 35.8093C24.8157 39.0171 22.2139 41.6208 18.9997 41.6208C15.7867 41.6208 13.1847 39.0172 13.1847 35.8093C13.1847 32.5983 15.7864 29.9978 18.9997 29.9978C22.2142 29.9978 24.8157 32.5984 24.8157 35.8093Z" fill="#04CE78" stroke="black" stroke-width="1.99567"/>
<path d="M29.4433 54.9766L29.4441 54.9791C29.7756 55.9805 29.9718 57.0585 29.9989 58.1729H8.00108C8.02822 57.0587 8.22457 55.9815 8.55854 54.9816L8.55932 54.9792C10.0093 50.6017 14.1303 47.4439 18.9994 47.4439C22.0425 47.4439 24.7895 48.6721 26.7809 50.6622C27.9826 51.865 28.9035 53.3319 29.4433 54.9766Z" fill="#1F5FFF" stroke="black" stroke-width="1.99567"/>
</svg>
