<svg width="21" height="21" viewBox="0 0 21 21" fill="none" xmlns="http://www.w3.org/2000/svg">
<path d="M19.6875 18.8984C20.0781 19.3411 20.0911 19.7839 19.7266 20.2266C19.5443 20.4089 19.3229 20.5 19.0625 20.5C18.8281 20.5 18.5938 20.4089 18.3594 20.2266L13.125 14.9922C11.7188 16.138 10.0391 16.724 8.08594 16.75C5.79427 16.6979 3.89323 15.9036 2.38281 14.3672C0.846354 12.8307 0.0520833 10.9167 0 8.625C0.0520833 6.33333 0.833333 4.41927 2.34375 2.88281C3.88021 1.34635 5.79427 0.552083 8.08594 0.5C10.3776 0.552083 12.2917 1.34635 13.8281 2.88281C15.3646 4.41927 16.1589 6.33333 16.2109 8.625C16.1849 10.5521 15.599 12.2318 14.4531 13.6641L19.6875 18.8984ZM1.875 8.625C1.92708 10.3958 2.53906 11.8672 3.71094 13.0391C4.88281 14.2109 6.35417 14.8229 8.125 14.875C9.89583 14.8229 11.3672 14.2109 12.5391 13.0391C13.7109 11.8672 14.3229 10.3958 14.375 8.625C14.3229 6.85417 13.7109 5.38281 12.5391 4.21094C11.3672 3.03906 9.89583 2.42708 8.125 2.375C6.35417 2.42708 4.88281 3.03906 3.71094 4.21094C2.53906 5.38281 1.92708 6.85417 1.875 8.625Z" fill="#000D44"/>
</svg>
