<svg width="30" height="31" viewBox="0 0 30 31" fill="none" xmlns="http://www.w3.org/2000/svg">
<g id="Group">
<g id="Group_2">
<g id="Group_3">
<path id="Vector" d="M9.02051 7.98877V11.3431H10.1694V9.12849C9.76889 8.77186 9.39094 8.3878 9.02051 7.98877Z" fill="#04CE78"/>
<path id="Vector_2" d="M19.7629 8.91389V11.343H20.9794V7.73926C20.5789 8.13579 20.1734 8.52983 19.7629 8.91389Z" fill="#04CE78"/>
<path id="Vector_3" d="M19.763 20.835V25.2118H19.758C19.6679 27.7506 17.568 29.7906 15 29.7906C12.4295 29.7906 10.3295 27.7531 10.2419 25.2118H10.2369V20.835H9.02051V25.0422C9.02051 28.3267 11.7036 31.0002 15 31.0002C18.2963 31.0002 20.9795 28.3267 20.9795 25.0422V20.835H19.763Z" fill="#04CE78"/>
</g>
<g id="Group_4">
<path id="Vector_4" d="M10.2369 20.835H6.92558V20.8025H5.97947C3.35391 20.8025 1.21642 18.6727 1.21642 16.0566C1.21642 13.4405 3.35391 11.3107 5.97947 11.3107H10.1694V10.0986H5.97947C2.68313 10.0986 0 12.7721 0 16.0566C0 19.3411 2.68313 22.0146 5.97947 22.0146H10.2369V20.835Z" fill="#04CE78"/>
<path id="Vector_5" d="M24.0207 10.0986H19.7632V11.3107H24.0207C26.6462 11.3107 28.7837 13.4405 28.7837 16.0566C28.7837 18.6727 26.6462 20.8025 24.0207 20.8025H22.4663V20.835H19.7632V22.0121H24.0207C27.317 22.0121 30.0001 19.3386 30.0001 16.0541C30.0001 12.7696 27.317 10.0986 24.0207 10.0986Z" fill="#04CE78"/>
</g>
<g id="Group_5">
<path id="Vector_6" d="M9.4935 25.5481C7.48115 25.5481 5.84424 23.9171 5.84424 21.912C5.84424 19.9069 7.48115 18.2759 9.4935 18.2759C11.5058 18.2759 13.1428 19.9069 13.1428 21.912C13.1428 23.9171 11.5058 25.5481 9.4935 25.5481ZM9.4935 19.4879C8.15194 19.4879 7.06066 20.5753 7.06066 21.912C7.06066 23.2488 8.15194 24.3361 9.4935 24.3361C10.8351 24.3361 11.9263 23.2488 11.9263 21.912C11.9263 20.5753 10.8351 19.4879 9.4935 19.4879Z" fill="white"/>
</g>
<path id="Vector_7" d="M11.3365 23.8171C12.3921 22.7653 12.3921 21.0599 11.3365 20.0081C10.2809 18.9562 8.56934 18.9562 7.5137 20.0081C6.45806 21.0599 6.45806 22.7653 7.5137 23.8171C8.56933 24.869 10.2809 24.869 11.3365 23.8171Z" fill="white"/>
<g id="Group_6">
<path id="Vector_8" d="M9.4935 25.5481C7.48115 25.5481 5.84424 23.9171 5.84424 21.912C5.84424 19.9069 7.48115 18.2759 9.4935 18.2759C11.5058 18.2759 13.1428 19.9069 13.1428 21.912C13.1428 23.9171 11.5058 25.5481 9.4935 25.5481ZM9.4935 19.4879C8.15194 19.4879 7.06066 20.5753 7.06066 21.912C7.06066 23.2488 8.15194 24.3361 9.4935 24.3361C10.8351 24.3361 11.9263 23.2488 11.9263 21.912C11.9263 20.5753 10.8351 19.4879 9.4935 19.4879Z" fill="#04CE78"/>
</g>
<path id="Vector_9" d="M15.1853 10.7368V17.4829C15.1853 19.5553 16.6545 21.2387 18.7344 21.2387L23.8179 21.306" stroke="#04CE78" stroke-width="1.3" stroke-miterlimit="10" stroke-linecap="round" stroke-linejoin="round"/>
<path id="Vector_10" d="M13.8738 1.16782L13.1454 1.12044C10.0418 0.913444 8.27223 4.70669 10.5224 6.84398C10.5824 6.90134 10.6475 6.9587 10.7126 7.01357L14.9 10.8043" stroke="#04CE78" stroke-width="1.3" stroke-miterlimit="10" stroke-linecap="round" stroke-linejoin="round"/>
<path id="Vector_11" d="M16.6119 1.05552L17.3402 1.00813C20.4439 0.801139 22.2134 4.59439 19.9633 6.73168C19.9032 6.78904 19.8382 6.8464 19.7731 6.90126L15.5857 10.692" stroke="#04CE78" stroke-width="1.3" stroke-miterlimit="10" stroke-linecap="round" stroke-linejoin="round"/>
</g>
</g>
</svg>
