<svg width="56" height="56" viewBox="0 0 56 56" fill="none" xmlns="http://www.w3.org/2000/svg">
<g id="quote">
<path id="Vector" d="M42.0448 5.4304C45.3298 5.43401 48.4793 6.74057 50.8021 9.06343C53.125 11.3863 54.4316 14.5357 54.4352 17.8208C54.4352 17.8412 54.4352 17.8624 54.4352 17.8828C54.4352 17.9237 54.4405 17.985 54.445 18.066C54.6993 22.5656 53.9637 34.7146 41.6717 50.2819C41.561 50.4217 41.4045 50.5179 41.2298 50.5536C41.055 50.5892 40.8733 50.562 40.7167 50.4768C40.56 50.3916 40.4385 50.2537 40.3736 50.0876C40.3087 49.9216 40.3045 49.7379 40.3618 49.569C40.3966 49.4661 43.7558 39.4035 41.4606 30.196C38.2277 30.0443 35.1826 28.6337 32.9763 26.2659C30.77 23.8981 29.5778 20.761 29.6545 17.5256C29.7312 14.2901 31.0708 11.213 33.3868 8.95246C35.7028 6.69188 38.8114 5.4272 42.0478 5.42889L42.0448 5.4304ZM52.9217 17.7776C52.9133 15.6282 52.2682 13.5295 51.068 11.7464C49.8678 9.96326 48.1661 8.57574 46.1779 7.759C44.1897 6.94225 42.0041 6.73288 39.897 7.15734C37.7898 7.5818 35.8557 8.62105 34.3388 10.1439C32.8219 11.6667 31.7902 13.6048 31.3739 15.7136C30.9577 17.8223 31.1755 20.0071 32 21.9921C32.8245 23.9772 34.2186 25.6734 36.0063 26.8667C37.7941 28.06 39.8954 28.6969 42.0448 28.6969C42.2105 28.6969 42.3716 28.7514 42.5034 28.8518C42.6352 28.9523 42.7304 29.0933 42.7743 29.2531C44.5148 35.5871 43.6612 42.2315 42.7962 46.2635C52.5463 32.6055 53.1585 22.1804 52.9307 18.1507C52.9205 18.0266 52.9174 17.9021 52.9217 17.7776Z" fill="#04CE78"/>
<path id="Vector_2" d="M13.9037 5.4304C17.1887 5.43401 20.3381 6.74057 22.661 9.06343C24.9839 11.3863 26.2904 14.5357 26.2941 17.8208C26.2941 17.8412 26.2941 17.8624 26.2941 17.8828C26.2941 17.9237 26.2993 17.985 26.3039 18.066C26.5582 22.5656 25.8226 34.7146 13.5306 50.2819C13.4199 50.4217 13.2634 50.5179 13.0886 50.5536C12.9139 50.5892 12.7322 50.562 12.5756 50.4768C12.4189 50.3916 12.2974 50.2537 12.2325 50.0876C12.1676 49.9216 12.1634 49.7379 12.2206 49.569C12.2555 49.4661 15.6147 39.4035 13.3195 30.196C10.0866 30.0443 7.04147 28.6337 4.83519 26.2659C2.62891 23.8981 1.43664 20.761 1.51336 17.5256C1.59007 14.2901 2.92968 11.213 5.2457 8.95246C7.56173 6.69188 10.6703 5.4272 13.9067 5.42889L13.9037 5.4304ZM24.7805 17.7776C24.7722 15.6282 24.1271 13.5295 22.9269 11.7464C21.7266 9.96326 20.025 8.57574 18.0368 7.759C16.0486 6.94225 13.8629 6.73288 11.7558 7.15734C9.64874 7.5818 7.71463 8.62105 6.19771 10.1439C4.68079 11.6667 3.64907 13.6048 3.23281 15.7136C2.81654 17.8223 3.0344 20.0071 3.85887 21.9921C4.68335 23.9772 6.07747 25.6734 7.86523 26.8667C9.653 28.06 11.7542 28.6969 13.9037 28.6969C14.0694 28.6969 14.2305 28.7514 14.3623 28.8518C14.4941 28.9523 14.5893 29.0933 14.6332 29.2531C16.3737 35.5871 15.5201 42.2315 14.6551 46.2635C24.4052 32.6055 25.0182 22.1804 24.7904 18.1507C24.7798 18.0267 24.7766 17.9021 24.7805 17.7776Z" fill="#04CE78"/>
</g>
</svg>
