<svg width="57" height="58" viewBox="0 0 57 58" fill="none" xmlns="http://www.w3.org/2000/svg">
<mask id="path-1-inside-1_8_16617" fill="white">
<path fill-rule="evenodd" clip-rule="evenodd" d="M10.1719 0.0532752C8.38451 0.354918 6.97119 1.65048 6.46082 3.45524C6.36337 3.7997 6.35531 4.1917 6.33835 9.41969L6.32026 15.0154L5.93944 15.0809C4.95805 15.2496 3.76004 15.7772 2.91592 16.4122C1.4355 17.5259 0.49041 19.0539 0.102381 20.9608C0.00550153 21.4371 0 22.135 0 33.9145V46.3647L0.128303 46.8469C0.55666 48.4569 1.63856 49.606 3.2331 50.1444L3.63015 50.2785L16.7469 50.2934C23.9611 50.3016 29.8637 50.2949 29.8637 50.2786C29.8637 50.2622 29.7764 49.961 29.6698 49.6092C29.2157 48.1112 29.0454 46.9407 29.0451 45.3154C29.0447 43.6125 29.2375 42.3783 29.7436 40.8439C31.3792 35.8852 35.5088 32.1845 40.5723 31.1398C42.5885 30.7238 45.0099 30.7664 46.9633 31.2524C48.9086 31.7363 50.9172 32.7241 52.5166 33.9832L53.02 34.3795L53.4148 33.991C54.412 33.0096 54.8367 32.0537 54.8349 30.7948C54.8318 28.7078 53.4772 26.9323 51.5028 26.4273C51.0788 26.3188 50.8736 26.3138 46.8471 26.3138H42.6351L42.6107 23.8039C42.5882 21.4884 42.5768 21.2512 42.4632 20.7413C42.1527 19.3472 41.5562 18.2242 40.5981 17.2299C39.9427 16.5498 39.3425 16.1097 38.5136 15.7013C37.8874 15.3928 36.7293 15.0263 36.3805 15.0263C36.2764 15.0263 36.2731 14.9279 36.2731 11.7961C36.2731 8.29423 36.2426 7.80177 35.9594 6.74506C35.1189 3.60901 32.6634 1.15389 29.5225 0.309313C28.3405 -0.00855212 28.4498 -0.00531764 19.0696 0.00194266C14.3215 0.00557281 10.3175 0.0287149 10.1719 0.0532752ZM10.3098 1.8962C9.50623 2.07079 8.81848 2.61639 8.4422 3.3777L8.22456 3.81802L8.1962 22.0993C8.1806 32.1541 8.18003 40.3807 8.19489 40.3807C8.20975 40.3807 10.9153 37.689 14.2073 34.3993C17.4993 31.1094 20.3586 28.2933 20.5614 28.1411C21.6385 27.3328 22.7862 26.8083 24.2199 26.4694C24.7136 26.3527 24.89 26.3476 29.5801 26.3171L34.4297 26.2855L34.4441 18.137L34.4585 9.98849L32.8275 9.96358C31.274 9.93988 31.1716 9.93154 30.6688 9.78849C28.583 9.19507 27.0287 7.6349 26.4784 5.58228C26.3341 5.04388 26.3252 4.93373 26.3037 3.41269L26.281 1.81032L18.4723 1.81481C12.1271 1.81849 10.5973 1.83375 10.3098 1.8962ZM28.1058 3.10753C28.1062 4.39839 28.1514 4.84399 28.3389 5.40843C28.684 6.44659 29.6131 7.4311 30.6425 7.84936C31.2632 8.1016 31.7454 8.16309 33.1022 8.16309H34.3602L34.3245 7.85889C34.227 7.02991 33.6814 5.70434 33.1006 4.88546C32.0325 3.37985 30.3563 2.30573 28.5396 1.96268L28.1053 1.88066L28.1058 3.10753ZM13.6669 12.3265C12.9537 12.6385 12.9833 13.698 13.7129 13.9739C13.9299 14.056 14.6829 14.0634 21.4223 14.0493C28.8652 14.0338 28.8916 14.0333 29.0477 13.9168C29.2951 13.7321 29.4201 13.5278 29.4504 13.2586C29.4876 12.9292 29.3639 12.6446 29.0942 12.4388L28.8799 12.2754L21.3599 12.2631C15.1947 12.253 13.8088 12.2644 13.6669 12.3265ZM13.585 20.5418C13.3131 20.7269 13.1789 20.9344 13.1486 21.2167C13.111 21.567 13.3101 21.9253 13.6392 22.0993L13.8862 22.2299L21.2935 22.2287C28.3946 22.2275 28.7105 22.2231 28.9334 22.1219C29.246 21.9799 29.4246 21.7168 29.4536 21.356C29.4793 21.0346 29.3531 20.7856 29.0512 20.5619L28.8911 20.4432L21.3323 20.4284L13.7735 20.4137L13.585 20.5418ZM42.6088 32.6673C35.9597 33.1758 30.8279 38.6795 30.8279 45.302C30.8279 49.3661 32.6729 53.0463 35.9551 55.5291C37.4781 56.6812 39.3961 57.5004 41.4064 57.8573C42.3972 58.0332 44.4659 58.0496 45.4336 57.8891C47.3857 57.5655 48.9914 56.9346 50.5886 55.8637C55.2931 52.7096 57.3359 46.8099 55.5902 41.4192C54.3279 37.5213 51.2349 34.4637 47.2906 33.2148C45.8523 32.7593 44.0941 32.5537 42.6088 32.6673ZM42.1721 34.5435C38.4858 35.0176 35.2035 37.4141 33.6544 40.7625C31.9036 44.5467 32.4649 48.9368 35.1188 52.2169C37.2229 54.8177 40.5588 56.3258 43.9021 56.1877C46.1024 56.0968 48.0797 55.4181 49.8957 54.1304C50.5424 53.6717 51.8739 52.332 52.3276 51.6834C53.3101 50.2788 53.9296 48.8187 54.2272 47.2068C54.3531 46.5247 54.3996 44.8693 54.3138 44.1217C54.0084 41.4592 52.7261 38.9857 50.737 37.222C49.1294 35.7966 47.1138 34.8629 45.0112 34.5696C44.3352 34.4754 42.8109 34.4613 42.1721 34.5435ZM43.2319 35.8684C42.8043 36.0209 42.6259 36.294 42.6259 36.7959V37.1304L42.1009 37.1649C41.4078 37.2105 40.9088 37.372 40.3908 37.7185C39.7383 38.1549 39.2806 38.8006 39.0813 39.5656C38.9579 40.0392 38.9571 43.3849 39.0802 43.8575C39.3438 44.8695 40.1273 45.7094 41.1609 46.0878C41.2959 46.1373 41.6744 46.1943 42.002 46.2145L42.5975 46.2513L42.6123 48.9671L42.627 51.6828L42.1749 51.6567C41.6098 51.6239 41.27 51.4378 41.0108 51.0191C40.84 50.743 40.8391 50.737 40.8108 49.716C40.7779 48.5265 40.7315 48.3855 40.299 48.162C39.8564 47.9331 39.42 48.0554 39.1234 48.4912C39.0023 48.6691 38.9958 48.733 38.9958 49.7361C38.9958 50.5026 39.0196 50.8852 39.0826 51.1269C39.3397 52.1138 40.1591 52.9907 41.144 53.3329C41.3305 53.3976 41.6989 53.4578 42.0303 53.4777L42.5975 53.5116L42.6259 53.9087C42.6705 54.5329 42.9775 54.8445 43.5478 54.8445C44.0523 54.8445 44.441 54.3827 44.441 53.7832V53.4832H44.8828C46.2489 53.4832 47.4796 52.5861 47.9122 51.2752C48.0251 50.9331 48.037 50.7599 48.0574 49.1724C48.0756 47.7562 48.0635 47.3656 47.9908 47.019C47.662 45.4519 46.365 44.4106 44.7388 44.4083L44.441 44.4079V41.7136V39.0194L44.8238 39.0206C45.071 39.0214 45.2871 39.0584 45.4336 39.1252C45.7098 39.251 46.0492 39.6157 46.1367 39.8804C46.1721 39.9878 46.207 40.4953 46.2144 41.0081C46.226 41.8237 46.2419 41.9646 46.3411 42.1331C46.7047 42.7504 47.4808 42.7703 47.9258 42.1737C48.0345 42.0281 48.0427 41.9398 48.0423 40.9294C48.0419 40.0384 48.023 39.7803 47.9379 39.5015C47.7723 38.9581 47.5031 38.5081 47.1069 38.1118C46.5121 37.5171 45.8576 37.2318 44.9373 37.1661L44.441 37.1306V36.8591C44.441 36.7099 44.4139 36.5159 44.3808 36.4281C44.2912 36.1906 43.9909 35.9061 43.7628 35.8428C43.5126 35.7732 43.4967 35.7739 43.2319 35.8684ZM41.6289 39.0998C41.3396 39.2258 41.0593 39.5123 40.929 39.8149C40.8107 40.0902 40.8067 40.1634 40.8226 41.791L40.8392 43.4812L41.0108 43.7587C41.2724 44.1815 41.6247 44.3743 42.1819 44.3997L42.6259 44.4199V41.7196V39.0194L42.2147 39.0216C41.9885 39.0228 41.7249 39.058 41.6289 39.0998ZM44.441 48.9374V51.6682L44.7955 51.6676C45.3993 51.6667 45.9086 51.3446 46.1257 50.8264C46.188 50.6778 46.2042 50.2763 46.201 48.9601C46.1974 47.4623 46.1858 47.2584 46.093 47.0509C45.8776 46.5691 45.4629 46.3016 44.8417 46.2439L44.441 46.2067V48.9374Z"/>
</mask>
<path fill-rule="evenodd" clip-rule="evenodd" d="M10.1719 0.0532752C8.38451 0.354918 6.97119 1.65048 6.46082 3.45524C6.36337 3.7997 6.35531 4.1917 6.33835 9.41969L6.32026 15.0154L5.93944 15.0809C4.95805 15.2496 3.76004 15.7772 2.91592 16.4122C1.4355 17.5259 0.49041 19.0539 0.102381 20.9608C0.00550153 21.4371 0 22.135 0 33.9145V46.3647L0.128303 46.8469C0.55666 48.4569 1.63856 49.606 3.2331 50.1444L3.63015 50.2785L16.7469 50.2934C23.9611 50.3016 29.8637 50.2949 29.8637 50.2786C29.8637 50.2622 29.7764 49.961 29.6698 49.6092C29.2157 48.1112 29.0454 46.9407 29.0451 45.3154C29.0447 43.6125 29.2375 42.3783 29.7436 40.8439C31.3792 35.8852 35.5088 32.1845 40.5723 31.1398C42.5885 30.7238 45.0099 30.7664 46.9633 31.2524C48.9086 31.7363 50.9172 32.7241 52.5166 33.9832L53.02 34.3795L53.4148 33.991C54.412 33.0096 54.8367 32.0537 54.8349 30.7948C54.8318 28.7078 53.4772 26.9323 51.5028 26.4273C51.0788 26.3188 50.8736 26.3138 46.8471 26.3138H42.6351L42.6107 23.8039C42.5882 21.4884 42.5768 21.2512 42.4632 20.7413C42.1527 19.3472 41.5562 18.2242 40.5981 17.2299C39.9427 16.5498 39.3425 16.1097 38.5136 15.7013C37.8874 15.3928 36.7293 15.0263 36.3805 15.0263C36.2764 15.0263 36.2731 14.9279 36.2731 11.7961C36.2731 8.29423 36.2426 7.80177 35.9594 6.74506C35.1189 3.60901 32.6634 1.15389 29.5225 0.309313C28.3405 -0.00855212 28.4498 -0.00531764 19.0696 0.00194266C14.3215 0.00557281 10.3175 0.0287149 10.1719 0.0532752ZM10.3098 1.8962C9.50623 2.07079 8.81848 2.61639 8.4422 3.3777L8.22456 3.81802L8.1962 22.0993C8.1806 32.1541 8.18003 40.3807 8.19489 40.3807C8.20975 40.3807 10.9153 37.689 14.2073 34.3993C17.4993 31.1094 20.3586 28.2933 20.5614 28.1411C21.6385 27.3328 22.7862 26.8083 24.2199 26.4694C24.7136 26.3527 24.89 26.3476 29.5801 26.3171L34.4297 26.2855L34.4441 18.137L34.4585 9.98849L32.8275 9.96358C31.274 9.93988 31.1716 9.93154 30.6688 9.78849C28.583 9.19507 27.0287 7.6349 26.4784 5.58228C26.3341 5.04388 26.3252 4.93373 26.3037 3.41269L26.281 1.81032L18.4723 1.81481C12.1271 1.81849 10.5973 1.83375 10.3098 1.8962ZM28.1058 3.10753C28.1062 4.39839 28.1514 4.84399 28.3389 5.40843C28.684 6.44659 29.6131 7.4311 30.6425 7.84936C31.2632 8.1016 31.7454 8.16309 33.1022 8.16309H34.3602L34.3245 7.85889C34.227 7.02991 33.6814 5.70434 33.1006 4.88546C32.0325 3.37985 30.3563 2.30573 28.5396 1.96268L28.1053 1.88066L28.1058 3.10753ZM13.6669 12.3265C12.9537 12.6385 12.9833 13.698 13.7129 13.9739C13.9299 14.056 14.6829 14.0634 21.4223 14.0493C28.8652 14.0338 28.8916 14.0333 29.0477 13.9168C29.2951 13.7321 29.4201 13.5278 29.4504 13.2586C29.4876 12.9292 29.3639 12.6446 29.0942 12.4388L28.8799 12.2754L21.3599 12.2631C15.1947 12.253 13.8088 12.2644 13.6669 12.3265ZM13.585 20.5418C13.3131 20.7269 13.1789 20.9344 13.1486 21.2167C13.111 21.567 13.3101 21.9253 13.6392 22.0993L13.8862 22.2299L21.2935 22.2287C28.3946 22.2275 28.7105 22.2231 28.9334 22.1219C29.246 21.9799 29.4246 21.7168 29.4536 21.356C29.4793 21.0346 29.3531 20.7856 29.0512 20.5619L28.8911 20.4432L21.3323 20.4284L13.7735 20.4137L13.585 20.5418ZM42.6088 32.6673C35.9597 33.1758 30.8279 38.6795 30.8279 45.302C30.8279 49.3661 32.6729 53.0463 35.9551 55.5291C37.4781 56.6812 39.3961 57.5004 41.4064 57.8573C42.3972 58.0332 44.4659 58.0496 45.4336 57.8891C47.3857 57.5655 48.9914 56.9346 50.5886 55.8637C55.2931 52.7096 57.3359 46.8099 55.5902 41.4192C54.3279 37.5213 51.2349 34.4637 47.2906 33.2148C45.8523 32.7593 44.0941 32.5537 42.6088 32.6673ZM42.1721 34.5435C38.4858 35.0176 35.2035 37.4141 33.6544 40.7625C31.9036 44.5467 32.4649 48.9368 35.1188 52.2169C37.2229 54.8177 40.5588 56.3258 43.9021 56.1877C46.1024 56.0968 48.0797 55.4181 49.8957 54.1304C50.5424 53.6717 51.8739 52.332 52.3276 51.6834C53.3101 50.2788 53.9296 48.8187 54.2272 47.2068C54.3531 46.5247 54.3996 44.8693 54.3138 44.1217C54.0084 41.4592 52.7261 38.9857 50.737 37.222C49.1294 35.7966 47.1138 34.8629 45.0112 34.5696C44.3352 34.4754 42.8109 34.4613 42.1721 34.5435ZM43.2319 35.8684C42.8043 36.0209 42.6259 36.294 42.6259 36.7959V37.1304L42.1009 37.1649C41.4078 37.2105 40.9088 37.372 40.3908 37.7185C39.7383 38.1549 39.2806 38.8006 39.0813 39.5656C38.9579 40.0392 38.9571 43.3849 39.0802 43.8575C39.3438 44.8695 40.1273 45.7094 41.1609 46.0878C41.2959 46.1373 41.6744 46.1943 42.002 46.2145L42.5975 46.2513L42.6123 48.9671L42.627 51.6828L42.1749 51.6567C41.6098 51.6239 41.27 51.4378 41.0108 51.0191C40.84 50.743 40.8391 50.737 40.8108 49.716C40.7779 48.5265 40.7315 48.3855 40.299 48.162C39.8564 47.9331 39.42 48.0554 39.1234 48.4912C39.0023 48.6691 38.9958 48.733 38.9958 49.7361C38.9958 50.5026 39.0196 50.8852 39.0826 51.1269C39.3397 52.1138 40.1591 52.9907 41.144 53.3329C41.3305 53.3976 41.6989 53.4578 42.0303 53.4777L42.5975 53.5116L42.6259 53.9087C42.6705 54.5329 42.9775 54.8445 43.5478 54.8445C44.0523 54.8445 44.441 54.3827 44.441 53.7832V53.4832H44.8828C46.2489 53.4832 47.4796 52.5861 47.9122 51.2752C48.0251 50.9331 48.037 50.7599 48.0574 49.1724C48.0756 47.7562 48.0635 47.3656 47.9908 47.019C47.662 45.4519 46.365 44.4106 44.7388 44.4083L44.441 44.4079V41.7136V39.0194L44.8238 39.0206C45.071 39.0214 45.2871 39.0584 45.4336 39.1252C45.7098 39.251 46.0492 39.6157 46.1367 39.8804C46.1721 39.9878 46.207 40.4953 46.2144 41.0081C46.226 41.8237 46.2419 41.9646 46.3411 42.1331C46.7047 42.7504 47.4808 42.7703 47.9258 42.1737C48.0345 42.0281 48.0427 41.9398 48.0423 40.9294C48.0419 40.0384 48.023 39.7803 47.9379 39.5015C47.7723 38.9581 47.5031 38.5081 47.1069 38.1118C46.5121 37.5171 45.8576 37.2318 44.9373 37.1661L44.441 37.1306V36.8591C44.441 36.7099 44.4139 36.5159 44.3808 36.4281C44.2912 36.1906 43.9909 35.9061 43.7628 35.8428C43.5126 35.7732 43.4967 35.7739 43.2319 35.8684ZM41.6289 39.0998C41.3396 39.2258 41.0593 39.5123 40.929 39.8149C40.8107 40.0902 40.8067 40.1634 40.8226 41.791L40.8392 43.4812L41.0108 43.7587C41.2724 44.1815 41.6247 44.3743 42.1819 44.3997L42.6259 44.4199V41.7196V39.0194L42.2147 39.0216C41.9885 39.0228 41.7249 39.058 41.6289 39.0998ZM44.441 48.9374V51.6682L44.7955 51.6676C45.3993 51.6667 45.9086 51.3446 46.1257 50.8264C46.188 50.6778 46.2042 50.2763 46.201 48.9601C46.1974 47.4623 46.1858 47.2584 46.093 47.0509C45.8776 46.5691 45.4629 46.3016 44.8417 46.2439L44.441 46.2067V48.9374Z" fill="#04CE78" stroke="black" stroke-width="2" mask="url(#path-1-inside-1_8_16617)"/>
<circle cx="44" cy="45" r="10" fill="white"/>
</svg>
