<svg width="40" height="40" viewBox="0 0 40 40" fill="none" xmlns="http://www.w3.org/2000/svg">
<circle opacity="0.2" cx="20" cy="20" r="20" fill="white"/>
<path d="M27.2055 19.6453L25.5806 19.742" stroke="white" stroke-miterlimit="10" stroke-linecap="round" stroke-linejoin="round"/>
<path d="M28.6025 20.9356C29.3743 20.9356 29.9999 20.3145 29.9999 19.5485C29.9999 18.7824 29.3743 18.1614 28.6025 18.1614C27.8307 18.1614 27.2051 18.7824 27.2051 19.5485C27.2051 20.3145 27.8307 20.9356 28.6025 20.9356Z" stroke="white" stroke-miterlimit="10" stroke-linecap="round" stroke-linejoin="round"/>
<path d="M26.2629 23.742L25.1904 22.6775" stroke="white" stroke-miterlimit="10" stroke-linecap="round" stroke-linejoin="round"/>
<path d="M27.9914 25.9128C28.6497 25.5136 28.8574 24.6603 28.4553 24.0069C28.0532 23.3534 27.1936 23.1472 26.5353 23.5464C25.8769 23.9455 25.6692 24.7988 26.0713 25.4522C26.4734 26.1057 27.333 26.3119 27.9914 25.9128Z" stroke="white" stroke-miterlimit="10" stroke-linecap="round" stroke-linejoin="round"/>
<path d="M26.1979 15.5808L25.1255 16.8389" stroke="white" stroke-miterlimit="10" stroke-linecap="round" stroke-linejoin="round"/>
<path d="M28.2115 15.3926C28.6846 14.7874 28.5738 13.9161 27.9642 13.4465C27.3545 12.9769 26.4767 13.0868 26.0036 13.692C25.5305 14.2972 25.6412 15.1685 26.2509 15.6381C26.8606 16.1077 27.7384 15.9978 28.2115 15.3926Z" stroke="white" stroke-miterlimit="10" stroke-linecap="round" stroke-linejoin="round"/>
<path d="M14.4662 19.9353L12.8413 19.9031" stroke="white" stroke-miterlimit="10" stroke-linecap="round" stroke-linejoin="round"/>
<path d="M11.4862 21.2639C12.2579 21.2392 12.8637 20.5982 12.8392 19.8321C12.8147 19.066 12.1692 18.465 11.3974 18.4897C10.6256 18.5144 10.0199 19.1555 10.0444 19.9215C10.0689 20.6876 10.7144 21.2886 11.4862 21.2639Z" stroke="white" stroke-miterlimit="10" stroke-linecap="round" stroke-linejoin="round"/>
<path d="M14.9535 22.8386L13.9136 23.9677" stroke="white" stroke-miterlimit="10" stroke-linecap="round" stroke-linejoin="round"/>
<path d="M14.2582 25.5323C14.5607 24.8275 14.2304 24.0127 13.5203 23.7124C12.8103 23.4121 11.9895 23.74 11.6869 24.4448C11.3844 25.1496 11.7148 25.9644 12.4248 26.2647C13.1348 26.565 13.9556 26.2371 14.2582 25.5323Z" stroke="white" stroke-miterlimit="10" stroke-linecap="round" stroke-linejoin="round"/>
<path d="M14.8557 17.0322L13.7183 15.8064" stroke="white" stroke-miterlimit="10" stroke-linecap="round" stroke-linejoin="round"/>
<path d="M13.675 15.8593C14.2693 15.3706 14.3519 14.4962 13.8595 13.9063C13.3671 13.3164 12.4862 13.2344 11.8919 13.7232C11.2977 14.2119 11.2151 15.0863 11.7075 15.6762C12.1999 16.2661 13.0808 16.3481 13.675 15.8593Z" stroke="white" stroke-miterlimit="10" stroke-linecap="round" stroke-linejoin="round"/>
<path d="M21.9079 11.9032C21.9079 12.4516 21.6805 13.1935 21.323 13.8065C20.998 14.3548 20.543 14.7419 20.0231 14.7419C19.5356 14.7419 19.0806 14.3226 18.7231 13.8065C18.3657 13.2258 18.1382 12.4516 18.1382 11.9355C18.1382 10.8387 18.9831 10 20.0231 10C21.063 10 21.9079 10.8387 21.9079 11.9032Z" stroke="white" stroke-miterlimit="10" stroke-linecap="round" stroke-linejoin="round"/>
<path d="M17.6831 22.7099V20.0647" stroke="white" stroke-miterlimit="10" stroke-linecap="round" stroke-linejoin="round"/>
<path d="M17.6833 22.7097H17.0984C16.6434 22.7097 16.2534 22.3226 16.2534 21.871L16.2859 18.2581C16.3184 17 17.2284 15.9677 18.4633 15.7742C18.5608 15.7742 18.6583 15.7419 18.7558 15.7419C19.0807 16.2903 19.5357 16.6774 20.0557 16.6774C20.5431 16.6774 20.9981 16.2581 21.3556 15.7419C21.4531 15.7419 21.5506 15.7742 21.6481 15.7742C22.883 15.9677 23.7929 17.0323 23.8254 18.2581L23.8579 21.7742C23.8579 22.2903 23.4355 22.7419 22.883 22.7419H22.3955" stroke="white" stroke-miterlimit="10" stroke-linecap="round" stroke-linejoin="round"/>
<path d="M20.0229 29.0968V25" stroke="white" stroke-miterlimit="10" stroke-linecap="round" stroke-linejoin="round"/>
<path d="M22.3628 19.8386V28.8386C22.3628 29.4838 21.8428 29.9999 21.1929 29.9999C20.5429 29.9999 20.023 29.4838 20.023 28.8386M20.023 28.8386V24.9999M20.023 28.8386C20.023 29.4838 19.503 29.9999 18.853 29.9999C18.2031 29.9999 17.6831 29.4838 17.6831 28.8386V19.8386" stroke="white" stroke-miterlimit="10" stroke-linecap="round" stroke-linejoin="round"/>
</svg>
