<svg width="80" height="69" viewBox="0 0 80 69" fill="none" xmlns="http://www.w3.org/2000/svg">
<path d="M0.528809 5.88953C0.528809 2.63683 3.16564 0 6.41834 0H73.5817C76.8344 0 79.4712 2.63683 79.4712 5.88953V63.086C79.4712 66.3387 76.8344 68.9755 73.5817 68.9755H6.41835C3.16565 68.9755 0.528809 66.3387 0.528809 63.086V5.88953Z" fill="#E3E3E3"/>
<path d="M73.9541 24.9344H44.6024C44.2904 24.9344 44.0361 25.1886 44.0361 25.5007V61.5885C44.0361 61.8989 44.2904 62.1515 44.6024 62.1515H73.9541C74.2662 62.1515 74.5204 61.8989 74.5204 61.5885V25.5007C74.5204 25.1886 74.2662 24.9344 73.9541 24.9344ZM64.9346 28.7268H66.3743L68.1095 31.6458L69.8448 28.7268H71.2844V32.8642H70.2179V30.0261L68.4942 32.8642H67.7249L66.0012 30.0261V32.8642H64.9346V28.7268ZM63.3942 28.7268H64.4592V32.8642H63.3942V28.7268ZM49.7404 28.6706C49.7866 28.6673 49.8312 28.6673 49.8791 28.6673C51.5317 28.6673 52.3605 29.2931 52.4662 30.4884H51.3831C51.2824 29.8197 50.7673 29.5605 49.8791 29.5605C48.7943 29.5605 48.337 29.9452 48.337 30.7905C48.337 31.6408 48.801 32.0288 49.8791 32.0288C50.7607 32.0288 51.2824 31.7646 51.3831 31.091H52.4662C52.3605 32.2896 51.5317 32.9236 49.8791 32.9236C48.3469 32.9236 47.5495 32.3904 47.3349 31.4031C47.2919 31.2165 47.2721 31.0101 47.2721 30.7905C47.2721 29.4532 48.0151 28.7069 49.7404 28.6706ZM51.7431 59.1962C50.7178 59.1962 49.7371 58.8792 48.9083 58.2815C47.6436 57.3768 46.8891 55.9057 46.8891 54.3505C46.8891 51.6791 49.0668 49.5064 51.7431 49.5064C53.3 49.5064 54.771 50.2576 55.6791 51.5157C56.2817 52.3445 56.5987 53.3252 56.5987 54.3505C56.5987 57.0218 54.421 59.1962 51.7431 59.1962ZM51.7431 47.6804C50.7178 47.6804 49.7371 47.365 48.9083 46.7674C47.6436 45.861 46.8891 44.3916 46.8891 42.8363C46.8891 40.165 49.0668 37.9906 51.7431 37.9906C53.3 37.9906 54.771 38.7435 55.6791 40.0015C56.2817 40.8303 56.5987 41.8094 56.5987 42.8363C56.5987 45.5076 54.421 47.6804 51.7431 47.6804ZM57.1204 32.8642H52.8558V28.7268H53.9207V31.9727H57.1204V32.8642ZM59.5523 28.7268H60.9904L63.135 32.8642H61.9562L61.5121 31.9826H59.0306L58.5865 32.8642H57.4126L59.5523 28.7268ZM65.8642 57.3157H58.6558C58.4445 57.3157 58.2728 57.144 58.2728 56.9326C58.2728 56.7213 58.4445 56.5496 58.6558 56.5496H65.8642C66.0755 56.5496 66.2472 56.7213 66.2472 56.9326C66.2472 57.144 66.0755 57.3157 65.8642 57.3157ZM71.826 54.438H58.6558C58.4445 54.438 58.2728 54.2679 58.2728 54.0566C58.2728 53.8436 58.4445 53.6736 58.6558 53.6736H71.826C72.0373 53.6736 72.209 53.8436 72.209 54.0566C72.209 54.2679 72.0373 54.438 71.826 54.438ZM71.826 51.5619H58.6558C58.4445 51.5619 58.2728 51.3902 58.2728 51.1789C58.2728 50.9675 58.4445 50.7958 58.6558 50.7958H71.826C72.0373 50.7958 72.209 50.9675 72.209 51.1789C72.209 51.3902 72.0373 51.5619 71.826 51.5619ZM58.2728 45.4168C58.2728 45.2055 58.4445 45.0338 58.6558 45.0338H65.8642C66.0755 45.0338 66.2472 45.2055 66.2472 45.4168C66.2472 45.6298 66.0755 45.7999 65.8642 45.7999H58.6558C58.4445 45.7999 58.2728 45.6298 58.2728 45.4168ZM71.826 42.9238H58.6558C58.4445 42.9238 58.2728 42.7521 58.2728 42.5408C58.2728 42.3294 58.4445 42.1577 58.6558 42.1577H71.826C72.0373 42.1577 72.209 42.3294 72.209 42.5408C72.209 42.7521 72.0373 42.9238 71.826 42.9238ZM71.826 40.0477H58.6558C58.4445 40.0477 58.2728 39.876 58.2728 39.6647C58.2728 39.4534 58.4445 39.2817 58.6558 39.2817H71.826C72.0373 39.2817 72.209 39.4534 72.209 39.6647C72.209 39.876 72.0373 40.0477 71.826 40.0477Z" fill="#1F5FFF"/>
<path d="M55.0582 51.9648C54.2922 50.9049 53.0522 50.2709 51.743 50.2709C49.4894 50.2709 47.6567 52.1018 47.6567 54.3505C47.6567 55.6598 48.2924 56.898 49.3573 57.6608C50.054 58.1644 50.8795 58.4302 51.743 58.4302C53.9983 58.4302 55.8309 56.5992 55.8309 54.3505C55.8309 53.487 55.5634 52.6632 55.0582 51.9648ZM54.3334 53.0198L51.1222 56.2228C51.0479 56.2971 50.9489 56.335 50.8514 56.335C50.7524 56.335 50.655 56.2971 50.5807 56.2228L49.1542 54.8013C49.004 54.651 49.004 54.4083 49.1542 54.2597C49.3044 54.1095 49.5471 54.1095 49.6974 54.2597L50.8514 55.4105L53.7902 52.4783C53.9405 52.328 54.1832 52.328 54.3334 52.4783C54.482 52.6269 54.4837 52.8696 54.3334 53.0198Z" fill="#1F5FFF"/>
<path d="M55.0582 40.4507C54.2922 39.3891 53.0522 38.7567 51.743 38.7567C49.4894 38.7567 47.6567 40.5877 47.6567 42.8364C47.6567 44.1456 48.2924 45.3822 49.3573 46.145C50.054 46.6486 50.8795 46.9144 51.743 46.9144C53.9983 46.9144 55.8309 45.085 55.8309 42.8364C55.8309 41.9729 55.5634 41.1474 55.0582 40.4507ZM54.3334 41.504L51.1222 44.707C51.0479 44.7829 50.9489 44.8192 50.8514 44.8192C50.7524 44.8192 50.655 44.7829 50.5807 44.707L49.1542 43.2854C49.004 43.1368 49.004 42.8941 49.1542 42.7439C49.3044 42.5953 49.5471 42.5953 49.6974 42.7439L50.8514 43.8963L53.7902 40.9625C53.9405 40.8139 54.1832 40.8139 54.3334 40.9625C54.482 41.1127 54.4837 41.3554 54.3334 41.504Z" fill="#1F5FFF"/>
<path d="M61.1153 31.1917H59.4263L60.2732 29.5126L61.1153 31.1917Z" fill="#1F5FFF"/>
<path fill-rule="evenodd" clip-rule="evenodd" d="M74.4279 68.9999H5.47444C2.74704 68.9999 0.528809 67.0137 0.528809 64.6098V4.39139C0.528809 1.98751 2.74704 0.00134277 5.47444 0.00134277H74.4279C77.154 0.00134277 79.4186 1.98751 79.4186 4.39139V64.6098C79.4186 67.0137 77.154 68.9999 74.4279 68.9999ZM5.47444 1.84964C3.81042 1.84964 2.37711 3.00448 2.37711 4.39139V64.6098C2.37711 65.9503 3.81042 67.1516 5.47444 67.1516H74.4279C76.137 67.1516 77.5703 65.9503 77.5703 64.6098V4.39139C77.5703 3.00448 76.137 1.84964 74.4279 1.84964H5.47444Z" fill="#000D44"/>
<mask id="mask0_37_8293" style="mask-type:luminance" maskUnits="userSpaceOnUse" x="0" y="17" width="80" height="4">
<path d="M0.528809 17.9452H79.4186V20.0419H0.528809V17.9452Z" fill="white"/>
</mask>
<g mask="url(#mask0_37_8293)">
<path fill-rule="evenodd" clip-rule="evenodd" d="M78.4945 19.8741H1.45296C0.945153 19.8741 0.528809 19.4577 0.528809 18.9486C0.528809 18.4408 0.945153 18.0244 1.45296 18.0244H78.4945C79.0023 18.0244 79.4186 18.4408 79.4186 18.9486C79.4186 19.4577 79.0023 19.8741 78.4945 19.8741Z" fill="#000D44"/>
</g>
<path fill-rule="evenodd" clip-rule="evenodd" d="M9.49369 14.5121C6.95194 14.5121 4.87158 12.4795 4.87158 9.93778C4.87158 7.39603 6.95194 5.31567 9.49369 5.31567C12.0354 5.31567 14.0694 7.39603 14.0694 9.93778C14.0694 12.4795 12.0354 14.5121 9.49369 14.5121ZM9.49369 7.16397C7.96891 7.16397 6.72124 8.41164 6.72124 9.93778C6.72124 11.4626 7.96891 12.6638 9.49369 12.6638C11.0185 12.6638 12.2211 11.4626 12.2211 9.93778C12.2211 8.41164 10.9721 7.16397 9.49369 7.16397Z" fill="#04CE78"/>
<path fill-rule="evenodd" clip-rule="evenodd" d="M21.9717 14.5121C19.4299 14.5121 17.396 12.4795 17.396 9.93778C17.396 7.39603 19.4299 5.31567 21.9717 5.31567C24.5134 5.31567 26.5938 7.39603 26.5938 9.93778C26.5938 12.4795 24.5134 14.5121 21.9717 14.5121ZM21.9717 7.16397C20.4469 7.16397 19.2457 8.41164 19.2457 9.93778C19.2457 11.4626 20.4469 12.6638 21.9717 12.6638C23.4965 12.6638 24.7441 11.4626 24.7441 9.93778C24.7441 8.41164 23.4965 7.16397 21.9717 7.16397Z" fill="#1F5FFF"/>
<path fill-rule="evenodd" clip-rule="evenodd" d="M34.4971 14.5121C31.9554 14.5121 29.875 12.4795 29.875 9.93778C29.875 7.39603 31.9554 5.31567 34.4971 5.31567C37.0389 5.31567 39.0728 7.39603 39.0728 9.93778C39.0728 12.4795 36.9924 14.5121 34.4971 14.5121ZM34.4971 7.16397C32.9723 7.16397 31.7247 8.41164 31.7247 9.93778C31.7247 11.4626 32.9723 12.6638 34.4971 12.6638C36.0219 12.6638 37.2245 11.4626 37.2245 9.93778C37.2245 8.41164 35.9755 7.16397 34.4971 7.16397Z" fill="#04CE78"/>
<path fill-rule="evenodd" clip-rule="evenodd" d="M72.4867 15.7598H46.2351C44.5261 15.7598 43.1392 14.3279 43.1392 12.6174V7.21041C43.1392 5.49998 44.5261 4.11444 46.2351 4.11444H72.4867C74.1957 4.11444 75.5826 5.49998 75.5826 7.21041V12.6174C75.5826 14.3279 74.1957 15.7598 72.4867 15.7598ZM46.2351 5.96274C45.543 5.96274 44.9875 6.51695 44.9875 7.21041V12.6174C44.9875 13.3109 45.543 13.9115 46.2351 13.9115H72.4867C73.1337 13.9115 73.7343 13.3109 73.7343 12.6174V7.21041C73.7343 6.51695 73.1788 5.96274 72.4867 5.96274H46.2351Z" fill="#1F5FFF"/>
<path fill-rule="evenodd" clip-rule="evenodd" d="M63.1507 15.7598C62.6415 15.7598 62.2266 15.3448 62.2266 14.8357V5.03859C62.2266 4.52942 62.6415 4.11444 63.1507 4.11444C63.6585 4.11444 64.0749 4.52942 64.0749 5.03859V14.8357C64.0749 15.3448 63.6585 15.7598 63.1507 15.7598Z" fill="#1F5FFF"/>
<path fill-rule="evenodd" clip-rule="evenodd" d="M68.0488 11.7397C67.3567 11.7397 66.6632 11.4626 66.2005 10.9534C65.6927 10.492 65.4155 9.845 65.4155 9.15154C65.3691 8.41168 65.6927 7.71959 66.2005 7.21042C67.171 6.19345 68.8814 6.19345 69.8984 7.21042C70.4062 7.71959 70.6833 8.41168 70.6833 9.15154C70.6833 9.845 70.4062 10.492 69.8984 10.9534C69.3892 11.4626 68.7422 11.7397 68.0488 11.7397ZM68.0488 8.27381C67.8181 8.27381 67.6338 8.36527 67.4945 8.5045C67.3103 8.68879 67.2174 8.87444 67.2174 9.10513C67.2174 9.29078 67.3103 9.47506 67.4481 9.6143C67.4945 9.65935 67.4945 9.65935 67.4945 9.65935C67.6338 9.79858 67.8181 9.89141 68.0488 9.89141C68.2344 9.89141 68.4187 9.845 68.5579 9.65935C68.5579 9.65935 68.6043 9.65935 68.6043 9.6143C68.7422 9.47506 68.835 9.29078 68.835 9.10513C68.835 8.87444 68.7422 8.68879 68.6043 8.5045C68.4651 8.36527 68.2344 8.27381 68.0488 8.27381Z" fill="#04CE78"/>
<path fill-rule="evenodd" clip-rule="evenodd" d="M71.423 13.4037C71.1923 13.4037 70.9152 13.3109 70.7759 13.1266L68.6041 10.9534C68.2342 10.5849 68.2342 10.0293 68.6041 9.65936C68.9276 9.29079 69.5283 9.29079 69.8982 9.65936L72.07 11.8325C72.4399 12.1561 72.4399 12.7567 72.07 13.1266C71.8844 13.3109 71.6537 13.4037 71.423 13.4037Z" fill="#04CE78"/>
<path fill-rule="evenodd" clip-rule="evenodd" d="M39.9505 69C39.4427 69 39.0264 68.585 39.0264 68.0758V18.9486C39.0264 18.4408 39.4427 18.0244 39.9505 18.0244C40.4583 18.0244 40.8747 18.4408 40.8747 18.9486V68.0758C40.8747 68.585 40.4583 69 39.9505 69Z" fill="#000D44"/>
<path fill-rule="evenodd" clip-rule="evenodd" d="M9.40167 35.6788C9.21739 35.6788 8.98669 35.6324 8.80104 35.4481L4.31817 31.7965C4.27176 31.7515 4.22535 31.7515 4.22535 31.7051C4.13389 31.6123 4.08748 31.5194 4.04107 31.428C3.99465 31.3351 3.94824 31.1959 3.94824 31.058C3.94824 30.9188 3.99465 30.7809 4.04107 30.6417C4.08748 30.5489 4.13389 30.4574 4.22535 30.3646C4.27176 30.3646 4.27176 30.3182 4.31817 30.3182L8.80104 26.5752C9.21739 26.2516 9.77161 26.2981 10.0951 26.713C10.4186 27.083 10.3722 27.6836 10.0023 28.0071L6.30571 31.0116L10.0023 34.0161C10.3722 34.3397 10.4186 34.9403 10.1415 35.3088C9.95725 35.5409 9.67878 35.6788 9.40167 35.6788Z" fill="#04CE78"/>
<path fill-rule="evenodd" clip-rule="evenodd" d="M13.0068 37.4356C12.914 37.4356 12.869 37.3892 12.7761 37.3892C12.267 37.25 11.9899 36.7422 12.1291 36.2344L15.0872 25.2811C15.2251 24.8183 15.7342 24.4948 16.1956 24.6341C16.7048 24.7719 16.9819 25.2811 16.8427 25.7889L13.8846 36.7422C13.7931 37.1585 13.4232 37.4356 13.0068 37.4356Z" fill="#04CE78"/>
<path fill-rule="evenodd" clip-rule="evenodd" d="M19.5699 35.6788C19.2914 35.6788 19.0143 35.5409 18.8301 35.3553C18.5065 34.9403 18.5994 34.3847 18.9679 34.0612L22.6195 31.0581L18.9679 28.0072C18.5994 27.6836 18.5529 27.1294 18.8765 26.7131C19.2 26.3431 19.7542 26.2981 20.1705 26.6216L24.6534 30.3182C24.6998 30.3646 24.7449 30.3646 24.7449 30.411C24.8377 30.5025 24.8841 30.5953 24.9305 30.6881C24.9769 30.781 25.0233 30.9188 25.0233 31.0581C25.0233 31.1959 24.9769 31.3352 24.9305 31.4731C24.8841 31.5659 24.8377 31.6587 24.7449 31.7515C24.6998 31.7515 24.6998 31.7966 24.6534 31.7966L20.1705 35.4945C19.9849 35.5874 19.7542 35.6788 19.5699 35.6788Z" fill="#04CE78"/>
<path fill-rule="evenodd" clip-rule="evenodd" d="M36.5309 31.9822H28.8592C28.35 31.9822 27.9351 31.5659 27.9351 31.0581C27.9351 30.5489 28.35 30.1339 28.8592 30.1339H36.5309C37.0387 30.1339 37.455 30.5489 37.455 31.0581C37.455 31.5659 37.0387 31.9822 36.5309 31.9822Z" fill="#1F5FFF"/>
<path fill-rule="evenodd" clip-rule="evenodd" d="M36.5309 38.0363H28.8592C28.35 38.0363 27.9351 37.6199 27.9351 37.1121C27.9351 36.603 28.35 36.188 28.8592 36.188H36.5309C37.0387 36.188 37.455 36.603 37.455 37.1121C37.455 37.6199 37.0387 38.0363 36.5309 38.0363Z" fill="#1F5FFF"/>
<path fill-rule="evenodd" clip-rule="evenodd" d="M36.5304 44.1367H21.4642C20.9551 44.1367 20.5401 43.7203 20.5401 43.2125C20.5401 42.7034 20.9551 42.2884 21.4642 42.2884H36.5304C37.0382 42.2884 37.4546 42.7034 37.4546 43.2125C37.4546 43.7203 37.0382 44.1367 36.5304 44.1367ZM16.6578 44.1367H6.67513C6.16596 44.1367 5.75098 43.7203 5.75098 43.2125C5.75098 42.7034 6.16596 42.2884 6.67513 42.2884H16.6578C17.1656 42.2884 17.582 42.7034 17.582 43.2125C17.582 43.7203 17.1656 44.1367 16.6578 44.1367Z" fill="#1F5FFF"/>
<path fill-rule="evenodd" clip-rule="evenodd" d="M36.5304 50.1907H28.1653C27.6562 50.1907 27.2412 49.7744 27.2412 49.2666C27.2412 48.7588 27.6562 48.3424 28.1653 48.3424H36.5304C37.0382 48.3424 37.4546 48.7588 37.4546 49.2666C37.4546 49.7744 37.0382 50.1907 36.5304 50.1907ZM21.2322 50.1907H15.0867C14.5775 50.1907 14.1611 49.7744 14.1611 49.2666C14.1611 48.7588 14.5775 48.3424 15.0867 48.3424H21.2322C21.7413 48.3424 22.1577 48.7588 22.1577 49.2666C22.1577 49.7744 21.7413 50.1907 21.2322 50.1907ZM10.0482 50.1907H6.67513C6.16596 50.1907 5.75098 49.7744 5.75098 49.2666C5.75098 48.7588 6.16596 48.3424 6.67513 48.3424H10.0482C10.5574 48.3424 10.9723 48.7588 10.9723 49.2666C10.9723 49.7744 10.5574 50.1907 10.0482 50.1907Z" fill="#1F5FFF"/>
<path fill-rule="evenodd" clip-rule="evenodd" d="M36.5304 56.2913H6.67513C6.16596 56.2913 5.75098 55.8749 5.75098 55.3671C5.75098 54.8593 6.16596 54.443 6.67513 54.443H36.5304C37.0382 54.443 37.4546 54.8593 37.4546 55.3671C37.4546 55.8749 37.0382 56.2913 36.5304 56.2913Z" fill="#1F5FFF"/>
<path fill-rule="evenodd" clip-rule="evenodd" d="M36.5304 62.3454H22.9426C22.4348 62.3454 22.0184 61.929 22.0184 61.4212C22.0184 60.9134 22.4348 60.4971 22.9426 60.4971H36.5304C37.0382 60.4971 37.4546 60.9134 37.4546 61.4212C37.4546 61.929 37.0382 62.3454 36.5304 62.3454ZM12.7292 62.3454H6.67513C6.16596 62.3454 5.75098 61.929 5.75098 61.4212C5.75098 60.9134 6.16596 60.4971 6.67513 60.4971H12.7292C13.237 60.4971 13.6533 60.9134 13.6533 61.4212C13.6533 61.929 13.237 62.3454 12.7292 62.3454Z" fill="#1F5FFF"/>
</svg>
