<svg width="74" height="86" viewBox="0 0 74 86" fill="none" xmlns="http://www.w3.org/2000/svg">
<path d="M10.5254 28.2115V2.79883H52.5209L63.8274 13.4592L61.6738 66.7612H14.1865L10.5254 28.2115Z" fill="#E3E3E3"/>
<path fill-rule="evenodd" clip-rule="evenodd" d="M57.6792 67.8941H16.1167C16.0472 67.8941 15.9877 67.9379 15.9653 68.004C15.8082 68.4908 15.6366 68.9732 15.4493 69.4488C15.4437 69.4645 15.4403 69.479 15.4392 69.4959L15.3596 70.5861C15.354 70.6691 15.2844 70.7331 15.2014 70.7331H0.451388C0.411008 70.7331 0.369506 70.7342 0.330247 70.7364C0.243878 70.7409 0.169847 70.6759 0.163117 70.5895C0.0655316 69.2558 0.0172997 67.7191 0.00383957 66.2464C-0.0219587 63.5039 0.085722 60.9532 0.222566 60.3508C2.56014 50.0606 1.68299 32.8653 9.53359 26.3551C9.57173 26.3237 9.59192 26.2822 9.59192 26.2329V5.53571C9.59192 2.90763 11.7388 0.760742 14.368 0.760742H52.8516C53.1847 0.760742 53.4853 0.897587 53.7018 1.11743L63.8552 11.2697C64.0885 11.5019 64.2052 11.807 64.2052 12.111V26.234C64.2052 26.2822 64.2253 26.3237 64.2624 26.3551C72.1141 32.8653 71.2369 50.0606 73.5734 60.3508C73.7102 60.9532 73.8179 63.5039 73.7932 66.2464C73.7798 67.7236 73.7304 69.2659 73.6328 70.603C73.6261 70.686 73.5577 70.7499 73.4735 70.7499L58.5945 70.7342C58.5115 70.7342 58.4431 70.6703 58.4364 70.5873L58.3567 69.4959C58.3556 69.479 58.3522 69.4645 58.3466 69.4499C58.1604 68.9732 57.9877 68.4908 57.8307 68.004C57.8094 67.9379 57.7499 67.8941 57.6792 67.8941ZM17.9484 76.8417V73.2748C17.9484 73.1873 17.8777 73.1166 17.7902 73.1166H0.643194C0.555704 73.1166 0.483916 73.1873 0.483916 73.2748V76.8417C0.483916 76.9292 0.555704 76.9999 0.643194 76.9999H17.7891C17.8766 76.9999 17.9484 76.9292 17.9484 76.8417ZM73.1539 73.1166H56.0068C55.9193 73.1166 55.8475 73.1873 55.8475 73.2748V76.8417C55.8475 76.9292 55.9193 76.9999 56.0068 76.9999H73.1539C73.2414 76.9999 73.312 76.9292 73.312 76.8417V73.2748C73.312 73.1873 73.2414 73.1166 73.1539 73.1166ZM61.8216 32.54V13.4615C61.8216 13.374 61.7509 13.3033 61.6623 13.3033H56.4364C53.8072 13.3033 51.6603 11.1564 51.6603 8.52722V3.30246C51.6603 3.21497 51.5886 3.14318 51.5011 3.14318H14.368C13.0545 3.14318 11.9744 4.22223 11.9744 5.53571V45.3339C11.9744 45.3933 12.0046 45.4438 12.0574 45.4729C12.109 45.5021 12.1684 45.4999 12.2189 45.4685L19.0622 41.1265C19.0633 41.1265 19.0645 41.1253 19.0645 41.1253C21.0173 39.8276 23.78 40.4837 24.9353 42.4478C26.1265 44.4735 25.5197 46.976 23.6061 48.1896L16.9131 52.4352C16.8592 52.47 16.8312 52.5294 16.8413 52.5933C17.4818 56.8916 17.5524 61.2011 16.6798 65.3199C16.6697 65.3692 16.6809 65.4152 16.7123 65.4533C16.7437 65.4915 16.7863 65.5117 16.8357 65.5117H56.9603C57.0107 65.5117 57.0534 65.4915 57.0836 65.4533C57.115 65.4141 57.1263 65.3692 57.1162 65.3199C56.2446 61.2011 56.3142 56.8927 56.9558 52.5933C56.9647 52.5294 56.9378 52.47 56.884 52.4352L50.1909 48.1896C47.0884 46.2222 47.8343 41.3788 51.528 40.5533C52.5779 40.3177 53.7164 40.4815 54.69 41.0984L61.5782 45.4685C61.6287 45.4999 61.6881 45.5021 61.7397 45.4729C61.7913 45.4438 61.8216 45.3933 61.8216 45.3339V32.54ZM27.4939 8.62593C25.1238 8.62593 23.2012 10.5474 23.2012 12.9175C23.2012 15.2876 25.1226 17.209 27.4939 17.209C29.8651 17.209 31.7865 15.2876 31.7865 12.9175C31.7865 10.5474 29.8651 8.62593 27.4939 8.62593ZM24.8848 60.3228H48.9111C49.5695 60.3228 50.1023 59.7889 50.1023 59.1316C50.1023 58.4732 49.5695 57.9404 48.9111 57.9404H24.8848C24.2275 57.9404 23.6936 58.4732 23.6936 59.1316C23.6936 59.7889 24.2275 60.3228 24.8848 60.3228ZM41.111 14.4104L43.093 16.619C43.5293 17.1058 44.2775 17.1484 44.7665 16.7132L44.7688 16.7166L49.7232 12.2994C50.2134 11.8631 50.2571 11.1104 49.8208 10.6203C49.3833 10.129 48.6318 10.0852 48.1405 10.5227L44.1866 14.047C44.1216 14.1053 44.0206 14.0997 43.9623 14.0346L42.8799 12.8288C42.4424 12.3398 41.692 12.2983 41.2041 12.7357C40.7162 13.1721 40.6747 13.9225 41.111 14.4104ZM41.111 25.3052L43.093 27.5138C43.5293 28.0017 44.2775 28.0432 44.7665 27.6092L44.7688 27.6114L49.7232 23.1954C50.2134 22.7579 50.2571 22.0064 49.8208 21.5151C49.3833 21.0249 48.6318 20.9812 48.1405 21.4175L44.1866 24.9418C44.1216 25.0001 44.0206 24.9945 43.9623 24.9295L42.8799 23.7237C42.4424 23.2357 41.692 23.1942 41.2041 23.6306C40.7162 24.0669 40.6747 24.8173 41.111 25.3052ZM41.111 36.2012L43.093 38.4098C43.5293 38.8966 44.2775 38.9392 44.7665 38.5051L44.7688 38.5074L49.7232 34.0902C50.2134 33.6539 50.2571 32.9012 49.8208 32.411C49.3833 31.9198 48.6318 31.876 48.1405 32.3135L44.1866 35.8378C44.1216 35.8961 44.0206 35.8905 43.9623 35.8254L42.8799 34.6185C42.4424 34.1306 41.692 34.0891 41.2041 34.5254C40.7162 34.9629 40.6747 35.7133 41.111 36.2012ZM24.988 53.1755H47.5561C48.2134 53.1755 48.7473 52.6416 48.7473 51.9843C48.7473 51.3259 48.2134 50.7931 47.5561 50.7931H24.988C24.3296 50.7931 23.7968 51.3259 23.7968 51.9843C23.7968 52.6416 24.3296 53.1755 24.988 53.1755ZM27.4939 18.8489C22.0694 18.8489 17.631 23.2862 17.631 28.7095V38.6218C17.631 38.7093 17.7027 38.781 17.7902 38.781H37.1975C37.285 38.781 37.3567 38.7093 37.3567 38.6218V28.7095C37.3567 23.2862 32.9183 18.8489 27.4939 18.8489Z" fill="#1F5FFF"/>
<path d="M0 55.6211C0 53.6212 1.62121 52 3.62107 52H36.2107C38.2106 52 39.8318 53.6212 39.8318 55.6211V81.4859C39.8318 83.4857 38.2106 85.1069 36.2107 85.1069H3.62107C1.62121 85.1069 0 83.4857 0 81.4859V55.6211Z" fill="#F5F5F5"/>
<path d="M13.2331 68.2479H7.58236C6.58345 68.2479 5.77393 69.0587 5.77393 70.059C5.77393 71.0592 6.58345 71.8701 7.58236 71.8701H13.2331C14.2306 71.8701 15.0402 71.0592 15.0402 70.059C15.0402 69.0587 14.2306 68.2479 13.2331 68.2479Z" fill="#04CE78"/>
<path d="M13.2331 75.4937H7.58236C6.58345 75.4937 5.77393 76.3046 5.77393 77.3048C5.77393 78.3064 6.58345 79.1172 7.58236 79.1172H13.2331C14.2306 79.1172 15.0402 78.3064 15.0402 77.3048C15.0402 76.3046 14.2306 75.4937 13.2331 75.4937Z" fill="#04CE78"/>
<mask id="mask0_38_8398" style="mask-type:luminance" maskUnits="userSpaceOnUse" x="19" y="68" width="33" height="11">
<path d="M19.4727 68.6306H51.2123V78.5317H19.4727V68.6306Z" fill="white"/>
</mask>
<g mask="url(#mask0_38_8398)">
<path d="M49.3625 71.814C49.2691 71.8953 49.1344 71.934 48.9531 71.934H47.7955V75.7496C47.7955 75.9697 47.7461 76.1324 47.6488 76.2364C47.5514 76.3431 47.4247 76.3978 47.2687 76.3978C47.1126 76.3978 46.9846 76.3431 46.8846 76.2364C46.7872 76.1284 46.7379 75.967 46.7379 75.7496V71.934H45.5789C45.3975 71.934 45.2642 71.8953 45.1762 71.814C45.0881 71.734 45.0428 71.6286 45.0428 71.4966C45.0428 71.3606 45.0881 71.2539 45.1802 71.1752C45.2735 71.0965 45.4042 71.0578 45.5789 71.0578H48.9531C49.1358 71.0578 49.2745 71.0978 49.3625 71.1792C49.4532 71.2592 49.4972 71.3659 49.4972 71.4966C49.4972 71.6286 49.4532 71.734 49.3625 71.814ZM44.3653 75.7496C44.3653 75.967 44.3146 76.1284 44.2159 76.2364C44.1159 76.3431 43.9879 76.3978 43.8265 76.3978C43.6758 76.3978 43.5491 76.3431 43.4491 76.2337C43.3517 76.1257 43.3024 75.963 43.3024 75.7496V71.6126C43.3024 71.3966 43.3504 71.2365 43.4491 71.1272C43.5464 71.0218 43.6731 70.9671 43.8265 70.9671C43.9879 70.9671 44.1159 71.0218 44.2159 71.1272C44.3146 71.2339 44.3653 71.3952 44.3653 71.6126V75.7496ZM42.1701 75.795C42.1701 75.9963 42.1248 76.1457 42.0341 76.2457C41.9461 76.3471 41.826 76.3978 41.6753 76.3978C41.5353 76.3978 41.4193 76.3471 41.3299 76.2457C41.2392 76.1457 41.1939 75.9963 41.1939 75.795V72.1714L40.3537 75.5162C40.299 75.7336 40.2536 75.8923 40.2203 75.9937C40.183 76.0964 40.1203 76.1884 40.0283 76.2697C39.9349 76.3538 39.8069 76.3978 39.6415 76.3978C39.5188 76.3978 39.4121 76.3698 39.3268 76.3151C39.2414 76.2631 39.1761 76.1937 39.128 76.1097C39.08 76.0257 39.0427 75.935 39.0147 75.8336C38.988 75.7309 38.9587 75.6242 38.932 75.5162L38.0905 72.1714V75.795C38.0905 75.9963 38.0451 76.1457 37.9571 76.2457C37.8664 76.3471 37.749 76.3978 37.5997 76.3978C37.4583 76.3978 37.3409 76.3471 37.2503 76.2484C37.1596 76.1484 37.1142 75.999 37.1142 75.795V71.642C37.1142 71.4112 37.1756 71.2565 37.2929 71.1778C37.413 71.0965 37.573 71.0578 37.7771 71.0578H38.1038C38.3038 71.0578 38.4452 71.0752 38.5359 71.1125C38.6239 71.1458 38.6919 71.2112 38.7346 71.3045C38.7773 71.3966 38.8253 71.5486 38.8813 71.7593L39.6415 74.636L40.403 71.7593C40.4577 71.5486 40.507 71.3966 40.5497 71.3045C40.5924 71.2112 40.6577 71.1458 40.7484 71.1125C40.8365 71.0752 40.9818 71.0578 41.1779 71.0578H41.5086C41.7113 71.0578 41.8714 71.0965 41.9901 71.1778C42.1088 71.2565 42.1701 71.4112 42.1701 71.642V75.795ZM36.018 75.6042C35.8659 75.8376 35.6659 76.0123 35.4098 76.1257C35.2498 76.191 35.0671 76.2391 34.859 76.2657C34.6523 76.2937 34.4109 76.3071 34.1335 76.3071H32.5331C32.2997 76.3071 32.1357 76.2551 32.0383 76.1524C31.9383 76.0483 31.889 75.883 31.889 75.6549V71.71C31.889 71.4766 31.9383 71.3112 32.0397 71.2099C32.1424 71.1072 32.3064 71.0578 32.5331 71.0578H34.2309C34.4816 71.0578 34.6976 71.0738 34.8817 71.1032C35.0644 71.1338 35.2298 71.1938 35.3738 71.2819C35.4978 71.3566 35.6072 71.4486 35.7032 71.5646C35.7992 71.678 35.8713 71.802 35.9206 71.9407C35.9699 72.0767 35.9953 72.2208 35.9953 72.3755C35.9953 72.3981 35.9953 72.4208 35.9926 72.4435C35.9726 72.9343 35.7112 73.2944 35.2084 73.5277C35.7539 73.7024 36.0833 74.0052 36.1967 74.4386C36.226 74.5533 36.242 74.676 36.242 74.8094C36.242 75.1041 36.1673 75.3695 36.018 75.6042ZM30.75 74.1372C30.75 74.5467 30.7087 74.8907 30.63 75.1655C30.5486 75.4389 30.3993 75.6789 30.1752 75.887C29.9858 76.0643 29.7645 76.1937 29.5111 76.2751C29.2603 76.3564 28.9643 76.3978 28.6255 76.3978C28.2228 76.3978 27.8773 76.3538 27.5853 76.2657C27.2932 76.1804 27.0571 76.0443 26.8731 75.8603C26.6904 75.6789 26.5544 75.4442 26.469 75.1588C26.385 74.8734 26.3423 74.5333 26.3423 74.1372V71.6126C26.3423 71.3966 26.3903 71.2365 26.4863 71.1272C26.5824 71.0218 26.7077 70.9671 26.8664 70.9671C27.0318 70.9671 27.1612 71.0218 27.2572 71.1272C27.3545 71.2365 27.4026 71.3966 27.4026 71.6126V74.1932C27.4026 74.488 27.4359 74.7334 27.5013 74.9294C27.5666 75.1268 27.6826 75.2802 27.8493 75.3895C28.0174 75.4975 28.2494 75.5522 28.5508 75.5522C28.9643 75.5522 29.2577 75.4415 29.4297 75.2201C29.6018 75.0001 29.6871 74.6653 29.6871 74.2159V71.6126C29.6871 71.3952 29.7351 71.2339 29.8298 71.1272C29.9245 71.0218 30.0539 70.9671 30.2112 70.9671C30.3726 70.9671 30.5006 71.0218 30.6007 71.1272C30.6994 71.2339 30.75 71.3952 30.75 71.6126V74.1372ZM25.1874 75.5869C25.0247 75.8403 24.7873 76.039 24.4712 76.1817C24.1564 76.3244 23.7844 76.3978 23.3523 76.3978C22.8375 76.3978 22.4094 76.3004 22.0733 76.103C21.8359 75.963 21.6412 75.7749 21.4918 75.5389C21.3424 75.3028 21.2678 75.0748 21.2678 74.8534C21.2678 74.724 21.3131 74.6133 21.4038 74.5226C21.4918 74.4293 21.6078 74.3839 21.7452 74.3839C21.8559 74.3839 21.9506 74.42 22.0279 74.4906C22.1066 74.5627 22.172 74.6693 22.2267 74.8094C22.2947 74.9774 22.3667 75.1175 22.444 75.2281C22.5201 75.3415 22.6294 75.4349 22.7708 75.5069C22.9108 75.5802 23.0975 75.6162 23.3256 75.6162C23.639 75.6162 23.8951 75.5429 24.0911 75.3962C24.2871 75.2495 24.3845 75.0654 24.3845 74.8454C24.3845 74.672 24.3325 74.5306 24.2271 74.4226C24.1204 74.3133 23.9844 74.2306 23.815 74.1732C23.6483 74.1145 23.4229 74.0559 23.1415 73.9905C22.7641 73.9012 22.4507 73.7971 22.1973 73.6798C21.9412 73.5624 21.7412 73.401 21.5918 73.197C21.4451 72.9943 21.3704 72.7396 21.3704 72.4368C21.3704 72.1461 21.4465 71.8913 21.6052 71.666C21.7639 71.4419 21.9893 71.2685 22.288 71.1485C22.5854 71.0285 22.9362 70.9671 23.3389 70.9671C23.659 70.9671 23.9377 71.0071 24.1725 71.0872C24.4072 71.1685 24.6019 71.2725 24.7579 71.4059C24.9113 71.5379 25.0273 71.678 25.0967 71.8233C25.1687 71.97 25.206 72.1101 25.206 72.2488C25.206 72.3755 25.1607 72.4915 25.07 72.5902C24.982 72.6929 24.8686 72.7449 24.7353 72.7449C24.6152 72.7449 24.5232 72.7129 24.4592 72.6515C24.3965 72.5902 24.3285 72.4915 24.2538 72.3528C24.1591 72.1554 24.0444 72.002 23.9111 71.8887C23.7777 71.778 23.563 71.7233 23.2656 71.7233C22.9935 71.7233 22.7708 71.7847 22.6041 71.9047C22.4374 72.0247 22.3533 72.1687 22.3533 72.3395C22.3533 72.4435 22.38 72.5342 22.4387 72.6115C22.496 72.6875 22.5747 72.7529 22.6748 72.8076C22.7734 72.8622 22.8748 72.9049 22.9775 72.9369C23.0815 72.9689 23.2509 73.0143 23.4856 73.073C23.7817 73.1436 24.0484 73.2197 24.2871 73.301C24.5272 73.385 24.7313 73.4877 24.898 73.6078C25.0673 73.7278 25.198 73.8772 25.2914 74.0599C25.3861 74.2412 25.4341 74.4653 25.4341 74.7307C25.4341 75.0494 25.3527 75.3348 25.1874 75.5869ZM49.3638 68.9266H21.4011C20.3862 68.9266 19.562 69.7535 19.562 70.7697V76.5938C19.562 77.6114 20.3862 78.4369 21.4011 78.4369H49.3638C50.3787 78.4369 51.2043 77.6114 51.2043 76.5938V70.7697C51.2043 69.7535 50.3787 68.9266 49.3638 68.9266Z" fill="#04CE78"/>
</g>
<path d="M34.5341 73.1384C34.6795 73.0864 34.7901 72.9917 34.8648 72.8516C34.9262 72.7516 34.9555 72.6383 34.9555 72.5142C34.9555 72.2488 34.8595 72.0741 34.6728 71.9861C34.6635 71.9821 34.6541 71.9794 34.6448 71.9741C34.4581 71.8954 34.1793 71.8554 33.8112 71.8554H32.9497V73.2131H33.9219C34.186 73.2131 34.3901 73.1891 34.5341 73.1384Z" fill="#04CE78"/>
<path d="M34.8875 74.1559C34.7021 74.0359 34.4234 73.9759 34.0526 73.9759H32.9497V75.5096H34.0886C34.6088 75.5096 34.9395 75.3736 35.0796 75.1015C35.1382 74.9975 35.1649 74.8734 35.1649 74.7307C35.1649 74.4653 35.0729 74.276 34.8875 74.1559Z" fill="#04CE78"/>
<path d="M5.77444 56.3677C5.77444 55.8943 6.15853 55.5088 6.63064 55.5088H13.0548C13.5283 55.5088 13.9111 55.8943 13.9111 56.3677V60.5394C13.9111 61.0128 13.5283 61.3969 13.0548 61.3969H6.63064C6.15853 61.3969 5.77444 61.0128 5.77444 60.5394V56.3677ZM23.1773 55.5088C24.8003 55.5088 26.1153 56.8278 26.1153 58.4535C26.1153 60.0793 24.8003 61.3969 23.1773 61.3969C21.5556 61.3969 20.2392 60.0793 20.2392 58.4535C20.2392 56.8278 21.5556 55.5088 23.1773 55.5088ZM31.3139 55.5088C32.937 55.5088 34.2519 56.8278 34.2519 58.4535C34.2519 60.0793 32.937 61.3969 31.3139 61.3969C29.6922 61.3969 28.3759 60.0793 28.3759 58.4535C28.3759 56.8278 29.6922 55.5088 31.3139 55.5088ZM37.0779 82.1872C37.0779 82.2739 37.0073 82.3433 36.9219 82.3433H3.10579C3.01911 82.3433 2.94976 82.2739 2.94976 82.1872V65.0205H37.0779V66.8889H40.016V55.0994C40.016 53.3897 38.629 52 36.9219 52H3.10579C1.39872 52 0.0117188 53.3897 0.0117188 55.0994V82.1872C0.0117188 83.897 1.39872 85.288 3.10579 85.288H36.9219C38.629 85.288 40.016 83.897 40.016 82.1872V80.4762H37.0779V82.1872Z" fill="#04CE78"/>
</svg>
