<svg width="72" height="86" viewBox="0 0 72 86" fill="none" xmlns="http://www.w3.org/2000/svg">
<mask id="mask0_38_8476" style="mask-type:luminance" maskUnits="userSpaceOnUse" x="0" y="0" width="72" height="86">
<path d="M0 0H71.9764V86H0V0Z" fill="white"/>
</mask>
<g mask="url(#mask0_38_8476)">
<circle cx="36.0698" cy="22.2107" r="10.8388" fill="#1F5FFF"/>
<path fill-rule="evenodd" clip-rule="evenodd" d="M24.6801 68.3919H5.53811C2.49486 68.3919 0.00341797 65.7056 0.00341797 62.4248V21.3833C0.00341797 18.1013 2.49486 15.415 5.53811 15.415H23.3298C22.6387 16.9541 22.1809 18.6374 22.0095 20.4088H5.40099C4.97635 20.4088 4.62912 20.7769 4.62912 21.2355V58.3423H45.1457L45.4863 65.6186C45.5383 66.7253 46.0459 67.7379 46.8542 68.3919H47.301V77.8732H55.7208C58.3151 77.8732 60.4394 79.7006 60.4394 81.9342V86H11.5406V81.9342C11.5406 79.7006 13.666 77.8732 16.2592 77.8732H24.6801V68.3919ZM48.6457 15.415H66.4385C69.4807 15.415 71.9721 18.1013 71.9721 21.3833V62.4248C71.9721 65.7056 69.4807 68.3919 66.4385 68.3919H61.7255C62.4586 67.2518 62.5637 65.7115 61.8781 64.4309L60.7545 62.3331L62.8158 61.0501C63.7414 60.4735 64.3596 59.4705 64.5011 58.3423H67.3464V21.2355C67.3464 20.7769 66.9992 20.4088 66.5801 20.4088H49.966C49.7946 18.6374 49.3379 16.9541 48.6457 15.415ZM44.7852 48.0033H18.3989C18.0583 48.0033 17.7819 47.7055 17.7819 47.3386V40.0981C17.7819 39.7312 18.0583 39.4333 18.3989 39.4333H53.5766C53.9172 39.4333 54.1936 39.7312 54.1936 40.0981V47.3386C54.1936 47.7055 53.9172 48.0033 53.5766 48.0033H53.3068L49.9992 45.697C48.9177 44.943 47.5354 44.906 46.4196 45.6005C45.5748 46.1259 44.9909 47.005 44.7852 48.0033ZM33.9591 1.40927C33.9591 0.631372 34.5441 0 35.2662 0C35.9872 0 36.5733 0.631372 36.5733 1.40927V5.68116C36.5733 6.45905 35.9872 7.09162 35.2662 7.09162C34.5441 7.09162 33.9591 6.45905 33.9591 5.68116V1.40927ZM24.6867 5.26064C24.3262 4.58757 24.5407 3.7239 25.1655 3.33555C25.7903 2.94601 26.5909 3.17711 26.9514 3.85137L28.932 7.55025C29.2936 8.22451 29.0791 9.08699 28.4543 9.47653C27.8295 9.86608 27.0289 9.63378 26.6684 8.96072L24.6867 5.26064ZM43.7745 3.07347C44.135 2.39921 44.9345 2.16811 45.5604 2.55765C46.1852 2.946 46.3997 3.80848 46.0381 4.48274L44.0576 8.18163C43.6971 8.85588 42.8964 9.08699 42.2717 8.69864C41.6469 8.30909 41.4323 7.44661 41.7928 6.77236L43.7745 3.07347ZM53.6485 63.5017L49.3224 66.1952C49.0769 66.3488 48.7739 66.3524 48.524 66.2059C48.2741 66.0594 48.1127 65.783 48.0983 65.4756L47.3198 48.8491C47.3043 48.5191 47.4613 48.207 47.7267 48.0426C47.9932 47.877 48.3217 47.8854 48.5793 48.0653L61.543 57.1058C61.7819 57.2726 61.9234 57.5609 61.9168 57.8682C61.909 58.1744 61.7542 58.4555 61.5087 58.6092L57.1827 61.3014L59.6133 65.8402C59.8389 66.2619 59.7051 66.8003 59.3136 67.0445L57.1949 68.3633C56.8034 68.6063 56.3036 68.4622 56.078 68.0405L53.6485 63.5017Z" fill="#04CE78"/>
<path d="M34.0818 14.9099C34.2764 14.8277 34.4755 14.7574 34.6801 14.7014V14.1832C34.6801 13.4053 35.2662 12.774 35.9883 12.774C36.7093 12.774 37.2954 13.4053 37.2954 14.1832V14.6859C38.66 15.0493 39.9073 16.019 40.5609 17.6963C40.8407 18.4134 40.5277 19.2402 39.862 19.5416C39.1974 19.8441 38.43 19.5058 38.1502 18.7887C37.5928 17.3603 36.1055 17.0816 35.0395 17.5331C34.4556 17.782 33.9734 18.28 34.0055 19.0198C34.0321 19.5868 34.3837 19.9001 34.7884 20.1134C35.2264 20.3445 35.7339 20.4719 36.2094 20.5565C38.326 20.9306 40.6295 21.9956 40.9369 24.7081V24.7093C41.2288 27.317 39.3378 28.8668 37.2954 29.3219V29.7984C37.2954 30.5775 36.7093 31.2088 35.9883 31.2088C35.2662 31.2088 34.6801 30.5775 34.6801 29.7984V29.3004C32.9671 28.8775 31.5074 27.6315 31.0496 25.6504C30.876 24.8951 31.3029 24.1291 32.0029 23.9409C32.7028 23.7539 33.4128 24.2137 33.5875 24.969C33.8662 26.1769 35.0118 26.6701 36.1055 26.6427C36.7071 26.6272 37.3783 26.47 37.8715 26.1031C38.1811 25.8731 38.3946 25.5324 38.3415 25.0488C38.2663 24.39 37.8383 24.0386 37.3551 23.8015C36.8652 23.5621 36.3079 23.431 35.7881 23.3393H35.7859C33.7092 22.9712 31.5152 21.8204 31.3946 19.158V19.1568C31.3018 17.1078 32.464 15.5961 34.0818 14.9099Z" fill="#04CE78"/>
</g>
<rect x="23.0605" y="4.93402" width="2.71088" height="6.93011" rx="1.35544" transform="rotate(-40.1993 23.0605 4.93402)" fill="#1F5FFF"/>
<rect x="31.9834" y="0.966675" width="2.71088" height="6.93011" rx="1.35544" transform="rotate(-20.8918 31.9834 0.966675)" fill="#1F5FFF"/>
<rect x="42.7441" y="1.77686" width="2.71088" height="6.93011" rx="1.35544" transform="rotate(12.6764 42.7441 1.77686)" fill="#1F5FFF"/>
<path d="M48.1529 65.5662L47.3533 48.686C47.3095 47.762 48.105 47.8864 48.5083 48.0641L61.657 57.3038C62.0835 57.8724 61.8347 58.3106 61.657 58.4587L57.126 61.3017L59.6136 66.0104C59.8979 66.3657 59.6136 66.81 59.4359 66.9876L57.126 68.498C56.7707 68.6401 56.3264 68.3203 56.1488 68.1426L53.6611 63.5228L49.219 66.2769C48.5793 66.4191 48.2417 65.8623 48.1529 65.5662Z" fill="#1F5FFF"/>
</svg>
