<svg width="76" height="77" viewBox="0 0 76 77" fill="none" xmlns="http://www.w3.org/2000/svg">
<mask id="mask0_37_8098" style="mask-type:luminance" maskUnits="userSpaceOnUse" x="11" y="0" width="53" height="46">
<path d="M11.7134 0H63.9473V45.8398H11.7134V0Z" fill="white"/>
</mask>
<g mask="url(#mask0_37_8098)">
<path d="M54.7683 0H20.8809V30.0176H11.7583L37.8246 45.6779L63.8923 30.0176H54.7683V0Z" fill="#04CE78"/>
</g>
<mask id="mask1_37_8098" style="mask-type:luminance" maskUnits="userSpaceOnUse" x="0" y="16" width="76" height="49">
<path d="M0 16.6608H75.6491V64.2117H0V16.6608Z" fill="white"/>
</mask>
<g mask="url(#mask1_37_8098)">
<path d="M70.409 16.9662H54.7683V30.0176V22.1868H70.409V56.1191H5.2404V22.1868H20.881V16.9662H5.2404C2.36134 16.9662 0.0268555 19.3035 0.0268555 22.1868V58.7294C0.0268555 61.6127 2.36134 63.95 5.2404 63.95H70.409C73.288 63.95 75.6225 61.6127 75.6225 58.7294V22.1868C75.6225 19.3035 73.288 16.9662 70.409 16.9662Z" fill="#1F5FFF"/>
</g>
<path d="M5.24023 56.1191H70.4088V22.1868H54.7682V30.0176H63.8922L37.8245 45.678L11.7582 30.0176H20.8809V22.1868H5.24023V56.1191Z" fill="#FFDDBA"/>
<mask id="mask2_37_8098" style="mask-type:luminance" maskUnits="userSpaceOnUse" x="0" y="71" width="76" height="6">
<path d="M0 71.7766H75.6491V77H0V71.7766Z" fill="white"/>
</mask>
<g mask="url(#mask2_37_8098)">
<path d="M0.0268555 71.7795C0.0268555 76.1051 3.52788 77.0001 7.84787 77.0001H67.8029C72.1215 77.0001 75.6225 76.1051 75.6225 71.7795H0.0268555Z" fill="#1F5FFF"/>
</g>
<path d="M24.7915 71.7794H50.8592L46.9487 63.95H28.702L24.7915 71.7794Z" fill="#1F5FFF"/>
<path d="M45.6455 13.0514L39.1289 9.13525C37.8245 13.0514 30.0049 13.0514 30.0049 13.0514C30.0049 17.3756 35.0608 20.8823 37.8245 20.8823C40.5896 20.8823 45.6455 17.3756 45.6455 13.0514Z" fill="#FFDDBA"/>
<path d="M39.1289 9.13531L45.6455 13.0514C45.6455 8.72582 44.3411 3.91614 37.8245 3.91614C31.3079 3.91614 30.0049 8.72582 30.0049 13.0514C30.0049 13.0514 37.8245 13.0514 39.1289 9.13531Z" fill="#854F09"/>
<path d="M27.3975 31.3221V26.1015C27.3975 23.2196 29.7319 20.8823 32.611 20.8823H43.0381C45.9171 20.8823 48.2516 23.2196 48.2516 26.1015V31.3221H27.3975Z" fill="#1F5FFF"/>
<path d="M65.847 47.6353H62.5894V44.3735H61.2863V47.6353H58.0273V48.9411H61.2863V52.2043H62.5894V48.9411H65.847V47.6353Z" fill="#1F5FFF"/>
<path d="M46.9485 63.95H28.7018L28.0503 65.2544H47.6L46.9485 63.95Z" fill="black" fill-opacity="0.1"/>
<path d="M37.8246 45.6779L16.1022 32.6279H11.7583L37.8246 48.2882L63.8923 32.6279H59.5484L37.8246 45.6779Z" fill="black" fill-opacity="0.1"/>
</svg>
